<svg xmlns="http://www.w3.org/2000/svg" xmlns:xlink="http://www.w3.org/1999/xlink" width="113" height="113" viewBox="0 0 113 113">
  <defs>
    <filter id="Path_982547" x="0" y="0" width="113" height="113" filterUnits="userSpaceOnUse">
      <feOffset dy="3" input="SourceAlpha"/>
      <feGaussianBlur stdDeviation="3" result="blur"/>
      <feFlood flood-opacity="0.161"/>
      <feComposite operator="in" in2="blur"/>
      <feComposite in="SourceGraphic"/>
    </filter>
  </defs>
  <g id="Group_1179317" data-name="Group 1179317" transform="translate(-12579.49 -3445.038)">
    <g id="Group_1179221" data-name="Group 1179221">
      <g id="Group_1178882" data-name="Group 1178882" transform="translate(11786 1955.603)">
        <g id="Group_1176922" data-name="Group 1176922" transform="translate(802.49 1495.435)">
          <g id="Group_1172322" data-name="Group 1172322" transform="translate(0 0)">
            <g id="Group_1164700" data-name="Group 1164700">
              <g id="Group_1160931" data-name="Group 1160931">
                <g id="Group_1160749" data-name="Group 1160749">
                  <g id="Group_1158891" data-name="Group 1158891">
                    <g id="Group_1157406" data-name="Group 1157406">
                      <g id="Group_1155793" data-name="Group 1155793">
                        <g id="Group_1154704" data-name="Group 1154704">
                          <g id="Group_1150790" data-name="Group 1150790">
                            <g id="Group_1154214" data-name="Group 1154214">
                              <g id="Group_1152583" data-name="Group 1152583">
                                <g id="Group_1146973" data-name="Group 1146973">
                                  <g id="Group_1146954" data-name="Group 1146954">
                                    <g transform="matrix(1, 0, 0, 1, -9, -6)" filter="url(#Path_982547)">
                                      <g id="Path_982547-2" data-name="Path 982547" transform="translate(9 6)" fill="#fbedfe">
                                        <path d="M 47.5000114440918 93.49987030029297 C 41.28938293457031 93.49987030029297 35.26534652709961 92.28384399414062 29.5951976776123 89.88558959960938 C 24.11773109436035 87.56881713867188 19.19814491271973 84.25183868408203 14.97310447692871 80.02680206298828 C 10.74805164337158 75.80176544189453 7.43107795715332 70.88218688964844 5.114304542541504 65.40472412109375 C 2.716038227081299 59.73458862304688 1.500011444091797 53.71054840087891 1.500011444091797 47.49993515014648 C 1.500011444091797 41.28932189941406 2.716038227081299 35.26528167724609 5.114304542541504 29.59514808654785 C 7.43107795715332 24.1176815032959 10.74805164337158 19.1981086730957 14.97310447692871 14.97306823730469 C 19.19814491271973 10.74802875518799 24.11773109436035 7.431055068969727 29.5951976776123 5.11428165435791 C 35.26534652709961 2.716028451919556 41.28938293457031 1.500001788139343 47.5000114440918 1.500001788139343 C 53.71063995361328 1.500001788139343 59.73467636108398 2.716028451919556 65.40482330322266 5.11428165435791 C 70.88229370117188 7.431055068969727 75.8018798828125 10.74802875518799 80.02691650390625 14.97306823730469 C 84.25196838378906 19.1981086730957 87.56894683837891 24.1176815032959 89.88571929931641 29.59514808654785 C 92.28398132324219 35.26528167724609 93.50001525878906 41.28932189941406 93.50001525878906 47.49993515014648 C 93.50001525878906 53.71054840087891 92.28398132324219 59.73458862304688 89.88571929931641 65.40472412109375 C 87.56894683837891 70.88218688964844 84.25196838378906 75.80176544189453 80.02691650390625 80.02680206298828 C 75.8018798828125 84.25183868408203 70.88229370117188 87.56881713867188 65.40482330322266 89.88558959960938 C 59.73467636108398 92.28384399414062 53.71063995361328 93.49987030029297 47.5000114440918 93.49987030029297 Z" stroke="none"/>
                                        <path d="M 47.5000114440918 3 C 41.49122619628906 3 35.66378021240234 4.1761474609375 30.17951965332031 6.495796203613281 C 24.880859375 8.7369384765625 20.12153625488281 11.94596862792969 16.03376770019531 16.03373718261719 C 11.94598388671875 20.12149047851562 8.736968994140625 24.88081359863281 6.495811462402344 30.17947387695312 C 4.176162719726562 35.66371917724609 3.000007629394531 41.49116516113281 3.000007629394531 47.49993515014648 C 3.000007629394531 53.50870513916016 4.176162719726562 59.33615112304688 6.495811462402344 64.82039642333984 C 8.736968994140625 70.11905670166016 11.94598388671875 74.87837982177734 16.03376770019531 78.96613311767578 C 20.12153625488281 83.05390167236328 24.880859375 86.26293182373047 30.17951965332031 88.50407409667969 C 35.66378021240234 90.82372283935547 41.49122619628906 91.99987030029297 47.5000114440918 91.99987030029297 C 53.50879669189453 91.99987030029297 59.33624267578125 90.82372283935547 64.82050323486328 88.50407409667969 C 70.11916351318359 86.26293182373047 74.87848663330078 83.05390167236328 78.96625518798828 78.96613311767578 C 83.05403900146484 74.87837982177734 86.2630615234375 70.11905670166016 88.50421142578125 64.82039642333984 C 90.82386016845703 59.33615112304688 92.00001525878906 53.50870513916016 92.00001525878906 47.49993515014648 C 92.00001525878906 41.49116516113281 90.82386016845703 35.66371917724609 88.50421142578125 30.17947387695312 C 86.2630615234375 24.88081359863281 83.05403900146484 20.12149047851562 78.96625518798828 16.03373718261719 C 74.87848663330078 11.94596862792969 70.11916351318359 8.7369384765625 64.82050323486328 6.495796203613281 C 59.33624267578125 4.1761474609375 53.50879669189453 3 47.5000114440918 3 M 47.5000114440918 0 C 73.73353576660156 0 95.00001525878906 21.26644134521484 95.00001525878906 47.49993515014648 C 95.00001525878906 73.73342895507812 73.73353576660156 94.99987030029297 47.5000114440918 94.99987030029297 C 21.26648712158203 94.99987030029297 7.62939453125e-06 73.73342895507812 7.62939453125e-06 47.49993515014648 C 7.62939453125e-06 21.26644134521484 21.26648712158203 0 47.5000114440918 0 Z" stroke="none" fill="#7b3289"/>
                                      </g>
                                    </g>
                                  </g>
                                </g>
                              </g>
                            </g>
                          </g>
                        </g>
                      </g>
                    </g>
                  </g>
                </g>
              </g>
            </g>
          </g>
        </g>
      </g>
      <g id="regulatory_11421910" transform="translate(12597.045 3449.638)">
        <g id="Group_1179220" data-name="Group 1179220" transform="translate(9.003 21.463)">
          <g id="Group_1179216" data-name="Group 1179216" transform="translate(0 0)">
            <path id="Path_1041618" data-name="Path 1041618" d="M21.787,28.464l35.923.1c-3.2,0-5.787,3.662-5.787,5.787s.221,1.94.714,2.792H16.776a5.789,5.789,0,0,1,5.011-8.683Z" transform="translate(-16 -28.464)" fill="#d1d1d6" fill-rule="evenodd"/>
            <path id="Path_1041619" data-name="Path 1041619" d="M103.805,75.424a6.958,6.958,0,0,0,6.958,6.958L74.84,82.27c-3.3-.01-5.711-3.429-5.711-6.846v-40a6.957,6.957,0,0,0-6.958-6.958l35.923.112c3.3.01,5.711,3.429,5.711,6.846v40Z" transform="translate(-56.385 -28.465)" fill="#eceff1" fill-rule="evenodd"/>
            <g id="Group_1179215" data-name="Group 1179215" transform="translate(5.787)">
              <path id="Path_1041620" data-name="Path 1041620" d="M103.8,75.423a6.958,6.958,0,0,0,6.958,6.958l-1.5,0a6.957,6.957,0,0,1-6.716-6.953v-40c0-3.417-2.411-6.836-5.711-6.846l-34.427-.107c-.08,0-.161,0-.242,0l35.923.112c3.3.01,5.711,3.429,5.711,6.846v40Z" transform="translate(-62.17 -28.464)" fill="#d1d1d6" fill-rule="evenodd"/>
              <path id="Path_1041621" data-name="Path 1041621" d="M199.163,398.016l-35.923-.1c3.2,0,5.787-3.662,5.787-5.787s-.221-1.94-.714-2.792h35.861a5.788,5.788,0,0,1-5.011,8.683Z" transform="translate(-150.571 -344.1)" fill="#d1d1d6" fill-rule="evenodd"/>
            </g>
          </g>
          <g id="Group_1179217" data-name="Group 1179217" transform="translate(40.585 4.77)">
            <path id="Path_1041622" data-name="Path 1041622" d="M346.927,82.4l1.556,4.1a.318.318,0,0,0,.287.209l4.38.213a.324.324,0,0,1,.187.577l-3.418,2.747a.318.318,0,0,0-.11.338l1.15,4.231a.324.324,0,0,1-.49.356l-3.669-2.4a.318.318,0,0,0-.355,0l-3.669,2.4a.324.324,0,0,1-.49-.356l1.15-4.231a.318.318,0,0,0-.11-.338L339.91,87.5a.324.324,0,0,1,.187-.577l4.38-.213a.318.318,0,0,0,.287-.209l1.556-4.1A.325.325,0,0,1,346.927,82.4Zm0-15.672,1.556,4.1a.318.318,0,0,0,.287.209l4.38.213a.324.324,0,0,1,.187.577l-3.418,2.747a.318.318,0,0,0-.11.338l1.15,4.231a.324.324,0,0,1-.49.356L346.8,77.1a.318.318,0,0,0-.355,0l-3.669,2.4a.324.324,0,0,1-.49-.356l1.15-4.231a.318.318,0,0,0-.11-.338l-3.418-2.747a.324.324,0,0,1,.187-.577l4.38-.213a.318.318,0,0,0,.287-.209l1.556-4.1A.325.325,0,0,1,346.927,66.726Z" transform="translate(-339.788 -66.519)" fill="#ffe177" fill-rule="evenodd"/>
            <path id="Path_1041623" data-name="Path 1041623" d="M364.639,82.4l1.556,4.1a.318.318,0,0,0,.287.209l4.38.213a.324.324,0,0,1,.187.577l-3.418,2.747a.318.318,0,0,0-.11.338l1.15,4.231a.324.324,0,0,1-.49.356l-.147-.1a.317.317,0,0,0,.04-.26l-1.15-4.231a.318.318,0,0,1,.11-.338l3.418-2.747a.324.324,0,0,0-.187-.577l-4.38-.213a.318.318,0,0,1-.287-.209l-1.556-4.1,0-.011a.325.325,0,0,1,.6.011Zm-.6,10.448-.121-.079a.318.318,0,0,0-.355,0l-3.522,2.306a.324.324,0,0,0,.451.1Zm.6-26.12,1.556,4.1a.318.318,0,0,0,.287.209l4.38.213a.324.324,0,0,1,.187.577l-3.418,2.747a.318.318,0,0,0-.11.338l1.15,4.231a.324.324,0,0,1-.49.356l-.147-.1a.317.317,0,0,0,.04-.26l-1.15-4.231a.318.318,0,0,1,.11-.338l3.418-2.747a.324.324,0,0,0-.187-.577l-4.38-.213a.318.318,0,0,1-.287-.209l-1.556-4.1,0-.011A.325.325,0,0,1,364.639,66.727Zm-.6,10.448-.121-.079a.318.318,0,0,0-.355,0L360.039,79.4a.324.324,0,0,0,.451.1Z" transform="translate(-357.501 -66.519)" fill="#ffd064" fill-rule="evenodd"/>
          </g>
          <g id="Group_1179218" data-name="Group 1179218" transform="translate(2.396 10.349)">
            <path id="Path_1041624" data-name="Path 1041624" d="M45.467,111.028l-10.348,4.435v8.783a12.543,12.543,0,0,0,10.348,12.3,12.543,12.543,0,0,0,10.348-12.3v-8.783Z" transform="translate(-35.119 -111.028)" fill="#8ac9fe" fill-rule="evenodd"/>
            <path id="Path_1041625" data-name="Path 1041625" d="M113.3,111.028l-.627.269,9.722,4.166v8.783a12.546,12.546,0,0,1-9.722,12.174c.207.047.416.09.627.127a12.543,12.543,0,0,0,10.348-12.3v-8.783Z" transform="translate(-102.956 -111.028)" fill="#60b7ff" fill-rule="evenodd"/>
          </g>
          <g id="Group_1179219" data-name="Group 1179219" transform="translate(5.483 29.592)">
            <path id="Path_1041626" data-name="Path 1041626" d="M63.976,276.523v-9.9a2.08,2.08,0,0,1,4.161,0v8.124a2.119,2.119,0,0,1,4.19.4,1.922,1.922,0,0,1,3.651.842v.312a1.877,1.877,0,0,1,3.383,1.121c0,4.751,0,5.446,0,8.714a4.761,4.761,0,0,1-.638,2.438,1.716,1.716,0,0,0-.215.846v1.9a.673.673,0,0,1-.672.672H65.884a.673.673,0,0,1-.672-.672v-1.9a1.679,1.679,0,0,0-.854-1.485l-2.111-1.23a4.067,4.067,0,0,1-2.179-3.135l-.324-3.646a3.278,3.278,0,0,1,3.513-3.408h.718Z" transform="translate(-59.744 -264.546)" fill="#f6dccd" fill-rule="evenodd"/>
            <path id="Path_1041627" data-name="Path 1041627" d="M114.376,275.78a1.862,1.862,0,0,1,.9-.229,1.884,1.884,0,0,1,1.879,1.878c0,4.751,0,5.446,0,8.714a4.761,4.761,0,0,1-.638,2.438,1.716,1.716,0,0,0-.215.846v1.9a.673.673,0,0,1-.672.672h-1.792a.673.673,0,0,0,.672-.672v-1.9a1.715,1.715,0,0,1,.215-.846,4.761,4.761,0,0,0,.638-2.438c0-3.267,0-3.963,0-8.714a1.883,1.883,0,0,0-.982-1.649Zm-4.26-.626A2.125,2.125,0,0,0,108,273.076a2.1,2.1,0,0,0-.9.2,2.125,2.125,0,0,1,1.222,1.878V276.5a.9.9,0,0,0,1.792,0Zm.831-.858a1.928,1.928,0,0,1,1.027,1.7v.949a.9.9,0,0,0,1.792,0V276a1.928,1.928,0,0,0-1.923-1.923,1.907,1.907,0,0,0-.9.223Zm-8-9.546a2.061,2.061,0,0,1,.9-.2,2.087,2.087,0,0,1,2.08,2.08v9.9a.9.9,0,0,1-1.792,0v-9.9A2.087,2.087,0,0,0,102.95,264.75Z" transform="translate(-97.534 -264.546)" fill="#f1cbbc" fill-rule="evenodd"/>
            <path id="Path_1041628" data-name="Path 1041628" d="M103.367,463.046h13.3v1.9a.673.673,0,0,1-.672.672H104.039a.673.673,0,0,1-.672-.672Z" transform="translate(-97.899 -438.165)" fill="#eceff1" fill-rule="evenodd"/>
            <path id="Path_1041629" data-name="Path 1041629" d="M190.449,463.046h1.792v1.948l0,.017,0,.017,0,.017,0,.017,0,.016,0,.016,0,.016,0,.016,0,.016-.005.016-.006.016-.006.015-.006.015-.013.03-.007.015-.008.014-.008.014-.017.028-.009.014-.009.013-.01.013-.01.013-.021.025-.022.024-.011.012-.012.011-.024.022-.025.021-.013.01-.013.01-.013.009-.014.009-.028.017-.014.008-.014.008-.015.007-.03.013-.015.006-.015.006-.016.005-.016.005-.016,0-.016,0-.016,0-.016,0-.016,0-.017,0-.017,0-.017,0-.017,0h-1.844a.673.673,0,0,0,.672-.672v-1.9Z" transform="translate(-173.478 -438.165)" fill="#d1d1d6" fill-rule="evenodd"/>
          </g>
        </g>
        <path id="Path_1041630" data-name="Path 1041630" d="M20.128,47.986,17.55,45.407a1,1,0,1,1,1.418-1.418l1.9,1.9,5.555-5.042a1,1,0,0,1,1.348,1.485L21.511,48.02a1.005,1.005,0,0,1-1.383-.034ZM27.8,30.873a1,1,0,0,1,1-1H45.308a1,1,0,1,1,0,2.005H28.8A1,1,0,0,1,27.8,30.873Zm35.586,43.5-28.5-.083a5.883,5.883,0,0,0,.225-1.642V67.7h32.67a4.786,4.786,0,0,1-4.392,6.678ZM32.247,77.5H20.957V75.937A2.7,2.7,0,0,0,19.6,73.584l-2.111-1.229A3.117,3.117,0,0,1,15.808,70l-.32-3.6c0-.088.006-.174.015-.26,0-.012,0-.024,0-.038.009-.073.018-.144.031-.213a.033.033,0,0,1,0-.011,2.245,2.245,0,0,1,2.174-1.821v3.416a1,1,0,1,0,2.005,0V53.135a1.078,1.078,0,0,1,2.156,0v8.123a1,1,0,0,0,1.983.212,1.116,1.116,0,0,1,2.207.212,1,1,0,0,0,1.9.423.919.919,0,0,1,1.747.4v.312a1,1,0,0,0,1.806.6.874.874,0,0,1,1.578.52V66.7h0v5.955a3.779,3.779,0,0,1-.51,1.947,2.536,2.536,0,0,0-.138.287.887.887,0,0,0-.043.111,2.786,2.786,0,0,0-.163.938V77.5ZM12.4,45.03a11.529,11.529,0,0,0,5.312,9.67V53.135a3.083,3.083,0,0,1,6.167,0v2.55a11.545,11.545,0,0,0,6.433-6.512,1.079,1.079,0,0,1,.04-.108,11.388,11.388,0,0,0,.74-4.034V36.909L21.748,32.9,12.4,36.909V45.03ZM10.4,29.144a4.786,4.786,0,0,1,4.394-6.678h.04a5.963,5.963,0,0,1,5.916,5.955v.723ZM50.71,22.577l-30.624-.094a7.937,7.937,0,0,1,2.665,5.937v2.73l9.741,4.175a1,1,0,0,1,.589.741H49.37a1,1,0,0,1,0,2.006H33.1v4.191H49.37a1,1,0,0,1,0,2.006H33.1v.761a13.38,13.38,0,0,1-.448,3.43H45.715a1,1,0,0,1,0,2.006H31.946a13.566,13.566,0,0,1-2.91,4.192H49.37a1,1,0,1,1,0,2.005H28.8a1,1,0,0,1-1-.933,13.469,13.469,0,0,1-3.921,2.089v.955a3.047,3.047,0,0,1,1.069-.192,3.13,3.13,0,0,1,2.536,1.311,2.91,2.91,0,0,1,3.724.963H49.37a1,1,0,0,1,0,2.006H34.9a2.851,2.851,0,0,1,.211,1.077v1.755H55.421V54.22l-2.294,1.5a1.327,1.327,0,0,1-2.008-1.458l1.034-3.8-3.071-2.468a1.327,1.327,0,0,1,.766-2.36l3.938-.192,1.4-3.683a1.366,1.366,0,0,1,.238-.4v-2.81l-2.294,1.5a1.327,1.327,0,0,1-2.008-1.458l1.034-3.8-3.071-2.469a1.326,1.326,0,0,1,.766-2.359l3.938-.192,1.3-3.422c-.631-1.92-2.183-3.763-4.374-3.771ZM57.346,30.9a1.328,1.328,0,0,0,1.176.855l2.594.127L59.092,33.5a1.326,1.326,0,0,0-.449,1.382l.681,2.507L57.15,35.971a1.31,1.31,0,0,0-.584-.206.882.882,0,0,0-.143-.012.894.894,0,0,0-.143.012,1.312,1.312,0,0,0-.584.206l-2.174,1.423.683-2.507a1.328,1.328,0,0,0-.449-1.382L51.73,31.878l2.6-.127A1.33,1.33,0,0,0,55.5,30.9l.921-2.428Zm1.176,16.527,2.594.127-2.025,1.627a1.329,1.329,0,0,0-.449,1.382l.681,2.507L57.15,51.644a1.316,1.316,0,0,0-.583-.207.927.927,0,0,0-.288,0,1.316,1.316,0,0,0-.583.207l-2.174,1.422.683-2.507a1.329,1.329,0,0,0-.449-1.382L51.73,47.55l2.6-.127a1.33,1.33,0,0,0,1.177-.855l.921-2.428.922,2.428a1.328,1.328,0,0,0,1.176.855ZM69.26,66.194a1,1,0,0,0-.867-.5H57.426V54.22l2.3,1.5a1.327,1.327,0,0,0,2.007-1.459l-1.034-3.8,3.072-2.468A1.327,1.327,0,0,0,63,45.633l-3.936-.192-1.4-3.683a1.3,1.3,0,0,0-.238-.4v-2.81l2.3,1.5a1.326,1.326,0,0,0,2.007-1.458l-1.034-3.8,3.072-2.468A1.327,1.327,0,0,0,63,29.962l-3.936-.192-1.4-3.684a1.316,1.316,0,0,0-.825-.79,6.8,6.8,0,0,0-6.124-4.725l-35.874-.11H14.79A6.791,6.791,0,0,0,8.911,30.649a1,1,0,0,0,.867.5H20.745L11,35.326a1,1,0,0,0-.608.921V45.03a13.545,13.545,0,0,0,7.318,11.983v5.023a4.228,4.228,0,0,0-4.057,3.087c-.011.032-.018.067-.025.1s-.019.07-.027.105c-.014.058-.025.117-.036.177,0,.011-.005.022-.008.034-.025.143-.045.29-.059.439v0c-.006.069-.01.138-.014.207,0,.008,0,.015,0,.021,0,.077-.005.155-.005.233a.857.857,0,0,0,0,.088l.325,3.646a5.048,5.048,0,0,0,2.673,3.913l2.111,1.23a.675.675,0,0,1,.356.619V78.5a1,1,0,0,0,1,1h13.3a1,1,0,0,0,1-1V76.3l29.129.084A6.791,6.791,0,0,0,69.26,66.194Z" fill="#242222" fill-rule="evenodd"/>
      </g>
    </g>
  </g>
</svg>
