<svg xmlns="http://www.w3.org/2000/svg" xmlns:xlink="http://www.w3.org/1999/xlink" width="113" height="113" viewBox="0 0 113 113">
  <defs>
    <filter id="Path_982547" x="0" y="0" width="113" height="113" filterUnits="userSpaceOnUse">
      <feOffset dy="3" input="SourceAlpha"/>
      <feGaussianBlur stdDeviation="3" result="blur"/>
      <feFlood flood-opacity="0.161"/>
      <feComposite operator="in" in2="blur"/>
      <feComposite in="SourceGraphic"/>
    </filter>
  </defs>
  <g id="Group_1179291" data-name="Group 1179291" transform="translate(-698.51 -3251.465)">
    <g id="Group_1179139" data-name="Group 1179139">
      <g id="Group_1178837" data-name="Group 1178837" transform="translate(707.51 3257.465)">
        <g id="Group_1176922" data-name="Group 1176922" transform="translate(0 0)">
          <g id="Group_1172322" data-name="Group 1172322">
            <g id="Group_1164700" data-name="Group 1164700">
              <g id="Group_1160931" data-name="Group 1160931">
                <g id="Group_1160749" data-name="Group 1160749">
                  <g id="Group_1158891" data-name="Group 1158891">
                    <g id="Group_1157406" data-name="Group 1157406">
                      <g id="Group_1155793" data-name="Group 1155793">
                        <g id="Group_1154704" data-name="Group 1154704">
                          <g id="Group_1150790" data-name="Group 1150790">
                            <g id="Group_1154214" data-name="Group 1154214">
                              <g id="Group_1152583" data-name="Group 1152583">
                                <g id="Group_1146973" data-name="Group 1146973">
                                  <g id="Group_1146954" data-name="Group 1146954">
                                    <g transform="matrix(1, 0, 0, 1, -9, -6)" filter="url(#Path_982547)">
                                      <g id="Path_982547-2" data-name="Path 982547" transform="translate(9 6)" fill="#fbedfe">
                                        <path d="M 47.5000114440918 93.49987030029297 C 41.28938293457031 93.49987030029297 35.26534652709961 92.28384399414062 29.5951976776123 89.88558959960938 C 24.11773109436035 87.56881713867188 19.19814491271973 84.25183868408203 14.97310447692871 80.02680206298828 C 10.74805164337158 75.80176544189453 7.43107795715332 70.88218688964844 5.114304542541504 65.40472412109375 C 2.716038227081299 59.73458862304688 1.500011444091797 53.71054840087891 1.500011444091797 47.49993515014648 C 1.500011444091797 41.28932189941406 2.716038227081299 35.26528167724609 5.114304542541504 29.59514808654785 C 7.43107795715332 24.1176815032959 10.74805164337158 19.1981086730957 14.97310447692871 14.97306823730469 C 19.19814491271973 10.74802875518799 24.11773109436035 7.431055068969727 29.5951976776123 5.11428165435791 C 35.26534652709961 2.716028451919556 41.28938293457031 1.500001788139343 47.5000114440918 1.500001788139343 C 53.71063995361328 1.500001788139343 59.73467636108398 2.716028451919556 65.40482330322266 5.11428165435791 C 70.88229370117188 7.431055068969727 75.8018798828125 10.74802875518799 80.02691650390625 14.97306823730469 C 84.25196838378906 19.1981086730957 87.56894683837891 24.1176815032959 89.88571929931641 29.59514808654785 C 92.28398132324219 35.26528167724609 93.50001525878906 41.28932189941406 93.50001525878906 47.49993515014648 C 93.50001525878906 53.71054840087891 92.28398132324219 59.73458862304688 89.88571929931641 65.40472412109375 C 87.56894683837891 70.88218688964844 84.25196838378906 75.80176544189453 80.02691650390625 80.02680206298828 C 75.8018798828125 84.25183868408203 70.88229370117188 87.56881713867188 65.40482330322266 89.88558959960938 C 59.73467636108398 92.28384399414062 53.71063995361328 93.49987030029297 47.5000114440918 93.49987030029297 Z" stroke="none"/>
                                        <path d="M 47.5000114440918 3 C 41.49122619628906 3 35.66378021240234 4.1761474609375 30.17951965332031 6.495796203613281 C 24.880859375 8.7369384765625 20.12153625488281 11.94596862792969 16.03376770019531 16.03373718261719 C 11.94598388671875 20.12149047851562 8.736968994140625 24.88081359863281 6.495811462402344 30.17947387695312 C 4.176162719726562 35.66371917724609 3.000007629394531 41.49116516113281 3.000007629394531 47.49993515014648 C 3.000007629394531 53.50870513916016 4.176162719726562 59.33615112304688 6.495811462402344 64.82039642333984 C 8.736968994140625 70.11905670166016 11.94598388671875 74.87837982177734 16.03376770019531 78.96613311767578 C 20.12153625488281 83.05390167236328 24.880859375 86.26293182373047 30.17951965332031 88.50407409667969 C 35.66378021240234 90.82372283935547 41.49122619628906 91.99987030029297 47.5000114440918 91.99987030029297 C 53.50879669189453 91.99987030029297 59.33624267578125 90.82372283935547 64.82050323486328 88.50407409667969 C 70.11916351318359 86.26293182373047 74.87848663330078 83.05390167236328 78.96625518798828 78.96613311767578 C 83.05403900146484 74.87837982177734 86.2630615234375 70.11905670166016 88.50421142578125 64.82039642333984 C 90.82386016845703 59.33615112304688 92.00001525878906 53.50870513916016 92.00001525878906 47.49993515014648 C 92.00001525878906 41.49116516113281 90.82386016845703 35.66371917724609 88.50421142578125 30.17947387695312 C 86.2630615234375 24.88081359863281 83.05403900146484 20.12149047851562 78.96625518798828 16.03373718261719 C 74.87848663330078 11.94596862792969 70.11916351318359 8.7369384765625 64.82050323486328 6.495796203613281 C 59.33624267578125 4.1761474609375 53.50879669189453 3 47.5000114440918 3 M 47.5000114440918 0 C 73.73353576660156 0 95.00001525878906 21.26644134521484 95.00001525878906 47.49993515014648 C 95.00001525878906 73.73342895507812 73.73353576660156 94.99987030029297 47.5000114440918 94.99987030029297 C 21.26648712158203 94.99987030029297 7.62939453125e-06 73.73342895507812 7.62939453125e-06 47.49993515014648 C 7.62939453125e-06 21.26644134521484 21.26648712158203 0 47.5000114440918 0 Z" stroke="none" fill="#7b3289"/>
                                      </g>
                                    </g>
                                  </g>
                                </g>
                              </g>
                            </g>
                          </g>
                        </g>
                      </g>
                    </g>
                  </g>
                </g>
              </g>
            </g>
          </g>
        </g>
      </g>
      <g id="document-collaboration_18091632" transform="translate(695.314 3249.974)">
        <g id="Group_1179138" data-name="Group 1179138" transform="translate(31.54 24.494)">
          <path id="Path_1041408" data-name="Path 1041408" d="M190.97,82.2h-9.857V40.735a3.065,3.065,0,0,0-2.978-3.129H163.93V33.759a3.065,3.065,0,0,1,2.978-3.129H190.97a3.065,3.065,0,0,1,2.978,3.129V79.074A3.064,3.064,0,0,1,190.97,82.2Z" transform="translate(-146.782 -30.63)" fill="#9a56a2" fill-rule="evenodd"/>
          <path id="Path_1041409" data-name="Path 1041409" d="M115.211,68.62H92.761L83.32,79.785v32.092a2.954,2.954,0,0,0,2.666,3.158h29.225a2.954,2.954,0,0,0,2.67-3.158v-40.1a2.951,2.951,0,0,0-2.67-3.156Z" transform="translate(-77.113 -63.464)" fill="#b5a5d0" fill-rule="evenodd"/>
          <path id="Path_1041410" data-name="Path 1041410" d="M100.351,68.62H92.21l-8.9,11.165V92h7.667c5.155,0,9.372-5.291,9.372-11.758V68.62Z" transform="translate(-77.104 -63.464)" fill="#a187bf" fill-rule="evenodd"/>
          <path id="Path_1041411" data-name="Path 1041411" d="M83.32,79.785h6.772a2.95,2.95,0,0,0,2.67-3.154V68.62Z" transform="translate(-77.113 -63.464)" fill="#92278f" fill-rule="evenodd"/>
          <path id="Path_1041412" data-name="Path 1041412" d="M209.166,111.182H196.7a.658.658,0,0,1-.654-.654v-4.664a.656.656,0,0,1,.654-.654h12.461a.655.655,0,0,1,.654.654v4.664A.658.658,0,0,1,209.166,111.182Z" transform="translate(-174.542 -95.087)" fill="#fff" fill-rule="evenodd"/>
          <path id="Path_1041413" data-name="Path 1041413" d="M261.81,192.61h12.939v3.074a2.827,2.827,0,1,0,0,5.655v3.99H271.09a3.019,3.019,0,0,1,.015.315,2.827,2.827,0,0,1-5.655,0,2.993,2.993,0,0,1,.019-.315H261.81Z" transform="translate(-231.377 -170.624)" fill="#46c2c8" fill-rule="evenodd"/>
          <path id="Path_1041414" data-name="Path 1041414" d="M263.35,192.61h12.732v3.074a2.827,2.827,0,1,0,0,5.655v.965C269.686,200.986,264.439,197.023,263.35,192.61Z" transform="translate(-232.708 -170.624)" fill="#aadee9" fill-rule="evenodd"/>
          <path id="Path_1041415" data-name="Path 1041415" d="M339.137,183.346a2.827,2.827,0,1,1,0-5.655v-3.074h4.247a2.827,2.827,0,0,1,5.655,0h3.036v12.719H339.136v-3.99Z" transform="translate(-295.765 -152.63)" fill="#fede42" fill-rule="evenodd"/>
          <path id="Path_1041416" data-name="Path 1041416" d="M362.36,174.607h3.54a2.827,2.827,0,0,1,5.655,0h3.036v10.815c-6.591-1.577-11.809-5.952-12.22-10.626C362.368,174.731,362.364,174.668,362.36,174.607Z" transform="translate(-318.279 -152.622)" fill="#fef167" fill-rule="evenodd"/>
          <path id="Path_1041417" data-name="Path 1041417" d="M109.805,343.519l8.261,3.458c3.874,1.623,4.9,4.4,1.458,6.121l14.055-5.1c5.021-1.82,7.264,2.409,2.177,4.922l-17.217,8.514a3.477,3.477,0,0,1-2.37.281l-12.427-2.751-7.441.227.058-9.98,10.368-5.551a3.488,3.488,0,0,1,3.078-.143Z" transform="translate(-88.331 -300.799)" fill="#f9b5b2" fill-rule="evenodd"/>
          <path id="Path_1041418" data-name="Path 1041418" d="M140.332,405.46c.05-.019-6.014,4.379-6.014,4.379l-11.88,5.583a2.555,2.555,0,0,1-1.6.193l-12.285-2.332-6.948.153.147-2.332,6.713-.176,12.835,2.181C128.24,411.743,133.623,408.03,140.332,405.46Z" transform="translate(-92.912 -354.584)" fill="#f598a2" fill-rule="evenodd"/>
          <path id="Path_1041419" data-name="Path 1041419" d="M40.125,354.13h3.764a2.545,2.545,0,0,1,2.535,2.535v11.473a2.542,2.542,0,0,1-2.535,2.531H40.125a2.539,2.539,0,0,1-2.535-2.531V356.665A2.543,2.543,0,0,1,40.125,354.13Z" transform="translate(-37.59 -310.221)" fill="#7bc8a1" fill-rule="evenodd"/>
          <path id="Path_1041420" data-name="Path 1041420" d="M42.619,354.13c.008.084.012.166.012.25v14.986a2.875,2.875,0,0,1-.312,1.3H40.125a2.475,2.475,0,0,1-2.535-2.4V356.531a2.478,2.478,0,0,1,2.535-2.4Z" transform="translate(-37.59 -310.221)" fill="#b5ddbd" fill-rule="evenodd"/>
        </g>
        <path id="Path_1041421" data-name="Path 1041421" d="M41.182,64.812a.95.95,0,1,1,0-1.9H49.55a.95.95,0,0,1,0,1.9Zm11.534,0a.95.95,0,0,1,0-1.9h6.067a.95.95,0,1,1,0,1.9ZM41.182,57.541a.948.948,0,1,1,0-1.9h3.5a.948.948,0,1,1,0,1.9Zm6.918,0a.948.948,0,1,1,0-1.9h6.918a.948.948,0,1,1,0,1.9Zm-6.918-7.268a.95.95,0,0,1,0-1.9h5.809a.95.95,0,1,1,0,1.9Zm9.431,0a.95.95,0,0,1,0-1.9h4.406a.95.95,0,0,1,0,1.9ZM34.076,67.452H36.8V40.815a.935.935,0,0,1,.266-.658l9.361-11.073c.008-.011.015-.019.023-.031h0a.312.312,0,0,1,.023-.031l.011-.011L46.492,29l0,0,.008-.008.008-.011a.171.171,0,0,0,.027-.027h0l.008-.008v0l.012-.008c.008-.008.019-.015.027-.023L46.6,28.9l.008,0,.011-.008.008-.008h0l.008-.008.008-.008.008,0,.011-.008.011-.008,0,0,.015-.008.012-.008h0l.008-.008.011-.008h0l.008,0h0l.011-.008,0,0,.011,0,.012-.008.011,0,.008,0,.015-.008h.008l.011,0,.008-.008.015,0h.008l.015-.008h0l.019-.008h0l.019-.008h0l.038-.011h.008l.019,0h0l.019,0h0l.019,0,.023,0c.015,0,.031,0,.046-.008h.623V27.609a4.139,4.139,0,0,1,1.139-2.863,3.836,3.836,0,0,1,2.789-1.216H75.728a3.836,3.836,0,0,1,2.789,1.216,4.139,4.139,0,0,1,1.139,2.863v15.9a3.78,3.78,0,0,1,5.987,2.024h2.208a.95.95,0,0,1,.95.95V59.2a.952.952,0,0,1-.95.95h-8.2V70.337a4.142,4.142,0,0,1,1.751.57A2.914,2.914,0,0,1,82.558,72.2a2.79,2.79,0,0,1,.166,1.735c-.258,1.212-1.3,2.527-3.339,3.532l-17.217,8.51a4.355,4.355,0,0,1-2.993.358L46.863,83.61l-5.821.176a3.5,3.5,0,0,1-.738,1.082,3.461,3.461,0,0,1-2.462,1.023H34.076A3.494,3.494,0,0,1,30.59,82.41h0V70.936h0a3.492,3.492,0,0,1,3.486-3.484Zm4.622.107a3.5,3.5,0,0,1,2.628,3.332l8.168-4.371a4.516,4.516,0,0,1,1.923-.539,4.459,4.459,0,0,1,1.959.354L61.64,69.8a8.692,8.692,0,0,1,3.078,2.028A3.783,3.783,0,0,1,65.754,73.9a2.789,2.789,0,0,1-.012.789l5.618-2.036V61.919c-.077.092-.157.181-.243.266a3.781,3.781,0,0,1-6.4-2.036H61.975a.95.95,0,0,1-.95-.95V46.479a.948.948,0,0,1,.95-.95h9.384V32.806a2.493,2.493,0,0,0-.558-1.617A1.535,1.535,0,0,0,69.64,30.6h-21.5v7.061A4.4,4.4,0,0,1,47.126,40.5a3.409,3.409,0,0,1-2.609,1.266H38.7Zm2.624,5.482v8.841l5.6-.17a.951.951,0,0,1,.231.023l12.427,2.751a2.671,2.671,0,0,0,.9.05,2.634,2.634,0,0,0,.847-.258l17.217-8.51c1.454-.719,2.174-1.535,2.324-2.227a.928.928,0,0,0-.046-.577,1.088,1.088,0,0,0-.419-.451,2.664,2.664,0,0,0-1.524-.315.882.882,0,0,1-.174.015H78.67a6.375,6.375,0,0,0-1.562.369l-14.052,5.1a.92.92,0,0,1-.635,0L52.151,74.1a.947.947,0,0,1,.623-1.789l9.877,3.452a3.241,3.241,0,0,0,.95-.789,1.151,1.151,0,0,0,.266-.85,1.938,1.938,0,0,0-.55-1.027,6.891,6.891,0,0,0-2.405-1.547l-8.265-3.464a2.68,2.68,0,0,0-1.151-.212,2.6,2.6,0,0,0-1.116.315Zm-3.481-3.689H34.076a1.6,1.6,0,0,0-1.12.466,1.579,1.579,0,0,0-.466,1.12h0V82.411h0a1.563,1.563,0,0,0,.466,1.116,1.579,1.579,0,0,0,1.12.466h3.764a1.59,1.59,0,0,0,1.585-1.581h0V70.937h0a1.587,1.587,0,0,0-1.585-1.584Zm35.419,2.617L76.467,70.8a8.574,8.574,0,0,1,1.292-.361V60.15h-4.5V71.969Zm1.655-26.44H77.76V27.622a2.248,2.248,0,0,0-.612-1.554,1.961,1.961,0,0,0-1.42-.623H51.666a1.952,1.952,0,0,0-1.416.623,2.248,2.248,0,0,0-.612,1.554V28.7h20a3.4,3.4,0,0,1,2.609,1.266,4.4,4.4,0,0,1,1.013,2.839V45.529Zm.951,12.719H86.9V47.429H84.818a.95.95,0,0,1-.95-.95,1.877,1.877,0,1,0-3.754,0,.953.953,0,0,1-.95.95h-3.3v2.124a.95.95,0,0,1-.95.95,1.877,1.877,0,1,0,0,3.754.953.953,0,0,1,.95.95v3.04Zm-1.9-10.819H62.924V58.248h2.709v0a.91.91,0,0,1,.1,0,.95.95,0,0,1,.839,1.046c0,.042-.008.077-.008.1a.565.565,0,0,0,0,.107,1.877,1.877,0,0,0,3.2,1.327,1.856,1.856,0,0,0,.55-1.327v-.1l0-.058a.959.959,0,0,1,.939-1.1h2.709V56.04a3.779,3.779,0,0,1,0-7.315Zm-7.8-5.891H53.7a1.61,1.61,0,0,1-1.6-1.6V35.271a1.61,1.61,0,0,1,1.6-1.6H66.164a1.589,1.589,0,0,1,1.131.47h0a1.6,1.6,0,0,1,.47,1.135v4.664a1.608,1.608,0,0,1-.47,1.135l-.081.069a1.584,1.584,0,0,1-1.053.4ZM54,39.638h11.87V35.564H54Zm-14.208.227h4.729a1.544,1.544,0,0,0,1.162-.589,2.513,2.513,0,0,0,.558-1.617V32.24Zm7.279-11.157c.015,0,.031,0,.046-.008" transform="translate(0)"/>
      </g>
    </g>
  </g>
</svg>
