<svg xmlns="http://www.w3.org/2000/svg" xmlns:xlink="http://www.w3.org/1999/xlink" width="108" height="108" viewBox="0 0 108 108">
  <defs>
    <filter id="Path_904820" x="0" y="0" width="108" height="108" filterUnits="userSpaceOnUse">
      <feOffset dy="3" input="SourceAlpha"/>
      <feGaussianBlur stdDeviation="3" result="blur"/>
      <feFlood flood-opacity="0.161"/>
      <feComposite operator="in" in2="blur"/>
      <feComposite in="SourceGraphic"/>
    </filter>
  </defs>
  <g id="Group_1179253" data-name="Group 1179253" transform="translate(-211.023 -999.124)">
    <g id="Group_1178464" data-name="Group 1178464" transform="translate(220.023 1005.124)">
      <g id="Group_1173585" data-name="Group 1173585" transform="translate(0 0)">
        <g id="Group_1173428" data-name="Group 1173428">
          <g id="Group_1171958" data-name="Group 1171958">
            <g id="Group_1167341" data-name="Group 1167341">
              <g id="Group_1166792" data-name="Group 1166792">
                <g transform="matrix(1, 0, 0, 1, -9, -6)" filter="url(#Path_904820)">
                  <g id="Path_904820-2" data-name="Path 904820" transform="translate(9 6)" fill="#fef9e7">
                    <path d="M 44.99999618530273 88.49999237060547 C 39.12687301635742 88.49999237060547 33.43022155761719 87.35006713867188 28.06829643249512 85.08216857910156 C 22.88852119445801 82.89130401611328 18.23629570007324 79.75457763671875 14.24084663391113 75.75914001464844 C 10.24540901184082 71.76369476318359 7.108683586120605 67.11146545410156 4.917821407318115 61.93169403076172 C 2.649921178817749 56.56976699829102 1.499996185302734 50.87311553955078 1.499996185302734 44.99999237060547 C 1.499996185302734 39.12686920166016 2.649921178817749 33.43021774291992 4.917821407318115 28.06829261779785 C 7.108683586120605 22.88851737976074 10.24540901184082 18.23630523681641 14.24084663391113 14.24085521697998 C 18.23629570007324 10.24540519714355 22.88852119445801 7.108692169189453 28.06829643249512 4.917829990386963 C 33.43022155761719 2.649929761886597 39.12687301635742 1.500004887580872 44.99999618530273 1.500004887580872 C 50.87311935424805 1.500004887580872 56.56977081298828 2.649929761886597 61.93169784545898 4.917829990386963 C 67.11147308349609 7.108692169189453 71.76369476318359 10.24540519714355 75.75914764404297 14.24085521697998 C 79.75458526611328 18.23630523681641 82.89131164550781 22.88851737976074 85.08216857910156 28.06829261779785 C 87.35007476806641 33.43021774291992 88.5 39.12686920166016 88.5 44.99999237060547 C 88.5 50.87311553955078 87.35007476806641 56.56976699829102 85.08216857910156 61.93169403076172 C 82.89131164550781 67.11146545410156 79.75458526611328 71.76369476318359 75.75914764404297 75.75914001464844 C 71.76369476318359 79.75457763671875 67.11147308349609 82.89130401611328 61.93169784545898 85.08216857910156 C 56.56977081298828 87.35006713867188 50.87311935424805 88.49999237060547 44.99999618530273 88.49999237060547 Z" stroke="none"/>
                    <path d="M 44.99999618530273 2.999992370605469 C 39.32870864868164 2.999992370605469 33.82865142822266 4.11004638671875 28.65262603759766 6.299331665039062 C 23.65165710449219 8.414566040039062 19.15968322753906 11.44333648681641 15.301513671875 15.30150604248047 C 11.44333648681641 19.15967559814453 8.414566040039062 23.65164947509766 6.299339294433594 28.65262222290039 C 4.110054016113281 33.82864761352539 2.999992370605469 39.32870483398438 2.999992370605469 44.99999237060547 C 2.999992370605469 50.67127990722656 4.110054016113281 56.17132186889648 6.299339294433594 61.34736633300781 C 8.414566040039062 66.34833526611328 11.44333648681641 70.84029388427734 15.301513671875 74.69846343994141 C 19.15968322753906 78.55663299560547 23.65165710449219 81.58540344238281 28.65262603759766 83.70063781738281 C 33.82865142822266 85.88992309570312 39.32870864868164 86.99997711181641 44.99999618530273 86.99997711181641 C 50.67128372192383 86.99997711181641 56.17134094238281 85.88992309570312 61.34736633300781 83.70063781738281 C 66.34834289550781 81.58540344238281 70.84030914306641 78.55663299560547 74.69847869873047 74.69846343994141 C 78.55665588378906 70.84029388427734 81.58542633056641 66.34833526611328 83.70065307617188 61.34736633300781 C 85.88993835449219 56.17132186889648 87 50.67127990722656 87 44.99999237060547 C 87 39.32870483398438 85.88993835449219 33.82864761352539 83.70065307617188 28.65262222290039 C 81.58542633056641 23.65164947509766 78.55665588378906 19.15967559814453 74.69847869873047 15.30150604248047 C 70.84030914306641 11.44333648681641 66.34834289550781 8.414566040039062 61.34736633300781 6.299331665039062 C 56.17134094238281 4.11004638671875 50.67128372192383 2.999992370605469 44.99999618530273 2.999992370605469 M 44.99999618530273 -7.62939453125e-06 C 69.85281372070312 -7.62939453125e-06 90 20.14717864990234 90 44.99999237060547 C 90 69.85279083251953 69.85281372070312 89.99997711181641 44.99999618530273 89.99997711181641 C 20.14717864990234 89.99997711181641 -7.62939453125e-06 69.85279083251953 -7.62939453125e-06 44.99999237060547 C -7.62939453125e-06 20.14717864990234 20.14717864990234 -7.62939453125e-06 44.99999618530273 -7.62939453125e-06 Z" stroke="none" fill="#887013"/>
                  </g>
                </g>
              </g>
            </g>
          </g>
        </g>
      </g>
      <g id="business-thinking_6446968" transform="translate(17.413 17.414)">
        <g id="Group_1178999" data-name="Group 1178999" transform="translate(0.89 0.889)">
          <g id="Group_1178982" data-name="Group 1178982" transform="translate(24.917 39.156)">
            <path id="Path_1040897" data-name="Path 1040897" d="M236.45,360l2.67,14.238H232L234.67,360Z" transform="translate(-232 -360)" fill="#ffeaa7"/>
          </g>
          <g id="Group_1178983" data-name="Group 1178983" transform="translate(25.356 35.596)">
            <path id="Path_1040898" data-name="Path 1040898" d="M242.183,329.315l-2.231,2.245h-1.78l-2.231-2.245a8.317,8.317,0,0,1,2.674-1.2l.447-.111.447.111A8.317,8.317,0,0,1,242.183,329.315Z" transform="translate(-235.94 -328)" fill="#fcd770"/>
          </g>
          <g id="Group_1178984" data-name="Group 1178984" transform="translate(0 3.56)">
            <path id="Path_1040899" data-name="Path 1040899" d="M24.018,48.9a12.4,12.4,0,0,0,1.354,5.653,5.339,5.339,0,0,1-7.583,2.53A5.337,5.337,0,0,1,9.8,52.895a5.337,5.337,0,0,1,0-7.991,5.337,5.337,0,0,1,7.99-4.187,5.339,5.339,0,0,1,7.583,2.53A12.407,12.407,0,0,0,24.018,48.9Z" transform="translate(-8 -40)" fill="#e6e9ed"/>
          </g>
          <g id="Group_1178985" data-name="Group 1178985" transform="translate(10.679 24.917)">
            <path id="Path_1040900" data-name="Path 1040900" d="M109.339,233.78a1.768,1.768,0,0,0,0,1.78,1.777,1.777,0,0,1-2.67,1.54,2.681,2.681,0,1,1,0-4.859,1.777,1.777,0,0,1,2.67,1.54Z" transform="translate(-104 -232)" fill="#e6e9ed"/>
          </g>
          <g id="Group_1178986" data-name="Group 1178986" transform="translate(29.367 31.507)">
            <path id="Path_1040901" data-name="Path 1040901" d="M287.128,298.889v-7.119h7.119v14.544a5.034,5.034,0,0,1-8.593,3.56l-3.866-3.866v7.119H274.67L272,298.889l2.231-2.245a8.305,8.305,0,0,1,2.218,2.245,18.256,18.256,0,0,0,3.348-7.649,15.941,15.941,0,0,1,7.052,7.094Z" transform="translate(-272 -291.24)" fill="#ff826e"/>
          </g>
          <g id="Group_1178987" data-name="Group 1178987" transform="translate(16.018 31.507)">
            <path id="Path_1040902" data-name="Path 1040902" d="M161.337,296.644l2.231,2.245-2.67,14.238H152a1.779,1.779,0,0,0,1.78-1.78V295.329a1.78,1.78,0,0,0-1.435-1.746,15.958,15.958,0,0,1,3.426-2.343,18.255,18.255,0,0,0,3.348,7.649A8.3,8.3,0,0,1,161.337,296.644Z" transform="translate(-152 -291.24)" fill="#ff826e"/>
          </g>
          <g id="Group_1178988" data-name="Group 1178988" transform="translate(28.477 30.257)">
            <path id="Path_1040903" data-name="Path 1040903" d="M272.688,281.25a18.255,18.255,0,0,1-3.348,7.649,8.309,8.309,0,0,0-4.892-3.448l-.447-.111A5.334,5.334,0,0,0,269.339,280,15.92,15.92,0,0,1,272.688,281.25Z" transform="translate(-264 -280)" fill="#fc6e51"/>
          </g>
          <g id="Group_1178989" data-name="Group 1178989" transform="translate(19.789 30.257)">
            <path id="Path_1040904" data-name="Path 1040904" d="M189.552,281.78a5.342,5.342,0,0,0,5.036,3.56l-.447.111a8.309,8.309,0,0,0-4.892,3.448,18.255,18.255,0,0,1-3.348-7.649,15.88,15.88,0,0,1,3.348-1.25A5.326,5.326,0,0,0,189.552,281.78Z" transform="translate(-185.9 -280)" fill="#fc6e51"/>
          </g>
          <g id="Group_1178990" data-name="Group 1178990" transform="translate(0 49.835)">
            <path id="Path_1040905" data-name="Path 1040905" d="M25.8,456v1.78a1.779,1.779,0,0,1-1.78,1.78H9.78A1.779,1.779,0,0,1,8,457.78V456Z" transform="translate(-8 -456)" fill="#aab2bd"/>
          </g>
          <g id="Group_1178991" data-name="Group 1178991" transform="translate(0 33.816)">
            <path id="Path_1040906" data-name="Path 1040906" d="M25.8,313.78v14.238H8V313.78A1.779,1.779,0,0,1,9.78,312H24.018a1.778,1.778,0,0,1,1.78,1.78Z" transform="translate(-8 -312)" fill="#ccd1d9"/>
          </g>
          <g id="Group_1178992" data-name="Group 1178992" transform="translate(5.339 39.156)">
            <path id="Path_1040907" data-name="Path 1040907" d="M62.852,363.2a1.334,1.334,0,0,1-1.068,2.136h-4.45a1.335,1.335,0,0,1-1.068-2.136l1.869-2.492a1.78,1.78,0,0,1,2.848,0Z" transform="translate(-56 -360)" fill="#69d6f4"/>
          </g>
          <g id="Group_1178993" data-name="Group 1178993" transform="translate(45.385 23.138)">
            <path id="Path_1040908" data-name="Path 1040908" d="M424.009,216.89v.89a1.779,1.779,0,0,1-1.78,1.78H416a2.67,2.67,0,0,0,2.67-2.67.89.89,0,0,0-.89-.89h5.339A.89.89,0,0,1,424.009,216.89Z" transform="translate(-416 -216)" fill="#f0d0b4"/>
          </g>
          <g id="Group_1178994" data-name="Group 1178994" transform="translate(46.275 16.018)">
            <path id="Path_1040909" data-name="Path 1040909" d="M427.56,153.78v5.339H424V153.78a1.78,1.78,0,1,1,3.56,0Z" transform="translate(-424 -152)" fill="#f0d0b4"/>
          </g>
          <g id="Group_1178995" data-name="Group 1178995" transform="translate(42.715 23.138)">
            <path id="Path_1040910" data-name="Path 1040910" d="M400.9,219.56V224.9H393.78l-1.182-1.773a3.561,3.561,0,0,1-.6-1.974V217.78a1.779,1.779,0,0,1,1.78-1.78h2.67a.89.89,0,0,1,.89.89,2.67,2.67,0,0,1-2.67,2.67Z" transform="translate(-392 -216)" fill="#f0d0b4"/>
          </g>
          <g id="Group_1178996" data-name="Group 1178996" transform="translate(23.441 32.037)">
            <path id="Path_1040911" data-name="Path 1040911" d="M218.73,296H228.8a5.342,5.342,0,0,1-10.071,0Z" transform="translate(-218.73 -296)" fill="#f0d0b4"/>
          </g>
          <g id="Group_1178997" data-name="Group 1178997" transform="translate(23.137 28.477)">
            <path id="Path_1040912" data-name="Path 1040912" d="M226.679,264v1.78a5.325,5.325,0,0,1-.3,1.78H216.3a5.325,5.325,0,0,1-.3-1.78V264h10.679Z" transform="translate(-216 -264)" fill="#ccd1d9"/>
          </g>
          <g id="Group_1178998" data-name="Group 1178998" transform="translate(16.018)">
            <path id="Path_1040913" data-name="Path 1040913" d="M168.018,36.476h-8.9a1.779,1.779,0,0,1-1.78-1.78V32.4a3.518,3.518,0,0,0-1.164-2.632,12.459,12.459,0,1,1,16.612-.042,3.605,3.605,0,0,0-1.21,2.674v2.3a1.779,1.779,0,0,1-1.78,1.78Z" transform="translate(-152 -7.999)" fill="#ffeaa7"/>
          </g>
        </g>
        <g id="Group_1179000" data-name="Group 1179000" transform="translate(0 -0.001)">
          <path id="Path_1040914" data-name="Path 1040914" d="M227.56,60.459a1.782,1.782,0,0,1-1.78-1.78H224a3.564,3.564,0,0,0,3.56,3.56v1.78h1.78v-1.78h3.56v-3.56a3.564,3.564,0,0,0-3.56-3.56h-1.78a1.782,1.782,0,0,1-1.78-1.78V51.56h3.56a1.782,1.782,0,0,1,1.78,1.78h1.78a3.564,3.564,0,0,0-3.56-3.56V48h-1.78v1.78H224v3.56a3.564,3.564,0,0,0,3.56,3.56h1.78a1.782,1.782,0,0,1,1.78,1.78v1.78Z" transform="translate(-199.083 -42.66)"/>
          <path id="Path_1040915" data-name="Path 1040915" d="M53.394,23.136h-1.78v-4.45a2.67,2.67,0,1,0-5.339,0v4.45h-.89a2.673,2.673,0,0,0-2.67,2.67v3.372a4.436,4.436,0,0,0,.747,2.468L44.5,33.195v3.57a16.819,16.819,0,0,0-8.9-6.3V30.1a2.674,2.674,0,0,0,1.78-2.517v-2.3a2.721,2.721,0,0,1,.915-2.012A13.348,13.348,0,1,0,20,3.842a13.5,13.5,0,0,0-1.741,2.1A6.231,6.231,0,0,0,10.679,4.16,6.227,6.227,0,0,0,1.841,8.928a6.225,6.225,0,0,0,0,8.838,6.227,6.227,0,0,0,8.838,4.768,6.231,6.231,0,0,0,7.579-1.791,13.346,13.346,0,0,0,2.234,2.574,2.629,2.629,0,0,1,.865,1.968v2.3a2.674,2.674,0,0,0,1.78,2.517v.365a16.925,16.925,0,0,0-6.18,3.349H2.67A2.673,2.673,0,0,0,0,36.485V52.5a2.673,2.673,0,0,0,2.67,2.67H40.936V49.312l2.346,2.346a5.924,5.924,0,0,0,10.113-4.189V28.323a2.674,2.674,0,0,0,1.78-2.517v-.89A1.782,1.782,0,0,0,53.394,23.136Zm-5.339-4.45a.89.89,0,0,1,1.78,0v4.45h-1.78ZM44.5,25.806a.891.891,0,0,1,.89-.89h2.67a1.782,1.782,0,0,1-1.78,1.78v1.78h5.339v3.56H45.861l-.918-1.377a2.661,2.661,0,0,1-.448-1.481Zm-10.679,4.45v.89a4.453,4.453,0,0,1-.09.89h-8.72a4.453,4.453,0,0,1-.09-.89v-.89ZM29.367,35.6a4.445,4.445,0,0,1-3.557-1.78h7.114A4.445,4.445,0,0,1,29.367,35.6ZM26.43,36.637a9.161,9.161,0,0,0-2.366,1.906A17.484,17.484,0,0,1,21.691,32.9a15.087,15.087,0,0,1,1.555-.6,6.247,6.247,0,0,0,3.184,4.34Zm2.786,4.3h.3l2.336,12.459H26.88Zm.671-1.78H28.847l-1.159-1.166a7.421,7.421,0,0,1,1.448-.528l.231-.058.231.058a7.42,7.42,0,0,1,1.448.528ZM32.3,36.637A6.248,6.248,0,0,0,35.488,32.3a15.057,15.057,0,0,1,1.555.6,17.484,17.484,0,0,1-2.374,5.646A9.164,9.164,0,0,0,32.3,36.637ZM13.349,21.357a4.446,4.446,0,0,1-2.224-.6l-.446-.258-.446.258a4.447,4.447,0,0,1-6.657-3.489l-.029-.357-.268-.237a4.446,4.446,0,0,1,0-6.659l.268-.237.029-.357a4.447,4.447,0,0,1,6.657-3.489l.446.258.446-.258A4.447,4.447,0,0,1,17.27,7.687,13.37,13.37,0,0,0,17.276,19a4.444,4.444,0,0,1-3.928,2.359Zm8.327.632a11.568,11.568,0,0,1,7.69-20.21h.168A11.568,11.568,0,0,1,37.1,21.95a4.5,4.5,0,0,0-1.5,3.335v2.3a.891.891,0,0,1-.89.89h-.89V21.357h-1.78v7.119h-1.78V23.136h-1.78v5.339H26.7V21.357h-1.78v7.119h-.89a.891.891,0,0,1-.89-.89v-2.3a4.41,4.41,0,0,0-1.461-3.3ZM2.67,35.6H16.908a.891.891,0,0,1,.89.89V49.833H1.78V36.485A.891.891,0,0,1,2.67,35.6Zm14.238,17.8H2.67a.891.891,0,0,1-.89-.89v-.89H17.8v.89A.891.891,0,0,1,16.908,53.393Zm1.9-18.781a15.118,15.118,0,0,1,1.258-.856,19.25,19.25,0,0,0,3.249,6.822l.755,1.006.7-1.046a7.416,7.416,0,0,1,1.395-1.56l1.353,1.362L25.069,53.393H19.425a2.657,2.657,0,0,0,.153-.89V36.485a2.661,2.661,0,0,0-.77-1.873Zm28.662,17A4.117,4.117,0,0,1,44.54,50.4l-3.6-3.6v-7.64h-1.78V53.393H33.665L31.218,40.34l1.353-1.362a7.416,7.416,0,0,1,1.395,1.56l.7,1.046.755-1.006a19.25,19.25,0,0,0,3.25-6.825,15.049,15.049,0,0,1,5.643,6.133l.184.368v6.019h1.78V33.815h5.339V47.469A4.149,4.149,0,0,1,47.47,51.613Zm5.924-25.807a.891.891,0,0,1-.89.89H49.356a3.537,3.537,0,0,0,.479-1.78h3.56Z" transform="translate(0 0.001)"/>
          <path id="Path_1040916" data-name="Path 1040916" d="M50.225,359.119h4.45a2.225,2.225,0,0,0,1.78-3.56l-1.869-2.492a2.67,2.67,0,0,0-4.272,0l-1.869,2.492a2.225,2.225,0,0,0,1.78,3.56Zm-.356-2.492,1.869-2.492a.89.89,0,0,1,1.424,0l1.869,2.492a.445.445,0,0,1-.356.712h-4.45a.445.445,0,0,1-.356-.712Z" transform="translate(-42.661 -312.844)"/>
          <path id="Path_1040917" data-name="Path 1040917" d="M98.67,231.119a2.661,2.661,0,0,0,.89-.154,3.563,3.563,0,1,0,0-6.812,3.527,3.527,0,0,0-.89,6.966Zm-.77-4.006a.874.874,0,0,1-.12-.444.891.891,0,0,1,.89-.89.873.873,0,0,1,.444.12l.446.258.446-.258a.875.875,0,0,1,.444-.12.891.891,0,0,1,.89.89.874.874,0,0,1-.12.444l-.258.446.258.446a.875.875,0,0,1,.12.444.891.891,0,0,1-.89.89.874.874,0,0,1-.444-.12l-.446-.259-.446.259a.874.874,0,0,1-.444.12.891.891,0,0,1-.89-.89.875.875,0,0,1,.12-.444l.258-.446Z" transform="translate(-85.321 -199.083)"/>
          <path id="Path_1040918" data-name="Path 1040918" d="M55.119,87.119h-1.78V81.78H51.56v5.339H49.78V83.56H48V88.9h8.9V80h-1.78Z" transform="translate(-42.661 -71.101)"/>
        </g>
      </g>
    </g>
  </g>
</svg>
