<svg xmlns="http://www.w3.org/2000/svg" xmlns:xlink="http://www.w3.org/1999/xlink" width="108" height="108" viewBox="0 0 108 108">
  <defs>
    <filter id="Path_904820" x="0" y="0" width="108" height="108" filterUnits="userSpaceOnUse">
      <feOffset dy="3" input="SourceAlpha"/>
      <feGaussianBlur stdDeviation="3" result="blur"/>
      <feFlood flood-opacity="0.161"/>
      <feComposite operator="in" in2="blur"/>
      <feComposite in="SourceGraphic"/>
    </filter>
  </defs>
  <g id="Group_1179282" data-name="Group 1179282" transform="translate(-200.522 -468)">
    <g id="Group_1179136" data-name="Group 1179136">
      <g id="Group_1178819" data-name="Group 1178819" transform="translate(209.522 474)">
        <g id="Group_1173585" data-name="Group 1173585" transform="translate(0 0)">
          <g id="Group_1173428" data-name="Group 1173428">
            <g id="Group_1171958" data-name="Group 1171958">
              <g id="Group_1167341" data-name="Group 1167341">
                <g id="Group_1166792" data-name="Group 1166792">
                  <g transform="matrix(1, 0, 0, 1, -9, -6)" filter="url(#Path_904820)">
                    <g id="Path_904820-2" data-name="Path 904820" transform="translate(9 6)" fill="#edf5fb">
                      <path d="M 44.99999618530273 88.49999237060547 C 39.12687301635742 88.49999237060547 33.43022155761719 87.35006713867188 28.06829643249512 85.08216857910156 C 22.88852119445801 82.89130401611328 18.23629570007324 79.75457763671875 14.24084663391113 75.75914001464844 C 10.24540901184082 71.76369476318359 7.108683586120605 67.11146545410156 4.917821407318115 61.93169403076172 C 2.649921178817749 56.56976699829102 1.499996185302734 50.87311553955078 1.499996185302734 44.99999237060547 C 1.499996185302734 39.12686920166016 2.649921178817749 33.43021774291992 4.917821407318115 28.06829261779785 C 7.108683586120605 22.88851737976074 10.24540901184082 18.23630523681641 14.24084663391113 14.24085521697998 C 18.23629570007324 10.24540519714355 22.88852119445801 7.108692169189453 28.06829643249512 4.917829990386963 C 33.43022155761719 2.649929761886597 39.12687301635742 1.500004887580872 44.99999618530273 1.500004887580872 C 50.87311935424805 1.500004887580872 56.56977081298828 2.649929761886597 61.93169784545898 4.917829990386963 C 67.11147308349609 7.108692169189453 71.76369476318359 10.24540519714355 75.75914764404297 14.24085521697998 C 79.75458526611328 18.23630523681641 82.89131164550781 22.88851737976074 85.08216857910156 28.06829261779785 C 87.35007476806641 33.43021774291992 88.5 39.12686920166016 88.5 44.99999237060547 C 88.5 50.87311553955078 87.35007476806641 56.56976699829102 85.08216857910156 61.93169403076172 C 82.89131164550781 67.11146545410156 79.75458526611328 71.76369476318359 75.75914764404297 75.75914001464844 C 71.76369476318359 79.75457763671875 67.11147308349609 82.89130401611328 61.93169784545898 85.08216857910156 C 56.56977081298828 87.35006713867188 50.87311935424805 88.49999237060547 44.99999618530273 88.49999237060547 Z" stroke="none"/>
                      <path d="M 44.99999618530273 2.999992370605469 C 39.32870864868164 2.999992370605469 33.82865142822266 4.11004638671875 28.65262603759766 6.299331665039062 C 23.65165710449219 8.414566040039062 19.15968322753906 11.44333648681641 15.301513671875 15.30150604248047 C 11.44333648681641 19.15967559814453 8.414566040039062 23.65164947509766 6.299339294433594 28.65262222290039 C 4.110054016113281 33.82864761352539 2.999992370605469 39.32870483398438 2.999992370605469 44.99999237060547 C 2.999992370605469 50.67127990722656 4.110054016113281 56.17132186889648 6.299339294433594 61.34736633300781 C 8.414566040039062 66.34833526611328 11.44333648681641 70.84029388427734 15.301513671875 74.69846343994141 C 19.15968322753906 78.55663299560547 23.65165710449219 81.58540344238281 28.65262603759766 83.70063781738281 C 33.82865142822266 85.88992309570312 39.32870864868164 86.99997711181641 44.99999618530273 86.99997711181641 C 50.67128372192383 86.99997711181641 56.17134094238281 85.88992309570312 61.34736633300781 83.70063781738281 C 66.34834289550781 81.58540344238281 70.84030914306641 78.55663299560547 74.69847869873047 74.69846343994141 C 78.55665588378906 70.84029388427734 81.58542633056641 66.34833526611328 83.70065307617188 61.34736633300781 C 85.88993835449219 56.17132186889648 87 50.67127990722656 87 44.99999237060547 C 87 39.32870483398438 85.88993835449219 33.82864761352539 83.70065307617188 28.65262222290039 C 81.58542633056641 23.65164947509766 78.55665588378906 19.15967559814453 74.69847869873047 15.30150604248047 C 70.84030914306641 11.44333648681641 66.34834289550781 8.414566040039062 61.34736633300781 6.299331665039062 C 56.17134094238281 4.11004638671875 50.67128372192383 2.999992370605469 44.99999618530273 2.999992370605469 M 44.99999618530273 -7.62939453125e-06 C 69.85281372070312 -7.62939453125e-06 90 20.14717864990234 90 44.99999237060547 C 90 69.85279083251953 69.85281372070312 89.99997711181641 44.99999618530273 89.99997711181641 C 20.14717864990234 89.99997711181641 -7.62939453125e-06 69.85279083251953 -7.62939453125e-06 44.99999237060547 C -7.62939453125e-06 20.14717864990234 20.14717864990234 -7.62939453125e-06 44.99999618530273 -7.62939453125e-06 Z" stroke="none" fill="#56a8dd"/>
                    </g>
                  </g>
                </g>
              </g>
            </g>
          </g>
        </g>
      </g>
      <g id="growth-strategy_17267436" transform="translate(218.071 481.132)">
        <path id="Path_1041362" data-name="Path 1041362" d="M43.183,111.47H24.309v5.948a2.357,2.357,0,0,1-2.35,2.35H16v30.9a1.435,1.435,0,0,0,1.431,1.431H43.183a1.435,1.435,0,0,0,1.431-1.431V112.9A1.435,1.435,0,0,0,43.183,111.47Z" transform="translate(-5.355 -90.592)" fill="#ecedff" fill-rule="evenodd"/>
        <path id="Path_1041363" data-name="Path 1041363" d="M24.309,111.47,16,119.768h5.959a2.357,2.357,0,0,0,2.35-2.35Z" transform="translate(-5.355 -90.592)" fill="#ccd6e3" fill-rule="evenodd"/>
        <path id="Path_1041364" data-name="Path 1041364" d="M0,0H25.017V6.427H0Z" transform="translate(36.801 31.52) rotate(-45)" fill="#9fe0ed"/>
        <path id="Path_1041365" data-name="Path 1041365" d="M430.654,16.936a3.223,3.223,0,0,1,0,4.544l-2.278,2.278-4.545-4.545,2.278-2.278A3.223,3.223,0,0,1,430.654,16.936Z" transform="translate(-369.337 -5.385)" fill="#aab0b7" fill-rule="evenodd"/>
        <path id="Path_1041366" data-name="Path 1041366" d="M456.335,309.382H460.6v20.065h-4.265Z" transform="translate(-398.345 -267.224)" fill="#9fe0ed"/>
        <path id="Path_1041367" data-name="Path 1041367" d="M242.462,416.771h4.265v8.519h-4.265Z" transform="translate(-207.468 -363.067)" fill="#ff6068"/>
        <path id="Path_1041368" data-name="Path 1041368" d="M384.933,388.084H389.2v11.6h-4.265Z" transform="translate(-334.62 -337.464)" fill="#fc934e"/>
        <path id="Path_1041369" data-name="Path 1041369" d="M313.7,355.234h4.265v15.135H313.7Z" transform="translate(-271.044 -308.146)" fill="#afe381"/>
        <g id="Group_1179135" data-name="Group 1179135" transform="translate(10 9.965)">
          <path id="Path_1041370" data-name="Path 1041370" d="M240.4,210.429l-2.278,6.822,6.822-2.278Z" transform="translate(-213.592 -188.875)" fill="#dcae59" fill-rule="evenodd"/>
          <path id="Path_1041371" data-name="Path 1041371" d="M18.309,22.432l-6.107,6.1h4.4a1.708,1.708,0,0,0,1.7-1.7ZM42.654,46.443h4.265a.645.645,0,0,1,.645.645V62.223a.645.645,0,0,1-.645.645H42.654a.645.645,0,0,1-.645-.645V47.088A.645.645,0,0,1,42.654,46.443Zm3.62,1.29H43.3V61.578h2.975V47.733Zm4.04,2.242h4.265a.645.645,0,0,1,.645.645v11.6a.645.645,0,0,1-.645.645H50.313a.645.645,0,0,1-.645-.645V50.62a.645.645,0,0,1,.645-.645Zm3.62,1.29H50.958V61.578h2.975V51.265Zm8.291-16.147a.642.642,0,0,1,.669.729L62.654,38.5a.643.643,0,1,1-1.281-.111l.1-1.1-8.607,7.424a.643.643,0,0,1-.69.1L44.83,41.42,39.9,44.452l0,17.771a.645.645,0,0,1-.645.645H34.994a.645.645,0,0,1-.645-.645v-.068H12.076A2.08,2.08,0,0,1,10,60.079v-30.9a.644.644,0,0,1,.225-.49l8.24-8.229a.641.641,0,0,1,.489-.225H37.828A2.08,2.08,0,0,1,39.9,22.309v5.2L56.317,11.095a3.858,3.858,0,1,1,5.457,5.457L41.806,36.519a.641.641,0,0,1-.3.17l-1.6.536v5.713l4.547-2.8h0a.643.643,0,0,1,.607-.036l7.284,3.359,8.173-7.05-1.15.008a.643.643,0,1,1-.005-1.285l2.866-.019ZM38.616,45.242v7.817H34.994a.645.645,0,0,0-.645.645v7.161H12.076a.789.789,0,0,1-.786-.786V29.821H16.6A3,3,0,0,0,19.6,26.827v-5.3H37.828a.79.79,0,0,1,.786.786V28.8l-2.265,2.265a.63.63,0,0,0-.17.3l-2.262,6.774a.644.644,0,0,0,.814.814l3.885-1.3v6.075l-1.828,1.124a.645.645,0,1,0,.675,1.1l1.152-.709Zm0,9.107H35.639v7.228h2.975ZM57.99,41.513a.645.645,0,0,0-.645.645V62.223a.645.645,0,0,0,.645.645h4.265a.645.645,0,0,0,.645-.645V42.158a.645.645,0,0,0-.645-.645Zm3.62,1.29H58.635V61.578H61.61ZM49.741,22.215a.645.645,0,1,1,.912.912L39.99,33.791l1.36,1.36L58.127,18.373,54.5,14.741,37.718,31.518l1.36,1.36ZM61.61,13.823a2.569,2.569,0,0,0-4.38-1.816l-1.822,1.821,3.632,3.632,1.821-1.822A2.56,2.56,0,0,0,61.61,13.823ZM37.085,32.711l-1.54,4.613,4.613-1.54-3.072-3.072Zm1.537,1.536L37.086,32.71ZM17.912,49.771l1.739,1.739-1.739,1.739a.645.645,0,1,0,.912.912l1.739-1.739L22.3,54.16a.645.645,0,1,0,.912-.912l-1.739-1.739,1.739-1.739a.645.645,0,1,0-.912-.912L20.563,50.6l-1.739-1.739a.645.645,0,1,0-.912.912Zm8.779-15.363,1.739,1.739-1.739,1.739a.645.645,0,1,0,.912.912l1.739-1.739L31.08,38.8a.645.645,0,1,0,.912-.912l-1.739-1.739,1.739-1.739a.645.645,0,1,0-.912-.912l-1.739,1.739L27.6,33.5a.645.645,0,1,0-.912.912Zm-1.739,7.678a3.744,3.744,0,0,1-3.744-3.745V36.717a2.84,2.84,0,1,0-1.29,0v1.624a5.035,5.035,0,0,0,5.034,5.035A3.744,3.744,0,0,1,28.7,47.121v3.818a2.84,2.84,0,1,0,1.29,0V47.12a5.035,5.035,0,0,0-5.035-5.035Zm4.39,10.069a1.55,1.55,0,1,0,1.549,1.55,1.55,1.55,0,0,0-1.549-1.55ZM20.563,32.4a1.55,1.55,0,1,0,1.55,1.55,1.55,1.55,0,0,0-1.55-1.55Z" transform="translate(-10 -9.965)" fill="#0b0a0a" fill-rule="evenodd"/>
        </g>
      </g>
    </g>
  </g>
</svg>
