<svg xmlns="http://www.w3.org/2000/svg" xmlns:xlink="http://www.w3.org/1999/xlink" width="113" height="113" viewBox="0 0 113 113">
  <defs>
    <filter id="Path_982547" x="0" y="0" width="113" height="113" filterUnits="userSpaceOnUse">
      <feOffset dy="3" input="SourceAlpha"/>
      <feGaussianBlur stdDeviation="3" result="blur"/>
      <feFlood flood-opacity="0.161"/>
      <feComposite operator="in" in2="blur"/>
      <feComposite in="SourceGraphic"/>
    </filter>
  </defs>
  <g id="Group_1179277" data-name="Group 1179277" transform="translate(-743.25 -2858.275)">
    <g id="Group_1179092" data-name="Group 1179092">
      <g id="Group_1178822" data-name="Group 1178822" transform="translate(0 1946.275)">
        <g id="Group_1177680" data-name="Group 1177680" transform="translate(752.25 918)">
          <g id="Group_1172010" data-name="Group 1172010">
            <g id="Group_1171046" data-name="Group 1171046">
              <g id="Group_1148525" data-name="Group 1148525">
                <g transform="matrix(1, 0, 0, 1, -9, -6)" filter="url(#Path_982547)">
                  <g id="Path_982547-2" data-name="Path 982547" transform="translate(9 6)" fill="#fbedfe">
                    <path d="M 47.5 93.5 C 41.28937149047852 93.5 35.26533508300781 92.28397369384766 29.59518623352051 89.88570404052734 C 24.11771965026855 87.56893157958984 19.19813346862793 84.25196075439453 14.97309303283691 80.02691650390625 C 10.74804019927979 75.80186462402344 7.431066513061523 70.88229370117188 5.114293098449707 65.40481567382812 C 2.716026782989502 59.73468017578125 1.5 53.71062850952148 1.5 47.5 C 1.5 41.28937149047852 2.716026782989502 35.26533508300781 5.114293098449707 29.59518623352051 C 7.431066513061523 24.11771965026855 10.74804019927979 19.19813346862793 14.97309303283691 14.97309303283691 C 19.19813346862793 10.74804019927979 24.11771965026855 7.431066513061523 29.59518623352051 5.114293098449707 C 35.26533508300781 2.716026782989502 41.28937149047852 1.5 47.5 1.5 C 53.71062850952148 1.5 59.73468017578125 2.716026782989502 65.40481567382812 5.114293098449707 C 70.88229370117188 7.431066513061523 75.80186462402344 10.74804019927979 80.02691650390625 14.97309303283691 C 84.25196075439453 19.19813346862793 87.56893157958984 24.11771965026855 89.88570404052734 29.59518623352051 C 92.28397369384766 35.26533508300781 93.5 41.28937149047852 93.5 47.5 C 93.5 53.71062850952148 92.28397369384766 59.73468017578125 89.88570404052734 65.40481567382812 C 87.56893157958984 70.88229370117188 84.25196075439453 75.80186462402344 80.02691650390625 80.02691650390625 C 75.80186462402344 84.25196075439453 70.88229370117188 87.56893157958984 65.40481567382812 89.88570404052734 C 59.73468017578125 92.28397369384766 53.71062850952148 93.5 47.5 93.5 Z" stroke="none"/>
                    <path d="M 47.5 3 C 41.49121475219727 3 35.66376876831055 4.176155090332031 30.17950439453125 6.495796203613281 C 24.88084411621094 8.736953735351562 20.12152099609375 11.94598388671875 16.03375244140625 16.03375244140625 C 11.94598388671875 20.12152099609375 8.736953735351562 24.88084411621094 6.495796203613281 30.17950439453125 C 4.176155090332031 35.66376876831055 3 41.49121475219727 3 47.5 C 3 53.50878524780273 4.176155090332031 59.33623123168945 6.495796203613281 64.82049560546875 C 8.736953735351562 70.11915588378906 11.94598388671875 74.87847900390625 16.03375244140625 78.96624755859375 C 20.12152099609375 83.05401611328125 24.88084411621094 86.26304626464844 30.17950439453125 88.50419616699219 C 35.66376876831055 90.82384490966797 41.49121475219727 92 47.5 92 C 53.50878524780273 92 59.33623123168945 90.82384490966797 64.82049560546875 88.50419616699219 C 70.11915588378906 86.26304626464844 74.87847900390625 83.05401611328125 78.96624755859375 78.96624755859375 C 83.05401611328125 74.87847900390625 86.26304626464844 70.11915588378906 88.50419616699219 64.82049560546875 C 90.82384490966797 59.33623123168945 92 53.50878524780273 92 47.5 C 92 41.49121475219727 90.82384490966797 35.66376876831055 88.50419616699219 30.17950439453125 C 86.26304626464844 24.88084411621094 83.05401611328125 20.12152099609375 78.96624755859375 16.03375244140625 C 74.87847900390625 11.94598388671875 70.11915588378906 8.736953735351562 64.82049560546875 6.495796203613281 C 59.33623123168945 4.176155090332031 53.50878524780273 3 47.5 3 M 47.5 0 C 73.7335205078125 0 95 21.2664794921875 95 47.5 C 95 73.7335205078125 73.7335205078125 95 47.5 95 C 21.2664794921875 95 0 73.7335205078125 0 47.5 C 0 21.2664794921875 21.2664794921875 0 47.5 0 Z" stroke="none" fill="#e25cfa"/>
                  </g>
                </g>
              </g>
            </g>
          </g>
        </g>
      </g>
      <g id="Group_1179091" data-name="Group 1179091">
        <g id="solution_2643513" transform="translate(768 2880)">
          <g id="Group_1179089" data-name="Group 1179089">
            <g id="Group_1179076" data-name="Group 1179076">
              <circle id="Ellipse_12534" data-name="Ellipse 12534" cx="26" cy="26" r="26" transform="translate(6 6)" fill="#e6e9ed"/>
            </g>
            <g id="Group_1179077" data-name="Group 1179077">
              <path id="Path_1041150" data-name="Path 1041150" d="M22,7.99V18H18V2h4Z" fill="#ff826e"/>
            </g>
            <g id="Group_1179078" data-name="Group 1179078">
              <path id="Path_1041151" data-name="Path 1041151" d="M14,6V18H10V6Z" fill="#ff826e"/>
            </g>
            <g id="Group_1179079" data-name="Group 1179079">
              <path id="Path_1041152" data-name="Path 1041152" d="M2,10H6v8H2Z" fill="#ff826e"/>
            </g>
            <g id="Group_1179080" data-name="Group 1179080">
              <path id="Path_1041153" data-name="Path 1041153" d="M18,56v4a2.006,2.006,0,0,1-2,2H4a2.006,2.006,0,0,1-2-2V56H3a3,3,0,0,0,0-6H2V46a2.006,2.006,0,0,1,2-2H7V43a2.961,2.961,0,0,1,.65-1.86,2.848,2.848,0,0,1,.23-.26A3,3,0,0,1,13,43v1h3a2.006,2.006,0,0,1,2,2v4H17a3,3,0,0,0,0,6Z" fill="#b4dd7f"/>
            </g>
            <g id="Group_1179081" data-name="Group 1179081">
              <path id="Path_1041154" data-name="Path 1041154" d="M62,36v2H54V36a3.995,3.995,0,0,1,3.97-4H58a4,4,0,0,1,4,4Z" fill="#aab2bd"/>
            </g>
            <g id="Group_1179082" data-name="Group 1179082">
              <path id="Path_1041155" data-name="Path 1041155" d="M62,56l-2.55,5.11a1.626,1.626,0,0,1-2.9,0L54,56h8Z" fill="#aab2bd"/>
            </g>
            <g id="Group_1179083" data-name="Group 1179083">
              <path id="Path_1041156" data-name="Path 1041156" d="M58,38h4V56H58Z" fill="#ff826e"/>
            </g>
            <g id="Group_1179084" data-name="Group 1179084">
              <path id="Path_1041157" data-name="Path 1041157" d="M58,38V56H54V38Z" fill="#b4dd7f"/>
            </g>
            <g id="Group_1179085" data-name="Group 1179085">
              <path id="Path_1041158" data-name="Path 1041158" d="M56,20v2a2.006,2.006,0,0,1-2,2H52a2.006,2.006,0,0,1-2-2V20h6Z" fill="#aab2bd"/>
            </g>
            <g id="Group_1179086" data-name="Group 1179086">
              <path id="Path_1041159" data-name="Path 1041159" d="M56,19.21V20H50v-.75a2.961,2.961,0,0,0-1.3-2.51,7.953,7.953,0,0,1-3.68-7.27c.01-.17.03-.34.05-.52a8,8,0,1,1,12.25,7.78A2.927,2.927,0,0,0,56,19.21Z" fill="#ffeaa7"/>
            </g>
            <g id="Group_1179087" data-name="Group 1179087">
              <circle id="Ellipse_12535" data-name="Ellipse 12535" cx="2" cy="2" r="2" transform="translate(51 8)" fill="#fcd770"/>
            </g>
            <g id="Group_1179088" data-name="Group 1179088">
              <path id="Path_1041160" data-name="Path 1041160" d="M44,32v3l-1.6.57a11.578,11.578,0,0,1-.53,1.26l.74,1.53-4.25,4.25-1.53-.74a11.577,11.577,0,0,1-1.26.53L35,44H29l-.57-1.6a11.578,11.578,0,0,1-1.26-.53l-1.53.74-4.25-4.25.74-1.53a11.578,11.578,0,0,1-.53-1.26L20,35V29l1.6-.57a11.577,11.577,0,0,1,.53-1.26l-.74-1.53,4.25-4.25,1.53.74a11.578,11.578,0,0,1,1.26-.53L29,20h6l.57,1.6a11.577,11.577,0,0,1,1.26.53l1.53-.74,4.25,4.25-.74,1.53a11.577,11.577,0,0,1,.53,1.26L44,29Zm-5,0a7,7,0,1,0-7,7A6.995,6.995,0,0,0,39,32Z" fill="#fcd770"/>
            </g>
          </g>
          <g id="Group_1179090" data-name="Group 1179090">
            <path id="Path_1041161" data-name="Path 1041161" d="M40,32a8,8,0,1,0-8,8A8.009,8.009,0,0,0,40,32Zm-8,6a6,6,0,1,1,6-6A6.006,6.006,0,0,1,32,38Z"/>
            <path id="Path_1041162" data-name="Path 1041162" d="M58.978,31.1A26.812,26.812,0,0,0,57,21.8V19.208a1.953,1.953,0,0,1,.861-1.639,9,9,0,0,0-5.906-16.51A9.059,9.059,0,0,0,44.24,7.938,27.008,27.008,0,0,0,23,6.54V1H17V17H15V5H9V17H7V9H1V19H8.336a26.921,26.921,0,0,0-1.78,22A3.959,3.959,0,0,0,6,43H4a3,3,0,0,0-3,3v5H3a2,2,0,0,1,0,4H1v5a3,3,0,0,0,3,3H16a3,3,0,0,0,3-3V55H17a2,2,0,0,1,0-4h2V46a3,3,0,0,0-3-3H14a4,4,0,0,0-4-4,3.945,3.945,0,0,0-1.84.47A24.857,24.857,0,0,1,7.044,33H19v2.708l1.826.645q.093.236.2.471l-.836,1.748,5.244,5.244,1.748-.836c.156.069.313.135.471.2L28.292,45H31V56.973a24.736,24.736,0,0,1-9.542-2.3l-.844,1.813A27.013,27.013,0,0,0,53,48.965v7.271l2.658,5.316a2.618,2.618,0,0,0,4.684,0L63,56.236V36a5.006,5.006,0,0,0-4.022-4.9ZM5,17H3V11H5ZM61,36v1H55V36a3,3,0,0,1,6,0ZM59,55V39h2V55Zm-4,0V39h2V55ZM43.174,27.648q-.093-.235-.2-.471l.836-1.748L38.57,20.185l-1.748.836c-.156-.069-.313-.135-.471-.2L35.708,19H33V7.033a24.973,24.973,0,0,1,11,3.045,8.933,8.933,0,0,0,4.156,7.505A1.964,1.964,0,0,1,49,19.25V22a3,3,0,0,0,3,3h2a2.97,2.97,0,0,0,1.811-.624A24.834,24.834,0,0,1,56.975,31H45V28.292ZM55,21v1a1,1,0,0,1-1,1H52a1,1,0,0,1-1-1V21ZM52,10a1,1,0,1,1,1,1A1,1,0,0,1,52,10Zm-5.94-.925a7.027,7.027,0,0,1,6.12-6.029A7.47,7.47,0,0,1,53.009,3a6.918,6.918,0,0,1,4.652,1.778,6.995,6.995,0,0,1-.881,11.109A3.9,3.9,0,0,0,55.013,19H54V12.816a3,3,0,1,0-2,0V19H50.985a3.9,3.9,0,0,0-1.748-3.1A6.972,6.972,0,0,1,46.06,9.075ZM19,3h2V17H19ZM11,7h2V17H11Zm1,36v2h4a1,1,0,0,1,1,1v3a4,4,0,0,0,0,8v3a1,1,0,0,1-1,1H4a1,1,0,0,1-1-1V57a4,4,0,0,0,0-8V46a1,1,0,0,1,1-1H8V43a2,2,0,0,1,4,0Zm7-14.708V31H7.035a24.884,24.884,0,0,1,3.622-12H23V8.677a24.774,24.774,0,0,1,8-1.652V19H28.292l-.645,1.826q-.235.093-.471.2l-1.748-.836L20.184,25.43l.836,1.748c-.069.156-.135.313-.2.471ZM29.217,41.608l-.458-.157a9.777,9.777,0,0,1-1.147-.478l-.435-.213-1.334.638L22.6,38.156l.638-1.334-.213-.435a9.951,9.951,0,0,1-.478-1.147l-.157-.458L21,34.292V29.707l1.392-.491.157-.458a9.777,9.777,0,0,1,.478-1.147l.213-.435L22.6,25.842,25.844,22.6l1.334.638.435-.213a9.951,9.951,0,0,1,1.147-.478l.458-.157.49-1.39h4.585l.491,1.392.458.157a9.777,9.777,0,0,1,1.147.478l.435.213,1.334-.638L41.4,25.844l-.638,1.334.213.435a9.951,9.951,0,0,1,.478,1.147l.157.458,1.39.49v4.585l-1.392.491-.157.458a9.777,9.777,0,0,1-.478,1.147l-.213.435.638,1.334L38.156,41.4l-1.334-.638-.435.213a9.951,9.951,0,0,1-1.147.478l-.458.157L34.292,43H29.707ZM33,56.968V45h2.708l.645-1.826q.236-.093.471-.2l1.748.836,5.244-5.244-.836-1.748c.069-.156.135-.313.2-.471L45,35.708V33h9.026A4.948,4.948,0,0,0,53,36v9.557A24.871,24.871,0,0,1,33,56.968Zm25.553,3.691a.641.641,0,0,1-1.1,0L55.618,57h4.764Z"/>
            <path id="Path_1041163" data-name="Path 1041163" d="M34.865,52.807l.271,1.981a23.031,23.031,0,0,0,13.689-7.1l-1.463-1.364a21.033,21.033,0,0,1-12.5,6.488Z"/>
            <path id="Path_1041164" data-name="Path 1041164" d="M48.943,44.409l1.613,1.183A23.144,23.144,0,0,0,51.922,43.5l-1.731-1A21.121,21.121,0,0,1,48.943,44.409Z"/>
          </g>
        </g>
      </g>
    </g>
  </g>
</svg>
