<svg xmlns="http://www.w3.org/2000/svg" xmlns:xlink="http://www.w3.org/1999/xlink" width="113" height="113" viewBox="0 0 113 113">
  <defs>
    <filter id="Path_982547" x="0" y="0" width="113" height="113" filterUnits="userSpaceOnUse">
      <feOffset dy="3" input="SourceAlpha"/>
      <feGaussianBlur stdDeviation="3" result="blur"/>
      <feFlood flood-opacity="0.161"/>
      <feComposite operator="in" in2="blur"/>
      <feComposite in="SourceGraphic"/>
    </filter>
  </defs>
  <g id="Group_1179264" data-name="Group 1179264" transform="translate(-1424.49 -2741.935)">
    <g id="Group_1179053" data-name="Group 1179053">
      <g id="Group_1178722" data-name="Group 1178722" transform="translate(631 1252.5)">
        <g id="Group_1176922" data-name="Group 1176922" transform="translate(802.49 1495.435)">
          <g id="Group_1172322" data-name="Group 1172322" transform="translate(0 0)">
            <g id="Group_1164700" data-name="Group 1164700">
              <g id="Group_1160931" data-name="Group 1160931">
                <g id="Group_1160749" data-name="Group 1160749">
                  <g id="Group_1158891" data-name="Group 1158891">
                    <g id="Group_1157406" data-name="Group 1157406">
                      <g id="Group_1155793" data-name="Group 1155793">
                        <g id="Group_1154704" data-name="Group 1154704">
                          <g id="Group_1150790" data-name="Group 1150790">
                            <g id="Group_1154214" data-name="Group 1154214">
                              <g id="Group_1152583" data-name="Group 1152583">
                                <g id="Group_1146973" data-name="Group 1146973">
                                  <g id="Group_1146954" data-name="Group 1146954">
                                    <g transform="matrix(1, 0, 0, 1, -9, -6)" filter="url(#Path_982547)">
                                      <g id="Path_982547-2" data-name="Path 982547" transform="translate(9 6)" fill="#fbedfe">
                                        <path d="M 47.5000114440918 93.49987030029297 C 41.28938293457031 93.49987030029297 35.26534652709961 92.28384399414062 29.5951976776123 89.88558959960938 C 24.11773109436035 87.56881713867188 19.19814491271973 84.25183868408203 14.97310447692871 80.02680206298828 C 10.74805164337158 75.80176544189453 7.43107795715332 70.88218688964844 5.114304542541504 65.40472412109375 C 2.716038227081299 59.73458862304688 1.500011444091797 53.71054840087891 1.500011444091797 47.49993515014648 C 1.500011444091797 41.28932189941406 2.716038227081299 35.26528167724609 5.114304542541504 29.59514808654785 C 7.43107795715332 24.1176815032959 10.74805164337158 19.1981086730957 14.97310447692871 14.97306823730469 C 19.19814491271973 10.74802875518799 24.11773109436035 7.431055068969727 29.5951976776123 5.11428165435791 C 35.26534652709961 2.716028451919556 41.28938293457031 1.500001788139343 47.5000114440918 1.500001788139343 C 53.71063995361328 1.500001788139343 59.73467636108398 2.716028451919556 65.40482330322266 5.11428165435791 C 70.88229370117188 7.431055068969727 75.8018798828125 10.74802875518799 80.02691650390625 14.97306823730469 C 84.25196838378906 19.1981086730957 87.56894683837891 24.1176815032959 89.88571929931641 29.59514808654785 C 92.28398132324219 35.26528167724609 93.50001525878906 41.28932189941406 93.50001525878906 47.49993515014648 C 93.50001525878906 53.71054840087891 92.28398132324219 59.73458862304688 89.88571929931641 65.40472412109375 C 87.56894683837891 70.88218688964844 84.25196838378906 75.80176544189453 80.02691650390625 80.02680206298828 C 75.8018798828125 84.25183868408203 70.88229370117188 87.56881713867188 65.40482330322266 89.88558959960938 C 59.73467636108398 92.28384399414062 53.71063995361328 93.49987030029297 47.5000114440918 93.49987030029297 Z" stroke="none"/>
                                        <path d="M 47.5000114440918 3 C 41.49122619628906 3 35.66378021240234 4.1761474609375 30.17951965332031 6.495796203613281 C 24.880859375 8.7369384765625 20.12153625488281 11.94596862792969 16.03376770019531 16.03373718261719 C 11.94598388671875 20.12149047851562 8.736968994140625 24.88081359863281 6.495811462402344 30.17947387695312 C 4.176162719726562 35.66371917724609 3.000007629394531 41.49116516113281 3.000007629394531 47.49993515014648 C 3.000007629394531 53.50870513916016 4.176162719726562 59.33615112304688 6.495811462402344 64.82039642333984 C 8.736968994140625 70.11905670166016 11.94598388671875 74.87837982177734 16.03376770019531 78.96613311767578 C 20.12153625488281 83.05390167236328 24.880859375 86.26293182373047 30.17951965332031 88.50407409667969 C 35.66378021240234 90.82372283935547 41.49122619628906 91.99987030029297 47.5000114440918 91.99987030029297 C 53.50879669189453 91.99987030029297 59.33624267578125 90.82372283935547 64.82050323486328 88.50407409667969 C 70.11916351318359 86.26293182373047 74.87848663330078 83.05390167236328 78.96625518798828 78.96613311767578 C 83.05403900146484 74.87837982177734 86.2630615234375 70.11905670166016 88.50421142578125 64.82039642333984 C 90.82386016845703 59.33615112304688 92.00001525878906 53.50870513916016 92.00001525878906 47.49993515014648 C 92.00001525878906 41.49116516113281 90.82386016845703 35.66371917724609 88.50421142578125 30.17947387695312 C 86.2630615234375 24.88081359863281 83.05403900146484 20.12149047851562 78.96625518798828 16.03373718261719 C 74.87848663330078 11.94596862792969 70.11916351318359 8.7369384765625 64.82050323486328 6.495796203613281 C 59.33624267578125 4.1761474609375 53.50879669189453 3 47.5000114440918 3 M 47.5000114440918 0 C 73.73353576660156 0 95.00001525878906 21.26644134521484 95.00001525878906 47.49993515014648 C 95.00001525878906 73.73342895507812 73.73353576660156 94.99987030029297 47.5000114440918 94.99987030029297 C 21.26648712158203 94.99987030029297 7.62939453125e-06 73.73342895507812 7.62939453125e-06 47.49993515014648 C 7.62939453125e-06 21.26644134521484 21.26648712158203 0 47.5000114440918 0 Z" stroke="none" fill="#7b3289"/>
                                      </g>
                                    </g>
                                  </g>
                                </g>
                              </g>
                            </g>
                          </g>
                        </g>
                      </g>
                    </g>
                  </g>
                </g>
              </g>
            </g>
          </g>
        </g>
      </g>
      <g id="file-management_12422964" transform="translate(1446.148 2760.966)">
        <g id="Group_1179043" data-name="Group 1179043" transform="translate(6.347 21.978)">
          <g id="Group_1179032" data-name="Group 1179032" transform="translate(0 0.063)">
            <path id="Path_1041050" data-name="Path 1041050" d="M62.691,36.3v34.72a3.339,3.339,0,0,1-3.362,3.362H10.062A3.339,3.339,0,0,1,6.7,71.016V43.926A3.074,3.074,0,0,1,7.67,41.6L15.622,33.9A3.388,3.388,0,0,1,17.95,33H59.394a3.27,3.27,0,0,1,3.3,3.3Z" transform="translate(-6.7 -32.997)" fill="#fff"/>
          </g>
          <g id="Group_1179033" data-name="Group 1179033">
            <path id="Path_1041051" data-name="Path 1041051" d="M18.209,32.9v9.246a1.945,1.945,0,0,1-1.94,1.94H6.7v-.194a3.074,3.074,0,0,1,.97-2.328l7.953-7.694a3.388,3.388,0,0,1,2.328-.905h.259Z" transform="translate(-6.7 -32.9)" fill="#474646"/>
          </g>
          <g id="Group_1179034" data-name="Group 1179034">
            <path id="Path_1041052" data-name="Path 1041052" d="M18.209,32.9v9.246a1.945,1.945,0,0,1-1.94,1.94H6.7v-.194a3.074,3.074,0,0,1,.97-2.328l.194-.194h5.625a1.945,1.945,0,0,0,1.94-1.94V34l.194-.129a3.388,3.388,0,0,1,2.328-.905c-.065-.065.259-.065.259-.065Z" transform="translate(-6.7 -32.9)" fill="#2d2c2c"/>
          </g>
          <g id="Group_1179035" data-name="Group 1179035" transform="translate(0 0)">
            <path id="Path_1041053" data-name="Path 1041053" d="M62.691,36.262v34.72a3.339,3.339,0,0,1-3.362,3.362H10.062A3.339,3.339,0,0,1,6.7,70.982V64.71H40.9A14.459,14.459,0,0,0,55.385,50.228V32.9h3.879a3.394,3.394,0,0,1,3.427,3.362Z" transform="translate(-6.7 -32.9)" fill="#e4e3ff"/>
          </g>
          <g id="Group_1179042" data-name="Group 1179042" transform="translate(6.078 17.263)">
            <g id="Group_1179038" data-name="Group 1179038" transform="translate(0 12.478)">
              <g id="Group_1179036" data-name="Group 1179036">
                <path id="Path_1041054" data-name="Path 1041054" d="M24.505,83.1a4.2,4.2,0,1,1-4.2-4.2A4.194,4.194,0,0,1,24.505,83.1Z" transform="translate(-16.1 -78.9)" fill="#f9b938"/>
              </g>
              <g id="Group_1179037" data-name="Group 1179037" transform="translate(0.259 0.97)">
                <path id="Path_1041055" data-name="Path 1041055" d="M24.647,83.633a4.194,4.194,0,0,1-4.2,4.2,4.151,4.151,0,0,1-2.974-1.228,4.936,4.936,0,0,1-.97-1.487,4.3,4.3,0,0,0,2.651.97,4.194,4.194,0,0,0,4.2-4.2,5.508,5.508,0,0,0-.259-1.487c.129.065.194.194.323.259A4.043,4.043,0,0,1,24.647,83.633Z" transform="translate(-16.5 -80.4)" fill="#ecb021"/>
              </g>
            </g>
            <g id="Group_1179041" data-name="Group 1179041">
              <g id="Group_1179039" data-name="Group 1179039">
                <path id="Path_1041056" data-name="Path 1041056" d="M24.505,63.8a4.2,4.2,0,1,1-4.2-4.2A4.194,4.194,0,0,1,24.505,63.8Z" transform="translate(-16.1 -59.6)" fill="#fc6559"/>
              </g>
              <g id="Group_1179040" data-name="Group 1179040" transform="translate(0.259 0.97)">
                <path id="Path_1041057" data-name="Path 1041057" d="M24.647,64.333a4.194,4.194,0,0,1-4.2,4.2,4.151,4.151,0,0,1-2.974-1.228,4.936,4.936,0,0,1-.97-1.487,4.3,4.3,0,0,0,2.651.97,4.194,4.194,0,0,0,4.2-4.2,5.508,5.508,0,0,0-.259-1.487c.129.065.194.194.323.259A4.151,4.151,0,0,1,24.647,64.333Z" transform="translate(-16.5 -61.1)" fill="#f05543"/>
              </g>
            </g>
          </g>
        </g>
        <g id="Group_1179044" data-name="Group 1179044" transform="translate(27.747 9.823)">
          <path id="Path_1041058" data-name="Path 1041058" d="M58.679,23.54a9.44,9.44,0,1,1-9.44-9.44,9.409,9.409,0,0,1,9.44,9.44Z" transform="translate(-39.8 -14.1)" fill="#fff"/>
        </g>
        <g id="Group_1179049" data-name="Group 1179049" transform="translate(27.747 9.823)">
          <g id="Group_1179045" data-name="Group 1179045" transform="translate(9.44)">
            <path id="Path_1041059" data-name="Path 1041059" d="M59.314,20.695l3.233-1.875A9.323,9.323,0,0,0,54.4,14.1v3.75A5.816,5.816,0,0,1,59.314,20.695Z" transform="translate(-54.4 -14.1)" fill="#a2a2f9"/>
          </g>
          <g id="Group_1179046" data-name="Group 1179046" transform="translate(14.353 4.72)">
            <path id="Path_1041060" data-name="Path 1041060" d="M65.233,21.4,62,23.275a5.371,5.371,0,0,1,.776,2.845,5.155,5.155,0,0,1-.453,2.2.89.89,0,0,0,.323,1.034l2.586,1.487a9.536,9.536,0,0,0,1.293-4.72,9.928,9.928,0,0,0-1.293-4.72Z" transform="translate(-62 -21.4)" fill="#fc6559"/>
          </g>
          <g id="Group_1179047" data-name="Group 1179047" transform="translate(1.293)">
            <path id="Path_1041061" data-name="Path 1041061" d="M49.947,17.85V14.1A9.323,9.323,0,0,0,41.8,18.82l3.233,1.875A5.653,5.653,0,0,1,49.947,17.85Z" transform="translate(-41.8 -14.1)" fill="#f7f363"/>
          </g>
          <g id="Group_1179048" data-name="Group 1179048" transform="translate(0 4.72)">
            <path id="Path_1041062" data-name="Path 1041062" d="M43.55,26.12a5.371,5.371,0,0,1,.776-2.845L41.093,21.4A9.536,9.536,0,0,0,39.8,26.12a9.075,9.075,0,0,0,1.293,4.72l2.586-1.487A.753.753,0,0,0,44,28.318,4.962,4.962,0,0,1,43.55,26.12Z" transform="translate(-39.8 -21.4)" fill="#f777f1"/>
          </g>
        </g>
        <g id="Group_1179050" data-name="Group 1179050" transform="translate(20.312 2.647)">
          <path id="Path_1041063" data-name="Path 1041063" d="M61.145,17.483l-2.457-.647a12.283,12.283,0,0,0-2-4.72l1.293-2.2a.878.878,0,0,0-.129-1.034l-1.94-1.94a.878.878,0,0,0-1.034-.129l-2.2,1.293a13.68,13.68,0,0,0-4.784-2l-.647-2.457A.837.837,0,0,0,46.4,3h-2.78a.768.768,0,0,0-.776.647L42.2,6.1a14.208,14.208,0,0,0-4.784,2l-2.2-1.293a.878.878,0,0,0-1.034.129l-1.94,1.94a.878.878,0,0,0-.129,1.034l1.293,2.2a13.885,13.885,0,0,0-2,4.72l-2.457.647a.837.837,0,0,0-.647.841V21.1a.893.893,0,0,0,.647.841l2.457.647a14.208,14.208,0,0,0,2,4.784l-1.293,2.2a.878.878,0,0,0,.129,1.034l1.94,1.94a.878.878,0,0,0,1.034.129l2.2-1.293a12.463,12.463,0,0,0,4.784,1.94l.647,2.457a.82.82,0,0,0,.776.647H46.4a.893.893,0,0,0,.841-.647l.647-2.457a14.9,14.9,0,0,0,4.784-1.94l2.2,1.293a.878.878,0,0,0,1.034-.129l1.94-1.94a.878.878,0,0,0,.129-1.034l-1.293-2.2a13.885,13.885,0,0,0,2-4.72l2.457-.647a.837.837,0,0,0,.647-.841v-2.78A.816.816,0,0,0,61.145,17.483ZM45.175,29.056a9.44,9.44,0,1,1,9.44-9.44,9.409,9.409,0,0,1-9.44,9.44Z" transform="translate(-28.3 -3)" fill="#e4e3ff"/>
        </g>
        <g id="Group_1179051" data-name="Group 1179051" transform="translate(34.73 16.806)">
          <path id="Path_1041064" data-name="Path 1041064" d="M69.027,25.223,67.8,24.9v2.586a.768.768,0,0,1-.647.776l-2.069.517a.7.7,0,0,0-.517.582,14.082,14.082,0,0,1-1.616,3.944.824.824,0,0,0,0,.776l1.1,1.81a.878.878,0,0,1-.129,1.034l-1.94,1.94a.878.878,0,0,1-1.034.129l-1.81-1.1a.824.824,0,0,0-.776,0,14.082,14.082,0,0,1-3.944,1.616.918.918,0,0,0-.582.517l-.517,2a.837.837,0,0,1-.841.647H50.6l.194.647a.82.82,0,0,0,.776.647h2.78a.893.893,0,0,0,.841-.647l.647-2.457a14.9,14.9,0,0,0,4.784-1.94l2.2,1.293a.878.878,0,0,0,1.034-.129l1.94-1.94a.878.878,0,0,0,.129-1.034l-1.293-2.2a13.885,13.885,0,0,0,2-4.72l2.457-.647a.837.837,0,0,0,.647-.841v-2.78a.9.9,0,0,0-.711-.711Z" transform="translate(-50.6 -24.9)" fill="#d0d0f7"/>
        </g>
        <g id="Group_1179052" data-name="Group 1179052" transform="translate(5.7 2)">
          <path id="Path_1041065" data-name="Path 1041065" d="M58.976,21.332h-4.72a1.3,1.3,0,0,0,.194-.711V17.84a1.4,1.4,0,0,0-1.164-1.422L51.217,15.9a14.112,14.112,0,0,0-1.746-4.2l1.1-1.875a1.554,1.554,0,0,0-.194-1.81l-1.94-1.94a1.563,1.563,0,0,0-1.875-.194l-1.875,1.1a12.607,12.607,0,0,0-4.2-1.746l-.517-2.069A1.515,1.515,0,0,0,38.545,2h-2.78a1.456,1.456,0,0,0-1.422,1.1l-.517,2.134a17.442,17.442,0,0,0-4.267,1.746l-1.81-1.1a1.566,1.566,0,0,0-1.81.194L24,8.013a1.469,1.469,0,0,0-.194,1.81L24.9,11.7a12.607,12.607,0,0,0-1.746,4.2l-2.069.517a1.458,1.458,0,0,0-1.164,1.422v2.78a1.3,1.3,0,0,0,.194.711H17.661a4.08,4.08,0,0,0-2.78,1.1L6.864,30.19A4.147,4.147,0,0,0,5.7,32.97V60.06a4.029,4.029,0,0,0,4.009,4.009H58.976a4.029,4.029,0,0,0,4.009-4.009V25.34a4.029,4.029,0,0,0-4.009-4.009ZM21.153,17.905c0-.065.065-.194.129-.194l2.457-.647a.549.549,0,0,0,.453-.517,12.686,12.686,0,0,1,1.875-4.526.7.7,0,0,0,0-.711l-1.293-2.2a.2.2,0,0,1,0-.259l1.94-1.94a.389.389,0,0,1,.259-.065l2.2,1.293a.7.7,0,0,0,.711,0,12.686,12.686,0,0,1,4.526-1.875.739.739,0,0,0,.517-.453l.647-2.522c.065.065.129,0,.194,0h2.78c.065,0,.194.065.194.129l.647,2.457a.549.549,0,0,0,.517.453,12.686,12.686,0,0,1,4.526,1.875.7.7,0,0,0,.711,0l2.134-1.228c.065-.065.194,0,.194,0l1.94,1.94a.2.2,0,0,1,0,.259l-1.293,2.2a.7.7,0,0,0,0,.711,13.189,13.189,0,0,1,1.875,4.526.739.739,0,0,0,.453.517l2.457.647c.065,0,.129.129.129.194v2.78c0,.065-.065.194-.129.194l-2,.517h-.388a.549.549,0,0,0-.453.517c-.065.259-.065.453-.129.647a10.749,10.749,0,0,1-1.746,3.815.7.7,0,0,0,0,.711l1.293,2.2c.065.065,0,.194-.065.259l-1.94,1.94c-.065.065-.129.065-.259,0l-2.2-1.293a.7.7,0,0,0-.711,0,12.686,12.686,0,0,1-4.526,1.875.739.739,0,0,0-.517.453l-.647,2.457c0,.065-.065.129-.194.129h-2.78q-.1,0-.194-.194l-.647-2.457a.549.549,0,0,0-.517-.453,12.686,12.686,0,0,1-4.526-1.875.919.919,0,0,0-.388-.129.485.485,0,0,0-.323.065l-2.2,1.293c-.065.065-.194,0-.259-.065l-1.94-1.94a.2.2,0,0,1,0-.259l1.293-2.2a.7.7,0,0,0,0-.711,13.2,13.2,0,0,1-1.746-3.879c-.065-.194-.129-.453-.194-.647a.739.739,0,0,0-.453-.517l-.453-.129-2-.517c-.065,0-.129-.065-.129-.194.194.323.194-2.457.194-2.457ZM7.769,31.095,15.722,23.4a2.683,2.683,0,0,1,1.487-.711v8.534a1.3,1.3,0,0,1-1.293,1.293H7.058a2.017,2.017,0,0,1,.711-1.422ZM61.691,60.06a2.732,2.732,0,0,1-2.716,2.716H9.709A2.732,2.732,0,0,1,6.993,60.06V33.81h8.922A2.594,2.594,0,0,0,18.5,31.224v-8.6h4.591a14.112,14.112,0,0,0,1.746,4.2l-1.1,1.875a1.554,1.554,0,0,0,.194,1.81l1.94,1.94a1.482,1.482,0,0,0,1.81.259l1.875-1.1a12.4,12.4,0,0,0,4.267,1.746l.517,2.069a1.515,1.515,0,0,0,1.422,1.164h2.78a1.4,1.4,0,0,0,1.422-1.164l.517-2.069a17.442,17.442,0,0,0,4.267-1.746l1.81,1.1a1.46,1.46,0,0,0,1.81-.194l1.94-1.94a1.47,1.47,0,0,0,.259-1.81l-1.1-1.875a12.607,12.607,0,0,0,1.746-4.2h7.759a2.732,2.732,0,0,1,2.716,2.716Z" transform="translate(-5.7 -2)" fill="#1b1b1b"/>
          <path id="Path_1041066" data-name="Path 1041066" d="M65.749,62.3h-26.7a.647.647,0,0,0,0,1.293h26.7a.611.611,0,0,0,.647-.647.648.648,0,0,0-.647-.647Z" transform="translate(-17.258 -23.313)" fill="#1b1b1b"/>
          <path id="Path_1041067" data-name="Path 1041067" d="M39.047,69.293H55.081a.647.647,0,1,0,0-1.293H39.047a.611.611,0,0,0-.647.647.648.648,0,0,0,.647.647Z" transform="translate(-17.258 -25.328)" fill="#1b1b1b"/>
          <path id="Path_1041068" data-name="Path 1041068" d="M65.749,81.5h-26.7a.647.647,0,1,0,0,1.293h26.7a.611.611,0,0,0,.647-.647A.648.648,0,0,0,65.749,81.5Z" transform="translate(-17.258 -30.099)" fill="#1b1b1b"/>
          <path id="Path_1041069" data-name="Path 1041069" d="M53.465,87.2H39.047a.647.647,0,0,0,0,1.293H53.465a.611.611,0,0,0,.647-.647A.648.648,0,0,0,53.465,87.2Z" transform="translate(-17.258 -32.114)" fill="#1b1b1b"/>
          <path id="Path_1041070" data-name="Path 1041070" d="M24.8,78.576l-1.164.97a4.814,4.814,0,1,0,1.164,3.1,5.062,5.062,0,0,0-.453-2l1.293-1.1a.642.642,0,0,0-.841-.97ZM23.311,81.55a3.661,3.661,0,0,1,.194,1.164,3.556,3.556,0,1,1-3.556-3.556,3.536,3.536,0,0,1,2.716,1.293l-2.651,2.263-.905-1.034a.642.642,0,1,0-.97.841L19.5,84.007a.734.734,0,0,0,.517.194,1.2,1.2,0,0,0,.453-.129Z" transform="translate(-9.022 -28.791)" fill="#1b1b1b"/>
          <path id="Path_1041071" data-name="Path 1041071" d="M24.8,59.376l-1.164.97a4.814,4.814,0,1,0,1.164,3.1,5.062,5.062,0,0,0-.453-2l1.293-1.1a.642.642,0,0,0-.841-.97ZM23.311,62.35a3.382,3.382,0,0,1,.194,1.164,3.556,3.556,0,1,1-3.556-3.556,3.536,3.536,0,0,1,2.716,1.293l-2.651,2.263-.905-1.034a.642.642,0,0,0-.97.841L19.5,64.807a.734.734,0,0,0,.517.194,1.2,1.2,0,0,0,.453-.129Z" transform="translate(-9.022 -22.005)" fill="#1b1b1b"/>
          <path id="Path_1041072" data-name="Path 1041072" d="M48.886,33.272A10.086,10.086,0,1,0,38.8,23.186,10.1,10.1,0,0,0,48.886,33.272ZM40.093,23.186A8.5,8.5,0,0,1,41,19.372L43.132,20.6a6.039,6.039,0,0,0-.582,2.586,5.8,5.8,0,0,0,.517,2.457.124.124,0,0,1-.065.194c-.065.065-2.134,1.228-2,1.164A7.9,7.9,0,0,1,40.093,23.186Zm8.793,8.793A8.682,8.682,0,0,1,41.645,28.1l2-1.164a1.444,1.444,0,0,0,.647-1.681,4.791,4.791,0,0,1-.453-2.069,5.043,5.043,0,1,1,10.086,0,5,5,0,0,1-.453,2.069,1.444,1.444,0,0,0,.647,1.681l2,1.164a8.7,8.7,0,0,1-7.241,3.879ZM56.774,27c-.065,0-2.134-1.228-2-1.164-.065-.065-.129-.129-.065-.194a6.436,6.436,0,0,0,.517-2.457A5.833,5.833,0,0,0,54.64,20.6l2.134-1.228a8.3,8.3,0,0,1,.905,3.815A8.708,8.708,0,0,1,56.774,27Zm-.647-8.728L53.994,19.5a6.51,6.51,0,0,0-4.461-2.586V14.458A8.7,8.7,0,0,1,56.128,18.272Zm-7.953-3.815.065,2.457A6.377,6.377,0,0,0,43.778,19.5l-2.134-1.228a8.471,8.471,0,0,1,6.53-3.815Z" transform="translate(-17.399 -5.923)" fill="#1b1b1b"/>
          <path id="Path_1041073" data-name="Path 1041073" d="M54.5,24.142l-.711.97a1.79,1.79,0,0,0-.582-.065,2,2,0,1,0,2,2,1.805,1.805,0,0,0-.388-1.164l.711-.97a.684.684,0,0,0-.129-.905A.59.59,0,0,0,54.5,24.142ZM53.269,27.7a.711.711,0,0,1,0-1.422.919.919,0,0,1,.388.129h.065a.63.63,0,0,1,.259.582A.764.764,0,0,1,53.269,27.7Z" transform="translate(-21.782 -9.724)" fill="#1b1b1b"/>
          <path id="Path_1041074" data-name="Path 1041074" d="M54.721,36.3H51.747a.647.647,0,1,0,0,1.293h2.974a.611.611,0,0,0,.647-.647A.648.648,0,0,0,54.721,36.3Z" transform="translate(-21.747 -14.123)" fill="#1b1b1b"/>
        </g>
      </g>
    </g>
  </g>
</svg>
