<svg xmlns="http://www.w3.org/2000/svg" xmlns:xlink="http://www.w3.org/1999/xlink" width="113" height="113" viewBox="0 0 113 113">
  <defs>
    <filter id="Path_982547" x="0" y="0" width="113" height="113" filterUnits="userSpaceOnUse">
      <feOffset dy="3" input="SourceAlpha"/>
      <feGaussianBlur stdDeviation="3" result="blur"/>
      <feFlood flood-opacity="0.161"/>
      <feComposite operator="in" in2="blur"/>
      <feComposite in="SourceGraphic"/>
    </filter>
  </defs>
  <g id="Group_1179263" data-name="Group 1179263" transform="translate(-1740.49 -2361.935)">
    <g id="Group_1179031" data-name="Group 1179031">
      <g id="Group_1178721" data-name="Group 1178721" transform="translate(947 872.5)">
        <g id="Group_1176922" data-name="Group 1176922" transform="translate(802.49 1495.435)">
          <g id="Group_1172322" data-name="Group 1172322" transform="translate(0 0)">
            <g id="Group_1164700" data-name="Group 1164700">
              <g id="Group_1160931" data-name="Group 1160931">
                <g id="Group_1160749" data-name="Group 1160749">
                  <g id="Group_1158891" data-name="Group 1158891">
                    <g id="Group_1157406" data-name="Group 1157406">
                      <g id="Group_1155793" data-name="Group 1155793">
                        <g id="Group_1154704" data-name="Group 1154704">
                          <g id="Group_1150790" data-name="Group 1150790">
                            <g id="Group_1154214" data-name="Group 1154214">
                              <g id="Group_1152583" data-name="Group 1152583">
                                <g id="Group_1146973" data-name="Group 1146973">
                                  <g id="Group_1146954" data-name="Group 1146954">
                                    <g transform="matrix(1, 0, 0, 1, -9, -6)" filter="url(#Path_982547)">
                                      <g id="Path_982547-2" data-name="Path 982547" transform="translate(9 6)" fill="#fbedfe">
                                        <path d="M 47.5000114440918 93.49987030029297 C 41.28938293457031 93.49987030029297 35.26534652709961 92.28384399414062 29.5951976776123 89.88558959960938 C 24.11773109436035 87.56881713867188 19.19814491271973 84.25183868408203 14.97310447692871 80.02680206298828 C 10.74805164337158 75.80176544189453 7.43107795715332 70.88218688964844 5.114304542541504 65.40472412109375 C 2.716038227081299 59.73458862304688 1.500011444091797 53.71054840087891 1.500011444091797 47.49993515014648 C 1.500011444091797 41.28932189941406 2.716038227081299 35.26528167724609 5.114304542541504 29.59514808654785 C 7.43107795715332 24.1176815032959 10.74805164337158 19.1981086730957 14.97310447692871 14.97306823730469 C 19.19814491271973 10.74802875518799 24.11773109436035 7.431055068969727 29.5951976776123 5.11428165435791 C 35.26534652709961 2.716028451919556 41.28938293457031 1.500001788139343 47.5000114440918 1.500001788139343 C 53.71063995361328 1.500001788139343 59.73467636108398 2.716028451919556 65.40482330322266 5.11428165435791 C 70.88229370117188 7.431055068969727 75.8018798828125 10.74802875518799 80.02691650390625 14.97306823730469 C 84.25196838378906 19.1981086730957 87.56894683837891 24.1176815032959 89.88571929931641 29.59514808654785 C 92.28398132324219 35.26528167724609 93.50001525878906 41.28932189941406 93.50001525878906 47.49993515014648 C 93.50001525878906 53.71054840087891 92.28398132324219 59.73458862304688 89.88571929931641 65.40472412109375 C 87.56894683837891 70.88218688964844 84.25196838378906 75.80176544189453 80.02691650390625 80.02680206298828 C 75.8018798828125 84.25183868408203 70.88229370117188 87.56881713867188 65.40482330322266 89.88558959960938 C 59.73467636108398 92.28384399414062 53.71063995361328 93.49987030029297 47.5000114440918 93.49987030029297 Z" stroke="none"/>
                                        <path d="M 47.5000114440918 3 C 41.49122619628906 3 35.66378021240234 4.1761474609375 30.17951965332031 6.495796203613281 C 24.880859375 8.7369384765625 20.12153625488281 11.94596862792969 16.03376770019531 16.03373718261719 C 11.94598388671875 20.12149047851562 8.736968994140625 24.88081359863281 6.495811462402344 30.17947387695312 C 4.176162719726562 35.66371917724609 3.000007629394531 41.49116516113281 3.000007629394531 47.49993515014648 C 3.000007629394531 53.50870513916016 4.176162719726562 59.33615112304688 6.495811462402344 64.82039642333984 C 8.736968994140625 70.11905670166016 11.94598388671875 74.87837982177734 16.03376770019531 78.96613311767578 C 20.12153625488281 83.05390167236328 24.880859375 86.26293182373047 30.17951965332031 88.50407409667969 C 35.66378021240234 90.82372283935547 41.49122619628906 91.99987030029297 47.5000114440918 91.99987030029297 C 53.50879669189453 91.99987030029297 59.33624267578125 90.82372283935547 64.82050323486328 88.50407409667969 C 70.11916351318359 86.26293182373047 74.87848663330078 83.05390167236328 78.96625518798828 78.96613311767578 C 83.05403900146484 74.87837982177734 86.2630615234375 70.11905670166016 88.50421142578125 64.82039642333984 C 90.82386016845703 59.33615112304688 92.00001525878906 53.50870513916016 92.00001525878906 47.49993515014648 C 92.00001525878906 41.49116516113281 90.82386016845703 35.66371917724609 88.50421142578125 30.17947387695312 C 86.2630615234375 24.88081359863281 83.05403900146484 20.12149047851562 78.96625518798828 16.03373718261719 C 74.87848663330078 11.94596862792969 70.11916351318359 8.7369384765625 64.82050323486328 6.495796203613281 C 59.33624267578125 4.1761474609375 53.50879669189453 3 47.5000114440918 3 M 47.5000114440918 0 C 73.73353576660156 0 95.00001525878906 21.26644134521484 95.00001525878906 47.49993515014648 C 95.00001525878906 73.73342895507812 73.73353576660156 94.99987030029297 47.5000114440918 94.99987030029297 C 21.26648712158203 94.99987030029297 7.62939453125e-06 73.73342895507812 7.62939453125e-06 47.49993515014648 C 7.62939453125e-06 21.26644134521484 21.26648712158203 0 47.5000114440918 0 Z" stroke="none" fill="#7b3289"/>
                                      </g>
                                    </g>
                                  </g>
                                </g>
                              </g>
                            </g>
                          </g>
                        </g>
                      </g>
                    </g>
                  </g>
                </g>
              </g>
            </g>
          </g>
        </g>
      </g>
      <g id="change_14535883" transform="translate(1762.097 2380.54)">
        <g id="Group_1179030" data-name="Group 1179030" transform="translate(4.733 4.736)">
          <path id="Path_1041029" data-name="Path 1041029" d="M10.008,355.691l3.024-11.278,11.278,3.02-3.031,1.752a18.262,18.262,0,0,0,11.747,14.291c-8.685,1.289-16.036-2.266-19.987-9.533l-3.031,1.748Z" transform="translate(-10.008 -303.413)" fill="#ee2b39" fill-rule="evenodd"/>
          <path id="Path_1041030" data-name="Path 1041030" d="M10.008,355.691l3.024-11.278a21.705,21.705,0,0,0,19.994,19.063c-8.685,1.289-16.036-2.266-19.987-9.533l-3.031,1.748Z" transform="translate(-10.008 -303.413)" fill="#cd212d" fill-rule="evenodd"/>
          <path id="Path_1041031" data-name="Path 1041031" d="M337.273,18.055l-3.024,11.281-11.281-3.024L326,24.564a18.257,18.257,0,0,0-11.747-14.291c8.688-1.289,16.036,2.266,19.987,9.533l3.034-1.752Z" transform="translate(-276.95 -10.013)" fill="#3589c9" fill-rule="evenodd"/>
          <path id="Path_1041032" data-name="Path 1041032" d="M38.308,38.307,36.765,39.85a1.181,1.181,0,0,1-1.661,0L33.943,38.69a14.1,14.1,0,0,1-4,1.654v1.644a1.178,1.178,0,0,1-1.175,1.175H24.4a1.178,1.178,0,0,1-1.175-1.175V40.344a14.106,14.106,0,0,1-4-1.654L18.068,39.85a1.181,1.181,0,0,1-1.661,0L13.32,36.764a1.181,1.181,0,0,1,0-1.661l1.161-1.161a14.1,14.1,0,0,1-1.654-4H11.183a1.178,1.178,0,0,1-1.175-1.175V24.4a1.178,1.178,0,0,1,1.175-1.175h1.644a14.106,14.106,0,0,1,1.654-4L13.32,18.067a1.181,1.181,0,0,1,0-1.661l1.543-1.543,1.543-1.543a1.181,1.181,0,0,1,1.661,0l1.161,1.161a14.1,14.1,0,0,1,4-1.654V11.182A1.178,1.178,0,0,1,24.4,10.007h4.365a1.178,1.178,0,0,1,1.175,1.175v1.644a14.1,14.1,0,0,1,4,1.654L35.1,13.319a1.181,1.181,0,0,1,1.661,0l3.086,3.086a1.181,1.181,0,0,1,0,1.661l-1.161,1.161a14.106,14.106,0,0,1,1.654,4h1.644A1.178,1.178,0,0,1,43.163,24.4v4.365a1.178,1.178,0,0,1-1.175,1.175H40.345a14.017,14.017,0,0,1-1.658,4L39.851,35.1a1.181,1.181,0,0,1,0,1.661Z" transform="translate(-10.008 -10.007)" fill="#595a66" fill-rule="evenodd"/>
          <path id="Path_1041033" data-name="Path 1041033" d="M29.944,40.345v1.644a1.178,1.178,0,0,1-1.175,1.175H24.4a1.178,1.178,0,0,1-1.175-1.175V40.345a14.106,14.106,0,0,1-4-1.654l-1.161,1.161a1.181,1.181,0,0,1-1.661,0l-3.086-3.086a1.181,1.181,0,0,1,0-1.661l1.161-1.161a14.1,14.1,0,0,1-1.654-4H11.184a1.178,1.178,0,0,1-1.175-1.175V24.4a1.178,1.178,0,0,1,1.175-1.175h1.644a14.106,14.106,0,0,1,1.654-4l-1.161-1.161a1.181,1.181,0,0,1,0-1.661l1.543-1.543,1.543-1.543a1.181,1.181,0,0,1,1.661,0l1.161,1.161a14.1,14.1,0,0,1,4-1.654V11.183A1.178,1.178,0,0,1,24.4,10.008h4.365a1.178,1.178,0,0,1,1.175,1.175v1.644a13.884,13.884,0,1,0,0,27.518Z" transform="translate(-10.009 -10.008)" fill="#494a52" fill-rule="evenodd"/>
          <path id="Path_1041034" data-name="Path 1041034" d="M72.524,82.683A10.159,10.159,0,1,0,62.365,72.525,10.178,10.178,0,0,0,72.524,82.683Z" transform="translate(-55.946 -55.947)" fill="#cad1d8" fill-rule="evenodd"/>
          <path id="Path_1041035" data-name="Path 1041035" d="M94.691,63.216a10.158,10.158,0,0,1,0,20.109,10.158,10.158,0,0,1,0-20.109Z" transform="translate(-76.664 -56.692)" fill="#e2e5e7" fill-rule="evenodd"/>
          <path id="Path_1041036" data-name="Path 1041036" d="M80.932,163.992c.907-6.242,14.857-6.242,15.764,0a10.159,10.159,0,0,1-15.764,0Z" transform="translate(-72.236 -141.005)" fill="#1b6fab" fill-rule="evenodd"/>
          <path id="Path_1041037" data-name="Path 1041037" d="M110.919,159.99c3.173.358,6.019,1.891,6.412,4.6a10.162,10.162,0,0,1-12.73,2.52C103.732,162.656,106.728,160.466,110.919,159.99Z" transform="translate(-92.871 -141.601)" fill="#3589c9" fill-rule="evenodd"/>
          <path id="Path_1041038" data-name="Path 1041038" d="M115.227,95.616a4.191,4.191,0,1,1-4.191,4.191A4.192,4.192,0,0,1,115.227,95.616Z" transform="translate(-98.65 -85.12)" fill="#e2b698" fill-rule="evenodd"/>
          <path id="Path_1041039" data-name="Path 1041039" d="M130.367,96.58a4.193,4.193,0,0,1,0,8.15,4.194,4.194,0,0,1,0-8.15Z" transform="translate(-112.802 -85.966)" fill="#efc9ae" fill-rule="evenodd"/>
          <path id="Path_1041040" data-name="Path 1041040" d="M259.865,259.866l-1.54,1.543a1.175,1.175,0,0,1-1.661,0l-1.164-1.161a14.13,14.13,0,0,1-4,1.658v1.644a1.178,1.178,0,0,1-1.175,1.175h-4.362a1.178,1.178,0,0,1-1.175-1.175v-1.644a14.092,14.092,0,0,1-4-1.658l-1.161,1.161a1.175,1.175,0,0,1-1.661,0l-3.083-3.083a1.175,1.175,0,0,1,0-1.661l1.161-1.164a14.13,14.13,0,0,1-1.658-4H232.74a1.178,1.178,0,0,1-1.175-1.175v-4.362a1.178,1.178,0,0,1,1.175-1.175h1.644a14.092,14.092,0,0,1,1.658-4l-1.161-1.161a1.175,1.175,0,0,1,0-1.661l1.54-1.54,1.543-1.543a1.175,1.175,0,0,1,1.661,0l1.161,1.161a14.09,14.09,0,0,1,4-1.658v-1.644a1.178,1.178,0,0,1,1.175-1.175h4.362a1.178,1.178,0,0,1,1.175,1.175v1.647a14.023,14.023,0,0,1,4,1.654l1.164-1.161a1.175,1.175,0,0,1,1.661,0l3.083,3.083a1.175,1.175,0,0,1,0,1.661l-1.161,1.161a14.09,14.09,0,0,1,1.658,4h1.644a1.18,1.18,0,0,1,1.175,1.175v4.362a1.178,1.178,0,0,1-1.175,1.175H261.9a14.022,14.022,0,0,1-1.654,4l1.161,1.164a1.175,1.175,0,0,1,0,1.661l-1.543,1.54Z" transform="translate(-204.401 -204.402)" fill="#595a66" fill-rule="evenodd"/>
          <path id="Path_1041041" data-name="Path 1041041" d="M251.5,261.906v1.644a1.178,1.178,0,0,1-1.175,1.175h-4.362a1.178,1.178,0,0,1-1.175-1.175v-1.644a14.092,14.092,0,0,1-4-1.658l-1.161,1.161a1.175,1.175,0,0,1-1.661,0l-3.083-3.083a1.175,1.175,0,0,1,0-1.661l1.161-1.164a14.131,14.131,0,0,1-1.658-4h-1.644a1.178,1.178,0,0,1-1.175-1.175v-4.362a1.178,1.178,0,0,1,1.175-1.175h1.644a14.093,14.093,0,0,1,1.658-4l-1.161-1.161a1.175,1.175,0,0,1,0-1.661l1.54-1.54,1.543-1.543a1.175,1.175,0,0,1,1.661,0l1.161,1.161a14.089,14.089,0,0,1,4-1.658v-1.644a1.178,1.178,0,0,1,1.175-1.175h4.362a1.178,1.178,0,0,1,1.175,1.175v1.647a13.884,13.884,0,1,0,0,27.518Z" transform="translate(-204.402 -204.402)" fill="#494a52" fill-rule="evenodd"/>
          <path id="Path_1041042" data-name="Path 1041042" d="M294.08,304.242a10.16,10.16,0,1,0-10.159-10.159A10.181,10.181,0,0,0,294.08,304.242Z" transform="translate(-250.338 -250.338)" fill="#cad1d8" fill-rule="evenodd"/>
          <path id="Path_1041043" data-name="Path 1041043" d="M316.271,284.771a10.16,10.16,0,1,1-8.709,10.058A10.163,10.163,0,0,1,316.271,284.771Z" transform="translate(-271.081 -251.084)" fill="#e2e5e7" fill-rule="evenodd"/>
          <path id="Path_1041044" data-name="Path 1041044" d="M302.516,385.557c.9-6.245,14.857-6.245,15.761,0a10.155,10.155,0,0,1-15.761,0Z" transform="translate(-266.653 -335.404)" fill="#cd212d" fill-rule="evenodd"/>
          <path id="Path_1041045" data-name="Path 1041045" d="M332.5,381.546c3.17.361,6.016,1.894,6.409,4.6a10.157,10.157,0,0,1-12.727,2.52C325.317,384.215,328.313,382.022,332.5,381.546Z" transform="translate(-287.289 -335.994)" fill="#ee2b39" fill-rule="evenodd"/>
          <path id="Path_1041046" data-name="Path 1041046" d="M336.783,317.2a4.191,4.191,0,1,1-4.191,4.191A4.189,4.189,0,0,1,336.783,317.2Z" transform="translate(-293.042 -279.537)" fill="#e2b698" fill-rule="evenodd"/>
          <path id="Path_1041047" data-name="Path 1041047" d="M351.926,318.164a4.191,4.191,0,1,1-3.2,4.073A4.19,4.19,0,0,1,351.926,318.164Z" transform="translate(-307.194 -280.383)" fill="#efc9ae" fill-rule="evenodd"/>
          <path id="Path_1041048" data-name="Path 1041048" d="M337.274,18.056,334.25,29.337a21.712,21.712,0,0,0-20-19.063c8.688-1.289,16.036,2.266,19.987,9.533l3.034-1.752Z" transform="translate(-276.951 -10.014)" fill="#1b6fab" fill-rule="evenodd"/>
        </g>
        <path id="Path_1041049" data-name="Path 1041049" d="M56.6,53.249a6.986,6.986,0,0,0-4.525-3.295,4.926,4.926,0,1,0-7.19,0,6.986,6.986,0,0,0-4.525,3.295,9.423,9.423,0,1,1,16.24,0Zm-8.119-3.2a3.454,3.454,0,1,1,3.455-3.454A3.46,3.46,0,0,1,48.478,50.045Zm0,7.858a9.414,9.414,0,0,1-7.093-3.225c.438-1.8,2.315-3.117,5.116-3.576a4.888,4.888,0,0,0,3.952,0c2.8.459,4.678,1.776,5.116,3.576a9.412,9.412,0,0,1-7.09,3.225Zm0-20.317a10.885,10.885,0,0,0-8.5,17.7.552.552,0,0,0,.1.122,10.883,10.883,0,0,0,16.8,0,.555.555,0,0,0,.1-.122,10.885,10.885,0,0,0-8.5-17.7ZM64.319,50.66a.441.441,0,0,1-.438.441H62.237a.733.733,0,0,0-.716.56,13.4,13.4,0,0,1-1.571,3.8.731.731,0,0,0,.108.9l1.161,1.164a.436.436,0,0,1,0,.619l-1.54,1.543-1.543,1.543a.443.443,0,0,1-.622,0l-1.161-1.164a.745.745,0,0,0-.9-.108,13.338,13.338,0,0,1-3.792,1.571.736.736,0,0,0-.563.716v1.644a.437.437,0,0,1-.129.309.43.43,0,0,1-.309.129H46.3a.441.441,0,0,1-.441-.438V62.24a.733.733,0,0,0-.56-.716,13.5,13.5,0,0,1-3.8-1.567.731.731,0,0,0-.9.108l-1.161,1.161a.443.443,0,0,1-.622,0l-3.083-3.086a.425.425,0,0,1-.129-.309.438.438,0,0,1,.129-.313l1.161-1.161a.736.736,0,0,0,.108-.9,13.4,13.4,0,0,1-1.571-3.8.733.733,0,0,0-.716-.56H33.072a.441.441,0,0,1-.438-.441V46.3a.438.438,0,0,1,.438-.438h1.644a.736.736,0,0,0,.716-.563A13.338,13.338,0,0,1,37,41.506a.745.745,0,0,0-.108-.9l-1.161-1.161a.436.436,0,0,1,0-.622l3.083-3.086a.443.443,0,0,1,.622,0L40.6,36.9a.736.736,0,0,0,.9.108,13.406,13.406,0,0,1,3.8-1.571.733.733,0,0,0,.56-.716V33.074a.44.44,0,0,1,.132-.309.445.445,0,0,1,.309-.129h4.362a.438.438,0,0,1,.438.438v1.644a.736.736,0,0,0,.563.716,13.338,13.338,0,0,1,3.792,1.571.736.736,0,0,0,.9-.108l1.161-1.164a.443.443,0,0,1,.622,0l3.083,3.086a.436.436,0,0,1,0,.622L60.058,40.6a.741.741,0,0,0-.108.9A13.338,13.338,0,0,1,61.521,45.3a.736.736,0,0,0,.716.563h1.644a.438.438,0,0,1,.438.438Zm-.438-6.273H62.8a14.9,14.9,0,0,0-1.3-3.145l.761-.761a1.913,1.913,0,0,0,0-2.7l-3.086-3.086a1.913,1.913,0,0,0-2.7,0l-.761.761a14.825,14.825,0,0,0-3.145-1.3V33.074a1.912,1.912,0,0,0-1.912-1.908H46.3a1.91,1.91,0,0,0-1.912,1.908v1.077a14.828,14.828,0,0,0-3.145,1.3l-.761-.761a1.913,1.913,0,0,0-2.7,0L34.691,37.78a1.913,1.913,0,0,0,0,2.7l.761.761a14.9,14.9,0,0,0-1.3,3.145H33.071A1.912,1.912,0,0,0,31.163,46.3V50.66a1.912,1.912,0,0,0,1.908,1.911h1.081a14.632,14.632,0,0,0,1.3,3.145l-.761.761a1.917,1.917,0,0,0,0,2.7l3.086,3.086a1.913,1.913,0,0,0,2.7,0l.761-.761a14.648,14.648,0,0,0,3.145,1.3v1.077A1.912,1.912,0,0,0,46.3,65.792h4.362a1.91,1.91,0,0,0,1.912-1.908V62.807a14.825,14.825,0,0,0,3.145-1.3l.761.761a1.913,1.913,0,0,0,2.7,0l3.086-3.086a1.918,1.918,0,0,0,0-2.7l-.761-.761a14.638,14.638,0,0,0,1.3-3.145h1.081a1.912,1.912,0,0,0,1.908-1.911V46.3a1.912,1.912,0,0,0-1.908-1.912Zm-34.448-18.3A6.979,6.979,0,0,0,24.9,22.791a4.928,4.928,0,1,0-7.187,0,6.991,6.991,0,0,0-4.528,3.295,9.425,9.425,0,1,1,16.244,0Zm-8.122-3.2a3.456,3.456,0,1,1,3.455-3.455A3.459,3.459,0,0,1,21.311,22.881Zm0,7.858a9.4,9.4,0,0,1-7.09-3.229c.438-1.8,2.315-3.114,5.112-3.573a4.927,4.927,0,0,0,3.952,0c2.8.459,4.678,1.776,5.116,3.573A9.4,9.4,0,0,1,21.311,30.739Zm0-20.321a10.888,10.888,0,0,0-8.5,17.7.7.7,0,0,0,.1.125,10.88,10.88,0,0,0,16.8,0,.878.878,0,0,0,.1-.125,10.888,10.888,0,0,0-8.5-17.7Zm9.039,23.64L29.19,32.9a.736.736,0,0,0-.9-.108,13.329,13.329,0,0,1-3.792,1.567.742.742,0,0,0-.563.716v1.644a.438.438,0,0,1-.438.438H19.128a.438.438,0,0,1-.438-.438V35.073a.735.735,0,0,0-.563-.712,13.338,13.338,0,0,1-3.792-1.571.725.725,0,0,0-.382-.108.734.734,0,0,0-.521.215l-1.161,1.161a.445.445,0,0,1-.619,0L8.566,30.975a.439.439,0,0,1-.129-.313.43.43,0,0,1,.129-.309l1.161-1.161a.736.736,0,0,0,.108-.9A13.329,13.329,0,0,1,8.268,24.5a.736.736,0,0,0-.716-.563H5.908A.438.438,0,0,1,5.47,23.5V19.134a.439.439,0,0,1,.438-.441H7.552a.739.739,0,0,0,.716-.563,13.231,13.231,0,0,1,1.567-3.792.736.736,0,0,0-.108-.9L8.566,12.274a.438.438,0,0,1,0-.619l3.086-3.086a.452.452,0,0,1,.619,0L13.432,9.73a.736.736,0,0,0,.9.108A13.231,13.231,0,0,1,18.127,8.27a.736.736,0,0,0,.563-.716V5.911a.431.431,0,0,1,.129-.309.44.44,0,0,1,.309-.132h4.365a.441.441,0,0,1,.438.441V7.554a.736.736,0,0,0,.563.716,13.143,13.143,0,0,1,3.792,1.571.742.742,0,0,0,.9-.111L30.35,8.569a.438.438,0,0,1,.619,0l3.086,3.086a.438.438,0,0,1,0,.619l-1.161,1.161a.736.736,0,0,0-.108.9,13.231,13.231,0,0,1,1.567,3.792.739.739,0,0,0,.716.563h1.644a.439.439,0,0,1,.438.441V23.5a.438.438,0,0,1-.438.438H35.07a.736.736,0,0,0-.716.563,13.233,13.233,0,0,1-1.567,3.792.736.736,0,0,0,.108.9l1.161,1.161a.443.443,0,0,1,0,.622l-3.086,3.083a.445.445,0,0,1-.619,0Zm4.744-2.044a1.907,1.907,0,0,0,0-2.7l-.761-.761a14.67,14.67,0,0,0,1.3-3.149h1.077A1.912,1.912,0,0,0,38.625,23.5V19.134a1.913,1.913,0,0,0-1.912-1.912H35.637a14.838,14.838,0,0,0-1.3-3.149l.758-.758a1.911,1.911,0,0,0,0-2.7L32.012,7.527a1.917,1.917,0,0,0-2.7,0l-.758.765a14.749,14.749,0,0,0-3.149-1.3V5.91A1.912,1.912,0,0,0,23.493,4H19.128A1.91,1.91,0,0,0,17.22,5.911V6.988a14.745,14.745,0,0,0-3.149,1.3l-.761-.765a1.917,1.917,0,0,0-2.7,0L7.524,10.613a1.917,1.917,0,0,0,0,2.7l.761.758a14.919,14.919,0,0,0-1.3,3.149H5.908A1.913,1.913,0,0,0,4,19.134V23.5A1.912,1.912,0,0,0,5.908,25.4H6.985a14.672,14.672,0,0,0,1.3,3.149l-.765.761a1.917,1.917,0,0,0,0,2.7L10.61,35.1a1.909,1.909,0,0,0,2.7,0l.761-.758a14.916,14.916,0,0,0,3.149,1.3v1.077a1.912,1.912,0,0,0,1.908,1.912h4.365A1.912,1.912,0,0,0,25.4,36.717V35.639a14.742,14.742,0,0,0,3.149-1.3l.758.761a1.913,1.913,0,0,0,2.7,0l3.083-3.083ZM61.375,14.88a.756.756,0,0,0,.448.358.734.734,0,0,0,.566-.073l1.494-.862-2.374,8.855-8.852-2.374,1.491-.862a.733.733,0,0,0,.358-.751A19,19,0,0,0,44.871,5.48a17.438,17.438,0,0,1,16.5,9.4ZM41.781,5.688A17.521,17.521,0,0,1,52.968,18.905L50.383,20.4a.736.736,0,0,0,.177,1.348l11.281,3.024a.9.9,0,0,0,.191.024.739.739,0,0,0,.709-.546l3.024-11.281a.735.735,0,0,0-1.077-.827L62.3,13.522A19.1,19.1,0,0,0,54.122,5.89a21,21,0,0,0-12.2-1.619.736.736,0,0,0-.146,1.418ZM8.41,54.914a.745.745,0,0,0-.448-.358.756.756,0,0,0-.2-.028.767.767,0,0,0-.368.1L5.9,55.487l2.374-8.852,8.855,2.374-1.494.862a.73.73,0,0,0-.358.751,19.013,19.013,0,0,0,9.637,13.693,17.429,17.429,0,0,1-16.5-9.4ZM28,64.106a17.533,17.533,0,0,1-11.187-13.22L19.4,49.395a.736.736,0,0,0-.177-1.348L7.944,45.023a.737.737,0,0,0-.9.521L4.021,56.825a.738.738,0,0,0,1.081.827l2.388-1.38A19.123,19.123,0,0,0,15.663,63.9a20.043,20.043,0,0,0,8.671,1.884,23.979,23.979,0,0,0,3.524-.264A.735.735,0,0,0,28,64.106Z" transform="translate(0)" fill="#070202"/>
      </g>
    </g>
  </g>
</svg>
