<svg xmlns="http://www.w3.org/2000/svg" xmlns:xlink="http://www.w3.org/1999/xlink" width="113" height="113" viewBox="0 0 113 113">
  <defs>
    <filter id="Path_982547" x="0" y="0" width="113" height="113" filterUnits="userSpaceOnUse">
      <feOffset dy="3" input="SourceAlpha"/>
      <feGaussianBlur stdDeviation="3" result="blur"/>
      <feFlood flood-opacity="0.161"/>
      <feComposite operator="in" in2="blur"/>
      <feComposite in="SourceGraphic"/>
    </filter>
  </defs>
  <g id="Group_1206705" data-name="Group 1206705" transform="translate(-788.49 -1458.972)">
    <g id="Group_1206236" data-name="Group 1206236">
      <g id="Group_1202721" data-name="Group 1202721" transform="translate(-5 -1241.051)">
        <g id="Group_1202072" data-name="Group 1202072" transform="translate(0 324.215)">
          <g id="Group_1178713" data-name="Group 1178713" transform="translate(0 886.374)">
            <g id="Group_1176922" data-name="Group 1176922" transform="translate(802.49 1495.435)">
              <g id="Group_1172322" data-name="Group 1172322" transform="translate(0 0)">
                <g id="Group_1164700" data-name="Group 1164700">
                  <g id="Group_1160931" data-name="Group 1160931">
                    <g id="Group_1160749" data-name="Group 1160749">
                      <g id="Group_1158891" data-name="Group 1158891">
                        <g id="Group_1157406" data-name="Group 1157406">
                          <g id="Group_1155793" data-name="Group 1155793">
                            <g id="Group_1154704" data-name="Group 1154704">
                              <g id="Group_1150790" data-name="Group 1150790">
                                <g id="Group_1154214" data-name="Group 1154214">
                                  <g id="Group_1152583" data-name="Group 1152583">
                                    <g id="Group_1146973" data-name="Group 1146973">
                                      <g id="Group_1146954" data-name="Group 1146954">
                                        <g transform="matrix(1, 0, 0, 1, -9, -6)" filter="url(#Path_982547)">
                                          <g id="Path_982547-2" data-name="Path 982547" transform="translate(9 6)" fill="#fbedfe">
                                            <path d="M 47.5000114440918 93.49987030029297 C 41.28938293457031 93.49987030029297 35.26534652709961 92.28384399414062 29.5951976776123 89.88558959960938 C 24.11773109436035 87.56881713867188 19.19814491271973 84.25183868408203 14.97310447692871 80.02680206298828 C 10.74805164337158 75.80176544189453 7.43107795715332 70.88218688964844 5.114304542541504 65.40472412109375 C 2.716038227081299 59.73458862304688 1.500011444091797 53.71054840087891 1.500011444091797 47.49993515014648 C 1.500011444091797 41.28932189941406 2.716038227081299 35.26528167724609 5.114304542541504 29.59514808654785 C 7.43107795715332 24.1176815032959 10.74805164337158 19.1981086730957 14.97310447692871 14.97306823730469 C 19.19814491271973 10.74802875518799 24.11773109436035 7.431055068969727 29.5951976776123 5.11428165435791 C 35.26534652709961 2.716028451919556 41.28938293457031 1.500001788139343 47.5000114440918 1.500001788139343 C 53.71063995361328 1.500001788139343 59.73467636108398 2.716028451919556 65.40482330322266 5.11428165435791 C 70.88229370117188 7.431055068969727 75.8018798828125 10.74802875518799 80.02691650390625 14.97306823730469 C 84.25196838378906 19.1981086730957 87.56894683837891 24.1176815032959 89.88571929931641 29.59514808654785 C 92.28398132324219 35.26528167724609 93.50001525878906 41.28932189941406 93.50001525878906 47.49993515014648 C 93.50001525878906 53.71054840087891 92.28398132324219 59.73458862304688 89.88571929931641 65.40472412109375 C 87.56894683837891 70.88218688964844 84.25196838378906 75.80176544189453 80.02691650390625 80.02680206298828 C 75.8018798828125 84.25183868408203 70.88229370117188 87.56881713867188 65.40482330322266 89.88558959960938 C 59.73467636108398 92.28384399414062 53.71063995361328 93.49987030029297 47.5000114440918 93.49987030029297 Z" stroke="none"/>
                                            <path d="M 47.5000114440918 3 C 41.49122619628906 3 35.66378021240234 4.1761474609375 30.17951965332031 6.495796203613281 C 24.880859375 8.7369384765625 20.12153625488281 11.94596862792969 16.03376770019531 16.03373718261719 C 11.94598388671875 20.12149047851562 8.736968994140625 24.88081359863281 6.495811462402344 30.17947387695312 C 4.176162719726562 35.66371917724609 3.000007629394531 41.49116516113281 3.000007629394531 47.49993515014648 C 3.000007629394531 53.50870513916016 4.176162719726562 59.33615112304688 6.495811462402344 64.82039642333984 C 8.736968994140625 70.11905670166016 11.94598388671875 74.87837982177734 16.03376770019531 78.96613311767578 C 20.12153625488281 83.05390167236328 24.880859375 86.26293182373047 30.17951965332031 88.50407409667969 C 35.66378021240234 90.82372283935547 41.49122619628906 91.99987030029297 47.5000114440918 91.99987030029297 C 53.50879669189453 91.99987030029297 59.33624267578125 90.82372283935547 64.82050323486328 88.50407409667969 C 70.11916351318359 86.26293182373047 74.87848663330078 83.05390167236328 78.96625518798828 78.96613311767578 C 83.05403900146484 74.87837982177734 86.2630615234375 70.11905670166016 88.50421142578125 64.82039642333984 C 90.82386016845703 59.33615112304688 92.00001525878906 53.50870513916016 92.00001525878906 47.49993515014648 C 92.00001525878906 41.49116516113281 90.82386016845703 35.66371917724609 88.50421142578125 30.17947387695312 C 86.2630615234375 24.88081359863281 83.05403900146484 20.12149047851562 78.96625518798828 16.03373718261719 C 74.87848663330078 11.94596862792969 70.11916351318359 8.7369384765625 64.82050323486328 6.495796203613281 C 59.33624267578125 4.1761474609375 53.50879669189453 3 47.5000114440918 3 M 47.5000114440918 0 C 73.73353576660156 0 95.00001525878906 21.26644134521484 95.00001525878906 47.49993515014648 C 95.00001525878906 73.73342895507812 73.73353576660156 94.99987030029297 47.5000114440918 94.99987030029297 C 21.26648712158203 94.99987030029297 7.62939453125e-06 73.73342895507812 7.62939453125e-06 47.49993515014648 C 7.62939453125e-06 21.26644134521484 21.26648712158203 0 47.5000114440918 0 Z" stroke="none" fill="#7b3289"/>
                                          </g>
                                        </g>
                                      </g>
                                    </g>
                                  </g>
                                </g>
                              </g>
                            </g>
                          </g>
                        </g>
                      </g>
                    </g>
                  </g>
                </g>
              </g>
            </g>
          </g>
        </g>
      </g>
      <g id="security_10491473" transform="translate(817.404 1484.876)">
        <g id="Group_1206234" data-name="Group 1206234" transform="translate(0.955 0.955)">
          <g id="Group_1206227" data-name="Group 1206227">
            <path id="Path_1045404" data-name="Path 1045404" d="M39.89,11.819A14.7,14.7,0,0,1,30.7,8.6a2.718,2.718,0,0,0-3.4,0,14.718,14.718,0,0,1-4.319,2.394,14.712,14.712,0,0,1-4.867.828H8V44.908a7.639,7.639,0,0,0,3.475,6.4l14.018,9.112A6.446,6.446,0,0,0,29,61.464h2.253a1.61,1.61,0,0,1-.344-.955v-10.5H26.14l-.807-2.42a13.217,13.217,0,0,1-2.821-1.171l-2.284,1.142-4.05-4.05,1.142-2.284A13.217,13.217,0,0,1,16.148,38.4l-2.42-.807V31.868l2.42-.807a13.217,13.217,0,0,1,1.171-2.821l-1.142-2.284,4.05-4.05,2.284,1.142a13.217,13.217,0,0,1,2.821-1.171l.807-2.42h5.728l.807,2.42A13.217,13.217,0,0,1,35.5,23.047l2.284-1.142,4.05,4.05L40.688,28.24a13.217,13.217,0,0,1,1.171,2.821l2.42.807v6.8c1.228-.078,2.506-.118,3.819-.118q.968,0,1.909.03h0V11.819Z" transform="translate(-8 -8)" fill="#aab2bd"/>
          </g>
          <g id="Group_1206228" data-name="Group 1206228" transform="translate(5.728 11.457)">
            <path id="Path_1045405" data-name="Path 1045405" d="M86.551,116.411v6.8a45.243,45.243,0,0,0-7.082.965,9.53,9.53,0,1,0-6.284,4.454v5.919H68.411l-.807-2.42a13.217,13.217,0,0,1-2.821-1.171L62.5,132.1l-4.05-4.05,1.142-2.284a13.217,13.217,0,0,1-1.171-2.821L56,122.139v-5.728l2.42-.807a13.217,13.217,0,0,1,1.171-2.821L58.449,110.5l4.05-4.05,2.284,1.142A13.217,13.217,0,0,1,67.6,106.42l.807-2.42H74.14l.807,2.42a13.217,13.217,0,0,1,2.821,1.171l2.284-1.142,4.05,4.05-1.142,2.284a13.216,13.216,0,0,1,1.171,2.821Z" transform="translate(-56 -104)" fill="#5cd6b3"/>
          </g>
          <g id="Group_1206229" data-name="Group 1206229" transform="translate(11.457 17.185)">
            <path id="Path_1045406" data-name="Path 1045406" d="M123.094,161.547a9.5,9.5,0,0,1-1.353,4.9c-3.837.875-6.284,2.2-6.284,3.69v.764a9.548,9.548,0,1,1,7.638-9.356Z" transform="translate(-104 -152)" fill="#e6e9ed"/>
          </g>
          <g id="Group_1206230" data-name="Group 1206230" transform="translate(22.913 46.781)">
            <path id="Path_1045407" data-name="Path 1045407" d="M234.37,400v5.728c0,2.636-7.694,4.774-17.185,4.774-8.313,0-15.248-1.64-16.841-3.819a1.61,1.61,0,0,1-.344-.955V400c0,2.636,7.694,4.774,17.185,4.774S234.37,402.636,234.37,400Z" transform="translate(-200 -400)" fill="#fcd770"/>
          </g>
          <g id="Group_1206231" data-name="Group 1206231" transform="translate(22.913 35.324)">
            <path id="Path_1045408" data-name="Path 1045408" d="M200,304.764V304c0,2.636,7.694,4.774,17.185,4.774S234.37,306.636,234.37,304v5.728c0,2.636-7.694,4.774-17.185,4.774S200,312.364,200,309.728Z" transform="translate(-200 -304)" fill="#fcd770"/>
          </g>
          <g id="Group_1206232" data-name="Group 1206232" transform="translate(22.913 41.053)">
            <path id="Path_1045409" data-name="Path 1045409" d="M200,352.955V352c0,2.636,7.694,4.774,17.185,4.774S234.37,354.636,234.37,352v5.728c0,2.636-7.694,4.773-17.185,4.773S200,360.364,200,357.728Z" transform="translate(-200 -352)" fill="#ffeaa7"/>
          </g>
          <g id="Group_1206233" data-name="Group 1206233" transform="translate(22.913 30.551)">
            <path id="Path_1045410" data-name="Path 1045410" d="M234.37,268.774c0,2.636-7.694,4.774-17.185,4.774S200,271.41,200,268.774c0-1.487,2.448-2.815,6.284-3.69a45.243,45.243,0,0,1,7.082-.965c1.228-.078,2.506-.118,3.819-.118q.968,0,1.909.03C227.687,264.294,234.37,266.316,234.37,268.774Z" transform="translate(-200 -264)" fill="#ffeaa7"/>
          </g>
        </g>
        <g id="Group_1206235" data-name="Group 1206235" transform="translate(0 0)">
          <path id="Path_1045411" data-name="Path 1045411" d="M53.46,31.984a44.332,44.332,0,0,0-9.543-1.367V3.819H32.845A13.8,13.8,0,0,1,24.255.806a3.677,3.677,0,0,0-4.593,0,13.8,13.8,0,0,1-8.59,3.013H0V37.863a8.563,8.563,0,0,0,3.91,7.2l14.018,9.112a7.38,7.38,0,0,0,4.031,1.195h1.806a10.982,10.982,0,0,0,4.881,2.386,48.417,48.417,0,0,0,12.407,1.433A48.416,48.416,0,0,0,53.46,57.759c3.8-1.057,5.733-2.5,5.733-4.3V36.279c0-1.794-1.929-3.239-5.733-4.3Zm3.823,4.3c0,.433-.906,1.5-4.334,2.456a46.488,46.488,0,0,1-11.9,1.363,46.488,46.488,0,0,1-11.9-1.363c-3.428-.952-4.334-2.023-4.334-2.456s.906-1.5,4.334-2.456a46.488,46.488,0,0,1,11.9-1.363,46.488,46.488,0,0,1,11.9,1.363C56.377,34.776,57.283,35.846,57.283,36.279ZM11.108,33.715A12.342,12.342,0,0,1,10.021,31.1l-.138-.485-2.245-.748V25.511l2.245-.748.138-.485a12.357,12.357,0,0,1,1.087-2.619l.245-.44L10.293,19.1l3.077-3.077,2.119,1.059.44-.245a12.35,12.35,0,0,1,2.619-1.087l.485-.138.748-2.245h4.352l.748,2.245.485.138a12.349,12.349,0,0,1,2.619,1.087l.44.245,2.119-1.059L33.623,19.1l-1.059,2.119.245.44A12.355,12.355,0,0,1,33.9,24.278l.138.485,2.245.748v5.225c-1.568.123-3.064.307-4.453.547a10.5,10.5,0,1,0-9.867,6.906c.319,0,.638-.016.955-.045v3.864H19.782l-.748-2.245-.485-.138a12.359,12.359,0,0,1-2.619-1.087l-.44-.245-2.119,1.059-3.077-3.077,1.059-2.119Zm11.807,2.51a8.726,8.726,0,0,1-.956.054,8.591,8.591,0,1,1,7.568-4.522c-.3.073-.6.148-.881.227C24.88,33.03,22.954,34.456,22.915,36.225Zm9.93-30.5h9.162v24.83q-.475-.007-.955-.008c-.969,0-1.925.023-2.864.066V24.134l-2.605-.868a14.276,14.276,0,0,0-.866-2.086l1.229-2.458L30.923,13.7l-2.458,1.229a14.281,14.281,0,0,0-2.086-.866l-.868-2.605h-2.6V2.191a1.765,1.765,0,0,1,.149.106,15.716,15.716,0,0,0,9.783,3.432ZM21.958,53.464a5.473,5.473,0,0,1-2.99-.886L4.95,43.466a6.66,6.66,0,0,1-3.041-5.6V5.728h9.162A15.716,15.716,0,0,0,20.854,2.3,1.774,1.774,0,0,1,21,2.191v9.266h-2.6l-.868,2.605a14.275,14.275,0,0,0-2.086.866L12.994,13.7,7.97,18.722,9.2,21.18a14.264,14.264,0,0,0-.866,2.086l-2.605.868v7.1l2.605.868A14.259,14.259,0,0,0,9.2,34.193L7.97,36.651l5.024,5.024,2.458-1.229a14.275,14.275,0,0,0,2.086.866l.868,2.605h4.507v9.547Zm30.99,2.456a46.488,46.488,0,0,1-11.9,1.363,46.488,46.488,0,0,1-11.9-1.363c-3.428-.952-4.334-2.023-4.334-2.456V50.479a14.762,14.762,0,0,0,3.823,1.552,48.421,48.421,0,0,0,12.407,1.433A48.416,48.416,0,0,0,53.46,52.031a14.763,14.763,0,0,0,3.823-1.552v2.985C57.283,53.9,56.377,54.967,52.949,55.919Zm0-5.728a46.488,46.488,0,0,1-11.9,1.363,46.488,46.488,0,0,1-11.9-1.363c-3.428-.952-4.334-2.023-4.334-2.456V44.751A14.761,14.761,0,0,0,28.646,46.3a48.421,48.421,0,0,0,12.407,1.433A48.416,48.416,0,0,0,53.46,46.3a14.763,14.763,0,0,0,3.823-1.552v2.985C57.283,48.169,56.377,49.239,52.949,50.191Zm0-5.728a46.488,46.488,0,0,1-11.9,1.363,46.488,46.488,0,0,1-11.9-1.363c-3.428-.952-4.334-2.023-4.334-2.456V39.023a14.761,14.761,0,0,0,3.823,1.552,48.421,48.421,0,0,0,12.407,1.433A48.415,48.415,0,0,0,53.46,40.574a14.763,14.763,0,0,0,3.823-1.552v2.985C57.283,42.44,56.377,43.511,52.949,44.463Z" transform="translate(0 0)"/>
          <path id="Path_1045412" data-name="Path 1045412" d="M344,289.909a46.869,46.869,0,0,1,9.328.852l.39-1.869A48.791,48.791,0,0,0,344,288Z" transform="translate(-302.947 -253.63)"/>
          <path id="Path_1045413" data-name="Path 1045413" d="M153.981,202.343l-5.053,5.053-1.234-1.234-1.35,1.35,2.585,2.584,6.4-6.4Z" transform="translate(-128.879 -178.196)"/>
          <path id="Path_1045414" data-name="Path 1045414" d="M33.909,65.909h3.819V64H32v9.547h1.909Z" transform="translate(-28.181 -56.362)"/>
          <path id="Path_1045415" data-name="Path 1045415" d="M32,160h1.909v1.909H32Z" transform="translate(-28.181 -140.906)"/>
        </g>
      </g>
    </g>
  </g>
</svg>
