<svg xmlns="http://www.w3.org/2000/svg" xmlns:xlink="http://www.w3.org/1999/xlink" width="108" height="108" viewBox="0 0 108 108">
  <defs>
    <filter id="Path_904820" x="0" y="0" width="108" height="108" filterUnits="userSpaceOnUse">
      <feOffset dy="3" input="SourceAlpha"/>
      <feGaussianBlur stdDeviation="3" result="blur"/>
      <feFlood flood-opacity="0.161"/>
      <feComposite operator="in" in2="blur"/>
      <feComposite in="SourceGraphic"/>
    </filter>
  </defs>
  <g id="Group_1206749" data-name="Group 1206749" transform="translate(-620 -455.891)">
    <g id="Group_1206505" data-name="Group 1206505">
      <g id="Group_1205960" data-name="Group 1205960" transform="translate(629 461.891)">
        <g id="Group_1173585" data-name="Group 1173585" transform="translate(0 0)">
          <g id="Group_1173428" data-name="Group 1173428">
            <g id="Group_1171958" data-name="Group 1171958">
              <g id="Group_1167341" data-name="Group 1167341">
                <g id="Group_1166792" data-name="Group 1166792">
                  <g transform="matrix(1, 0, 0, 1, -9, -6)" filter="url(#Path_904820)">
                    <g id="Path_904820-2" data-name="Path 904820" transform="translate(9 6)" fill="#fbedfe">
                      <path d="M 44.99996948242188 88.50003814697266 C 39.12684631347656 88.50003814697266 33.43020629882812 87.35011291503906 28.06828117370605 85.08219909667969 C 22.88851928710938 82.89134979248047 18.23629379272461 79.75462341308594 14.2408447265625 75.75917053222656 C 10.24540710449219 71.76372528076172 7.108694553375244 67.11149597167969 4.917831897735596 61.93172454833984 C 2.649931907653809 56.56979751586914 1.500007033348083 50.87314605712891 1.500007033348083 45.00002288818359 C 1.500007033348083 39.12689971923828 2.649931907653809 33.43024826049805 4.917831897735596 28.06830978393555 C 7.108694553375244 22.88854789733887 10.24540710449219 18.2363224029541 14.2408447265625 14.24087333679199 C 18.23629379272461 10.24542331695557 22.88850784301758 7.108710289001465 28.06828117370605 4.917848110198975 C 33.43020629882812 2.649947881698608 39.12684631347656 1.500022888183594 44.99996948242188 1.500022888183594 C 50.87309265136719 1.500022888183594 56.56973266601562 2.649947881698608 61.93165588378906 4.917848110198975 C 67.11143493652344 7.108710289001465 71.76365661621094 10.24542331695557 75.75909423828125 14.24087333679199 C 79.75454711914062 18.2363224029541 82.89125823974609 22.88854789733887 85.08212280273438 28.06830978393555 C 87.35002136230469 33.43024826049805 88.49994659423828 39.12689971923828 88.49994659423828 45.00002288818359 C 88.49994659423828 50.87314605712891 87.35002136230469 56.56979751586914 85.08212280273438 61.93172454833984 C 82.89125823974609 67.11149597167969 79.75454711914062 71.76372528076172 75.75909423828125 75.75917053222656 C 71.76364135742188 79.75462341308594 67.11143493652344 82.89134979248047 61.93165588378906 85.08219909667969 C 56.56973266601562 87.35011291503906 50.87309265136719 88.50003814697266 44.99996948242188 88.50003814697266 Z" stroke="none"/>
                      <path d="M 44.99996948242188 3.000007629394531 C 39.32868194580078 3.000007629394531 33.82863998413086 4.110069274902344 28.65261077880859 6.299354553222656 C 23.65164184570312 8.414581298828125 19.15968322753906 11.44335174560547 15.30149841308594 15.30152130126953 C 11.44332885742188 19.15969085693359 8.414566040039062 23.65166473388672 6.299324035644531 28.65263748168945 C 4.110054016113281 33.82867813110352 3 39.3287353515625 3 45.00002288818359 C 3 50.67131042480469 4.110054016113281 56.17135238647461 6.299324035644531 61.34739685058594 C 8.414566040039062 66.34836578369141 11.44332885742188 70.84032440185547 15.30149841308594 74.69850921630859 C 19.15968322753906 78.55667877197266 23.65164184570312 81.58544921875 28.65261077880859 83.70068359375 C 33.82863998413086 85.88996887207031 39.32868194580078 87.00002288818359 44.99996948242188 87.00002288818359 C 50.67125701904297 87.00002288818359 56.17129898071289 85.88996887207031 61.34732818603516 83.70068359375 C 66.34829711914062 81.58544921875 70.84025573730469 78.55667877197266 74.69844055175781 74.69850921630859 C 78.55661010742188 70.84032440185547 81.58537292480469 66.34836578369141 83.70061492919922 61.34739685058594 C 85.88988494873047 56.17135238647461 86.99993896484375 50.67131042480469 86.99993896484375 45.00002288818359 C 86.99993896484375 39.3287353515625 85.88988494873047 33.82867813110352 83.70061492919922 28.65263748168945 C 81.58537292480469 23.65166473388672 78.55661010742188 19.15969085693359 74.69844055175781 15.30152130126953 C 70.84025573730469 11.44335174560547 66.34829711914062 8.414581298828125 61.34732818603516 6.299354553222656 C 56.17129898071289 4.110069274902344 50.67125701904297 3.000007629394531 44.99996948242188 3.000007629394531 M 44.99996948242188 7.62939453125e-06 C 69.85276794433594 7.62939453125e-06 89.99993896484375 20.14719390869141 89.99993896484375 45.00002288818359 C 89.99993896484375 69.85282135009766 69.85276794433594 90.00002288818359 44.99996948242188 90.00002288818359 C 20.14717102050781 90.00002288818359 0 69.85282135009766 0 45.00002288818359 C 0 20.14719390869141 20.14717102050781 7.62939453125e-06 44.99996948242188 7.62939453125e-06 Z" stroke="none" fill="#7b3289"/>
                    </g>
                  </g>
                </g>
              </g>
            </g>
          </g>
        </g>
      </g>
      <g id="target_9445856" transform="translate(639.451 471.532)">
        <g id="Group_1206504" data-name="Group 1206504" transform="translate(8.644 6.545)">
          <path id="Path_1046069" data-name="Path 1046069" d="M143.643,10.9c11.194,0,16.519,7.637,16.152,18.832.989,2.09,3.19,5.336,4.813,8.037a1.725,1.725,0,0,1,.011,1.79,1.8,1.8,0,0,1-1.534.956c-1.656.078-3.468.156-4.469.222-.056,2.7-.033,3.291-.078,5.992a4.587,4.587,0,0,1-1.434,3.313,4.639,4.639,0,0,1-3.335,1.378h-3.6a4.786,4.786,0,0,0-4.647,3.691c-.289,1.223-.589,2.446-.878,3.668h-17.2c.956-4.013,1.145-5.469,2.112-9.482,1.845-7.715-2.212-7.7-4.458-14.251C121.232,23.762,124.745,10.9,143.643,10.9Z" transform="translate(-110.949 -10.9)" fill="#fad1a2" fill-rule="evenodd"/>
          <path id="Path_1046070" data-name="Path 1046070" d="M144.125,164.106h-16.73c.956-4.013,1.145-5.469,2.112-9.482,1.845-7.715-2.212-7.7-4.458-14.251a22.92,22.92,0,0,1-1.156-10.972h20.232Z" transform="translate(-110.909 -116.227)" fill="#b79876" fill-rule="evenodd"/>
          <path id="Path_1046071" data-name="Path 1046071" d="M210.227,53.5h3.291v2.146A8.786,8.786,0,0,1,216.808,57l1.512-1.512,2.323,2.323-1.523,1.523a8.608,8.608,0,0,1,1.356,3.291h2.145v3.291h-2.145a8.786,8.786,0,0,1-1.356,3.291l1.512,1.512-2.312,2.323-1.512-1.512a8.608,8.608,0,0,1-3.291,1.356v2.146h-3.291V72.887a8.786,8.786,0,0,1-3.291-1.356l-1.512,1.512-2.334-2.334L204.6,69.2a8.608,8.608,0,0,1-1.356-3.291H201.1V62.616h2.145a8.786,8.786,0,0,1,1.356-3.291l-1.512-1.5,2.334-2.334L206.936,57a8.608,8.608,0,0,1,3.291-1.356Zm1.645,5.28a5.48,5.48,0,1,1-5.48,5.48A5.484,5.484,0,0,1,211.872,58.78Z" transform="translate(-179.745 -48.764)" fill-rule="evenodd"/>
          <path id="Path_1046072" data-name="Path 1046072" d="M15.348,158.1H39.27v38.13H9V164.459Z" transform="translate(-9 -141.736)" fill="#e6e6e6" fill-rule="evenodd"/>
          <path id="Path_1046073" data-name="Path 1046073" d="M15.348,164.459H9l6.348-6.359Z" transform="translate(-9 -141.736)" fill="#919191" fill-rule="evenodd"/>
          <path id="Path_1046074" data-name="Path 1046074" d="M54.984,253.945a10.135,10.135,0,0,1-9.571-9.571H43.145a.545.545,0,1,1,0-1.089h2.268a10.126,10.126,0,0,1,9.571-9.571v-2.268a.545.545,0,0,1,1.089,0v2.268a10.135,10.135,0,0,1,9.571,9.571h2.268a.545.545,0,1,1,0,1.089H65.645a10.126,10.126,0,0,1-9.571,9.571v2.268a.545.545,0,0,1-1.089,0Z" transform="translate(-38.865 -206.443)" fill="#919191" fill-rule="evenodd"/>
          <path id="Path_1046075" data-name="Path 1046075" d="M41.273,236.445a10.135,10.135,0,0,1-9.571-9.571H29.445a.545.545,0,1,1,0-1.089h2.268a10.135,10.135,0,0,1,9.571-9.571v-2.268a.545.545,0,0,1,1.089,0v2.268a10.135,10.135,0,0,1,9.571,9.571h2.268a.545.545,0,1,1,0,1.089H51.945a10.118,10.118,0,0,1-9.571,9.571V238.7a.545.545,0,0,1-1.089,0v-2.257Z" transform="translate(-26.688 -190.889)" fill="#ed2024" fill-rule="evenodd"/>
          <path id="Path_1046076" data-name="Path 1046076" d="M93.992,284.884a6.392,6.392,0,1,1,6.392-6.392A6.393,6.393,0,0,1,93.992,284.884Z" transform="translate(-78.862 -243.063)" fill="#e8dab2" fill-rule="evenodd"/>
          <path id="Path_1046077" data-name="Path 1046077" d="M125.99,312.88a2.39,2.39,0,1,1,2.39-2.39A2.393,2.393,0,0,1,125.99,312.88Z" transform="translate(-110.86 -275.061)" fill="#ed2024" fill-rule="evenodd"/>
        </g>
        <path id="Path_1046078" data-name="Path 1046078" d="M24.285,44.908a2.93,2.93,0,1,1,2.935-2.924A2.931,2.931,0,0,1,24.285,44.908Zm-1.3-1.634a1.842,1.842,0,1,0,0-2.6,1.845,1.845,0,0,0,0,2.6ZM24.83,54.357a.545.545,0,0,1-1.089,0V52.645A10.669,10.669,0,0,1,13.625,42.529H11.9a.545.545,0,0,1,0-1.089h1.712A10.669,10.669,0,0,1,23.73,31.324V29.612a.545.545,0,0,1,1.089,0v1.712A10.669,10.669,0,0,1,34.935,41.44h1.712a.545.545,0,0,1,0,1.089H34.935A10.669,10.669,0,0,1,24.819,52.645v1.712Zm-1.089-2.812v-.333a.545.545,0,0,1,1.089,0v.333a9.592,9.592,0,0,0,9.027-9.027h-.322a.545.545,0,0,1,0-1.089h.322A9.584,9.584,0,0,0,24.83,32.4v.322a.545.545,0,0,1-1.089,0V32.4a9.575,9.575,0,0,0-9.027,9.027h.322a.545.545,0,0,1,0,1.089h-.322A9.575,9.575,0,0,0,23.741,51.545Zm.545-2.635a6.937,6.937,0,1,1,6.937-6.937A6.939,6.939,0,0,1,24.285,48.91Zm-4.135-2.8a5.844,5.844,0,1,0,0-8.271A5.844,5.844,0,0,0,20.15,46.109ZM15.5,29.812H9.689V60.494H38.882V23.453H16.048v5.8a.548.548,0,0,1-.545.556Zm-5.036-1.1h4.491V24.22ZM15.5,22.364h5.847A15.518,15.518,0,0,1,25.975,11.08C29.3,7.934,34.5,6,41.839,6c11.239,0,16.708,7.526,16.708,18.3,0,.289-.011.611-.011.967.667,1.378,1.856,3.257,3.035,5.136.6.945,1.2,1.9,1.7,2.724A2.383,2.383,0,0,1,61.3,36.693l-3.958.189-.067,5.5a5.354,5.354,0,0,1-5.314,5.225h-3.6a4.231,4.231,0,0,0-4.113,3.268l-.878,3.68a.547.547,0,0,1-.534.411H39.96v6.07a.546.546,0,0,1-.545.545H9.145a.546.546,0,0,1-.545-.545V29.267a.546.546,0,0,1,.167-.389l6.348-6.348.044-.033.033-.022.056-.033.145-.056h.078c.011-.022.022-.022.033-.022Zm6.937,0h7.526V20.4a.546.546,0,0,1,.545-.545h1.7a9.2,9.2,0,0,1,1.1-2.668l-1.2-1.212a.543.543,0,0,1,0-.767l2.323-2.312a.543.543,0,0,1,.767,0l1.2,1.2a9.2,9.2,0,0,1,2.668-1.1V11.28a.546.546,0,0,1,.545-.545h3.291a.546.546,0,0,1,.545.545v1.7a9.2,9.2,0,0,1,2.668,1.1l1.212-1.189a.543.543,0,0,1,.767,0l2.323,2.323a.543.543,0,0,1,0,.767l-1.2,1.212a9.2,9.2,0,0,1,1.1,2.668h1.7a.546.546,0,0,1,.545.545V23.7a.546.546,0,0,1-.545.545h-1.69a9.2,9.2,0,0,1-1.1,2.668l1.2,1.212a.543.543,0,0,1,0,.767L48.108,31.2a.543.543,0,0,1-.767,0l-1.2-1.2a9.2,9.2,0,0,1-2.668,1.1v1.7a.546.546,0,0,1-.545.545H39.971V53.879h2.446l.778-3.257a5.368,5.368,0,0,1,2.546-3.413,8.483,8.483,0,0,1-4.813-3.6.543.543,0,0,1,.156-.756.55.55,0,0,1,.756.145,7.7,7.7,0,0,0,2.846,2.624,8.5,8.5,0,0,0,3.78.9h3.524a4.272,4.272,0,0,0,4.235-4.158c.022-1.356.033-2.179.033-3s.011-1.634.033-2.957a.553.553,0,0,1,.5-.578l4.48-.222a1.291,1.291,0,0,0,1.078-1.923c-1.467-2.435-3.846-5.97-4.836-8.082a.606.606,0,0,1-.056-.245c.011-.322.011-.678.011-1.067,0-10.172-4.991-17.2-15.63-17.2-7.059,0-11.984,1.812-15.107,4.78A14.46,14.46,0,0,0,22.44,22.364Zm8.615,0h4.2a6.024,6.024,0,1,1,4.7,5.558v2.312a.56.56,0,0,1,.211.422v1.6h2.2V30.69a.551.551,0,0,1,.445-.567,8.7,8.7,0,0,0,1.612-.478,8.6,8.6,0,0,0,1.445-.778.545.545,0,0,1,.723.044l1.134,1.134,1.556-1.556-1.123-1.134a.552.552,0,0,1-.067-.689,9.022,9.022,0,0,0,.8-1.479,8.258,8.258,0,0,0,.478-1.567.552.552,0,0,1,.545-.478h1.6v-2.2H49.887a.537.537,0,0,1-.534-.445A8.141,8.141,0,0,0,48.1,17.45a.545.545,0,0,1,.044-.723l1.123-1.134-1.556-1.556-1.123,1.134a.554.554,0,0,1-.689.067,8.916,8.916,0,0,0-1.467-.8,9.148,9.148,0,0,0-1.567-.478.549.549,0,0,1-.478-.534v-1.6h-2.2v1.6a.536.536,0,0,1-.445.534,8.7,8.7,0,0,0-1.612.478,8.6,8.6,0,0,0-1.445.778.545.545,0,0,1-.723-.044l-1.123-1.134-1.556,1.556L34.4,16.727a.552.552,0,0,1,.067.689,9.021,9.021,0,0,0-.8,1.479,8.257,8.257,0,0,0-.478,1.567.552.552,0,0,1-.545.478h-1.6v1.423Zm5.291,0h3.079a.546.546,0,0,1,.545.545v3.9a4.94,4.94,0,1,0-3.624-4.447Z"/>
      </g>
    </g>
  </g>
</svg>
