<svg xmlns="http://www.w3.org/2000/svg" xmlns:xlink="http://www.w3.org/1999/xlink" width="113" height="113" viewBox="0 0 113 113">
  <defs>
    <filter id="Path_982547" x="0" y="0" width="113" height="113" filterUnits="userSpaceOnUse">
      <feOffset dy="3" input="SourceAlpha"/>
      <feGaussianBlur stdDeviation="3" result="blur"/>
      <feFlood flood-opacity="0.161"/>
      <feComposite operator="in" in2="blur"/>
      <feComposite in="SourceGraphic"/>
    </filter>
  </defs>
  <g id="Group_1179316" data-name="Group 1179316" transform="translate(-12263.49 -3454.314)">
    <g id="Group_1179214" data-name="Group 1179214">
      <g id="Group_1178880" data-name="Group 1178880" transform="translate(11470 1964.879)">
        <g id="Group_1176922" data-name="Group 1176922" transform="translate(802.49 1495.435)">
          <g id="Group_1172322" data-name="Group 1172322" transform="translate(0 0)">
            <g id="Group_1164700" data-name="Group 1164700">
              <g id="Group_1160931" data-name="Group 1160931">
                <g id="Group_1160749" data-name="Group 1160749">
                  <g id="Group_1158891" data-name="Group 1158891">
                    <g id="Group_1157406" data-name="Group 1157406">
                      <g id="Group_1155793" data-name="Group 1155793">
                        <g id="Group_1154704" data-name="Group 1154704">
                          <g id="Group_1150790" data-name="Group 1150790">
                            <g id="Group_1154214" data-name="Group 1154214">
                              <g id="Group_1152583" data-name="Group 1152583">
                                <g id="Group_1146973" data-name="Group 1146973">
                                  <g id="Group_1146954" data-name="Group 1146954">
                                    <g transform="matrix(1, 0, 0, 1, -9, -6)" filter="url(#Path_982547)">
                                      <g id="Path_982547-2" data-name="Path 982547" transform="translate(9 6)" fill="#fbedfe">
                                        <path d="M 47.5000114440918 93.49987030029297 C 41.28938293457031 93.49987030029297 35.26534652709961 92.28384399414062 29.5951976776123 89.88558959960938 C 24.11773109436035 87.56881713867188 19.19814491271973 84.25183868408203 14.97310447692871 80.02680206298828 C 10.74805164337158 75.80176544189453 7.43107795715332 70.88218688964844 5.114304542541504 65.40472412109375 C 2.716038227081299 59.73458862304688 1.500011444091797 53.71054840087891 1.500011444091797 47.49993515014648 C 1.500011444091797 41.28932189941406 2.716038227081299 35.26528167724609 5.114304542541504 29.59514808654785 C 7.43107795715332 24.1176815032959 10.74805164337158 19.1981086730957 14.97310447692871 14.97306823730469 C 19.19814491271973 10.74802875518799 24.11773109436035 7.431055068969727 29.5951976776123 5.11428165435791 C 35.26534652709961 2.716028451919556 41.28938293457031 1.500001788139343 47.5000114440918 1.500001788139343 C 53.71063995361328 1.500001788139343 59.73467636108398 2.716028451919556 65.40482330322266 5.11428165435791 C 70.88229370117188 7.431055068969727 75.8018798828125 10.74802875518799 80.02691650390625 14.97306823730469 C 84.25196838378906 19.1981086730957 87.56894683837891 24.1176815032959 89.88571929931641 29.59514808654785 C 92.28398132324219 35.26528167724609 93.50001525878906 41.28932189941406 93.50001525878906 47.49993515014648 C 93.50001525878906 53.71054840087891 92.28398132324219 59.73458862304688 89.88571929931641 65.40472412109375 C 87.56894683837891 70.88218688964844 84.25196838378906 75.80176544189453 80.02691650390625 80.02680206298828 C 75.8018798828125 84.25183868408203 70.88229370117188 87.56881713867188 65.40482330322266 89.88558959960938 C 59.73467636108398 92.28384399414062 53.71063995361328 93.49987030029297 47.5000114440918 93.49987030029297 Z" stroke="none"/>
                                        <path d="M 47.5000114440918 3 C 41.49122619628906 3 35.66378021240234 4.1761474609375 30.17951965332031 6.495796203613281 C 24.880859375 8.7369384765625 20.12153625488281 11.94596862792969 16.03376770019531 16.03373718261719 C 11.94598388671875 20.12149047851562 8.736968994140625 24.88081359863281 6.495811462402344 30.17947387695312 C 4.176162719726562 35.66371917724609 3.000007629394531 41.49116516113281 3.000007629394531 47.49993515014648 C 3.000007629394531 53.50870513916016 4.176162719726562 59.33615112304688 6.495811462402344 64.82039642333984 C 8.736968994140625 70.11905670166016 11.94598388671875 74.87837982177734 16.03376770019531 78.96613311767578 C 20.12153625488281 83.05390167236328 24.880859375 86.26293182373047 30.17951965332031 88.50407409667969 C 35.66378021240234 90.82372283935547 41.49122619628906 91.99987030029297 47.5000114440918 91.99987030029297 C 53.50879669189453 91.99987030029297 59.33624267578125 90.82372283935547 64.82050323486328 88.50407409667969 C 70.11916351318359 86.26293182373047 74.87848663330078 83.05390167236328 78.96625518798828 78.96613311767578 C 83.05403900146484 74.87837982177734 86.2630615234375 70.11905670166016 88.50421142578125 64.82039642333984 C 90.82386016845703 59.33615112304688 92.00001525878906 53.50870513916016 92.00001525878906 47.49993515014648 C 92.00001525878906 41.49116516113281 90.82386016845703 35.66371917724609 88.50421142578125 30.17947387695312 C 86.2630615234375 24.88081359863281 83.05403900146484 20.12149047851562 78.96625518798828 16.03373718261719 C 74.87848663330078 11.94596862792969 70.11916351318359 8.7369384765625 64.82050323486328 6.495796203613281 C 59.33624267578125 4.1761474609375 53.50879669189453 3 47.5000114440918 3 M 47.5000114440918 0 C 73.73353576660156 0 95.00001525878906 21.26644134521484 95.00001525878906 47.49993515014648 C 95.00001525878906 73.73342895507812 73.73353576660156 94.99987030029297 47.5000114440918 94.99987030029297 C 21.26648712158203 94.99987030029297 7.62939453125e-06 73.73342895507812 7.62939453125e-06 47.49993515014648 C 7.62939453125e-06 21.26644134521484 21.26648712158203 0 47.5000114440918 0 Z" stroke="none" fill="#7b3289"/>
                                      </g>
                                    </g>
                                  </g>
                                </g>
                              </g>
                            </g>
                          </g>
                        </g>
                      </g>
                    </g>
                  </g>
                </g>
              </g>
            </g>
          </g>
        </g>
      </g>
      <g id="regulatory_12250156" transform="translate(12258.984 3472.285)">
        <g id="Group_1179213" data-name="Group 1179213" transform="translate(33.871 4.645)">
          <g id="Group_1179212" data-name="Group 1179212" transform="translate(0 0)">
            <path id="Path_1041605" data-name="Path 1041605" d="M85.68,58.357h38.775q.025-24.6.039-49.194H85.722Z" transform="translate(-79.855 -9.163)" fill="#ecba78" fill-rule="evenodd"/>
            <path id="Path_1041606" data-name="Path 1041606" d="M39.121,104.8H77.9V63.581L69.9,55.589H39.121Z" transform="translate(-39.121 -49.78)" fill="#f3f5fb" fill-rule="evenodd"/>
            <path id="Path_1041607" data-name="Path 1041607" d="M293.145,63.581l-7.992-7.992v7.992Z" transform="translate(-254.37 -49.78)" fill="#e5eaf1" fill-rule="evenodd"/>
            <path id="Path_1041608" data-name="Path 1041608" d="M172.951,143.475a.748.748,0,0,1,0-1.5H188.43a.748.748,0,1,1,0,1.5Zm0,27.289a.748.748,0,0,1,0-1.5h8.157a.748.748,0,1,1,0,1.5Zm0-3.276a.748.748,0,0,1,0-1.5h8.157a.748.748,0,1,1,0,1.5Zm0-8.731a.748.748,0,0,1,0-1.5H188.43a.748.748,0,1,1,0,1.5Zm0-3.276a.748.748,0,0,1,0-1.5H188.43a.748.748,0,1,1,0,1.5Zm0-8.731a.748.748,0,0,1,0-1.5H188.43a.748.748,0,1,1,0,1.5H172.951Z" transform="translate(-155.552 -125.361)" fill="#77899b" fill-rule="evenodd"/>
            <path id="Path_1041609" data-name="Path 1041609" d="M79.388,216.975l1.09,3.378,3.55-.007-2.876,2.081,1.1,3.374-2.868-2.092L76.52,225.8l1.1-3.374-2.876-2.081,3.55.007Z" transform="translate(-70.29 -190.974)" fill="#ffbd1c" fill-rule="evenodd"/>
            <path id="Path_1041610" data-name="Path 1041610" d="M79.388,121.012l1.09,3.378,3.55-.007-2.876,2.081,1.1,3.374-2.868-2.092-2.868,2.092,1.1-3.374-2.876-2.081,3.55.007Z" transform="translate(-70.29 -107.018)" fill="#ffbd1c" fill-rule="evenodd"/>
            <path id="Path_1041611" data-name="Path 1041611" d="M79.388,312.938l1.09,3.378,3.55-.007-2.876,2.081,1.1,3.374-2.868-2.092-2.868,2.092,1.1-3.374-2.876-2.081,3.55.007Z" transform="translate(-70.29 -274.931)" fill="#ffbd1c" fill-rule="evenodd"/>
            <g id="Group_1179211" data-name="Group 1179211" transform="translate(29.119 31.667)">
              <g id="Group_1179210" data-name="Group 1179210" transform="translate(0)">
                <path id="Path_1041612" data-name="Path 1041612" d="M284.435,292.168c-13.582-6.544-12.547-17.615-12.571-25.29,4.315,0,9.377-1.419,12.571-4.613,3.194,3.194,8.256,4.613,12.571,4.613C296.982,274.553,298.017,285.624,284.435,292.168Z" transform="translate(-271.854 -262.265)" fill="#4677d5" fill-rule="evenodd"/>
                <path id="Path_1041613" data-name="Path 1041613" d="M292.2,266.7a17.262,17.262,0,0,0,9.908-4.439c3.194,3.194,8.256,4.613,12.571,4.613-.024,7.675,1.011,18.746-12.571,25.29C290.875,285.193,291.942,274.363,292.2,266.7Z" transform="translate(-289.523 -262.265)" fill="#5c85da" fill-rule="evenodd"/>
              </g>
              <path id="Path_1041614" data-name="Path 1041614" d="M322.882,347.6a1.673,1.673,0,1,1,2.7-1.978l1.985,2.7,4.554-6.194a1.673,1.673,0,0,1,2.7,1.978l-5.882,8a1.674,1.674,0,0,1-2.72.029l-3.335-4.535Z" transform="translate(-316.215 -331.54)" fill="#4ac994" fill-rule="evenodd"/>
            </g>
          </g>
          <path id="Path_1041615" data-name="Path 1041615" d="M39.121,55.589h2.208V104.8H39.121Z" transform="translate(-39.121 -49.78)" fill="#e5eaf1"/>
          <path id="Path_1041616" data-name="Path 1041616" d="M86.015,9.163h2.208v5.809H86.015Z" transform="translate(-80.148 -9.163)" fill="#e3a76f"/>
        </g>
        <path id="Path_1041617" data-name="Path 1041617" d="M59.426,48.654H51.269a.751.751,0,1,0,0,1.5h8.157a.751.751,0,1,0,0-1.5Zm0-3.276H51.269a.751.751,0,1,0,0,1.5h8.157a.751.751,0,1,0,0-1.5Zm-8.157-7.229h15.48a.751.751,0,0,0,0-1.5H51.269a.751.751,0,1,0,0,1.5Zm0-3.276h15.48a.751.751,0,0,0,0-1.5H51.269a.751.751,0,1,0,0,1.5Zm0-8.732h15.48a.751.751,0,0,0,0-1.5H51.269a.751.751,0,1,0,0,1.5ZM44.292,47.6l.993-.717H44.059a.749.749,0,0,1-.714-.519L42.969,45.2l-.376,1.165a.75.75,0,0,1-.714.519H40.652l.992.717a.753.753,0,0,1,.275.842l-.381,1.164.989-.722a.753.753,0,0,1,.885,0l.99.722-.382-1.164a.752.752,0,0,1,.274-.842Zm4.03-1.7a.752.752,0,0,1-.275.839L45.616,48.5l.934,2.853a.751.751,0,0,1-1.156.841l-2.425-1.77-2.426,1.77a.752.752,0,0,1-.443.144.752.752,0,0,1-.713-.985L40.32,48.5l-2.432-1.76a.751.751,0,0,1,.44-1.359h0l3,.006.922-2.858a.751.751,0,0,1,1.429,0l.922,2.858,3-.006h0A.75.75,0,0,1,48.323,45.9Zm-4.03-22.31.993-.717-1.225,0h0a.751.751,0,0,1-.714-.52l-.376-1.165-.376,1.165a.752.752,0,0,1-.714.52h0l-1.225,0,.992.717a.753.753,0,0,1,.275.842l-.382,1.163.99-.722a.753.753,0,0,1,.885,0l.99.722-.382-1.163a.752.752,0,0,1,.274-.842Zm4.03-1.7a.753.753,0,0,1-.275.841l-2.432,1.759.934,2.854a.751.751,0,0,1-1.156.84l-2.425-1.769-2.426,1.769a.751.751,0,0,1-1.156-.84l.933-2.854-2.432-1.759a.751.751,0,0,1,.44-1.36h0l3,.006.922-2.856a.751.751,0,0,1,1.429,0l.922,2.856,3-.006h0A.752.752,0,0,1,48.323,21.884Zm-4.03,13.711.993-.718-1.225,0h0a.751.751,0,0,1-.714-.52l-.376-1.165-.376,1.165a.752.752,0,0,1-.714.52h0l-1.225,0,.992.718a.752.752,0,0,1,.275.841L41.536,37.6l.99-.721a.749.749,0,0,1,.885,0l.99.721-.382-1.163a.751.751,0,0,1,.274-.841Zm4.03-1.705a.753.753,0,0,1-.275.841L45.616,36.49l.934,2.854a.751.751,0,0,1-1.156.84l-2.425-1.769-2.426,1.769a.751.751,0,0,1-1.156-.84l.933-2.854L37.888,34.73a.75.75,0,0,1,.44-1.359h0l3,.005.922-2.856a.751.751,0,0,1,1.429,0l.922,2.856,3-.005h0A.751.751,0,0,1,48.323,33.89ZM81.156,47.857a.922.922,0,0,0-1.656-.4l-4.554,6.194a.75.75,0,0,1-1.21,0l-1.986-2.7a.922.922,0,0,0-1.489,1.088L73.6,56.571a.923.923,0,0,0,1.29.2.935.935,0,0,0,.212-.215l.009-.014,5.882-8a.919.919,0,0,0,.168-.686Zm1.484-.228a2.415,2.415,0,0,1-.441,1.8l-5.878,7.994a2.426,2.426,0,0,1-3.935.035l-3.334-4.534h0a2.423,2.423,0,1,1,3.909-2.865l1.38,1.877,3.949-5.371a2.424,2.424,0,0,1,4.351,1.065Zm4.745-5.014c.044,7.558.1,16.949-11.815,22.857a21.938,21.938,0,0,1-7.764-6.048.747.747,0,0,0-.153-.2c-3.963-5.234-3.928-11.359-3.9-16.6,0-.284,0-.564.005-.841a21.066,21.066,0,0,0,9.18-2.461.8.8,0,0,0,.138-.077,14.478,14.478,0,0,0,2.492-1.775,14.534,14.534,0,0,0,2.483,1.771.712.712,0,0,0,.139.079,21.07,21.07,0,0,0,9.187,2.465q0,.415.005.839Zm-21.7,16.4H34.621V11.31H63.9v7.24a.75.75,0,0,0,.751.751h7.242V38.179a19.753,19.753,0,0,1-8.885,2.11.752.752,0,0,0-.751.753c0,.508,0,1.031-.005,1.565-.029,4.921-.062,11.013,3.434,16.412ZM65.4,12.371V17.8h5.43ZM40.484,9.808l0-4.308H77.76c0,10.839-.012,21.6-.023,31.764A12.165,12.165,0,0,1,76.1,35.9a.751.751,0,0,0-1.061,0,12.054,12.054,0,0,1-1.644,1.37V18.55c0-.025,0-.05,0-.074s-.006-.037-.008-.055l0-.019a.643.643,0,0,0-.015-.063.041.041,0,0,0,0-.008.474.474,0,0,0-.023-.062.018.018,0,0,0,0-.008c-.008-.019-.017-.038-.026-.056a.071.071,0,0,1-.005-.01c-.009-.018-.02-.034-.03-.051l-.008-.011a.441.441,0,0,0-.037-.05s0-.006-.006-.009c-.017-.02-.033-.038-.05-.056l-7.991-7.99c-.018-.017-.036-.034-.055-.05l-.015-.011c-.015-.011-.029-.023-.044-.033l-.016-.01c-.015-.01-.03-.019-.046-.028l-.014-.006c-.018-.009-.035-.018-.054-.025l-.009,0c-.02-.007-.039-.015-.06-.021l-.009,0L64.8,9.822l-.019,0c-.018,0-.035-.006-.053-.008s-.05,0-.075,0H40.484ZM75.9,66.984a.753.753,0,0,1-.65,0A23.729,23.729,0,0,1,66.77,60.52h-32.9a.75.75,0,0,1-.751-.751V10.559a.75.75,0,0,1,.751-.751h5.112l.006-5.059A.75.75,0,0,1,39.738,4H78.511a.752.752,0,0,1,.751.751c0,11.417-.011,22.763-.023,33.425a19.756,19.756,0,0,0,8.892,2.113.752.752,0,0,1,.751.753c0,.508,0,1.031.005,1.565.044,7.625.1,18.068-12.991,24.378ZM50.518,22.115a.751.751,0,0,0,.751.751h15.48a.751.751,0,0,0,0-1.5H51.269A.751.751,0,0,0,50.518,22.115Z" fill="#242222" fill-rule="evenodd"/>
      </g>
    </g>
  </g>
</svg>
