<svg xmlns="http://www.w3.org/2000/svg" xmlns:xlink="http://www.w3.org/1999/xlink" width="108" height="108" viewBox="0 0 108 108">
  <defs>
    <filter id="Path_904820" x="0" y="0" width="108" height="108" filterUnits="userSpaceOnUse">
      <feOffset dy="3" input="SourceAlpha"/>
      <feGaussianBlur stdDeviation="3" result="blur"/>
      <feFlood flood-opacity="0.161"/>
      <feComposite operator="in" in2="blur"/>
      <feComposite in="SourceGraphic"/>
    </filter>
  </defs>
  <g id="Group_1206698" data-name="Group 1206698" transform="translate(-200 -762)">
    <g id="Group_1206197" data-name="Group 1206197">
      <g id="Group_1202705" data-name="Group 1202705" transform="translate(209 768)">
        <g id="Group_1173585" data-name="Group 1173585" transform="translate(0 0)">
          <g id="Group_1173428" data-name="Group 1173428">
            <g id="Group_1171958" data-name="Group 1171958">
              <g id="Group_1167341" data-name="Group 1167341">
                <g id="Group_1166792" data-name="Group 1166792">
                  <g transform="matrix(1, 0, 0, 1, -9, -6)" filter="url(#Path_904820)">
                    <g id="Path_904820-2" data-name="Path 904820" transform="translate(9 6)" fill="#f6f9fa">
                      <path d="M 44.99999618530273 88.50002288818359 C 39.12687301635742 88.50002288818359 33.43022155761719 87.35009765625 28.06829643249512 85.08218383789062 C 22.88852119445801 82.89133453369141 18.23629570007324 79.75460815429688 14.24084663391113 75.75916290283203 C 10.24540901184082 71.76371002197266 7.108683586120605 67.11148834228516 4.917821407318115 61.93171310424805 C 2.649921178817749 56.56978607177734 1.499996185302734 50.87313461303711 1.499996185302734 45.0000114440918 C 1.499996185302734 39.12688827514648 2.649921178817749 33.43023681640625 4.917821407318115 28.06829833984375 C 7.108683586120605 22.88852310180664 10.24540901184082 18.2363109588623 14.24084663391113 14.2408618927002 C 18.23629570007324 10.24541187286377 22.88852119445801 7.108686447143555 28.06829643249512 4.917823791503906 C 33.43022155761719 2.649924039840698 39.12687301635742 1.499998927116394 44.99999618530273 1.499998927116394 C 50.87311935424805 1.499998927116394 56.56977081298828 2.649924039840698 61.93169784545898 4.917823791503906 C 67.11147308349609 7.108686447143555 71.76369476318359 10.24541187286377 75.75914764404297 14.2408618927002 C 79.75458526611328 18.2363109588623 82.89131164550781 22.88852310180664 85.08216857910156 28.06829833984375 C 87.35007476806641 33.43023681640625 88.5 39.12688827514648 88.5 45.0000114440918 C 88.5 50.87313461303711 87.35007476806641 56.56978607177734 85.08216857910156 61.93171310424805 C 82.89131164550781 67.11148834228516 79.75458526611328 71.76371002197266 75.75914764404297 75.75916290283203 C 71.76369476318359 79.75460815429688 67.11147308349609 82.89133453369141 61.93169784545898 85.08218383789062 C 56.56977081298828 87.35009765625 50.87311935424805 88.50002288818359 44.99999618530273 88.50002288818359 Z" stroke="none"/>
                      <path d="M 44.99999618530273 3 C 39.32870864868164 3 33.82865142822266 4.110054016113281 28.65262603759766 6.299339294433594 C 23.65165710449219 8.414566040039062 19.15968322753906 11.44333648681641 15.301513671875 15.30152893066406 C 11.44333648681641 19.15969848632812 8.414566040039062 23.65165710449219 6.299339294433594 28.65264129638672 C 4.110054016113281 33.82866668701172 2.999992370605469 39.3287239074707 2.999992370605469 45.0000114440918 C 2.999992370605469 50.67129898071289 4.110054016113281 56.17135620117188 6.299339294433594 61.34738159179688 C 8.414566040039062 66.34836578369141 11.44333648681641 70.84032440185547 15.301513671875 74.69849395751953 C 19.15968322753906 78.55668640136719 23.65165710449219 81.58545684814453 28.65262603759766 83.70068359375 C 33.82865142822266 85.88996887207031 39.32870864868164 87.00002288818359 44.99999618530273 87.00002288818359 C 50.67128372192383 87.00002288818359 56.17134094238281 85.88996887207031 61.34736633300781 83.70068359375 C 66.34834289550781 81.58545684814453 70.84030914306641 78.55668640136719 74.69847869873047 74.69849395751953 C 78.55665588378906 70.84032440185547 81.58542633056641 66.34836578369141 83.70065307617188 61.34738159179688 C 85.88993835449219 56.17135620117188 87 50.67129898071289 87 45.0000114440918 C 87 39.3287239074707 85.88993835449219 33.82866668701172 83.70065307617188 28.65264129638672 C 81.58542633056641 23.65165710449219 78.55665588378906 19.15969848632812 74.69847869873047 15.30152893066406 C 70.84030914306641 11.44333648681641 66.34834289550781 8.414566040039062 61.34736633300781 6.299339294433594 C 56.17134094238281 4.110054016113281 50.67128372192383 3 44.99999618530273 3 M 44.99999618530273 0 C 69.85281372070312 0 90 20.14719390869141 90 45.0000114440918 C 90 69.85282897949219 69.85281372070312 90.00002288818359 44.99999618530273 90.00002288818359 C 20.14717864990234 90.00002288818359 -7.62939453125e-06 69.85282897949219 -7.62939453125e-06 45.0000114440918 C -7.62939453125e-06 20.14719390869141 20.14717864990234 0 44.99999618530273 0 Z" stroke="none" fill="#5e7076"/>
                    </g>
                  </g>
                </g>
              </g>
            </g>
          </g>
        </g>
      </g>
      <g id="solution_9186415" transform="translate(209.017 778.039)">
        <g id="Group_1206196" data-name="Group 1206196" transform="translate(20.114 8.869)">
          <g id="Group_1206192" data-name="Group 1206192" transform="translate(0 8.533)">
            <path id="Path_1045292" data-name="Path 1045292" d="M81.715,388.234h3.5a.8.8,0,0,1,.8.8v8.183a.8.8,0,0,1-.8.8h-3.5a.8.8,0,0,1-.8-.8v-8.183A.8.8,0,0,1,81.715,388.234Z" transform="translate(-75.083 -356.299)" fill="#fe646f" fill-rule="evenodd"/>
            <path id="Path_1045293" data-name="Path 1045293" d="M108.241,388.234h1.329a.8.8,0,0,1,.8.8v8.183a.8.8,0,0,1-.8.8h-1.329a.8.8,0,0,0,.8-.8v-8.183A.8.8,0,0,0,108.241,388.234Z" transform="translate(-99.436 -356.299)" fill="#fd4755" fill-rule="evenodd"/>
            <path id="Path_1045294" data-name="Path 1045294" d="M172.265,341.114h-3.5a.8.8,0,0,0-.8.8v13.306a.8.8,0,0,0,.8.8h3.5a.8.8,0,0,0,.8-.8V341.911A.8.8,0,0,0,172.265,341.114Z" transform="translate(-152.668 -314.302)" fill="#ffe177" fill-rule="evenodd"/>
            <path id="Path_1045295" data-name="Path 1045295" d="M196.617,341.114h-1.329a.8.8,0,0,1,.8.8v13.306a.8.8,0,0,1-.8.8h1.329a.8.8,0,0,0,.8-.8V341.911A.8.8,0,0,0,196.617,341.114Z" transform="translate(-177.019 -314.302)" fill="#ffd064" fill-rule="evenodd"/>
            <path id="Path_1045296" data-name="Path 1045296" d="M259.311,291.911h-3.5a.8.8,0,0,0-.8.8v18.655a.8.8,0,0,0,.8.8h3.5a.8.8,0,0,0,.8-.8V292.708A.8.8,0,0,0,259.311,291.911Z" transform="translate(-230.25 -270.448)" fill="#6cf5c2" fill-rule="evenodd"/>
            <path id="Path_1045297" data-name="Path 1045297" d="M283.663,291.911h-1.329a.8.8,0,0,1,.8.8v18.655a.8.8,0,0,1-.8.8h1.329a.8.8,0,0,0,.8-.8V292.708A.8.8,0,0,0,283.663,291.911Z" transform="translate(-254.602 -270.448)" fill="#00e499" fill-rule="evenodd"/>
            <path id="Path_1045298" data-name="Path 1045298" d="M342.854,247.649h3.5a.8.8,0,0,1,.8.8v23.467a.8.8,0,0,1-.8.8h-3.5a.8.8,0,0,1-.8-.8V248.446A.8.8,0,0,1,342.854,247.649Z" transform="translate(-307.832 -230.998)" fill="#8ac9fe" fill-rule="evenodd"/>
            <path id="Path_1045299" data-name="Path 1045299" d="M369.379,247.649h1.329a.8.8,0,0,1,.8.8v23.467a.8.8,0,0,1-.8.8h-1.329a.8.8,0,0,0,.8-.8V248.446A.8.8,0,0,0,369.379,247.649Z" transform="translate(-332.184 -230.998)" fill="#60b7ff" fill-rule="evenodd"/>
            <path id="Path_1045300" data-name="Path 1045300" d="M29.595,134.012H69.117v2.347H27.248V94.49h2.347Z" transform="translate(-27.248 -94.49)" fill="#9facba" fill-rule="evenodd"/>
          </g>
          <g id="Group_1206193" data-name="Group 1206193" transform="translate(28.905 31.351)">
            <circle id="Ellipse_12637" data-name="Ellipse 12637" cx="10.417" cy="10.417" r="10.417" transform="translate(0 0)" fill="#ffe177"/>
            <path id="Path_1045301" data-name="Path 1045301" d="M383.183,304.369a10.417,10.417,0,1,1,0,20.833c-.236,0-.47-.009-.7-.024a10.416,10.416,0,0,0,0-20.785C382.713,304.378,382.947,304.369,383.183,304.369Z" transform="translate(-372.766 -304.369)" fill="#ffd064" fill-rule="evenodd"/>
            <circle id="Ellipse_12638" data-name="Ellipse 12638" cx="7.954" cy="7.954" r="7.954" transform="translate(2.462 2.462)" fill="#ffc338"/>
            <path id="Path_1045302" data-name="Path 1045302" d="M323.724,327.018a7.954,7.954,0,1,0,0,15.909q.324,0,.642-.026a7.955,7.955,0,0,1,0-15.857Q324.049,327.019,323.724,327.018Z" transform="translate(-313.308 -324.556)" fill="#f5b829" fill-rule="evenodd"/>
          </g>
          <g id="Group_1206194" data-name="Group 1206194" transform="translate(13.66 0)">
            <path id="Path_1045303" data-name="Path 1045303" d="M200.546,203.514h3.792v1.929a1.153,1.153,0,0,1-1.15,1.15H201.7a1.153,1.153,0,0,1-1.15-1.15Z" transform="translate(-195.366 -183.128)" fill="#a0a0a3" fill-rule="evenodd"/>
            <path id="Path_1045304" data-name="Path 1045304" d="M189.7,177.97h6.151v2.406a1.153,1.153,0,0,1-1.15,1.15h-3.851a1.153,1.153,0,0,1-1.15-1.15Z" transform="translate(-185.697 -160.361)" fill="#b1b1b5" fill-rule="evenodd"/>
            <path id="Path_1045305" data-name="Path 1045305" d="M224.527,174.755v2.755a1.153,1.153,0,0,1-1.15,1.15h1.339a1.153,1.153,0,0,0,1.15-1.15v-2.755C225.429,174.768,224.967,174.755,224.527,174.755Z" transform="translate(-215.714 -157.495)" fill="#a0a0a3" fill-rule="evenodd"/>
            <path id="Path_1045306" data-name="Path 1045306" d="M179.121,157.8h8.451v2.3a1.153,1.153,0,0,1-1.15,1.15h-6.151a1.153,1.153,0,0,1-1.15-1.15Z" transform="translate(-176.27 -142.385)" fill="#d1d1d6" fill-rule="evenodd"/>
            <path id="Path_1045307" data-name="Path 1045307" d="M235.1,168.365v1.15a1.153,1.153,0,0,1-1.15,1.15h1.378a1.153,1.153,0,0,0,1.112-1.149v-1.15Z" transform="translate(-225.142 -151.8)" fill="#b1b1b5" fill-rule="evenodd"/>
            <path id="Path_1045308" data-name="Path 1045308" d="M159.971,16a7.076,7.076,0,0,1,7.076,7.076c0,3.93-2.511,3.7-2.851,9.488h-8.451c-.34-5.793-2.851-5.558-2.851-9.488A7.077,7.077,0,0,1,159.971,16Z" transform="translate(-152.895 -16.001)" fill="#ffe177" fill-rule="evenodd"/>
            <path id="Path_1045309" data-name="Path 1045309" d="M211.826,16.031a7.077,7.077,0,0,1,6.407,7.045c0,3.65-2.166,3.708-2.747,8.34-.045.355-.08.736-.1,1.148h1.339c.341-5.793,2.851-5.558,2.851-9.488A7.076,7.076,0,0,0,212.5,16q-.339,0-.67.031Z" transform="translate(-205.419 -16)" fill="#ffd064" fill-rule="evenodd"/>
          </g>
          <g id="Group_1206195" data-name="Group 1206195" transform="translate(4.794 14.038)">
            <path id="Path_1045310" data-name="Path 1045310" d="M89.116,149.105l5.507-3.191a3.9,3.9,0,0,1,3.221-.655,38.724,38.724,0,0,0,5.444,1.673,1.53,1.53,0,0,1,1.058,1.833,1.481,1.481,0,0,1-1.833,1.058l.737.118a3.433,3.433,0,0,0,2.36-.411l5.295-3.084c4.116-2.4,4.72,1.291,3.352,2.133l-9.609,5.917a3.524,3.524,0,0,1-2.853.4l-6.97-1.868-2.581,1.49a1.042,1.042,0,0,1-1.421-.381l-2.087-3.615A1.042,1.042,0,0,1,89.116,149.105Z" transform="translate(-86.722 -145.122)" fill="#f6dccd" fill-rule="evenodd"/>
            <path id="Path_1045311" data-name="Path 1045311" d="M186.765,170.89a1.511,1.511,0,0,1-1.707.729c-1.142-.3-2.282-.611-3.423-.917a.573.573,0,0,1,.3-1.106Z" transform="translate(-169.266 -166.917)" fill="#f1cbbc" fill-rule="evenodd"/>
            <path id="Path_1045312" data-name="Path 1045312" d="M89.116,149.105l5.507-3.191a3.9,3.9,0,0,1,3.221-.655c.678.22,1.585.574,2.6.915l-10.668,6.159-1.044-1.808A1.042,1.042,0,0,1,89.116,149.105Z" transform="translate(-86.722 -145.122)" fill="#f1cbbc" fill-rule="evenodd"/>
            <path id="Path_1045313" data-name="Path 1045313" d="M74.289,162.536l4.368,7.717a.782.782,0,0,1-.295,1.062l-1.486.841a.782.782,0,0,1-1.062-.295l-4.368-7.717a.782.782,0,0,1,.295-1.062l1.486-.841A.782.782,0,0,1,74.289,162.536Z" transform="translate(-71.346 -160.291)" fill="#d1d1d6" fill-rule="evenodd"/>
            <path id="Path_1045314" data-name="Path 1045314" d="M93.272,167.838l.773,1.366.765,1.351a.782.782,0,0,1-.292,1.061l.531-.3a.782.782,0,0,0,.295-1.062l-.767-1.355-1.54-2.721-1.542-2.724-.519-.916a.783.783,0,0,0-.908-.361l.9,1.586,1.54,2.721.767,1.355Z" transform="translate(-88.032 -160.29)" fill="#b1b1b5" fill-rule="evenodd"/>
          </g>
        </g>
        <path id="Path_1045315" data-name="Path 1045315" d="M26.853,26.306a.531.531,0,1,0,.6.448A.526.526,0,0,0,26.853,26.306Zm-1.044.1,1.33-.752,4.283,7.563-1.33.753Zm1.29-.83h0Zm2.543.962,2.226,3.936.711-.41a.869.869,0,0,1,.66-.087l6.97,1.868a2.647,2.647,0,0,0,2.175-.3l9.61-5.919a.863.863,0,0,0,.138-1.023c-.307-.509-1.325-.359-2.6.381l-5.291,3.085a4.275,4.275,0,0,1-2.937.518l-.66-.107-.036-.006c-.839-.171-1.607-.391-2.426-.624-.363-.1-.742-.213-1.131-.316a.87.87,0,0,1,.45-1.68c.4.107.788.217,1.162.324.768.22,1.5.427,2.257.584.64.068.737-.282.773-.434a.65.65,0,0,0-.44-.764,28.078,28.078,0,0,1-4.38-1.3c-.425-.154-.793-.287-1.11-.389a3.009,3.009,0,0,0-2.518.581Zm14.077-9.768A.775.775,0,1,0,42.947,16v.775Zm-2.513,1.739v5.266q-.361-.075-.706-.166v-5.1h.706ZM38.761,16a.775.775,0,1,0-.773.775h.773Zm-4.114-.052a6.2,6.2,0,1,1,12.409,0,5.711,5.711,0,0,1-1.034,3.365,11.832,11.832,0,0,0-1.811,6.079l-.036.7-.747.434a2.359,2.359,0,0,0-.481-1.8V18.511h.773A2.514,2.514,0,1,0,41.207,16v.775H40.5V16a2.515,2.515,0,1,0-2.513,2.514h.773v4.572c-.455-.156-.9-.313-1.295-.458l-.4-.143a11.512,11.512,0,0,0-1.382-3.172A5.678,5.678,0,0,1,34.647,15.945ZM24.254,27.187a1.65,1.65,0,0,1,.624-2.248l1.484-.841a1.657,1.657,0,0,1,2.252.623l.169.3,3.592-2.079a5.7,5.7,0,0,1,2.733-.91,11.268,11.268,0,0,0-.926-1.848,7.46,7.46,0,0,1-1.274-4.244,7.944,7.944,0,1,1,15.889,0,7.422,7.422,0,0,1-1.274,4.244,9.864,9.864,0,0,0-1.545,4.854l2.681-1.563c3.321-1.934,4.641-.315,4.964.228a2.54,2.54,0,0,1-.716,3.4l-9.61,5.919a4.376,4.376,0,0,1-2.318.666,4.713,4.713,0,0,1-1.218-.164l-6.622-1.775-.415.238.256.451a1.65,1.65,0,0,1-.624,2.248l-1.484.841a1.636,1.636,0,0,1-.809.214,1.687,1.687,0,0,1-.445-.061,1.629,1.629,0,0,1-.993-.776ZM66.1,50.636a6.657,6.657,0,1,0-6.657,6.658A6.667,6.667,0,0,0,66.1,50.636Zm1.74,0a8.4,8.4,0,1,1-8.4-8.4A8.407,8.407,0,0,1,67.837,50.636Zm-8.249-.885c1.9.312,2.948,1.168,3.116,2.543a2.3,2.3,0,0,1-.542,1.831,3.294,3.294,0,0,1-1.852,1V55.4a.87.87,0,0,1-1.74,0v-.292a3.075,3.075,0,0,1-2.39-2.236.87.87,0,0,1,1.689-.421,1.542,1.542,0,0,0,1.648,1.015,1.93,1.93,0,0,0,1.33-.479.577.577,0,0,0,.128-.483c-.026-.233-.092-.777-1.673-1.036-2.431-.4-2.86-1.775-2.9-2.56a2.7,2.7,0,0,1,2.165-2.727v-.308a.87.87,0,1,1,1.74,0v.3a3.07,3.07,0,0,1,2.144,1.84.869.869,0,1,1-1.6.673,1.508,1.508,0,0,0-1.791-.836c-.159.036-.952.253-.921.973.01.19.036.7,1.448.927Zm9.4.886a9.546,9.546,0,1,1-9.543-9.548,9.557,9.557,0,0,1,9.543,9.548Zm-48,7.765V18.271h.609V56.924a.869.869,0,0,0,.87.869H50.72q.253.313.537.607Zm5.834-2.347h3.357V50.208H26.817Zm9.462,0h3.357V45.085H36.279Zm9.467,0H49.1v-.883a11.28,11.28,0,0,1,0-9.07V39.735H45.746ZM55.2,40.176a11.2,11.2,0,0,1,3.357-.793l.005-4.461H55.207Zm15.52,10.461a11.282,11.282,0,0,1-17.368,9.5H20.114a.87.87,0,0,1-.87-.87V17.4a.869.869,0,0,1,.87-.869h2.349a.869.869,0,0,1,.87.869V56.054h1.745V49.339a.869.869,0,0,1,.87-.869h5.1a.869.869,0,0,1,.87.869v6.716h2.63V44.215a.868.868,0,0,1,.865-.87h5.1a.87.87,0,0,1,.87.87V56.054h2.63V38.865a.87.87,0,0,1,.87-.87h5.1a.87.87,0,0,1,.87.87v4.464a11.45,11.45,0,0,1,2.615-2.262l.015-7.016a.867.867,0,0,1,.865-.868h5.1a.872.872,0,0,1,.87.871l-.01,5.328A11.3,11.3,0,0,1,70.723,50.636Zm-15.433-24.8A.87.87,0,1,1,55.2,24.1l4.073-.221a.872.872,0,0,1,.911.994l-.588,4.04a.869.869,0,0,1-.86.744.89.89,0,0,1-.128-.009.865.865,0,0,1-.732-.986l.24-1.65a97.231,97.231,0,0,1-32.535,18.7.9.9,0,0,1-.287.048.869.869,0,0,1-.287-1.691A95.453,95.453,0,0,0,56.911,25.751ZM50.1,12.684a.873.873,0,0,0,.435-.117l1.443-.833a.87.87,0,0,0-.87-1.506l-1.443.833a.87.87,0,0,0,.435,1.623Zm-20.366-.95,1.443.834a.87.87,0,1,0,.87-1.507L30.6,10.227a.87.87,0,0,0-.87,1.506Zm20.929,5.418a.869.869,0,0,0,.87.869h1.663a.87.87,0,1,0,0-1.739H51.528A.87.87,0,0,0,50.658,17.151Zm-23.017,0a.869.869,0,0,0,.87.869h1.668a.87.87,0,1,0,0-1.739H28.511A.87.87,0,0,0,27.641,17.151Z" transform="translate(0 0)" fill-rule="evenodd"/>
      </g>
    </g>
  </g>
</svg>
