<svg xmlns="http://www.w3.org/2000/svg" xmlns:xlink="http://www.w3.org/1999/xlink" width="108" height="108" viewBox="0 0 108 108">
  <defs>
    <filter id="Path_904820" x="0" y="0" width="108" height="108" filterUnits="userSpaceOnUse">
      <feOffset dy="3" input="SourceAlpha"/>
      <feGaussianBlur stdDeviation="3" result="blur"/>
      <feFlood flood-opacity="0.161"/>
      <feComposite operator="in" in2="blur"/>
      <feComposite in="SourceGraphic"/>
    </filter>
  </defs>
  <g id="Group_1179268" data-name="Group 1179268" transform="translate(-200.522 -438)">
    <g id="Group_1178819" data-name="Group 1178819" transform="translate(209.522 444)">
      <g id="Group_1173585" data-name="Group 1173585" transform="translate(0 0)">
        <g id="Group_1173428" data-name="Group 1173428">
          <g id="Group_1171958" data-name="Group 1171958">
            <g id="Group_1167341" data-name="Group 1167341">
              <g id="Group_1166792" data-name="Group 1166792">
                <g transform="matrix(1, 0, 0, 1, -9, -6)" filter="url(#Path_904820)">
                  <g id="Path_904820-2" data-name="Path 904820" transform="translate(9 6)" fill="#fbedfe">
                    <path d="M 44.99999618530273 88.49999237060547 C 39.12687301635742 88.49999237060547 33.43022155761719 87.35006713867188 28.06829643249512 85.08216857910156 C 22.88852119445801 82.89130401611328 18.23629570007324 79.75457763671875 14.24084663391113 75.75914001464844 C 10.24540901184082 71.76369476318359 7.108683586120605 67.11146545410156 4.917821407318115 61.93169403076172 C 2.649921178817749 56.56976699829102 1.499996185302734 50.87311553955078 1.499996185302734 44.99999237060547 C 1.499996185302734 39.12686920166016 2.649921178817749 33.43021774291992 4.917821407318115 28.06829261779785 C 7.108683586120605 22.88851737976074 10.24540901184082 18.23630523681641 14.24084663391113 14.24085521697998 C 18.23629570007324 10.24540519714355 22.88852119445801 7.108692169189453 28.06829643249512 4.917829990386963 C 33.43022155761719 2.649929761886597 39.12687301635742 1.500004887580872 44.99999618530273 1.500004887580872 C 50.87311935424805 1.500004887580872 56.56977081298828 2.649929761886597 61.93169784545898 4.917829990386963 C 67.11147308349609 7.108692169189453 71.76369476318359 10.24540519714355 75.75914764404297 14.24085521697998 C 79.75458526611328 18.23630523681641 82.89131164550781 22.88851737976074 85.08216857910156 28.06829261779785 C 87.35007476806641 33.43021774291992 88.5 39.12686920166016 88.5 44.99999237060547 C 88.5 50.87311553955078 87.35007476806641 56.56976699829102 85.08216857910156 61.93169403076172 C 82.89131164550781 67.11146545410156 79.75458526611328 71.76369476318359 75.75914764404297 75.75914001464844 C 71.76369476318359 79.75457763671875 67.11147308349609 82.89130401611328 61.93169784545898 85.08216857910156 C 56.56977081298828 87.35006713867188 50.87311935424805 88.49999237060547 44.99999618530273 88.49999237060547 Z" stroke="none"/>
                    <path d="M 44.99999618530273 2.999992370605469 C 39.32870864868164 2.999992370605469 33.82865142822266 4.11004638671875 28.65262603759766 6.299331665039062 C 23.65165710449219 8.414566040039062 19.15968322753906 11.44333648681641 15.301513671875 15.30150604248047 C 11.44333648681641 19.15967559814453 8.414566040039062 23.65164947509766 6.299339294433594 28.65262222290039 C 4.110054016113281 33.82864761352539 2.999992370605469 39.32870483398438 2.999992370605469 44.99999237060547 C 2.999992370605469 50.67127990722656 4.110054016113281 56.17132186889648 6.299339294433594 61.34736633300781 C 8.414566040039062 66.34833526611328 11.44333648681641 70.84029388427734 15.301513671875 74.69846343994141 C 19.15968322753906 78.55663299560547 23.65165710449219 81.58540344238281 28.65262603759766 83.70063781738281 C 33.82865142822266 85.88992309570312 39.32870864868164 86.99997711181641 44.99999618530273 86.99997711181641 C 50.67128372192383 86.99997711181641 56.17134094238281 85.88992309570312 61.34736633300781 83.70063781738281 C 66.34834289550781 81.58540344238281 70.84030914306641 78.55663299560547 74.69847869873047 74.69846343994141 C 78.55665588378906 70.84029388427734 81.58542633056641 66.34833526611328 83.70065307617188 61.34736633300781 C 85.88993835449219 56.17132186889648 87 50.67127990722656 87 44.99999237060547 C 87 39.32870483398438 85.88993835449219 33.82864761352539 83.70065307617188 28.65262222290039 C 81.58542633056641 23.65164947509766 78.55665588378906 19.15967559814453 74.69847869873047 15.30150604248047 C 70.84030914306641 11.44333648681641 66.34834289550781 8.414566040039062 61.34736633300781 6.299331665039062 C 56.17134094238281 4.11004638671875 50.67128372192383 2.999992370605469 44.99999618530273 2.999992370605469 M 44.99999618530273 -7.62939453125e-06 C 69.85281372070312 -7.62939453125e-06 90 20.14717864990234 90 44.99999237060547 C 90 69.85279083251953 69.85281372070312 89.99997711181641 44.99999618530273 89.99997711181641 C 20.14717864990234 89.99997711181641 -7.62939453125e-06 69.85279083251953 -7.62939453125e-06 44.99999237060547 C -7.62939453125e-06 20.14717864990234 20.14717864990234 -7.62939453125e-06 44.99999618530273 -7.62939453125e-06 Z" stroke="none" fill="#7b3289"/>
                  </g>
                </g>
              </g>
            </g>
          </g>
        </g>
      </g>
      <g id="inspire-idea_14781822_1_" data-name="inspire-idea_14781822 (1)" transform="translate(11.686 11.91)">
        <g id="Group_1173811" data-name="Group 1173811" transform="translate(7.75 7.5)">
          <path id="Path_1030754" data-name="Path 1030754" d="M118.589,345.534V341.79a2.277,2.277,0,0,0,1.851-2.237v-6.439H132.2v6.439a2.277,2.277,0,0,0,1.851,2.237l.32,3.225Z" transform="translate(-107.175 -299.584)" fill="#ca6e59"/>
          <path id="Path_1030755" data-name="Path 1030755" d="M60.475,17.635c0,7.409-3.987,16.211-14.138,13.3l-8.47-3.852a3.345,3.345,0,0,1-.22-4.946L38.5,21.9l.591-.588A3.534,3.534,0,0,1,39.8,15.25a.312.312,0,0,0,.183-.363,3.355,3.355,0,0,1-.094-.79,3.265,3.265,0,0,1,3.229-3.3,3.232,3.232,0,0,1,.628.063,1.533,1.533,0,0,1,.244-.247,1.3,1.3,0,0,0,.542-1.138,3.64,3.64,0,0,1,5.1-.36.307.307,0,0,0,.461-.074,3.195,3.195,0,0,1,5.468,0,.307.307,0,0,0,.462.074,3.627,3.627,0,0,1,.726-.482C60.475,9.764,60.475,14.962,60.475,17.635Z" transform="translate(-33.683 -7.5)" fill="#73788c"/>
          <path id="Path_1030756" data-name="Path 1030756" d="M153.3,30.968a3.319,3.319,0,0,1-1.208,2.572L142.4,38.8h-8.659l-3.1-1.412a15.216,15.216,0,0,0,10.411-22.3,3.6,3.6,0,0,1,1.639-.392,3.654,3.654,0,0,1,2.734,1.235l.17.831.616.554a3.23,3.23,0,0,1,.627-.063,3.265,3.265,0,0,1,3.23,3.3,3.373,3.373,0,0,1-.17,1.056,3.53,3.53,0,0,1,.967,6.159A3.289,3.289,0,0,1,153.3,30.968Z" transform="translate(-117.985 -13.959)" fill="#5e6577"/>
          <path id="Path_1030757" data-name="Path 1030757" d="M68.254,200.266a5.638,5.638,0,0,0,4.295-5.475h0a2.242,2.242,0,0,0-2.242-2.242H68.253l-22.584,0H43.617a2.242,2.242,0,0,0-2.242,2.242h0a5.638,5.638,0,0,0,4.295,5.475Z" transform="translate(-37.912 -173.493)" fill="#ca6e59"/>
          <path id="Path_1030758" data-name="Path 1030758" d="M100.054,130.952a2.231,2.231,0,0,1,2.913.96,8.952,8.952,0,0,0,.747,1.135l.487.648c.206.6.665,3.41,1.3,3.41v8.553a7.135,7.135,0,0,1-2.437,5.371l-4.431,3.878a4.756,4.756,0,0,1-3.132,1.176H92.874a4.756,4.756,0,0,1-3.132-1.176l-4.431-3.878a7.135,7.135,0,0,1-2.437-5.371V137.1a1.514,1.514,0,0,0,1.407-1.035l.976-3.807a2.23,2.23,0,0,1,3.072-1.289l.143.068,1.148.44a12.709,12.709,0,0,0,9.095,0l1.148-.44Z" transform="translate(-75.139 -118.049)" fill="#d78878"/>
          <path id="Path_1030759" data-name="Path 1030759" d="M170.679,300.125c-2.443,0-2.552-2.255-2.511-3.073a.308.308,0,0,1,.309-.292h4.4a.308.308,0,0,1,.309.3C173.2,297.884,173.041,300.125,170.679,300.125Z" transform="translate(-151.644 -266.973)" fill="#eaf6ff"/>
          <path id="Path_1030760" data-name="Path 1030760" d="M14.523,439.774l-6.464-.015a.308.308,0,0,1-.309-.309v-5.739a.31.31,0,0,1,.166-.275,9.987,9.987,0,0,1,2.693-.927l.745-.149,6.568,2.436Z" transform="translate(-7.75 -388.61)" fill="#9be69d"/>
          <path id="Path_1030761" data-name="Path 1030761" d="M297.987,435.26l-2.493,4.069-8.607.006-3.114-5.453c.034-.035,6.3-2,6.3-2l.425.081a9.991,9.991,0,0,1,2.814.991Z" transform="translate(-255.348 -388.179)" fill="#9be69d"/>
          <path id="Path_1030762" data-name="Path 1030762" d="M122.3,418.39l.94,4.725-3.4,4.116-10.323.012-3.916-4.316,1.461-4.512A10.573,10.573,0,0,0,122.3,418.39Z" transform="translate(-95.53 -376.078)" fill="#eaf6ff"/>
          <path id="Path_1030763" data-name="Path 1030763" d="M49.286,409.063l-2.812-10.111a1.132,1.132,0,0,0-1.419-.779L38.8,400.078a.49.49,0,0,0-.306.668l1.319,2.986a.309.309,0,0,0,.213.176l3.213.737a.309.309,0,0,1,.184.478l-1.743,2.5a.309.309,0,0,0-.037.281l.42,1.16Z" transform="translate(-35.294 -357.899)" fill="#bbf49b"/>
          <path id="Path_1030764" data-name="Path 1030764" d="M243.879,408.846l2.815-10.123a1.131,1.131,0,0,1,1.419-.779l6.251,1.9a.491.491,0,0,1,.306.668l-1.319,2.986a.309.309,0,0,1-.214.176l-3.213.737a.309.309,0,0,0-.184.478l1.744,2.5a.309.309,0,0,1,.037.281l-.422,1.175Z" transform="translate(-219.563 -357.694)" fill="#bbf49b"/>
          <g id="Group_1173808" data-name="Group 1173808" transform="translate(38.12 27.934)">
            <path id="Path_1030765" data-name="Path 1030765" d="M390.169,387.922v3.96a12.063,12.063,0,0,1-.272,2.4,8.434,8.434,0,0,1-.976,1.755c-.624,1.05-.351,2.132-.347,3.353l-.791.506h-7.8v-1.7a4.259,4.259,0,0,0-1.12-2.878,3.525,3.525,0,0,1-.926-2.379v-1.706a2.089,2.089,0,0,1,.892-1.712Z" transform="translate(-377.933 -376.682)" fill="#d78878"/>
            <g id="Group_1173807" data-name="Group 1173807" transform="translate(9.524 6.649)">
              <path id="Path_1030766" data-name="Path 1030766" d="M473.137,344.014v3.926a.823.823,0,0,1-.331.737c-.247.247-1.115-.131-1.492-.128l-.671-.718-.217-2.552.712-.55a1.381,1.381,0,0,1,1.345-1.379C472.936,343.519,473.137,343.752,473.137,344.014Z" transform="translate(-470.425 -343.35)" fill="#d78878"/>
              <path id="Path_1030767" data-name="Path 1030767" d="M481.642,344.72v3.1a1.382,1.382,0,0,1-2.5.812l-.089-.094a1.382,1.382,0,0,0,1.37-1.382v-3.1a1.373,1.373,0,0,0-.2-.718h.037A1.381,1.381,0,0,1,481.642,344.72Z" transform="translate(-478.166 -343.34)" fill="#ca6e59"/>
            </g>
            <path id="Path_1030768" data-name="Path 1030768" d="M476.708,386.87V391a6.735,6.735,0,0,1-.947,3.445,6.737,6.737,0,0,0-.946,3.47l0,.728a.309.309,0,0,1-.309.31h-.95l0-1.038a6.748,6.748,0,0,1,.947-3.47,6.734,6.734,0,0,0,.947-3.445v-3.952Z" transform="translate(-463.707 -375.738)" fill="#ca6e59"/>
            <path id="Path_1030769" data-name="Path 1030769" d="M391.425,281.356v11.154c0,.8-1.311,1.456-2.112,1.456l.681-1.819-.942-.9v-9.9a1.458,1.458,0,0,1,.859-1.326A1.347,1.347,0,0,1,391.425,281.356Z" transform="translate(-387.907 -279.9)" fill="#d78878"/>
            <path id="Path_1030770" data-name="Path 1030770" d="M417.693,332.177v3.66c0,.59-.958,1.1-1.465,1.328a1.46,1.46,0,0,1-.862-1.328l-.356-.079V332.3l.356-.126a1.459,1.459,0,0,1,.862-1.327C417.45,331.006,417.693,331.588,417.693,332.177Z" transform="translate(-411.193 -325.487)" fill="#d78878"/>
            <path id="Path_1030771" data-name="Path 1030771" d="M447.3,332.177v3.881c0,.589-1.065,1.1-1.572,1.327a1.458,1.458,0,0,1-.862-1.327l-.347-.221v-3.5l.347-.157a1.459,1.459,0,0,1,.862-1.327C447.1,331.038,447.3,331.588,447.3,332.177Z" transform="translate(-437.658 -325.487)" fill="#d78878"/>
            <path id="Path_1030772" data-name="Path 1030772" d="M399.564,280.226v10.561a.659.659,0,0,1-1.312,0V280.226a1.46,1.46,0,0,0-.858-1.326,1.434,1.434,0,0,1,.6-.13h.116A1.46,1.46,0,0,1,399.564,280.226Z" transform="translate(-395.39 -278.77)" fill="#ca6e59"/>
            <path id="Path_1030773" data-name="Path 1030773" d="M429,331.056v3.66a1.461,1.461,0,0,1-1.456,1.457h-.117a1.422,1.422,0,0,1-.594-.129,1.46,1.46,0,0,0,.862-1.328v-3.66a1.459,1.459,0,0,0-.862-1.327,1.423,1.423,0,0,1,.594-.129h.117A1.461,1.461,0,0,1,429,331.056Z" transform="translate(-421.798 -324.366)" fill="#ca6e59"/>
            <path id="Path_1030774" data-name="Path 1030774" d="M458.422,331.056v3.881a1.461,1.461,0,0,1-1.457,1.456h-.116a1.418,1.418,0,0,1-.594-.129,1.458,1.458,0,0,0,.861-1.327v-3.881a1.46,1.46,0,0,0-.861-1.327,1.419,1.419,0,0,1,.594-.129h.116A1.462,1.462,0,0,1,458.422,331.056Z" transform="translate(-448.189 -324.366)" fill="#ca6e59"/>
            <path id="Path_1030775" data-name="Path 1030775" d="M399.275,367.073a3.136,3.136,0,0,1-.066.641c-.271,1.3-2.2,1.456-3.563,1.6a4.356,4.356,0,0,0-2.581-.351c-.817.253-1.329,1.564-1.341,1.555l-2.673-1.4V367.8l2.581-1.856a2.892,2.892,0,0,1,1.653-.538l4.285-.04A1.709,1.709,0,0,1,399.275,367.073Z" transform="translate(-387.905 -356.449)" fill="#ca6e59"/>
            <path id="Path_1030776" data-name="Path 1030776" d="M390.521,380.955l1.219-1.641a.309.309,0,0,1,.211-.122l2.635-.319a2.091,2.091,0,0,0,1.441-2.006.7.7,0,0,0-.708-.688h-3.877a2.617,2.617,0,0,0-1.5.473l-3.346,2.342Z" transform="translate(-385.703 -366.148)" fill="#d78878"/>
          </g>
          <g id="Group_1173810" data-name="Group 1173810" transform="translate(28.294 1.456)">
            <path id="Path_1030777" data-name="Path 1030777" d="M303.171,29.886A12,12,0,0,1,291.26,42.066c-2.173,0-6.943-1.595-7.564-3.326l.117-.474a.306.306,0,0,0-.027-.215A11.244,11.244,0,0,1,301.2,24.439,10.674,10.674,0,0,1,303.171,29.886Z" transform="translate(-282.516 -21.635)" fill="#eaf6ff"/>
            <path id="Path_1030778" data-name="Path 1030778" d="M305.977,59.681A11.261,11.261,0,0,1,289.1,66.871a.307.307,0,0,0-.218-.04l-4.637.884a.309.309,0,0,1-.358-.378l1.031-4.171a12.126,12.126,0,0,0,17.5-14.3A11.217,11.217,0,0,1,305.977,59.681Z" transform="translate(-283.736 -46.061)" fill="#d8ecfe"/>
            <g id="Group_1173809" data-name="Group 1173809" transform="translate(5.442 2.801)">
              <path id="Path_1030779" data-name="Path 1030779" d="M345.637,55.3c0,3.013-3.165,5.927-6.239,5.927-.466,0-.971.317-1.785-.886a6.551,6.551,0,0,0-.806-1.417,5.581,5.581,0,0,1,3.15-9.242C344.181,49.682,345.637,52.619,345.637,55.3Z" transform="translate(-335.361 -49.595)" fill="#ffe177"/>
              <path id="Path_1030780" data-name="Path 1030780" d="M364.649,54.418a5.561,5.561,0,0,1-1.42,3.719,6.738,6.738,0,0,0-1.351,4.018V62.5l-5.619.018v-.308a9.432,9.432,0,0,0-.691-3.07,5.651,5.651,0,0,0,1.352.163c3.075,0,5.738-2,5.738-5.015a5.487,5.487,0,0,0-4.576-5.367,5.585,5.585,0,0,1,6.567,5.494Z" transform="translate(-353.487 -48.837)" fill="#ffd15b"/>
              <path id="Path_1030781" data-name="Path 1030781" d="M366.739,179.51l.874,1.706c0,.926-.555,1.706-2.548,1.706h-.438a1.676,1.676,0,0,1-1.676-1.676V179.51h3.788Z" transform="translate(-360.11 -166.054)" fill="#5e6577"/>
              <path id="Path_1030782" data-name="Path 1030782" d="M386.841,179.511v1.736a1.676,1.676,0,0,1-1.676,1.676h-1.691a1.675,1.675,0,0,0,1.675-1.676v-1.736Z" transform="translate(-378.52 -166.055)" fill="#4d5263"/>
              <path id="Path_1030783" data-name="Path 1030783" d="M354.11,160.56c0,.371.225.791,0,1.035a6.748,6.748,0,0,1-2.24.532h-4.122a1.3,1.3,0,0,1-1.244-1.343,1.4,1.4,0,0,1,.364-.951,1.2,1.2,0,0,1,.88-.393h4.122C352.557,159.439,354.11,159.817,354.11,160.56Z" transform="translate(-345.357 -148.05)" fill="#73788c"/>
              <path id="Path_1030784" data-name="Path 1030784" d="M402.112,160.783a1.4,1.4,0,0,1-.364.95,1.2,1.2,0,0,1-.88.393h-2.257a1.2,1.2,0,0,0,.88-.393,1.4,1.4,0,0,0,.364-.95,1.3,1.3,0,0,0-1.244-1.344h2.257A1.3,1.3,0,0,1,402.112,160.783Z" transform="translate(-392.098 -148.05)" fill="#5e6577"/>
            </g>
          </g>
        </g>
        <g id="Group_1173820" data-name="Group 1173820" transform="translate(7.75 7.5)">
          <g id="Group_1173812" data-name="Group 1173812" transform="translate(3.463 19.058)">
            <path id="Path_1030785" data-name="Path 1030785" d="M45.619,200.281a5.638,5.638,0,0,1-4.243-5.462h0a2.242,2.242,0,0,1,2.242-2.242h2.053" transform="translate(-41.376 -192.577)" fill="none" stroke="#000" stroke-linecap="round" stroke-linejoin="round" stroke-miterlimit="10" stroke-width="0.8"/>
            <path id="Path_1030786" data-name="Path 1030786" d="M306.981,232.041a5.647,5.647,0,0,1-3.924,3.633" transform="translate(-276.11 -227.977)" fill="none" stroke="#000" stroke-linecap="round" stroke-linejoin="round" stroke-miterlimit="10" stroke-width="0.8"/>
          </g>
          <path id="Path_1030787" data-name="Path 1030787" d="M209.872,132.2a12.705,12.705,0,0,0,2.763-.715l1.148-.44.19-.09a2.23,2.23,0,0,1,3.059,1.3" transform="translate(-189.058 -118.049)" fill="none" stroke="#000" stroke-linecap="round" stroke-linejoin="round" stroke-miterlimit="10" stroke-width="0.8"/>
          <path id="Path_1030788" data-name="Path 1030788" d="M105.5,141.393v4.4a7.135,7.135,0,0,1-2.437,5.371l-4.431,3.878a4.756,4.756,0,0,1-3.132,1.176H92.874a4.756,4.756,0,0,1-3.132-1.176l-4.431-3.878a7.135,7.135,0,0,1-2.437-5.371v-8.553a1.514,1.514,0,0,0,1.407-1.035l.976-3.807a2.23,2.23,0,0,1,3.072-1.289l.143.068,1.148.44a12.7,12.7,0,0,0,2.746.713" transform="translate(-75.139 -118.181)" fill="none" stroke="#000" stroke-linecap="round" stroke-linejoin="round" stroke-miterlimit="10" stroke-width="0.8"/>
          <g id="Group_1173814" data-name="Group 1173814" transform="translate(12.513 18.08)">
            <g id="Group_1173813" data-name="Group 1173813">
              <path id="Path_1030789" data-name="Path 1030789" d="M184.254,262.089a2.387,2.387,0,0,1-2.165,0" transform="translate(-176.649 -253.952)" fill="none" stroke="#000" stroke-linecap="round" stroke-linejoin="round" stroke-miterlimit="10" stroke-width="0.8"/>
              <path id="Path_1030790" data-name="Path 1030790" d="M133.225,183.58a4.119,4.119,0,0,0-3.959,0" transform="translate(-129.266 -183.073)" fill="none" stroke="#000" stroke-linecap="round" stroke-linejoin="round" stroke-miterlimit="10" stroke-width="0.8"/>
              <path id="Path_1030791" data-name="Path 1030791" d="M221.445,183.58a4.119,4.119,0,0,0-3.959,0" transform="translate(-208.402 -183.073)" fill="none" stroke="#000" stroke-linecap="round" stroke-linejoin="round" stroke-miterlimit="10" stroke-width="0.8"/>
              <line id="Line_813" data-name="Line 813" y1="1.754" transform="translate(11.064 2.973)" fill="none" stroke="#000" stroke-linecap="round" stroke-linejoin="round" stroke-miterlimit="10" stroke-width="0.8"/>
              <line id="Line_814" data-name="Line 814" y1="1.754" transform="translate(1.98 2.973)" fill="none" stroke="#000" stroke-linecap="round" stroke-linejoin="round" stroke-miterlimit="10" stroke-width="0.8"/>
            </g>
            <path id="Path_1030792" data-name="Path 1030792" d="M170.679,300.125c-2.984,0-2.485-3.365-2.485-3.365h4.97S173.574,300.125,170.679,300.125Z" transform="translate(-164.157 -285.053)" fill="none" stroke="#000" stroke-linecap="round" stroke-linejoin="round" stroke-miterlimit="10" stroke-width="0.8"/>
          </g>
          <path id="Path_1030793" data-name="Path 1030793" d="M64.994,11.954a3.184,3.184,0,0,0-3.083-1.092,3.706,3.706,0,0,0-3.519-2.62A3.647,3.647,0,0,0,55.747,9.38a3.2,3.2,0,0,0-5.832,0,3.647,3.647,0,0,0-2.644-1.138,3.706,3.706,0,0,0-3.519,2.62,3.182,3.182,0,0,0-.628-.063,3.265,3.265,0,0,0-3.23,3.3,3.357,3.357,0,0,0,.17,1.055,3.531,3.531,0,0,0-.967,6.16,3.327,3.327,0,0,0-1.225,5.769" transform="translate(-33.687 -7.5)" fill="none" stroke="#000" stroke-linecap="round" stroke-linejoin="round" stroke-miterlimit="10" stroke-width="0.8"/>
          <path id="Path_1030794" data-name="Path 1030794" d="M61.784,142.232a3.233,3.233,0,0,1-1.457-.591" transform="translate(-54.913 -127.828)" fill="none" stroke="#000" stroke-linecap="round" stroke-linejoin="round" stroke-miterlimit="10" stroke-width="0.8"/>
          <path id="Path_1030795" data-name="Path 1030795" d="M105.6,40.2a3.065,3.065,0,0,1,1.942,1.291" transform="translate(-95.524 -36.832)" fill="none" stroke="#000" stroke-linecap="round" stroke-linejoin="round" stroke-miterlimit="10" stroke-width="0.8"/>
          <path id="Path_1030796" data-name="Path 1030796" d="M268.106,40.183a3.069,3.069,0,0,0-1.56,1.189" transform="translate(-239.896 -36.817)" fill="none" stroke="#000" stroke-linecap="round" stroke-linejoin="round" stroke-miterlimit="10" stroke-width="0.8"/>
          <path id="Path_1030797" data-name="Path 1030797" d="M302.314,33.207q-.052.326-.123.653a11.592,11.592,0,0,1-17.48,7.338l-5.382,1.026,1.329-5.379A11.563,11.563,0,0,1,288.932,20" transform="translate(-251.332 -18.715)" fill="none" stroke="#000" stroke-linecap="round" stroke-linejoin="round" stroke-miterlimit="10" stroke-width="0.8"/>
          <path id="Path_1030798" data-name="Path 1030798" d="M407.545,19.544q.415.059.832.15a11.576,11.576,0,0,1,8.983,9.5" transform="translate(-366.376 -18.304)" fill="none" stroke="#000" stroke-linecap="round" stroke-linejoin="round" stroke-miterlimit="10" stroke-width="0.8"/>
          <g id="Group_1173815" data-name="Group 1173815" transform="translate(33.735 4.259)">
            <path id="Path_1030799" data-name="Path 1030799" d="M337.781,60.06a6.583,6.583,0,0,0-.982-1.89,5.575,5.575,0,1,1,8.288-.028,6.876,6.876,0,0,0-1,1.9" transform="translate(-335.355 -48.863)" fill="none" stroke="#000" stroke-linecap="round" stroke-linejoin="round" stroke-miterlimit="10" stroke-width="0.8"/>
            <line id="Line_815" data-name="Line 815" y1="4.099" transform="translate(5.575 7.076)" fill="none" stroke="#000" stroke-linecap="round" stroke-linejoin="round" stroke-miterlimit="10" stroke-width="0.8"/>
            <path id="Path_1030800" data-name="Path 1030800" d="M368.392,186.134v.634a2.059,2.059,0,0,1-2.06,2.06h-1.355a2.059,2.059,0,0,1-2.06-2.06v-.634" transform="translate(-360.08 -171.998)" fill="none" stroke="#000" stroke-linecap="round" stroke-linejoin="round" stroke-miterlimit="10" stroke-width="0.8"/>
            <path id="Path_1030801" data-name="Path 1030801" d="M355.825,160.5h-5.548a1.409,1.409,0,0,1-1.41-1.41V159a1.41,1.41,0,0,1,1.41-1.41h5.548a1.41,1.41,0,0,1,1.41,1.41v.083A1.41,1.41,0,0,1,355.825,160.5Z" transform="translate(-347.476 -146.398)" fill="none" stroke="#000" stroke-linecap="round" stroke-linejoin="round" stroke-miterlimit="10" stroke-width="0.8"/>
            <line id="Line_816" data-name="Line 816" x2="3.569" transform="translate(3.865 7.067)" fill="none" stroke="#000" stroke-linecap="round" stroke-linejoin="round" stroke-miterlimit="10" stroke-width="0.8"/>
          </g>
          <path id="Path_1030802" data-name="Path 1030802" d="M346.53,432.2l.259.049a9.974,9.974,0,0,1,2.814.991" transform="translate(-311.644 -388.462)" fill="none" stroke="#000" stroke-linecap="round" stroke-linejoin="round" stroke-miterlimit="10" stroke-width="0.8"/>
          <path id="Path_1030803" data-name="Path 1030803" d="M250.768,358.351v3.84a2.277,2.277,0,0,0,1.851,2.237" transform="translate(-225.743 -322.222)" fill="none" stroke="#000" stroke-linecap="round" stroke-linejoin="round" stroke-miterlimit="10" stroke-width="0.8"/>
          <path id="Path_1030804" data-name="Path 1030804" d="M118.589,417.362h0a10.576,10.576,0,0,0,15.462,0h0" transform="translate(-107.175 -375.156)" fill="none" stroke="#000" stroke-linecap="round" stroke-linejoin="round" stroke-miterlimit="10" stroke-width="0.8"/>
          <path id="Path_1030805" data-name="Path 1030805" d="M11.014,366.04l-.405.081a9.973,9.973,0,0,0-2.859,1.015m13.264-8.785v3.84a2.277,2.277,0,0,1-1.851,2.237l-.118.023" transform="translate(-7.75 -322.222)" fill="none" stroke="#000" stroke-linecap="round" stroke-linejoin="round" stroke-miterlimit="10" stroke-width="0.8"/>
          <g id="Group_1173816" data-name="Group 1173816" transform="translate(2.879 40.225)">
            <path id="Path_1030806" data-name="Path 1030806" d="M45.338,404.762l-1.616-5.81a1.132,1.132,0,0,0-1.419-.779l-6.251,1.905a.49.49,0,0,0-.306.668l1.381,3.127,3.81.874-2.1,3,.475,1.326" transform="translate(-35.703 -398.124)" fill="none" stroke="#000" stroke-linecap="round" stroke-linejoin="round" stroke-miterlimit="10" stroke-width="0.8"/>
            <line id="Line_817" data-name="Line 817" x1="0.235" y1="0.843" transform="translate(10.6 10.111)" fill="none" stroke="#000" stroke-linecap="round" stroke-linejoin="round" stroke-miterlimit="10" stroke-width="0.8"/>
            <path id="Path_1030807" data-name="Path 1030807" d="M244.868,409.079l2.817-10.126a1.131,1.131,0,0,1,1.419-.779l6.251,1.9a.491.491,0,0,1,.306.668l-1.381,3.128-3.81.874,2.1,3.006-.475,1.325" transform="translate(-223.329 -398.125)" fill="none" stroke="#000" stroke-linecap="round" stroke-linejoin="round" stroke-miterlimit="10" stroke-width="0.8"/>
          </g>
          <g id="Group_1173819" data-name="Group 1173819" transform="translate(38.127 27.964)">
            <g id="Group_1173817" data-name="Group 1173817" transform="translate(10.237 6.649)">
              <path id="Path_1030808" data-name="Path 1030808" d="M480.176,345.006a1.38,1.38,0,0,0-1.38-1.38h0a1.382,1.382,0,0,0-1.382,1.382v3.1a1.382,1.382,0,0,0,1.382,1.382h0a1.382,1.382,0,0,0,1.382-1.382Z" transform="translate(-477.412 -343.626)" fill="none" stroke="#000" stroke-linecap="round" stroke-linejoin="round" stroke-miterlimit="10" stroke-width="0.8"/>
              <path id="Path_1030809" data-name="Path 1030809" d="M490.831,400.563" transform="translate(-489.449 -394.7)" fill="none" stroke="#000" stroke-linecap="round" stroke-linejoin="round" stroke-miterlimit="10" stroke-width="0.8"/>
            </g>
            <g id="Group_1173818" data-name="Group 1173818" transform="translate(11.107 11.17)">
              <path id="Path_1030810" data-name="Path 1030810" d="M487.752,387.53v4.13a6.708,6.708,0,0,1-.947,3.407h0a6.742,6.742,0,0,0-.947,3.47l0,1.038" transform="translate(-485.858 -387.53)" fill="none" stroke="#000" stroke-linecap="round" stroke-linejoin="round" stroke-miterlimit="10" stroke-width="0.8"/>
            </g>
            <path id="Path_1030811" data-name="Path 1030811" d="M433.859,414.75a5.649,5.649,0,0,1,1.206,5.165l-.043.165" transform="translate(-428.107 -400.777)" fill="none" stroke="#000" stroke-linecap="round" stroke-linejoin="round" stroke-miterlimit="10" stroke-width="0.8"/>
            <path id="Path_1030812" data-name="Path 1030812" d="M389.115,291.66V280.513a1.46,1.46,0,0,1,1.456-1.456h.117a1.46,1.46,0,0,1,1.456,1.456v9.057" transform="translate(-387.97 -279.057)" fill="none" stroke="#000" stroke-linecap="round" stroke-linejoin="round" stroke-miterlimit="10" stroke-width="0.8"/>
            <path id="Path_1030813" data-name="Path 1030813" d="M418.532,331.349a1.46,1.46,0,0,1,1.456-1.456h.117a1.461,1.461,0,0,1,1.456,1.456v3.315" transform="translate(-414.358 -324.658)" fill="none" stroke="#000" stroke-linecap="round" stroke-linejoin="round" stroke-miterlimit="10" stroke-width="0.8"/>
            <path id="Path_1030814" data-name="Path 1030814" d="M447.947,334.628v-3.279a1.461,1.461,0,0,1,1.456-1.456h.117a1.46,1.46,0,0,1,1.456,1.456v1.39" transform="translate(-440.744 -324.658)" fill="none" stroke="#000" stroke-linecap="round" stroke-linejoin="round" stroke-miterlimit="10" stroke-width="0.8"/>
            <path id="Path_1030815" data-name="Path 1030815" d="M382.817,381.244l1.3-1.747,2.6-.335a2.091,2.091,0,0,0,1.441-1.987.708.708,0,0,0-.708-.707h-3.712a2.617,2.617,0,0,0-1.5.473l-3.346,2.342a2.09,2.09,0,0,0-.892,1.712V382.7a3.521,3.521,0,0,0,.926,2.379,4.26,4.26,0,0,1,1.12,2.879v1.695" transform="translate(-377.999 -366.437)" fill="none" stroke="#000" stroke-linecap="round" stroke-linejoin="round" stroke-miterlimit="10" stroke-width="0.8"/>
          </g>
        </g>
      </g>
    </g>
  </g>
</svg>
