<svg xmlns="http://www.w3.org/2000/svg" xmlns:xlink="http://www.w3.org/1999/xlink" width="113" height="113" viewBox="0 0 113 113">
  <defs>
    <filter id="Path_982547" x="0" y="0" width="113" height="113" filterUnits="userSpaceOnUse">
      <feOffset dy="3" input="SourceAlpha"/>
      <feGaussianBlur stdDeviation="3" result="blur"/>
      <feFlood flood-opacity="0.161"/>
      <feComposite operator="in" in2="blur"/>
      <feComposite in="SourceGraphic"/>
    </filter>
  </defs>
  <g id="Group_1179276" data-name="Group 1179276" transform="translate(-323.5 -2858.275)">
    <g id="Group_1179075" data-name="Group 1179075">
      <g id="Group_1178824" data-name="Group 1178824" transform="translate(0 1946.275)">
        <g id="Group_1177679" data-name="Group 1177679" transform="translate(332.5 918)">
          <g id="Group_1172010" data-name="Group 1172010">
            <g id="Group_1171046" data-name="Group 1171046">
              <g id="Group_1148525" data-name="Group 1148525">
                <g transform="matrix(1, 0, 0, 1, -9, -6)" filter="url(#Path_982547)">
                  <g id="Path_982547-2" data-name="Path 982547" transform="translate(9 6)" fill="#fbedfe">
                    <path d="M 47.5 93.5 C 41.28937149047852 93.5 35.26533508300781 92.28397369384766 29.59518623352051 89.88570404052734 C 24.11771965026855 87.56893157958984 19.19813346862793 84.25196075439453 14.97309303283691 80.02691650390625 C 10.74804019927979 75.80186462402344 7.431066513061523 70.88229370117188 5.114293098449707 65.40481567382812 C 2.716026782989502 59.73468017578125 1.5 53.71062850952148 1.5 47.5 C 1.5 41.28937149047852 2.716026782989502 35.26533508300781 5.114293098449707 29.59518623352051 C 7.431066513061523 24.11771965026855 10.74804019927979 19.19813346862793 14.97309303283691 14.97309303283691 C 19.19813346862793 10.74804019927979 24.11771965026855 7.431066513061523 29.59518623352051 5.114293098449707 C 35.26533508300781 2.716026782989502 41.28937149047852 1.5 47.5 1.5 C 53.71062850952148 1.5 59.73468017578125 2.716026782989502 65.40481567382812 5.114293098449707 C 70.88229370117188 7.431066513061523 75.80186462402344 10.74804019927979 80.02691650390625 14.97309303283691 C 84.25196075439453 19.19813346862793 87.56893157958984 24.11771965026855 89.88570404052734 29.59518623352051 C 92.28397369384766 35.26533508300781 93.5 41.28937149047852 93.5 47.5 C 93.5 53.71062850952148 92.28397369384766 59.73468017578125 89.88570404052734 65.40481567382812 C 87.56893157958984 70.88229370117188 84.25196075439453 75.80186462402344 80.02691650390625 80.02691650390625 C 75.80186462402344 84.25196075439453 70.88229370117188 87.56893157958984 65.40481567382812 89.88570404052734 C 59.73468017578125 92.28397369384766 53.71062850952148 93.5 47.5 93.5 Z" stroke="none"/>
                    <path d="M 47.5 3 C 41.49121475219727 3 35.66376876831055 4.176155090332031 30.17950439453125 6.495796203613281 C 24.88084411621094 8.736953735351562 20.12152099609375 11.94598388671875 16.03375244140625 16.03375244140625 C 11.94598388671875 20.12152099609375 8.736953735351562 24.88084411621094 6.495796203613281 30.17950439453125 C 4.176155090332031 35.66376876831055 3 41.49121475219727 3 47.5 C 3 53.50878524780273 4.176155090332031 59.33623123168945 6.495796203613281 64.82049560546875 C 8.736953735351562 70.11915588378906 11.94598388671875 74.87847900390625 16.03375244140625 78.96624755859375 C 20.12152099609375 83.05401611328125 24.88084411621094 86.26304626464844 30.17950439453125 88.50419616699219 C 35.66376876831055 90.82384490966797 41.49121475219727 92 47.5 92 C 53.50878524780273 92 59.33623123168945 90.82384490966797 64.82049560546875 88.50419616699219 C 70.11915588378906 86.26304626464844 74.87847900390625 83.05401611328125 78.96624755859375 78.96624755859375 C 83.05401611328125 74.87847900390625 86.26304626464844 70.11915588378906 88.50419616699219 64.82049560546875 C 90.82384490966797 59.33623123168945 92 53.50878524780273 92 47.5 C 92 41.49121475219727 90.82384490966797 35.66376876831055 88.50419616699219 30.17950439453125 C 86.26304626464844 24.88084411621094 83.05401611328125 20.12152099609375 78.96624755859375 16.03375244140625 C 74.87847900390625 11.94598388671875 70.11915588378906 8.736953735351562 64.82049560546875 6.495796203613281 C 59.33623123168945 4.176155090332031 53.50878524780273 3 47.5 3 M 47.5 0 C 73.7335205078125 0 95 21.2664794921875 95 47.5 C 95 73.7335205078125 73.7335205078125 95 47.5 95 C 21.2664794921875 95 0 73.7335205078125 0 47.5 C 0 21.2664794921875 21.2664794921875 0 47.5 0 Z" stroke="none" fill="#e25cfa"/>
                  </g>
                </g>
              </g>
            </g>
          </g>
        </g>
      </g>
      <g id="owner_4098309" transform="translate(349 2881)">
        <g id="Group_1179073" data-name="Group 1179073">
          <g id="Group_1179056" data-name="Group 1179056">
            <path id="Path_1041123" data-name="Path 1041123" d="M2.38,27.47A11.119,11.119,0,0,1,1,22.1v-1A6.213,6.213,0,0,1,6,15a7.383,7.383,0,0,1,2.67-2.92A7.243,7.243,0,0,1,12.47,11H19.9a11.108,11.108,0,0,1,9.72,16.47A3.071,3.071,0,0,0,28,27H27V23H13a3.98,3.98,0,0,1-3.46-2l-.05.03A4.993,4.993,0,0,0,5,26v1H4a3.071,3.071,0,0,0-1.62.47Z" fill="#b27946"/>
          </g>
          <g id="Group_1179057" data-name="Group 1179057">
            <path id="Path_1041124" data-name="Path 1041124" d="M17,45l2,8-3,4-3-4,2-8Z" fill="#ef7385"/>
          </g>
          <g id="Group_1179058" data-name="Group 1179058">
            <path id="Path_1041125" data-name="Path 1041125" d="M28,49V61H4V53a11.98,11.98,0,0,1,6.3-10.56L11,48l4-3-2,8,3,4,3-4-2-8,4,3,.7-5.55a11.879,11.879,0,0,1,3.9,3.35l.38.59L25,49Z" fill="#fcd770"/>
          </g>
          <g id="Group_1179059" data-name="Group 1179059">
            <path id="Path_1041126" data-name="Path 1041126" d="M21.7,42.44v.01L21,48l-4-3,2.14-3.57v-.01a10.936,10.936,0,0,1,2.31.89c.09.04.17.09.25.13Z" fill="#ffc729"/>
          </g>
          <g id="Group_1179060" data-name="Group 1179060">
            <path id="Path_1041127" data-name="Path 1041127" d="M12.86,41.42v.01L15,45l-4,3-.7-5.56a11.594,11.594,0,0,1,2.56-1.02Z" fill="#ffc729"/>
          </g>
          <g id="Group_1179061" data-name="Group 1179061">
            <path id="Path_1041128" data-name="Path 1041128" d="M58,49V61H43V41l3,8Z" fill="#d3a06c"/>
          </g>
          <g id="Group_1179062" data-name="Group 1179062">
            <path id="Path_1041129" data-name="Path 1041129" d="M43,41V61H28V49H40Z" fill="#d3a06c"/>
          </g>
          <g id="Group_1179063" data-name="Group 1179063">
            <path id="Path_1041130" data-name="Path 1041130" d="M58,41l3,8H46l-3-8H58Z" fill="#b27946"/>
          </g>
          <g id="Group_1179064" data-name="Group 1179064">
            <path id="Path_1041131" data-name="Path 1041131" d="M43,41l-3,8H25l.98-2.61L28,41H43Z" fill="#b27946"/>
          </g>
          <g id="Group_1179065" data-name="Group 1179065">
            <path id="Path_1041132" data-name="Path 1041132" d="M35,15V3a2.006,2.006,0,0,1,2-2H59a2.006,2.006,0,0,1,2,2V15a2.006,2.006,0,0,1-2,2H51l-3.59,3.59a1.414,1.414,0,0,1-2.41-1V17H37A2.006,2.006,0,0,1,35,15ZM53,5v8h4V5Z" fill="#e6e9ed"/>
          </g>
          <g id="Group_1179066" data-name="Group 1179066">
            <path id="Path_1041133" data-name="Path 1041133" d="M53,5h4v8H53Z" fill="#fcd770"/>
          </g>
          <g id="Group_1179067" data-name="Group 1179067">
            <path id="Path_1041134" data-name="Path 1041134" d="M26.94,32.99A8.1,8.1,0,0,0,27,32V27h1a3.071,3.071,0,0,1,1.62.47A3,3,0,0,1,28,33H27Z" fill="#f0d0b4"/>
          </g>
          <g id="Group_1179068" data-name="Group 1179068">
            <path id="Path_1041135" data-name="Path 1041135" d="M19.14,41.42v.01L17,45H15l-2.14-3.57v-.01a11.948,11.948,0,0,1,6.28,0Z" fill="#f0d0b4"/>
          </g>
          <g id="Group_1179069" data-name="Group 1179069">
            <path id="Path_1041136" data-name="Path 1041136" d="M9.54,21A3.98,3.98,0,0,0,13,23H27v9a8.1,8.1,0,0,1-.06.99A8.994,8.994,0,0,1,18,41H14a8.994,8.994,0,0,1-8.94-8.01A8.1,8.1,0,0,1,5,32V26a4.993,4.993,0,0,1,4.49-4.97Z" fill="#f0d0b4"/>
          </g>
          <g id="Group_1179070" data-name="Group 1179070">
            <path id="Path_1041137" data-name="Path 1041137" d="M4,33a3,3,0,0,1-1.62-5.53A3.071,3.071,0,0,1,4,27H5v5a8.1,8.1,0,0,0,.06.99L5,33Z" fill="#f0d0b4"/>
          </g>
          <g id="Group_1179071" data-name="Group 1179071">
            <path id="Path_1041138" data-name="Path 1041138" d="M55,38v3H49a6,6,0,0,0-12,0H31V38l1.6-.57a11.578,11.578,0,0,1,.53-1.26l-.74-1.53,4.25-4.25,1.53.74a11.578,11.578,0,0,1,1.26-.53L40,29h6l.57,1.6a11.577,11.577,0,0,1,1.26.53l1.53-.74,4.25,4.25-.74,1.53a11.577,11.577,0,0,1,.53,1.26Z" fill="#ef7385"/>
          </g>
          <g id="Group_1179072" data-name="Group 1179072">
            <path id="Path_1041139" data-name="Path 1041139" d="M12,33h8a4,4,0,0,1-8,0Z" fill="#ef7385"/>
          </g>
        </g>
        <g id="Group_1179074" data-name="Group 1179074">
          <path id="Path_1041140" data-name="Path 1041140" d="M21,33V32H11v1a5,5,0,0,0,10,0Zm-5,3a3.006,3.006,0,0,1-2.829-2h5.657A3,3,0,0,1,16,36Z"/>
          <path id="Path_1041141" data-name="Path 1041141" d="M13,30h2a4,4,0,0,0-8,0H9a2,2,0,0,1,4,0Z"/>
          <path id="Path_1041142" data-name="Path 1041142" d="M21,28a2,2,0,0,1,2,2h2a4,4,0,0,0-8,0h2A2,2,0,0,1,21,28Z"/>
          <path id="Path_1041143" data-name="Path 1041143" d="M58.937,40.648A1,1,0,0,0,58,40H56V37.292l-1.826-.644q-.093-.237-.2-.471l.836-1.749L49.57,29.186l-1.748.836c-.157-.069-.314-.135-.471-.2L46.708,28H39.293l-.645,1.826q-.236.093-.471.2l-1.748-.836-5.244,5.242.836,1.749c-.069.155-.134.313-.2.471L30,37.292V40H28a1,1,0,0,0-.937.648l-1.386,3.695a12.919,12.919,0,0,0-4.013-3.049A10.03,10.03,0,0,0,27.8,34H28a4,4,0,0,0,2.849-6.8A12.057,12.057,0,0,0,19.9,10H12.473a8.186,8.186,0,0,0-7.14,4.13A7.241,7.241,0,0,0,0,21.1V22.1A12.119,12.119,0,0,0,1.151,27.2,3.995,3.995,0,0,0,4,34h.2a10.03,10.03,0,0,0,6.16,7.305A13,13,0,0,0,3,53v9H59V50h2a1,1,0,0,0,.937-1.352ZM32,38.708l1.392-.491.157-.458a9.742,9.742,0,0,1,.477-1.146l.214-.436L33.6,34.842,36.844,31.6l1.334.639.435-.214a9.84,9.84,0,0,1,1.146-.477l.458-.156L40.708,30h4.585l.491,1.393.458.156a9.84,9.84,0,0,1,1.146.477l.435.214,1.334-.639L52.4,34.843l-.638,1.335.214.436a9.742,9.742,0,0,1,.477,1.146l.157.458,1.391.49V40H49.92a6.991,6.991,0,0,0-13.84,0H32ZM40,50a1,1,0,0,0,.937-.648L42,46.516V60H29V50Zm3-10H38.1a5,5,0,0,1,9.8,0ZM28.693,42H41.557l-2.25,6H26.443Zm-16.29.616,1.275,2.125-1.9,1.425-.392-3.138Q11.883,42.8,12.4,42.616ZM16,42a11.2,11.2,0,0,1,1.561.121L16.434,44h-.867l-1.126-1.876A10.966,10.966,0,0,1,16,42Zm-.219,4h.438l1.695,6.781L16,55.333l-1.915-2.552ZM19.6,42.6a10.713,10.713,0,0,1,1.012.411l-.394,3.151-1.9-1.425ZM28,32V28a2,2,0,0,1,0,4ZM2,30a2,2,0,0,1,2-2v4A2,2,0,0,1,2,30Zm2-4a3.944,3.944,0,0,0-1.123.18A10.116,10.116,0,0,1,2,22.1V21.1A5.234,5.234,0,0,1,6.2,15.98l.48-.1.219-.438A6.2,6.2,0,0,1,12.472,12H19.9a10.07,10.07,0,0,1,9.228,14.18A3.944,3.944,0,0,0,28,26V22.828a7.77,7.77,0,0,0-2.293-5.535l-1.414,1.414A5.785,5.785,0,0,1,25.942,22H21a3,3,0,0,1-3-3V18H16v1a4.948,4.948,0,0,0,1.026,3H13a3,3,0,0,1-3-3V18H8v1a4.949,4.949,0,0,0,.188,1.284A5.976,5.976,0,0,0,4,26ZM14,40a8.009,8.009,0,0,1-8-8V26a3.975,3.975,0,0,1,3.119-3.887A4.971,4.971,0,0,0,13,24H26v8a8.01,8.01,0,0,1-8,8ZM5,53a10.981,10.981,0,0,1,4.51-8.861l.711,5.695,3.126-2.344L12.03,52.758a1,1,0,0,0,.17.842l3,4a1,1,0,0,0,1.6,0l3-4a1,1,0,0,0,.17-.842L18.653,47.49l3.126,2.344.713-5.711a10.87,10.87,0,0,1,2.265,2.214l.109.17-.8,2.14A1,1,0,0,0,25,50h2V60H5Zm52,7H44V46.516l1.063,2.836A1,1,0,0,0,46,50H57ZM46.693,48l-2.25-6H57.307l2.25,6Z"/>
          <path id="Path_1041144" data-name="Path 1041144" d="M59,0H37a3,3,0,0,0-3,3V15a3,3,0,0,0,3,3h7v1.586a2.414,2.414,0,0,0,4.121,1.707L51.414,18H59a3,3,0,0,0,3-3V3A3,3,0,0,0,59,0Zm1,15a1,1,0,0,1-1,1H50.586l-3.878,3.878A.429.429,0,0,1,46,19.586V16H37a1,1,0,0,1-1-1V3a1,1,0,0,1,1-1H59a1,1,0,0,1,1,1Z"/>
          <path id="Path_1041145" data-name="Path 1041145" d="M38,4H50V6H38Z"/>
          <path id="Path_1041146" data-name="Path 1041146" d="M52,14h6V4H52Zm2-8h2v6H54Z"/>
          <path id="Path_1041147" data-name="Path 1041147" d="M38,8h4v2H38Z"/>
          <path id="Path_1041148" data-name="Path 1041148" d="M44,8h6v2H44Z"/>
          <path id="Path_1041149" data-name="Path 1041149" d="M38,12H50v2H38Z"/>
        </g>
      </g>
    </g>
  </g>
</svg>
