<svg xmlns="http://www.w3.org/2000/svg" xmlns:xlink="http://www.w3.org/1999/xlink" width="113" height="113" viewBox="0 0 113 113">
  <defs>
    <filter id="Path_982547" x="0" y="0" width="113" height="113" filterUnits="userSpaceOnUse">
      <feOffset dy="3" input="SourceAlpha"/>
      <feGaussianBlur stdDeviation="3" result="blur"/>
      <feFlood flood-opacity="0.161"/>
      <feComposite operator="in" in2="blur"/>
      <feComposite in="SourceGraphic"/>
    </filter>
  </defs>
  <g id="Group_1179303" data-name="Group 1179303" transform="translate(-586.125 -1166.158)">
    <g id="Group_1179181" data-name="Group 1179181">
      <g id="Group_1178845" data-name="Group 1178845" transform="translate(595.125 1172.158)">
        <g id="Group_1177679" data-name="Group 1177679">
          <g id="Group_1172010" data-name="Group 1172010">
            <g id="Group_1171046" data-name="Group 1171046">
              <g id="Group_1148525" data-name="Group 1148525">
                <g transform="matrix(1, 0, 0, 1, -9, -6)" filter="url(#Path_982547)">
                  <g id="Path_982547-2" data-name="Path 982547" transform="translate(9 6)" fill="#fbedfe">
                    <path d="M 47.5 93.5 C 41.28937149047852 93.5 35.26533508300781 92.28397369384766 29.59518623352051 89.88570404052734 C 24.11771965026855 87.56893157958984 19.19813346862793 84.25196075439453 14.97309303283691 80.02691650390625 C 10.74804019927979 75.80186462402344 7.431066513061523 70.88229370117188 5.114293098449707 65.40481567382812 C 2.716026782989502 59.73468017578125 1.5 53.71062850952148 1.5 47.5 C 1.5 41.28937149047852 2.716026782989502 35.26533508300781 5.114293098449707 29.59518623352051 C 7.431066513061523 24.11771965026855 10.74804019927979 19.19813346862793 14.97309303283691 14.97309303283691 C 19.19813346862793 10.74804019927979 24.11771965026855 7.431066513061523 29.59518623352051 5.114293098449707 C 35.26533508300781 2.716026782989502 41.28937149047852 1.5 47.5 1.5 C 53.71062850952148 1.5 59.73468017578125 2.716026782989502 65.40481567382812 5.114293098449707 C 70.88229370117188 7.431066513061523 75.80186462402344 10.74804019927979 80.02691650390625 14.97309303283691 C 84.25196075439453 19.19813346862793 87.56893157958984 24.11771965026855 89.88570404052734 29.59518623352051 C 92.28397369384766 35.26533508300781 93.5 41.28937149047852 93.5 47.5 C 93.5 53.71062850952148 92.28397369384766 59.73468017578125 89.88570404052734 65.40481567382812 C 87.56893157958984 70.88229370117188 84.25196075439453 75.80186462402344 80.02691650390625 80.02691650390625 C 75.80186462402344 84.25196075439453 70.88229370117188 87.56893157958984 65.40481567382812 89.88570404052734 C 59.73468017578125 92.28397369384766 53.71062850952148 93.5 47.5 93.5 Z" stroke="none"/>
                    <path d="M 47.5 3 C 41.49121475219727 3 35.66376876831055 4.176155090332031 30.17950439453125 6.495796203613281 C 24.88084411621094 8.736953735351562 20.12152099609375 11.94598388671875 16.03375244140625 16.03375244140625 C 11.94598388671875 20.12152099609375 8.736953735351562 24.88084411621094 6.495796203613281 30.17950439453125 C 4.176155090332031 35.66376876831055 3 41.49121475219727 3 47.5 C 3 53.50878524780273 4.176155090332031 59.33623123168945 6.495796203613281 64.82049560546875 C 8.736953735351562 70.11915588378906 11.94598388671875 74.87847900390625 16.03375244140625 78.96624755859375 C 20.12152099609375 83.05401611328125 24.88084411621094 86.26304626464844 30.17950439453125 88.50419616699219 C 35.66376876831055 90.82384490966797 41.49121475219727 92 47.5 92 C 53.50878524780273 92 59.33623123168945 90.82384490966797 64.82049560546875 88.50419616699219 C 70.11915588378906 86.26304626464844 74.87847900390625 83.05401611328125 78.96624755859375 78.96624755859375 C 83.05401611328125 74.87847900390625 86.26304626464844 70.11915588378906 88.50419616699219 64.82049560546875 C 90.82384490966797 59.33623123168945 92 53.50878524780273 92 47.5 C 92 41.49121475219727 90.82384490966797 35.66376876831055 88.50419616699219 30.17950439453125 C 86.26304626464844 24.88084411621094 83.05401611328125 20.12152099609375 78.96624755859375 16.03375244140625 C 74.87847900390625 11.94598388671875 70.11915588378906 8.736953735351562 64.82049560546875 6.495796203613281 C 59.33623123168945 4.176155090332031 53.50878524780273 3 47.5 3 M 47.5 0 C 73.7335205078125 0 95 21.2664794921875 95 47.5 C 95 73.7335205078125 73.7335205078125 95 47.5 95 C 21.2664794921875 95 0 73.7335205078125 0 47.5 C 0 21.2664794921875 21.2664794921875 0 47.5 0 Z" stroke="none" fill="#e25cfa"/>
                  </g>
                </g>
              </g>
            </g>
          </g>
        </g>
      </g>
      <g id="coin_12260012_2_" data-name="coin_12260012 (2)" transform="translate(609.845 1158.807)">
        <g id="Group_1179169" data-name="Group 1179169" transform="translate(0 62.541)">
          <path id="Path_1041523" data-name="Path 1041523" d="M7,276.2H37.379v25.182H7Z" transform="translate(-6.104 -275.304)" fill="#fdbf00" fill-rule="evenodd"/>
          <path id="Path_1041524" data-name="Path 1041524" d="M31.276,296.161H.9a.891.891,0,0,1-.9-.9V270.1a.891.891,0,0,1,.9-.9H31.276a.891.891,0,0,1,.9.9v25.182a.9.9,0,0,1-.9.883ZM1.792,294.369H30.379V270.992H1.792Z" transform="translate(0 -269.2)"/>
        </g>
        <g id="Group_1179170" data-name="Group 1179170" transform="translate(0 79.325)">
          <path id="Path_1041525" data-name="Path 1041525" d="M31.276,402.092H.9a.9.9,0,0,1,0-1.792H31.276a.9.9,0,0,1,0,1.792Z" transform="translate(0 -400.3)"/>
        </g>
        <g id="Group_1179171" data-name="Group 1179171" transform="translate(0 70.926)">
          <path id="Path_1041526" data-name="Path 1041526" d="M31.276,336.492H.9a.9.9,0,0,1,0-1.792H31.276a.9.9,0,0,1,0,1.792Z" transform="translate(0 -334.7)"/>
        </g>
        <g id="Group_1179172" data-name="Group 1179172" transform="translate(0 32.2)">
          <path id="Path_1041527" data-name="Path 1041527" d="M22.183,69.567A15.183,15.183,0,1,0,7,54.383,15.216,15.216,0,0,0,22.183,69.567Z" transform="translate(-6.104 -38.304)" fill="#ffda2d" fill-rule="evenodd"/>
          <path id="Path_1041528" data-name="Path 1041528" d="M16.079,64.359A16.079,16.079,0,1,1,32.159,48.279,16.1,16.1,0,0,1,16.079,64.359Zm0-30.367a14.287,14.287,0,1,0,14.3,14.287A14.309,14.309,0,0,0,16.079,33.992Z" transform="translate(0 -32.2)"/>
        </g>
        <g id="Group_1179173" data-name="Group 1179173" transform="translate(3.853 36.053)">
          <path id="Path_1041529" data-name="Path 1041529" d="M48.43,91.96A11.33,11.33,0,1,0,37.1,80.63,11.34,11.34,0,0,0,48.43,91.96Z" transform="translate(-36.204 -68.404)" fill="#fdbf00" fill-rule="evenodd"/>
          <path id="Path_1041530" data-name="Path 1041530" d="M42.326,86.752A12.226,12.226,0,1,1,54.539,74.526,12.241,12.241,0,0,1,42.326,86.752Zm0-22.66A10.434,10.434,0,1,0,52.747,74.526,10.444,10.444,0,0,0,42.326,64.092Z" transform="translate(-30.1 -62.3)"/>
        </g>
        <g id="Group_1179174" data-name="Group 1179174" transform="translate(36.921 34.501)">
          <path id="Path_1041531" data-name="Path 1041531" d="M295.3,72.242h13.839V68.325H302.93l7.6-7.6L307.014,57.2l-7.784,7.784v-6.2H295.3Z" transform="translate(-294.417 -56.301)" fill="#559b38" fill-rule="evenodd"/>
          <path id="Path_1041532" data-name="Path 1041532" d="M303.122,67.013H289.3a.891.891,0,0,1-.9-.9V52.662a.891.891,0,0,1,.9-.9h3.917a.891.891,0,0,1,.9.9v4.033l6.26-6.26a.9.9,0,0,1,1.267,0l3.533,3.521a.911.911,0,0,1,.269.64.881.881,0,0,1-.269.64L299.1,61.3h4.033a.891.891,0,0,1,.9.9v3.917a.918.918,0,0,1-.909.9Zm-12.943-1.792h12.034V63.1h-5.3a.909.909,0,0,1-.832-.55.887.887,0,0,1,.192-.973l6.964-6.964-2.253-2.253L293.841,59.5a.893.893,0,0,1-1.523-.64v-5.3h-2.125V65.221Z" transform="translate(-288.4 -50.175)"/>
        </g>
        <g id="Group_1179175" data-name="Group 1179175" transform="translate(33.388 57.331)">
          <path id="Path_1041533" data-name="Path 1041533" d="M282.983,265.879A15.19,15.19,0,1,0,267.8,250.7,15.219,15.219,0,0,0,282.983,265.879Z" transform="translate(-266.904 -234.604)" fill="#ffda2d" fill-rule="evenodd"/>
          <path id="Path_1041534" data-name="Path 1041534" d="M276.879,260.672a16.086,16.086,0,1,1,16.092-16.079A16.1,16.1,0,0,1,276.879,260.672Zm0-30.379a14.294,14.294,0,1,0,14.3,14.3A14.3,14.3,0,0,0,276.879,230.292Z" transform="translate(-260.8 -228.5)"/>
        </g>
        <g id="Group_1179176" data-name="Group 1179176" transform="translate(37.254 61.197)">
          <path id="Path_1041535" data-name="Path 1041535" d="M309.317,288.347A11.323,11.323,0,1,0,298,277.03,11.348,11.348,0,0,0,309.317,288.347Z" transform="translate(-297.104 -264.804)" fill="#fdbf00" fill-rule="evenodd"/>
          <path id="Path_1041536" data-name="Path 1041536" d="M303.213,283.139a12.22,12.22,0,1,1,12.226-12.213A12.228,12.228,0,0,1,303.213,283.139Zm0-22.647a10.427,10.427,0,1,0,10.434,10.434A10.433,10.433,0,0,0,303.213,260.492Z" transform="translate(-291 -258.7)"/>
        </g>
        <g id="Group_1179177" data-name="Group 1179177" transform="translate(45.447 66.279)">
          <path id="Path_1041537" data-name="Path 1041537" d="M359.02,312.674a4.027,4.027,0,0,1-4.02-4.02.9.9,0,0,1,1.792,0,2.221,2.221,0,1,0,4.442,0c0-1.6-.743-1.844-2.432-2.24-1.613-.384-3.8-.909-3.8-3.994a4.02,4.02,0,1,1,8.04,0,.9.9,0,1,1-1.792,0,2.221,2.221,0,0,0-4.442,0c0,1.6.743,1.844,2.432,2.253,1.6.384,3.8.909,3.8,3.994A4.032,4.032,0,0,1,359.02,312.674Z" transform="translate(-355 -298.4)"/>
        </g>
        <g id="Group_1179178" data-name="Group 1179178" transform="translate(48.571 64.205)">
          <path id="Path_1041538" data-name="Path 1041538" d="M380.3,300.622a.891.891,0,0,1-.9-.9v-1.78a.9.9,0,1,1,1.792,0v1.78A.9.9,0,0,1,380.3,300.622Zm0-14.876a.891.891,0,0,1-.9-.9V283.1a.9.9,0,0,1,1.792,0v1.754A.9.9,0,0,1,380.3,285.746Z" transform="translate(-379.4 -282.2)"/>
        </g>
        <g id="Group_1179179" data-name="Group 1179179" transform="translate(12.06 41.123)">
          <path id="Path_1041539" data-name="Path 1041539" d="M98.22,116.187a4.027,4.027,0,0,1-4.02-4.02.9.9,0,1,1,1.792,0,2.221,2.221,0,0,0,4.442,0c0-1.6-.743-1.844-2.432-2.253-1.6-.384-3.8-.909-3.8-3.994a4.02,4.02,0,1,1,8.04,0,.9.9,0,1,1-1.792,0,2.221,2.221,0,1,0-4.442,0c0,1.6.743,1.844,2.432,2.24,1.613.384,3.8.909,3.8,3.994A4.021,4.021,0,0,1,98.22,116.187Z" transform="translate(-94.2 -101.9)"/>
        </g>
        <g id="Group_1179180" data-name="Group 1179180" transform="translate(15.183 39.075)">
          <path id="Path_1041540" data-name="Path 1041540" d="M119.5,104.322a.891.891,0,0,1-.9-.9v-1.767a.9.9,0,1,1,1.792,0v1.767A.891.891,0,0,1,119.5,104.322Zm0-14.889a.891.891,0,0,1-.9-.9V86.8a.9.9,0,1,1,1.792,0V88.55A.88.88,0,0,1,119.5,89.433Z" transform="translate(-118.6 -85.9)"/>
        </g>
      </g>
    </g>
  </g>
</svg>
