<svg xmlns="http://www.w3.org/2000/svg" xmlns:xlink="http://www.w3.org/1999/xlink" width="113" height="113" viewBox="0 0 113 113">
  <defs>
    <filter id="Path_982547" x="0" y="0" width="113" height="113" filterUnits="userSpaceOnUse">
      <feOffset dy="3" input="SourceAlpha"/>
      <feGaussianBlur stdDeviation="3" result="blur"/>
      <feFlood flood-opacity="0.161"/>
      <feComposite operator="in" in2="blur"/>
      <feComposite in="SourceGraphic"/>
    </filter>
  </defs>
  <g id="Group_1206694" data-name="Group 1206694" transform="translate(-901 -812.023)">
    <g id="Group_1206190" data-name="Group 1206190" transform="translate(314.875)">
      <g id="Group_1202700" data-name="Group 1202700" transform="translate(0 -1987.977)">
        <g id="Group_1202219" data-name="Group 1202219" transform="translate(595.125 2806)">
          <g id="Group_1178824" data-name="Group 1178824">
            <g id="Group_1177679" data-name="Group 1177679">
              <g id="Group_1172010" data-name="Group 1172010">
                <g id="Group_1171046" data-name="Group 1171046">
                  <g id="Group_1148525" data-name="Group 1148525">
                    <g transform="matrix(1, 0, 0, 1, -9, -6)" filter="url(#Path_982547)">
                      <g id="Path_982547-2" data-name="Path 982547" transform="translate(9 6)" fill="#fbedfe">
                        <path d="M 47.5 93.5 C 41.28937149047852 93.5 35.26533508300781 92.28397369384766 29.59518623352051 89.88570404052734 C 24.11771965026855 87.56893157958984 19.19813346862793 84.25196075439453 14.97309303283691 80.02691650390625 C 10.74804019927979 75.80186462402344 7.431066513061523 70.88229370117188 5.114293098449707 65.40481567382812 C 2.716026782989502 59.73468017578125 1.5 53.71062850952148 1.5 47.5 C 1.5 41.28937149047852 2.716026782989502 35.26533508300781 5.114293098449707 29.59518623352051 C 7.431066513061523 24.11771965026855 10.74804019927979 19.19813346862793 14.97309303283691 14.97309303283691 C 19.19813346862793 10.74804019927979 24.11771965026855 7.431066513061523 29.59518623352051 5.114293098449707 C 35.26533508300781 2.716026782989502 41.28937149047852 1.5 47.5 1.5 C 53.71062850952148 1.5 59.73468017578125 2.716026782989502 65.40481567382812 5.114293098449707 C 70.88229370117188 7.431066513061523 75.80186462402344 10.74804019927979 80.02691650390625 14.97309303283691 C 84.25196075439453 19.19813346862793 87.56893157958984 24.11771965026855 89.88570404052734 29.59518623352051 C 92.28397369384766 35.26533508300781 93.5 41.28937149047852 93.5 47.5 C 93.5 53.71062850952148 92.28397369384766 59.73468017578125 89.88570404052734 65.40481567382812 C 87.56893157958984 70.88229370117188 84.25196075439453 75.80186462402344 80.02691650390625 80.02691650390625 C 75.80186462402344 84.25196075439453 70.88229370117188 87.56893157958984 65.40481567382812 89.88570404052734 C 59.73468017578125 92.28397369384766 53.71062850952148 93.5 47.5 93.5 Z" stroke="none"/>
                        <path d="M 47.5 3 C 41.49121475219727 3 35.66376876831055 4.176155090332031 30.17950439453125 6.495796203613281 C 24.88084411621094 8.736953735351562 20.12152099609375 11.94598388671875 16.03375244140625 16.03375244140625 C 11.94598388671875 20.12152099609375 8.736953735351562 24.88084411621094 6.495796203613281 30.17950439453125 C 4.176155090332031 35.66376876831055 3 41.49121475219727 3 47.5 C 3 53.50878524780273 4.176155090332031 59.33623123168945 6.495796203613281 64.82049560546875 C 8.736953735351562 70.11915588378906 11.94598388671875 74.87847900390625 16.03375244140625 78.96624755859375 C 20.12152099609375 83.05401611328125 24.88084411621094 86.26304626464844 30.17950439453125 88.50419616699219 C 35.66376876831055 90.82384490966797 41.49121475219727 92 47.5 92 C 53.50878524780273 92 59.33623123168945 90.82384490966797 64.82049560546875 88.50419616699219 C 70.11915588378906 86.26304626464844 74.87847900390625 83.05401611328125 78.96624755859375 78.96624755859375 C 83.05401611328125 74.87847900390625 86.26304626464844 70.11915588378906 88.50419616699219 64.82049560546875 C 90.82384490966797 59.33623123168945 92 53.50878524780273 92 47.5 C 92 41.49121475219727 90.82384490966797 35.66376876831055 88.50419616699219 30.17950439453125 C 86.26304626464844 24.88084411621094 83.05401611328125 20.12152099609375 78.96624755859375 16.03375244140625 C 74.87847900390625 11.94598388671875 70.11915588378906 8.736953735351562 64.82049560546875 6.495796203613281 C 59.33623123168945 4.176155090332031 53.50878524780273 3 47.5 3 M 47.5 0 C 73.7335205078125 0 95 21.2664794921875 95 47.5 C 95 73.7335205078125 73.7335205078125 95 47.5 95 C 21.2664794921875 95 0 73.7335205078125 0 47.5 C 0 21.2664794921875 21.2664794921875 0 47.5 0 Z" stroke="none" fill="#7b3289"/>
                      </g>
                    </g>
                  </g>
                </g>
              </g>
            </g>
          </g>
        </g>
      </g>
      <g id="data-processing_16139695" transform="translate(607.754 805.844)">
        <g id="Group_1206169" data-name="Group 1206169" transform="translate(8.145 39.328)">
          <g id="Group_1206166" data-name="Group 1206166" transform="translate(8.66 7.709)">
            <path id="Path_1045246" data-name="Path 1045246" d="M239.574,415.7l-16.484.212-3.662,6.284a.384.384,0,0,0,.333.578h23.265a.384.384,0,0,0,.333-.578Z" transform="translate(-207.67 -382.231)" fill="#003748" fill-rule="evenodd"/>
            <path id="Path_1045247" data-name="Path 1045247" d="M366.437,415.7l-1.907.024L368.3,422.2a.384.384,0,0,1-.333.578h1.921a.384.384,0,0,0,.333-.578Z" transform="translate(-334.532 -382.231)" fill="#00242f" fill-rule="evenodd"/>
            <path id="Path_1045248" data-name="Path 1045248" d="M171.492,150.14a2.483,2.483,0,0,1,2.477,2.477v28.859a2.484,2.484,0,0,1-2.477,2.477H129a2.483,2.483,0,0,1-2.477-2.477V152.618A2.484,2.484,0,0,1,129,150.141h42.5Z" transform="translate(-126.519 -150.14)" fill="#e6f8ff" fill-rule="evenodd"/>
            <path id="Path_1045249" data-name="Path 1045249" d="M463.371,150.14a2.484,2.484,0,0,1,2.477,2.477v28.859a2.484,2.484,0,0,1-2.477,2.477H460.49a2.484,2.484,0,0,0,2.477-2.477V152.618a2.484,2.484,0,0,0-2.477-2.477h2.881Z" transform="translate(-418.398 -150.14)" fill="#d0f1ff" fill-rule="evenodd"/>
            <path id="Path_1045250" data-name="Path 1045250" d="M173.96,393.15H126.51v1.671a2.484,2.484,0,0,0,2.477,2.477h42.5a2.483,2.483,0,0,0,2.477-2.477V393.15Z" transform="translate(-126.51 -362.523)" fill="#004960" fill-rule="evenodd"/>
            <path id="Path_1045251" data-name="Path 1045251" d="M465.848,393.15h-2.881v1.671a2.484,2.484,0,0,1-2.477,2.477h2.881a2.483,2.483,0,0,0,2.477-2.477Z" transform="translate(-418.398 -362.523)" fill="#003748" fill-rule="evenodd"/>
          </g>
          <g id="Group_1206167" data-name="Group 1206167" transform="translate(17.42 11.232)">
            <path id="Path_1045252" data-name="Path 1045252" d="M200.5,268.709a2.1,2.1,0,1,0-2.1-2.1A2.1,2.1,0,0,0,200.5,268.709Z" transform="translate(-198.1 -253.618)" fill="#fc685b" fill-rule="evenodd"/>
            <path id="Path_1045253" data-name="Path 1045253" d="M200.5,264.51a2.1,2.1,0,0,1,1.763.959,2.1,2.1,0,0,0-2.958,2.867,2.1,2.1,0,0,1,1.195-3.826Z" transform="translate(-198.1 -253.618)" fill="#f35244" fill-rule="evenodd"/>
            <path id="Path_1045254" data-name="Path 1045254" d="M266.96,182.3a2.1,2.1,0,1,0-2.1-2.1A2.1,2.1,0,0,0,266.96,182.3Z" transform="translate(-256.184 -178.099)" fill="#ffda2d" fill-rule="evenodd"/>
            <path id="Path_1045255" data-name="Path 1045255" d="M266.96,178.09a2.1,2.1,0,0,1,1.763.959,2.1,2.1,0,0,0-2.958,2.867,2.1,2.1,0,0,1,1.195-3.826Z" transform="translate(-256.184 -178.09)" fill="#ffc700" fill-rule="evenodd"/>
            <circle id="Ellipse_12634" data-name="Ellipse 12634" cx="2.1" cy="2.1" r="2.1" transform="translate(17.053 5.615)" fill="#72d561"/>
            <path id="Path_1045256" data-name="Path 1045256" d="M333.43,222.63a2.1,2.1,0,0,1,1.763.959,2.1,2.1,0,0,0-2.958,2.867,2.1,2.1,0,0,1,1.195-3.826Z" transform="translate(-314.277 -217.017)" fill="#57ca5a" fill-rule="evenodd"/>
            <path id="Path_1045257" data-name="Path 1045257" d="M196.564,326.85h3.728a.535.535,0,0,1,.534.534v7.287a.535.535,0,0,1-.534.534h-3.728a.535.535,0,0,1-.534-.534v-7.287A.534.534,0,0,1,196.564,326.85Z" transform="translate(-196.029 -308.102)" fill="#fc685b" fill-rule="evenodd"/>
            <path id="Path_1045258" data-name="Path 1045258" d="M199.679,326.85h.6a.535.535,0,0,1,.534.534v7.287a.535.535,0,0,1-.534.534h-3.728a.535.535,0,0,1-.534-.534v-.7h3.124a.535.535,0,0,0,.534-.534Z" transform="translate(-196.02 -308.102)" fill="#f35244" fill-rule="evenodd"/>
            <path id="Path_1045259" data-name="Path 1045259" d="M263.024,253.37h3.728a.535.535,0,0,1,.534.534v16.547a.535.535,0,0,1-.534.534h-3.728a.535.535,0,0,1-.534-.534V253.9A.536.536,0,0,1,263.024,253.37Z" transform="translate(-254.113 -243.882)" fill="#ffda2d" fill-rule="evenodd"/>
            <path id="Path_1045260" data-name="Path 1045260" d="M266.149,253.37h.6a.535.535,0,0,1,.534.534v16.547a.535.535,0,0,1-.534.534h-3.728a.535.535,0,0,1-.534-.534v-.7h3.124a.535.535,0,0,0,.534-.534Z" transform="translate(-254.113 -243.882)" fill="#ffc700" fill-rule="evenodd"/>
            <path id="Path_1045261" data-name="Path 1045261" d="M329.494,284.97h3.728a.535.535,0,0,1,.534.534v12.564a.535.535,0,0,1-.534.534h-3.728a.535.535,0,0,1-.534-.534V285.5A.535.535,0,0,1,329.494,284.97Z" transform="translate(-312.205 -271.5)" fill="#72d561" fill-rule="evenodd"/>
            <path id="Path_1045262" data-name="Path 1045262" d="M332.619,284.97h.6a.535.535,0,0,1,.534.534v12.564a.535.535,0,0,1-.534.534h-3.728a.535.535,0,0,1-.534-.534v-.7h3.124a.535.535,0,0,0,.534-.534Z" transform="translate(-312.205 -271.5)" fill="#57ca5a" fill-rule="evenodd"/>
            <path id="Path_1045263" data-name="Path 1045263" d="M395.954,223.6h3.728a.535.535,0,0,1,.534.534v20.3a.535.535,0,0,1-.534.534h-3.728a.535.535,0,0,1-.534-.534v-20.3A.537.537,0,0,1,395.954,223.6Z" transform="translate(-370.289 -217.864)" fill="#64b5f6" fill-rule="evenodd"/>
            <path id="Path_1045264" data-name="Path 1045264" d="M399.079,223.6h.6a.535.535,0,0,1,.534.534v20.3a.535.535,0,0,1-.534.534h-3.728a.535.535,0,0,1-.534-.534v-.7h3.124a.535.535,0,0,0,.534-.534Z" transform="translate(-370.289 -217.864)" fill="#42a5f5" fill-rule="evenodd"/>
          </g>
          <g id="Group_1206168" data-name="Group 1206168">
            <path id="Path_1045265" data-name="Path 1045265" d="M65.156,88.97H68.1v1.478a7.45,7.45,0,0,1,2.682,1.112l1.046-1.046L73.917,92.6l-1.046,1.046a7.45,7.45,0,0,1,1.112,2.682h1.478v2.948H73.982a7.465,7.465,0,0,1-1.112,2.683L73.917,103l-2.085,2.085-1.046-1.046a7.447,7.447,0,0,1-2.683,1.112v1.478H65.155v-1.478a7.465,7.465,0,0,1-2.683-1.112l-1.046,1.046L59.341,103l1.046-1.046a7.447,7.447,0,0,1-1.112-2.683H57.8V96.326h1.478a7.465,7.465,0,0,1,1.112-2.683L59.344,92.6l2.085-2.085,1.046,1.046a7.446,7.446,0,0,1,2.683-1.112V88.97Z" transform="translate(-57.8 -88.97)" fill="#ffda2d" fill-rule="evenodd"/>
            <path id="Path_1045266" data-name="Path 1045266" d="M131.61,90.447a7.47,7.47,0,0,1,3.259,1.538l.425-.425a7.45,7.45,0,0,0-2.682-1.112V88.97h-1Zm4.768,3.2a7.456,7.456,0,0,1,1.112,2.683h1a7.45,7.45,0,0,0-1.112-2.682l1.046-1.046-2.085-2.085-.523.523,1.606,1.562Zm1.112,5.631a7.456,7.456,0,0,1-1.112,2.683L137.424,103l-1.583,1.583.5.5L138.426,103l-1.046-1.046a7.447,7.447,0,0,0,1.112-2.683h-1Zm-2.62,4.342a7.47,7.47,0,0,1-3.259,1.538v1.478h1v-1.478a7.465,7.465,0,0,0,2.683-1.112Zm4.1-4.342h1V96.326h-1Z" transform="translate(-122.308 -88.97)" fill="#ffc700" fill-rule="evenodd"/>
            <circle id="Ellipse_12635" data-name="Ellipse 12635" cx="4.38" cy="4.38" r="4.38" transform="translate(4.451 4.451)" fill="#eff4f7"/>
            <path id="Path_1045267" data-name="Path 1045267" d="M97.5,124.29a4.362,4.362,0,0,1,2.842,1.047,4.38,4.38,0,0,0-4.911,7.193,4.38,4.38,0,0,1,2.069-8.24Z" transform="translate(-88.669 -119.839)" fill="#e2e3e3" fill-rule="evenodd"/>
          </g>
        </g>
        <path id="Path_1045268" data-name="Path 1045268" d="M5.035,40.191a14.366,14.366,0,0,1,13.721-6.275l-.113-.165a1.008,1.008,0,1,1,1.66-1.144l1.551,2.25a1.009,1.009,0,0,1-.4,1.483l-2.468,1.172a1.008,1.008,0,0,1-1.11-1.656A12.354,12.354,0,0,0,6.714,41.311a1.009,1.009,0,1,1-1.679-1.12Zm5.37,19.629a1.009,1.009,0,0,1-1.4.281,14.366,14.366,0,0,1-6.275-13.72l-.165.113a1.008,1.008,0,1,1-1.146-1.66l2.25-1.551a1.007,1.007,0,0,1,1.482.4l1.172,2.468a1.008,1.008,0,0,1-1.657,1.11,12.35,12.35,0,0,0,5.456,11.163,1.006,1.006,0,0,1,.282,1.4Zm6.571-15.032a3.371,3.371,0,1,1-3.371,3.371A3.375,3.375,0,0,1,16.976,44.788Zm0,8.758a5.387,5.387,0,1,0-5.388-5.387A5.393,5.393,0,0,0,16.976,53.546Zm-5.2.474.333-.334a1.008,1.008,0,0,1,1.273-.125,6.408,6.408,0,0,0,2.32.962,1.009,1.009,0,0,1,.812.988v.471h.931v-.471a1.006,1.006,0,0,1,.81-.988,6.42,6.42,0,0,0,2.32-.962,1.009,1.009,0,0,1,1.273.125l.333.334.658-.659-.333-.333a1.008,1.008,0,0,1-.126-1.273,6.408,6.408,0,0,0,.962-2.32,1.008,1.008,0,0,1,.989-.81h.47v-.931h-.47a1.009,1.009,0,0,1-.989-.812,6.421,6.421,0,0,0-.962-2.32A1.006,1.006,0,0,1,22.5,43.29l.333-.334-.658-.658-.333.333a1.01,1.01,0,0,1-1.273.126,6.43,6.43,0,0,0-2.32-.962,1.007,1.007,0,0,1-.81-.988v-.47h-.931v.47a1.006,1.006,0,0,1-.812.988,6.452,6.452,0,0,0-2.32.962,1.008,1.008,0,0,1-1.273-.126l-.333-.333-.658.658.333.333a1.008,1.008,0,0,1,.126,1.273,6.408,6.408,0,0,0-.962,2.32,1.009,1.009,0,0,1-.989.812h-.47v.931h.47a1.008,1.008,0,0,1,.989.81,6.421,6.421,0,0,0,.962,2.32,1.008,1.008,0,0,1-.126,1.273l-.333.333Zm1.2,1.648a8.484,8.484,0,0,0,1.517.629v.693A1.008,1.008,0,0,0,15.5,58H18.45a1.008,1.008,0,0,0,1.008-1.008V56.3a8.3,8.3,0,0,0,1.517-.629l.49.49a1.009,1.009,0,0,0,1.425,0l2.085-2.085a1.01,1.01,0,0,0,0-1.427l-.49-.492a8.343,8.343,0,0,0,.629-1.516h.693a1.008,1.008,0,0,0,1.008-1.008V46.684a1.009,1.009,0,0,0-1.008-1.008h-.693a8.381,8.381,0,0,0-.629-1.516l.49-.492a1.009,1.009,0,0,0,0-1.425l-2.085-2.083a1.01,1.01,0,0,0-1.427,0l-.49.492a8.291,8.291,0,0,0-1.516-.629v-.693A1.009,1.009,0,0,0,18.45,38.32H15.5a1.008,1.008,0,0,0-1.008,1.008v.693a8.3,8.3,0,0,0-1.517.629l-.49-.492a1.009,1.009,0,0,0-1.425,0L8.977,42.244a1.009,1.009,0,0,0,0,1.425l.49.492a8.381,8.381,0,0,0-.629,1.516H8.145a1.008,1.008,0,0,0-1.008,1.008v2.948a1.008,1.008,0,0,0,1.008,1.008h.693a8.393,8.393,0,0,0,.629,1.517l-.49.49a1.009,1.009,0,0,0,0,1.425l2.085,2.085a1.009,1.009,0,0,0,1.425,0Zm23.364-4.1A1.091,1.091,0,1,1,35.25,52.66,1.093,1.093,0,0,1,36.341,51.569Zm8.377,5.613a1.091,1.091,0,1,1-1.091,1.091A1.093,1.093,0,0,1,44.718,57.182ZM27.965,64.643a1.091,1.091,0,1,1,1.091-1.091A1.092,1.092,0,0,1,27.965,64.643Zm0-4.2a3.091,3.091,0,0,1,.993.164l4.793-6.231a3.108,3.108,0,1,1,5.595-.916l3.494,2.34A3.1,3.1,0,0,1,46.2,55.54l4.687-4.328-1-.047a1.009,1.009,0,0,1,.1-2.015l3.531.166a1.008,1.008,0,0,1,.944,1.187l-.631,3.478a1.009,1.009,0,0,1-.991.828.982.982,0,0,1-.181-.016,1.008,1.008,0,0,1-.812-1.172l.118-.653-4.387,4.052a3.078,3.078,0,0,1,.265,1.253,3.108,3.108,0,1,1-6.111-.8l-3.494-2.34a3.1,3.1,0,0,1-2.874.471l-4.793,6.231a3.108,3.108,0,1,1-2.594-1.393ZM61.777,80.8H19.283a1.47,1.47,0,0,1-1.468-1.47v-.662H63.246v.662A1.471,1.471,0,0,1,61.777,80.8Zm-10.7,5.768h-21.1l2.187-3.752H48.891Zm-24.5-16.256h2.78v6.339h-2.78Zm8.376-9.26v15.6h2.78v-15.6Zm8.377,3.981V76.656h2.78V65.039Zm8.377-7.733V76.656h2.78V57.306ZM61.777,46.03h-30.6a14.391,14.391,0,0,0-6.23-9.812A1.008,1.008,0,0,0,23.828,37.9a12.354,12.354,0,0,1,5.456,11.164,1.008,1.008,0,0,0-1.657,1.11L28.8,52.637a1.01,1.01,0,0,0,.65.542,1.012,1.012,0,0,0,.833-.144l2.25-1.551a1.008,1.008,0,1,0-1.146-1.66l-.165.113a14.217,14.217,0,0,0,.112-1.892H61.778a1.471,1.471,0,0,1,1.47,1.47V76.656H56.5V56.878a1.592,1.592,0,0,0-1.589-1.591H51.278a1.592,1.592,0,0,0-1.589,1.591V76.656H48.126V64.612a1.592,1.592,0,0,0-1.589-1.589H42.9a1.591,1.591,0,0,0-1.589,1.589V76.656H39.75V60.629a1.592,1.592,0,0,0-1.589-1.589H34.524a1.591,1.591,0,0,0-1.589,1.589V76.655H31.372V69.889A1.591,1.591,0,0,0,29.783,68.3H26.149a1.591,1.591,0,0,0-1.589,1.589v6.767H17.816V62.492a14.379,14.379,0,0,0,11.1-6.363,1.008,1.008,0,1,0-1.677-1.118,12.35,12.35,0,0,1-11.165,5.455,1.008,1.008,0,0,0-1.11-1.656L12.5,59.981a1.009,1.009,0,0,0-.4,1.483l1.551,2.25a1.008,1.008,0,1,0,1.659-1.144L15.2,62.4c.2.025.4.045.6.063V79.335a3.489,3.489,0,0,0,3.485,3.486H29.835l-2.141,3.674a1.372,1.372,0,0,0-.008,1.39,1.4,1.4,0,0,0,1.212.7H52.164a1.4,1.4,0,0,0,1.211-.7,1.375,1.375,0,0,0-.008-1.391l-2.141-3.674H61.778a3.49,3.49,0,0,0,3.486-3.486V49.516a3.491,3.491,0,0,0-3.487-3.486Z" fill-rule="evenodd"/>
      </g>
    </g>
  </g>
</svg>
