<svg xmlns="http://www.w3.org/2000/svg" xmlns:xlink="http://www.w3.org/1999/xlink" width="113" height="113" viewBox="0 0 113 113">
  <defs>
    <filter id="Path_982547" x="0" y="0" width="113" height="113" filterUnits="userSpaceOnUse">
      <feOffset dy="3" input="SourceAlpha"/>
      <feGaussianBlur stdDeviation="3" result="blur"/>
      <feFlood flood-opacity="0.161"/>
      <feComposite operator="in" in2="blur"/>
      <feComposite in="SourceGraphic"/>
    </filter>
  </defs>
  <g id="Group_1179315" data-name="Group 1179315" transform="translate(-1100.49 -3192.635)">
    <g id="Group_1179209" data-name="Group 1179209">
      <g id="Group_1178878" data-name="Group 1178878" transform="translate(307 1703.2)">
        <g id="Group_1176922" data-name="Group 1176922" transform="translate(802.49 1495.435)">
          <g id="Group_1172322" data-name="Group 1172322" transform="translate(0 0)">
            <g id="Group_1164700" data-name="Group 1164700">
              <g id="Group_1160931" data-name="Group 1160931">
                <g id="Group_1160749" data-name="Group 1160749">
                  <g id="Group_1158891" data-name="Group 1158891">
                    <g id="Group_1157406" data-name="Group 1157406">
                      <g id="Group_1155793" data-name="Group 1155793">
                        <g id="Group_1154704" data-name="Group 1154704">
                          <g id="Group_1150790" data-name="Group 1150790">
                            <g id="Group_1154214" data-name="Group 1154214">
                              <g id="Group_1152583" data-name="Group 1152583">
                                <g id="Group_1146973" data-name="Group 1146973">
                                  <g id="Group_1146954" data-name="Group 1146954">
                                    <g transform="matrix(1, 0, 0, 1, -9, -6)" filter="url(#Path_982547)">
                                      <g id="Path_982547-2" data-name="Path 982547" transform="translate(9 6)" fill="#fbedfe">
                                        <path d="M 47.5000114440918 93.49987030029297 C 41.28938293457031 93.49987030029297 35.26534652709961 92.28384399414062 29.5951976776123 89.88558959960938 C 24.11773109436035 87.56881713867188 19.19814491271973 84.25183868408203 14.97310447692871 80.02680206298828 C 10.74805164337158 75.80176544189453 7.43107795715332 70.88218688964844 5.114304542541504 65.40472412109375 C 2.716038227081299 59.73458862304688 1.500011444091797 53.71054840087891 1.500011444091797 47.49993515014648 C 1.500011444091797 41.28932189941406 2.716038227081299 35.26528167724609 5.114304542541504 29.59514808654785 C 7.43107795715332 24.1176815032959 10.74805164337158 19.1981086730957 14.97310447692871 14.97306823730469 C 19.19814491271973 10.74802875518799 24.11773109436035 7.431055068969727 29.5951976776123 5.11428165435791 C 35.26534652709961 2.716028451919556 41.28938293457031 1.500001788139343 47.5000114440918 1.500001788139343 C 53.71063995361328 1.500001788139343 59.73467636108398 2.716028451919556 65.40482330322266 5.11428165435791 C 70.88229370117188 7.431055068969727 75.8018798828125 10.74802875518799 80.02691650390625 14.97306823730469 C 84.25196838378906 19.1981086730957 87.56894683837891 24.1176815032959 89.88571929931641 29.59514808654785 C 92.28398132324219 35.26528167724609 93.50001525878906 41.28932189941406 93.50001525878906 47.49993515014648 C 93.50001525878906 53.71054840087891 92.28398132324219 59.73458862304688 89.88571929931641 65.40472412109375 C 87.56894683837891 70.88218688964844 84.25196838378906 75.80176544189453 80.02691650390625 80.02680206298828 C 75.8018798828125 84.25183868408203 70.88229370117188 87.56881713867188 65.40482330322266 89.88558959960938 C 59.73467636108398 92.28384399414062 53.71063995361328 93.49987030029297 47.5000114440918 93.49987030029297 Z" stroke="none"/>
                                        <path d="M 47.5000114440918 3 C 41.49122619628906 3 35.66378021240234 4.1761474609375 30.17951965332031 6.495796203613281 C 24.880859375 8.7369384765625 20.12153625488281 11.94596862792969 16.03376770019531 16.03373718261719 C 11.94598388671875 20.12149047851562 8.736968994140625 24.88081359863281 6.495811462402344 30.17947387695312 C 4.176162719726562 35.66371917724609 3.000007629394531 41.49116516113281 3.000007629394531 47.49993515014648 C 3.000007629394531 53.50870513916016 4.176162719726562 59.33615112304688 6.495811462402344 64.82039642333984 C 8.736968994140625 70.11905670166016 11.94598388671875 74.87837982177734 16.03376770019531 78.96613311767578 C 20.12153625488281 83.05390167236328 24.880859375 86.26293182373047 30.17951965332031 88.50407409667969 C 35.66378021240234 90.82372283935547 41.49122619628906 91.99987030029297 47.5000114440918 91.99987030029297 C 53.50879669189453 91.99987030029297 59.33624267578125 90.82372283935547 64.82050323486328 88.50407409667969 C 70.11916351318359 86.26293182373047 74.87848663330078 83.05390167236328 78.96625518798828 78.96613311767578 C 83.05403900146484 74.87837982177734 86.2630615234375 70.11905670166016 88.50421142578125 64.82039642333984 C 90.82386016845703 59.33615112304688 92.00001525878906 53.50870513916016 92.00001525878906 47.49993515014648 C 92.00001525878906 41.49116516113281 90.82386016845703 35.66371917724609 88.50421142578125 30.17947387695312 C 86.2630615234375 24.88081359863281 83.05403900146484 20.12149047851562 78.96625518798828 16.03373718261719 C 74.87848663330078 11.94596862792969 70.11916351318359 8.7369384765625 64.82050323486328 6.495796203613281 C 59.33624267578125 4.1761474609375 53.50879669189453 3 47.5000114440918 3 M 47.5000114440918 0 C 73.73353576660156 0 95.00001525878906 21.26644134521484 95.00001525878906 47.49993515014648 C 95.00001525878906 73.73342895507812 73.73353576660156 94.99987030029297 47.5000114440918 94.99987030029297 C 21.26648712158203 94.99987030029297 7.62939453125e-06 73.73342895507812 7.62939453125e-06 47.49993515014648 C 7.62939453125e-06 21.26644134521484 21.26648712158203 0 47.5000114440918 0 Z" stroke="none" fill="#7b3289"/>
                                      </g>
                                    </g>
                                  </g>
                                </g>
                              </g>
                            </g>
                          </g>
                        </g>
                      </g>
                    </g>
                  </g>
                </g>
              </g>
            </g>
          </g>
        </g>
      </g>
      <g id="database-security_2653557" transform="translate(1123.989 3214.342)">
        <g id="Group_1179207" data-name="Group 1179207">
          <g id="Group_1179198" data-name="Group 1179198">
            <circle id="Ellipse_12554" data-name="Ellipse 12554" cx="4" cy="4" r="4" transform="translate(7 14)" fill="#ff826e"/>
          </g>
          <g id="Group_1179199" data-name="Group 1179199">
            <circle id="Ellipse_12555" data-name="Ellipse 12555" cx="9" cy="9" r="9" transform="translate(2 44)" fill="#ff826e"/>
          </g>
          <g id="Group_1179200" data-name="Group 1179200">
            <path id="Path_1041595" data-name="Path 1041595" d="M30,52c0,2.21,7.16,4,16,4s16-1.79,16-4v6c0,2.21-7.16,4-16,4s-16-1.79-16-4V52Z" fill="#fcd770"/>
          </g>
          <g id="Group_1179201" data-name="Group 1179201">
            <path id="Path_1041596" data-name="Path 1041596" d="M62,40v6c0,2.21-7.16,4-16,4s-16-1.79-16-4V40c0,2.21,7.16,4,16,4S62,42.21,62,40Z" fill="#fcd770"/>
          </g>
          <g id="Group_1179202" data-name="Group 1179202">
            <path id="Path_1041597" data-name="Path 1041597" d="M62,46v6c0,2.21-7.16,4-16,4s-16-1.79-16-4V46c0,2.21,7.16,4,16,4S62,48.21,62,46Z" fill="#ffeaa7"/>
          </g>
          <g id="Group_1179203" data-name="Group 1179203">
            <path id="Path_1041598" data-name="Path 1041598" d="M54.48,36.61C58.99,37.32,62,38.57,62,40c0,2.21-7.16,4-16,4s-16-1.79-16-4c0-1.43,3-2.68,7.51-3.39,1.31.77,2.84,1.59,4.64,2.47a8.743,8.743,0,0,0,3.15.89,8.419,8.419,0,0,0,4.38-.81c1.86-.9,3.45-1.75,4.8-2.55Z" fill="#ffeaa7"/>
          </g>
          <g id="Group_1179204" data-name="Group 1179204">
            <path id="Path_1041599" data-name="Path 1041599" d="M54.48,36.61c-1.35.8-2.94,1.65-4.8,2.55a8.419,8.419,0,0,1-4.38.81,8.744,8.744,0,0,1-3.15-.89c-1.8-.88-3.33-1.7-4.64-2.47C31,32.77,30,30.12,30,28c0-1.78.55-6.14,1.09-10,.41-2.97.81-5.64.96-6.61L32.57,8h3.29a9.991,9.991,0,0,0,7.07-2.93L46,2l3.07,3.07A9.991,9.991,0,0,0,56.14,8h3.29l.52,3.39C60.29,13.61,62,24.85,62,28,62,30.13,61,32.78,54.48,36.61Z" fill="#aab2bd"/>
          </g>
          <g id="Group_1179205" data-name="Group 1179205">
            <path id="Path_1041600" data-name="Path 1041600" d="M56,12s2,13,2,16c0,2.46-7.41,6.27-10.07,7.56a4.453,4.453,0,0,1-3.86,0C41.41,34.27,34,30.46,34,28c0-3,2-16,2-16h.34A13.653,13.653,0,0,0,46,8a13.67,13.67,0,0,0,4.43,2.96A13.632,13.632,0,0,0,55.66,12Z" fill="#ffeaa7"/>
          </g>
          <g id="Group_1179206" data-name="Group 1179206">
            <circle id="Ellipse_12556" data-name="Ellipse 12556" cx="8" cy="8" r="8" transform="translate(38 14)" fill="#69d6f4"/>
          </g>
        </g>
        <g id="Group_1179208" data-name="Group 1179208">
          <path id="Path_1041601" data-name="Path 1041601" d="M46,31a9,9,0,1,0-9-9A9.01,9.01,0,0,0,46,31Zm1.589-12a11.214,11.214,0,0,1,.362,2h-3.9a11.214,11.214,0,0,1,.362-2Zm-2.407-2A11.2,11.2,0,0,1,46,15.606,11.355,11.355,0,0,1,46.818,17Zm2.769,6a11.214,11.214,0,0,1-.362,2H44.412a11.214,11.214,0,0,1-.362-2Zm-1.133,4A11.3,11.3,0,0,1,46,28.4a11.292,11.292,0,0,1-.819-1.4Zm2.2,0h1.868a7,7,0,0,1-2.67,1.633A13.243,13.243,0,0,0,49.021,27Zm.632-2a13.072,13.072,0,0,0,.309-2H52.92a6.937,6.937,0,0,1-.6,2Zm.309-4a13.073,13.073,0,0,0-.309-2h2.662a6.937,6.937,0,0,1,.6,2Zm-.941-4a13.246,13.246,0,0,0-.8-1.633A7.016,7.016,0,0,1,50.89,17Zm-6.042,0H41.111a7,7,0,0,1,2.67-1.633,13.243,13.243,0,0,0-.8,1.633Zm-.632,2a13.072,13.072,0,0,0-.309,2H39.08a6.937,6.937,0,0,1,.6-2Zm-.309,4a13.073,13.073,0,0,0,.309,2H39.685a6.937,6.937,0,0,1-.6-2Zm.941,4a13.246,13.246,0,0,0,.8,1.633A7.016,7.016,0,0,1,41.11,27Z"/>
          <path id="Path_1041602" data-name="Path 1041602" d="M43.633,36.46a5.458,5.458,0,0,0,4.734,0C55.423,33.042,59,30.2,59,28c0-3.041-1.93-15.618-2.012-16.152L56.858,11h-1.2a12.571,12.571,0,0,1-8.95-3.707L46,6.586l-.707.707A12.573,12.573,0,0,1,36.343,11h-1.2l-.13.848C34.93,12.382,33,24.959,33,28c0,2.2,3.577,5.042,10.633,8.46ZM36.861,12.991A14.541,14.541,0,0,0,46,9.37a14.539,14.539,0,0,0,9.139,3.621C55.578,15.906,57,25.544,57,28c0,.826-2.531,3.282-9.5,6.659a3.464,3.464,0,0,1-2.992,0C37.531,31.282,35,28.826,35,28c0-2.456,1.422-12.094,1.861-15.009Z"/>
          <path id="Path_1041603" data-name="Path 1041603" d="M57.159,36.112C62.146,32.745,63,30.228,63,28c0-3.137-1.575-13.622-2.059-16.761L60.29,7H56.143a8.945,8.945,0,0,1-6.364-2.636L46,.586,42.222,4.364A8.947,8.947,0,0,1,35.857,7H31.71l-.651,4.239c-.179,1.162-.508,3.331-.85,5.761H15.9A5,5,0,1,0,10,22.9V43.051A10,10,0,1,0,20.949,54H29v4c0,3.955,11.12,5,17,5s17-1.045,17-5V40c0-1.985-2.794-3.176-5.841-3.888ZM33.035,11.544,33.427,9h2.431a10.93,10.93,0,0,0,7.778-3.222L46,3.414l2.364,2.364A10.93,10.93,0,0,0,56.143,9h2.431l.392,2.544C59.3,13.753,61,24.929,61,28c0,2.125-1.337,5.211-11.761,10.259a7.363,7.363,0,0,1-3.859.717,7.776,7.776,0,0,1-2.787-.8C32.317,33.176,31,30.111,31,28c0-3.071,1.7-14.247,2.035-16.456ZM8,18a3,3,0,1,1,3,3A3,3,0,0,1,8,18Zm3,43a8,8,0,1,1,8-8A8.009,8.009,0,0,1,11,61Zm9.949-9A10.016,10.016,0,0,0,12,43.051V22.9A5.016,5.016,0,0,0,15.9,19H29.932C29.444,22.606,29,26.336,29,28c0,2.226.857,4.743,5.844,8.112C31.8,36.823,29,38.015,29,40V52ZM46,61c-9.743,0-15-2.129-15-3V54.541C34.471,56.429,41.66,57,46,57s11.529-.571,15-2.459V58C61,58.871,55.743,61,46,61Zm0-6c-9.743,0-15-2.129-15-3V48.541C34.471,50.429,41.66,51,46,51s11.529-.571,15-2.459V52C61,52.871,55.743,55,46,55Zm0-6c-9.743,0-15-2.129-15-3V42.541C34.471,44.429,41.66,45,46,45s11.529-.571,15-2.459V46C61,46.871,55.743,49,46,49Zm0-6c-9.743,0-15-2.129-15-3,0-.218,1.123-1.478,6.337-2.342,1.27.735,2.705,1.5,4.38,2.318a9.788,9.788,0,0,0,3.506.993q.395.031.783.031a9.331,9.331,0,0,0,4.1-.94c1.743-.844,3.253-1.642,4.563-2.4C59.879,38.524,61,39.782,61,40,61,40.871,55.743,43,46,43Z"/>
          <path id="Path_1041604" data-name="Path 1041604" d="M9,55.586,6.707,53.293,5.293,54.707,9,58.414l7.707-7.707-1.414-1.414Z"/>
        </g>
      </g>
    </g>
  </g>
</svg>
