<svg xmlns="http://www.w3.org/2000/svg" xmlns:xlink="http://www.w3.org/1999/xlink" width="108" height="108" viewBox="0 0 108 108">
  <defs>
    <filter id="Path_904820" x="0" y="0" width="108" height="108" filterUnits="userSpaceOnUse">
      <feOffset dy="3" input="SourceAlpha"/>
      <feGaussianBlur stdDeviation="3" result="blur"/>
      <feFlood flood-opacity="0.161"/>
      <feComposite operator="in" in2="blur"/>
      <feComposite in="SourceGraphic"/>
    </filter>
  </defs>
  <g id="Group_1206758" data-name="Group 1206758" transform="translate(-620 -3457.783)">
    <g id="Group_1206137" data-name="Group 1206137" transform="translate(629 3463.783)">
      <g id="Group_1173585" data-name="Group 1173585" transform="translate(0 0)">
        <g id="Group_1173428" data-name="Group 1173428">
          <g id="Group_1171958" data-name="Group 1171958">
            <g id="Group_1167341" data-name="Group 1167341">
              <g id="Group_1166792" data-name="Group 1166792">
                <g transform="matrix(1, 0, 0, 1, -9, -6)" filter="url(#Path_904820)">
                  <g id="Path_904820-2" data-name="Path 904820" transform="translate(9 6)" fill="#edf5fb">
                    <path d="M 44.99999618530273 88.50002288818359 C 39.12687301635742 88.50002288818359 33.43022155761719 87.35009765625 28.06829643249512 85.08218383789062 C 22.88852119445801 82.89133453369141 18.23629570007324 79.75460815429688 14.24084663391113 75.7591552734375 C 10.24540901184082 71.76371002197266 7.108683586120605 67.11148071289062 4.917821407318115 61.93170928955078 C 2.649921178817749 56.56978225708008 1.499996185302734 50.87313079833984 1.499996185302734 45.00000762939453 C 1.499996185302734 39.12688446044922 2.649921178817749 33.43023300170898 4.917821407318115 28.06830787658691 C 7.108683586120605 22.8885326385498 10.24540901184082 18.23630714416504 14.24084663391113 14.24085807800293 C 18.23629570007324 10.24542045593262 22.88852119445801 7.108695030212402 28.06829643249512 4.917832851409912 C 33.43022155761719 2.649932622909546 39.12687301635742 1.500007629394531 44.99999618530273 1.500007629394531 C 50.87311935424805 1.500007629394531 56.56977081298828 2.649932622909546 61.93169784545898 4.917832851409912 C 67.11147308349609 7.108695030212402 71.76369476318359 10.24542045593262 75.75914764404297 14.24085807800293 C 79.75458526611328 18.23630714416504 82.89131164550781 22.8885326385498 85.08216857910156 28.06830787658691 C 87.35007476806641 33.43023300170898 88.5 39.12688446044922 88.5 45.00000762939453 C 88.5 50.87313079833984 87.35007476806641 56.56978225708008 85.08216857910156 61.93170928955078 C 82.89131164550781 67.11148071289062 79.75458526611328 71.76371002197266 75.75914764404297 75.7591552734375 C 71.76369476318359 79.75460815429688 67.11147308349609 82.89133453369141 61.93169784545898 85.08218383789062 C 56.56977081298828 87.35009765625 50.87311935424805 88.50002288818359 44.99999618530273 88.50002288818359 Z" stroke="none"/>
                    <path d="M 44.99999618530273 2.999992370605469 C 39.32870864868164 2.999992370605469 33.82865142822266 4.110054016113281 28.65262603759766 6.299339294433594 C 23.65165710449219 8.414566040039062 19.15968322753906 11.44333648681641 15.301513671875 15.30150604248047 C 11.44333648681641 19.15967559814453 8.414566040039062 23.65164947509766 6.299339294433594 28.65262222290039 C 4.110054016113281 33.82866287231445 2.999992370605469 39.32872009277344 2.999992370605469 45.00000762939453 C 2.999992370605469 50.67129516601562 4.110054016113281 56.17133712768555 6.299339294433594 61.34738159179688 C 8.414566040039062 66.34835052490234 11.44333648681641 70.84030914306641 15.301513671875 74.69849395751953 C 19.15968322753906 78.55666351318359 23.65165710449219 81.58543395996094 28.65262603759766 83.70066833496094 C 33.82865142822266 85.88995361328125 39.32870864868164 87.00000762939453 44.99999618530273 87.00000762939453 C 50.67128372192383 87.00000762939453 56.17134094238281 85.88995361328125 61.34736633300781 83.70066833496094 C 66.34834289550781 81.58543395996094 70.84030914306641 78.55666351318359 74.69847869873047 74.69849395751953 C 78.55665588378906 70.84030914306641 81.58542633056641 66.34835052490234 83.70065307617188 61.34738159179688 C 85.88993835449219 56.17133712768555 87 50.67129516601562 87 45.00000762939453 C 87 39.32872009277344 85.88993835449219 33.82866287231445 83.70065307617188 28.65262222290039 C 81.58542633056641 23.65164947509766 78.55665588378906 19.15967559814453 74.69847869873047 15.30150604248047 C 70.84030914306641 11.44333648681641 66.34834289550781 8.414566040039062 61.34736633300781 6.299339294433594 C 56.17134094238281 4.110054016113281 50.67128372192383 2.999992370605469 44.99999618530273 2.999992370605469 M 44.99999618530273 -7.62939453125e-06 C 69.85281372070312 -7.62939453125e-06 90 20.14717864990234 90 45.00000762939453 C 90 69.85280609130859 69.85281372070312 90.00000762939453 44.99999618530273 90.00000762939453 C 20.14717864990234 90.00000762939453 -7.62939453125e-06 69.85280609130859 -7.62939453125e-06 45.00000762939453 C -7.62939453125e-06 20.14717864990234 20.14717864990234 -7.62939453125e-06 44.99999618530273 -7.62939453125e-06 Z" stroke="none" fill="#2f5b79"/>
                  </g>
                </g>
              </g>
            </g>
          </g>
        </g>
      </g>
      <g id="predictive-chart_6078880_1_" data-name="predictive-chart_6078880 (1)" transform="translate(15.685 15.685)">
        <path id="Path_1042349" data-name="Path 1042349" d="M51.342,44.016H3.827A1.827,1.827,0,0,1,2,42.189V3.827A1.827,1.827,0,0,1,3.827,2H49.5a1.827,1.827,0,0,1,1.827,1.827v40.2Z" transform="translate(-0.087 -0.087)" fill="#e2e7f6"/>
        <path id="Path_1042350" data-name="Path 1042350" d="M48.661,41.276V2H3.945A1.909,1.909,0,0,0,2,3.871V41.276Z" transform="translate(-0.087 -0.087)" fill="#f7fafd"/>
        <path id="Path_1042351" data-name="Path 1042351" d="M49.5,2H3.827A1.827,1.827,0,0,0,2,3.827v5.48H51.323V3.827A1.827,1.827,0,0,0,49.5,2Z" transform="translate(-0.087 -0.087)" fill="#3b5892"/>
        <path id="Path_1042352" data-name="Path 1042352" d="M8.2,17.492l6.934,5.944V32.57A9.134,9.134,0,0,1,8.2,17.492Z" transform="translate(-0.433 -1.428)" fill="#b52f28"/>
        <path id="Path_1042353" data-name="Path 1042353" d="M8.408,17.19l6.934,5.944h9.134A9.134,9.134,0,0,0,8.408,17.19Z" transform="translate(-0.642 -1.126)" fill="#f4a93c"/>
        <path id="Path_1042354" data-name="Path 1042354" d="M48.66,7.791V2H3.926A2.148,2.148,0,0,0,2,4.316V7.787Z" transform="translate(-0.086 -0.087)" fill="#4c6cb5"/>
        <path id="Path_1042355" data-name="Path 1042355" d="M54,26h7.307V58.882H54Z" transform="translate(-4.59 -2.165)" fill="#3b5892"/>
        <path id="Path_1042356" data-name="Path 1042356" d="M54,26h4.567V57.055H54Z" transform="translate(-4.59 -2.165)" fill="#4c6cb5"/>
        <path id="Path_1042357" data-name="Path 1042357" d="M42,32h7.307V59.4H42Z" transform="translate(-3.551 -2.685)" fill="#f4a93c"/>
        <path id="Path_1042358" data-name="Path 1042358" d="M42,32h5.48V57.575H42Z" transform="translate(-3.551 -2.685)" fill="#f6b940"/>
        <path id="Path_1042359" data-name="Path 1042359" d="M30,38h7.307V59.921H30Z" transform="translate(-2.512 -3.204)" fill="#b52f28"/>
        <path id="Path_1042360" data-name="Path 1042360" d="M30,38h5.48V58.095H30Z" transform="translate(-2.512 -3.204)" fill="#d23f34"/>
        <path id="Path_1042361" data-name="Path 1042361" d="M18,44h7.307V60.441H18Z" transform="translate(-1.472 -3.724)" fill="#4d8c28"/>
        <path id="Path_1042362" data-name="Path 1042362" d="M18,44h5.48V58.614H18Z" transform="translate(-1.472 -3.724)" fill="#559b2d"/>
        <path id="Path_1042363" data-name="Path 1042363" d="M5,5h5.48V6.827H5Z" transform="translate(-0.346 -0.346)" fill="#f7fafd"/>
        <path id="Path_1042364" data-name="Path 1042364" d="M13,5h1.827V6.827H13Z" transform="translate(-1.039 -0.346)" fill="#f7fafd"/>
        <path id="Path_1042365" data-name="Path 1042365" d="M36,14H48.788v3.654H36Z" transform="translate(-3.031 -1.126)" fill="#787faa"/>
        <path id="Path_1042366" data-name="Path 1042366" d="M36,14H47.874v2.74H36Z" transform="translate(-3.031 -1.126)" fill="#858bb5"/>
        <path id="Path_1042367" data-name="Path 1042367" d="M20,28v9.134A9.134,9.134,0,0,0,29.134,28Z" transform="translate(-1.646 -2.338)" fill="#3b5892"/>
        <path id="Path_1042368" data-name="Path 1042368" d="M27.124,28H20v7.124A9.142,9.142,0,0,0,27.124,28Z" transform="translate(-1.646 -2.338)" fill="#4c6cb5"/>
        <g id="Group_1202377" data-name="Group 1202377" transform="translate(32.969 19.268)">
          <path id="Path_1042369" data-name="Path 1042369" d="M36,21h9.134v1.827H36Z" transform="translate(-36 -21)" fill="#9da1bf"/>
          <path id="Path_1042370" data-name="Path 1042370" d="M48,21h1.827v1.827H48Z" transform="translate(-37.039 -21)" fill="#9da1bf"/>
          <path id="Path_1042371" data-name="Path 1042371" d="M36,25h9.134v1.827H36Z" transform="translate(-36 -21.346)" fill="#9da1bf"/>
          <path id="Path_1042372" data-name="Path 1042372" d="M48,25h1.827v1.827H48Z" transform="translate(-37.039 -21.346)" fill="#9da1bf"/>
        </g>
        <path id="Path_1042373" data-name="Path 1042373" d="M21.7,16.581a9.124,9.124,0,0,0-13.29.608l5.077,4.35H21.7Z" transform="translate(-0.641 -1.126)" fill="#f6b940"/>
        <path id="Path_1042374" data-name="Path 1042374" d="M8.2,17.492A9.134,9.134,0,0,0,9.386,30.53h3.921V21.871Z" transform="translate(-0.433 -1.428)" fill="#d23f34"/>
        <path id="Path_1042375" data-name="Path 1042375" d="M56.717,22.921H52.15V3.74A2.74,2.74,0,0,0,49.41,1H3.74A2.74,2.74,0,0,0,1,3.74V42.1a2.74,2.74,0,0,0,2.74,2.74H15.614V56.717a.913.913,0,0,0,.913.913h7.307a.913.913,0,0,0,.913-.913V44.843h1.827V56.717a.913.913,0,0,0,.913.913H34.8a.913.913,0,0,0,.913-.913V44.843h1.827V56.717a.913.913,0,0,0,.913.913h7.307a.913.913,0,0,0,.913-.913V44.843H48.5V56.717a.913.913,0,0,0,.913.913h7.307a.913.913,0,0,0,.913-.913V23.835A.913.913,0,0,0,56.717,22.921ZM3.74,2.827H49.41a.913.913,0,0,1,.913.913V8.307H2.827V3.74A.913.913,0,0,1,3.74,2.827ZM22.921,55.8h-5.48V41.189h5.48Zm10.961,0H28.4V35.709h5.48Zm10.961,0h-5.48V30.229h5.48ZM48.5,23.835V43.016H46.67v-13.7a.913.913,0,0,0-.913-.913H38.449a.913.913,0,0,0-.913.913v13.7H35.709V34.8a.913.913,0,0,0-.913-.913H27.488a.913.913,0,0,0-.913.913v8.221H24.748v-2.74a.913.913,0,0,0-.913-.913H16.528a.913.913,0,0,0-.913.913v2.74H3.74a.913.913,0,0,1-.913-.913V10.134h47.5V22.921H49.41A.913.913,0,0,0,48.5,23.835ZM55.8,55.8h-5.48V24.748H55.8Z" transform="translate(0)"/>
        <path id="Path_1042376" data-name="Path 1042376" d="M5,5h5.48V6.827H5Z" transform="translate(-0.346 -0.346)"/>
        <path id="Path_1042377" data-name="Path 1042377" d="M13,5h1.827V6.827H13Z" transform="translate(-1.039 -0.346)"/>
        <path id="Path_1042378" data-name="Path 1042378" d="M48.7,13H35.913a.913.913,0,0,0-.913.913v3.654a.913.913,0,0,0,.913.913H48.7a.913.913,0,0,0,.913-.913V13.913A.913.913,0,0,0,48.7,13Zm-.913,3.654H36.827V14.827H47.788Z" transform="translate(-2.945 -1.039)"/>
        <path id="Path_1042379" data-name="Path 1042379" d="M25.095,23.047A10.047,10.047,0,1,0,15.047,33.095a.913.913,0,0,0,.913-.913V23.961h8.221A.913.913,0,0,0,25.095,23.047Zm-18.268,0a8.168,8.168,0,0,1,1.427-4.621l5.88,5.04v7.75A8.232,8.232,0,0,1,6.827,23.047Zm8.558-.913L9.447,17.045a8.206,8.206,0,0,1,13.769,5.089Z" transform="translate(-0.346 -1.039)"/>
        <path id="Path_1042380" data-name="Path 1042380" d="M29.047,27H19.913a.913.913,0,0,0-.913.913v9.134a.913.913,0,0,0,.913.913A10.059,10.059,0,0,0,29.961,27.913.913.913,0,0,0,29.047,27Zm-8.221,9.083V28.827h7.256A8.235,8.235,0,0,1,20.827,36.083Z" transform="translate(-1.559 -2.252)"/>
        <path id="Path_1042381" data-name="Path 1042381" d="M36,21h9.134v1.827H36Z" transform="translate(-3.031 -1.732)"/>
        <path id="Path_1042382" data-name="Path 1042382" d="M48,21h1.827v1.827H48Z" transform="translate(-4.071 -1.732)"/>
        <path id="Path_1042383" data-name="Path 1042383" d="M36,25h9.134v1.827H36Z" transform="translate(-3.031 -2.079)"/>
        <path id="Path_1042384" data-name="Path 1042384" d="M48,25h1.827v1.827H48Z" transform="translate(-4.071 -2.079)"/>
      </g>
    </g>
  </g>
</svg>
