<svg xmlns="http://www.w3.org/2000/svg" xmlns:xlink="http://www.w3.org/1999/xlink" width="113" height="113" viewBox="0 0 113 113">
  <defs>
    <filter id="Path_982547" x="0" y="0" width="113" height="113" filterUnits="userSpaceOnUse">
      <feOffset dy="3" input="SourceAlpha"/>
      <feGaussianBlur stdDeviation="3" result="blur"/>
      <feFlood flood-opacity="0.161"/>
      <feComposite operator="in" in2="blur"/>
      <feComposite in="SourceGraphic"/>
    </filter>
  </defs>
  <g id="Group_1179260" data-name="Group 1179260" transform="translate(-793.49 -2375.809)">
    <g id="Group_1179002" data-name="Group 1179002">
      <g id="Group_1178713" data-name="Group 1178713" transform="translate(0 886.374)">
        <g id="Group_1176922" data-name="Group 1176922" transform="translate(802.49 1495.435)">
          <g id="Group_1172322" data-name="Group 1172322" transform="translate(0 0)">
            <g id="Group_1164700" data-name="Group 1164700">
              <g id="Group_1160931" data-name="Group 1160931">
                <g id="Group_1160749" data-name="Group 1160749">
                  <g id="Group_1158891" data-name="Group 1158891">
                    <g id="Group_1157406" data-name="Group 1157406">
                      <g id="Group_1155793" data-name="Group 1155793">
                        <g id="Group_1154704" data-name="Group 1154704">
                          <g id="Group_1150790" data-name="Group 1150790">
                            <g id="Group_1154214" data-name="Group 1154214">
                              <g id="Group_1152583" data-name="Group 1152583">
                                <g id="Group_1146973" data-name="Group 1146973">
                                  <g id="Group_1146954" data-name="Group 1146954">
                                    <g transform="matrix(1, 0, 0, 1, -9, -6)" filter="url(#Path_982547)">
                                      <g id="Path_982547-2" data-name="Path 982547" transform="translate(9 6)" fill="#fbedfe">
                                        <path d="M 47.5000114440918 93.49987030029297 C 41.28938293457031 93.49987030029297 35.26534652709961 92.28384399414062 29.5951976776123 89.88558959960938 C 24.11773109436035 87.56881713867188 19.19814491271973 84.25183868408203 14.97310447692871 80.02680206298828 C 10.74805164337158 75.80176544189453 7.43107795715332 70.88218688964844 5.114304542541504 65.40472412109375 C 2.716038227081299 59.73458862304688 1.500011444091797 53.71054840087891 1.500011444091797 47.49993515014648 C 1.500011444091797 41.28932189941406 2.716038227081299 35.26528167724609 5.114304542541504 29.59514808654785 C 7.43107795715332 24.1176815032959 10.74805164337158 19.1981086730957 14.97310447692871 14.97306823730469 C 19.19814491271973 10.74802875518799 24.11773109436035 7.431055068969727 29.5951976776123 5.11428165435791 C 35.26534652709961 2.716028451919556 41.28938293457031 1.500001788139343 47.5000114440918 1.500001788139343 C 53.71063995361328 1.500001788139343 59.73467636108398 2.716028451919556 65.40482330322266 5.11428165435791 C 70.88229370117188 7.431055068969727 75.8018798828125 10.74802875518799 80.02691650390625 14.97306823730469 C 84.25196838378906 19.1981086730957 87.56894683837891 24.1176815032959 89.88571929931641 29.59514808654785 C 92.28398132324219 35.26528167724609 93.50001525878906 41.28932189941406 93.50001525878906 47.49993515014648 C 93.50001525878906 53.71054840087891 92.28398132324219 59.73458862304688 89.88571929931641 65.40472412109375 C 87.56894683837891 70.88218688964844 84.25196838378906 75.80176544189453 80.02691650390625 80.02680206298828 C 75.8018798828125 84.25183868408203 70.88229370117188 87.56881713867188 65.40482330322266 89.88558959960938 C 59.73467636108398 92.28384399414062 53.71063995361328 93.49987030029297 47.5000114440918 93.49987030029297 Z" stroke="none"/>
                                        <path d="M 47.5000114440918 3 C 41.49122619628906 3 35.66378021240234 4.1761474609375 30.17951965332031 6.495796203613281 C 24.880859375 8.7369384765625 20.12153625488281 11.94596862792969 16.03376770019531 16.03373718261719 C 11.94598388671875 20.12149047851562 8.736968994140625 24.88081359863281 6.495811462402344 30.17947387695312 C 4.176162719726562 35.66371917724609 3.000007629394531 41.49116516113281 3.000007629394531 47.49993515014648 C 3.000007629394531 53.50870513916016 4.176162719726562 59.33615112304688 6.495811462402344 64.82039642333984 C 8.736968994140625 70.11905670166016 11.94598388671875 74.87837982177734 16.03376770019531 78.96613311767578 C 20.12153625488281 83.05390167236328 24.880859375 86.26293182373047 30.17951965332031 88.50407409667969 C 35.66378021240234 90.82372283935547 41.49122619628906 91.99987030029297 47.5000114440918 91.99987030029297 C 53.50879669189453 91.99987030029297 59.33624267578125 90.82372283935547 64.82050323486328 88.50407409667969 C 70.11916351318359 86.26293182373047 74.87848663330078 83.05390167236328 78.96625518798828 78.96613311767578 C 83.05403900146484 74.87837982177734 86.2630615234375 70.11905670166016 88.50421142578125 64.82039642333984 C 90.82386016845703 59.33615112304688 92.00001525878906 53.50870513916016 92.00001525878906 47.49993515014648 C 92.00001525878906 41.49116516113281 90.82386016845703 35.66371917724609 88.50421142578125 30.17947387695312 C 86.2630615234375 24.88081359863281 83.05403900146484 20.12149047851562 78.96625518798828 16.03373718261719 C 74.87848663330078 11.94596862792969 70.11916351318359 8.7369384765625 64.82050323486328 6.495796203613281 C 59.33624267578125 4.1761474609375 53.50879669189453 3 47.5000114440918 3 M 47.5000114440918 0 C 73.73353576660156 0 95.00001525878906 21.26644134521484 95.00001525878906 47.49993515014648 C 95.00001525878906 73.73342895507812 73.73353576660156 94.99987030029297 47.5000114440918 94.99987030029297 C 21.26648712158203 94.99987030029297 7.62939453125e-06 73.73342895507812 7.62939453125e-06 47.49993515014648 C 7.62939453125e-06 21.26644134521484 21.26648712158203 0 47.5000114440918 0 Z" stroke="none" fill="#7b3289"/>
                                      </g>
                                    </g>
                                  </g>
                                </g>
                              </g>
                            </g>
                          </g>
                        </g>
                      </g>
                    </g>
                  </g>
                </g>
              </g>
            </g>
          </g>
        </g>
      </g>
      <g id="target_5071287" transform="translate(823 2399.878)">
        <g id="Layer_25" data-name="Layer 25" transform="translate(1.97 1.97)">
          <path id="Path_1040919" data-name="Path 1040919" d="M2,2V58.243H36.91V2Z" transform="translate(-2 -2)" fill="#e2e7f6"/>
          <path id="Path_1040920" data-name="Path 1040920" d="M38.849,45.637V60.183H2V2H38.849Z" transform="translate(-2 -2)" fill="#c8cded"/>
          <path id="Path_1040921" data-name="Path 1040921" d="M2,2V55.334H35.94V2Z" transform="translate(-2 -2)" fill="#e2e7f6"/>
          <circle id="Ellipse_12530" data-name="Ellipse 12530" cx="17" cy="17" r="17" transform="translate(14.03 10.153)" fill="#d23f34"/>
          <path id="Path_1040922" data-name="Path 1040922" d="M47.152,29.576A13.576,13.576,0,1,1,33.576,16,13.576,13.576,0,0,1,47.152,29.576" transform="translate(-2.545 -2.424)" fill="#f9d266"/>
          <circle id="Ellipse_12531" data-name="Ellipse 12531" cx="10" cy="10" r="10" transform="translate(21.03 17.153)" fill="#d23f34"/>
          <circle id="Ellipse_12532" data-name="Ellipse 12532" cx="6" cy="6" r="6" transform="translate(25.03 21.153)" fill="#f0ae42"/>
          <path id="Path_1040923" data-name="Path 1040923" d="M28,29.818a5.8,5.8,0,0,0,2.3,4.626,5.812,5.812,0,0,0,5.1-10.221,5.8,5.8,0,0,0-7.4,5.6Z" transform="translate(-2.787 -2.666)" fill="#f9d266"/>
          <path id="Path_1040924" data-name="Path 1040924" d="M0,0H20.571V1.939H0Z" transform="translate(30.339 26.468) rotate(-45)" fill="#e2e7f6"/>
          <path id="Path_1040925" data-name="Path 1040925" d="M5,5H20.515V6.939H5Z" transform="translate(-2.091 -2.091)" fill="#9da1bf"/>
          <path id="Path_1040926" data-name="Path 1040926" d="M23,5H36.576V6.939H23Z" transform="translate(-2.636 -2.091)" fill="#9da1bf"/>
          <path id="Path_1040927" data-name="Path 1040927" d="M6,10H17.637v3.879H6Z" transform="translate(-2.121 -2.242)" fill="#5e87ca"/>
          <path id="Path_1040928" data-name="Path 1040928" d="M6,10h9.7v1.939H6Z" transform="translate(-2.121 -2.242)" fill="#78a0d4"/>
          <g id="Group_1179001" data-name="Group 1179001" transform="translate(2.909 14.546)">
            <path id="Path_1040929" data-name="Path 1040929" d="M5,17h9.7v1.939H5Z" transform="translate(-5 -17)" fill="#9da1bf"/>
            <path id="Path_1040930" data-name="Path 1040930" d="M5,21h9.7v1.939H5Z" transform="translate(-5 -17.121)" fill="#9da1bf"/>
            <path id="Path_1040931" data-name="Path 1040931" d="M9,51H27.425v1.939H9Z" transform="translate(-5.121 -18.03)" fill="#9da1bf"/>
            <path id="Path_1040932" data-name="Path 1040932" d="M30,51h6.788v1.939H30Z" transform="translate(-5.757 -18.03)" fill="#9da1bf"/>
            <path id="Path_1040933" data-name="Path 1040933" d="M5,55H36.031v1.939H5Z" transform="translate(-5 -18.151)" fill="#9da1bf"/>
          </g>
          <path id="Path_1040934" data-name="Path 1040934" d="M48,15.576h5.818l7.758-6.788H54.788V2L48,9.758Z" transform="translate(-3.393 -2)" fill="#3b5892"/>
        </g>
        <g id="Layer_32" data-name="Layer 32" transform="translate(1 1)">
          <path id="Path_1040935" data-name="Path 1040935" d="M1.97,61.122H38.819a.97.97,0,0,0,.97-.97V46.234a18.368,18.368,0,0,0,6.885-29.416l.3-.3h5.417a.97.97,0,0,0,.638-.24l7.758-6.788a.97.97,0,0,0-.638-1.7H54.334V1.97a.97.97,0,0,0-1.7-.638L45.846,9.089a.97.97,0,0,0-.24.638v5.417l-.3.3a18.425,18.425,0,0,0-5.516-3.438V1.97a.97.97,0,0,0-.97-.97H1.97A.97.97,0,0,0,1,1.97V60.153a.97.97,0,0,0,.97.97Zm45.577-51.03L52.395,4.55V8.758a.97.97,0,0,0,.97.97h4.208L52.03,14.576H47.546Zm-9.7,19.03a4.863,4.863,0,1,1-2.179-4.041l-3.355,3.355,1.371,1.371,3.355-3.355a4.819,4.819,0,0,1,.808,2.67Zm-.791-5.43a6.815,6.815,0,1,0,1.373,1.373l1.384-1.384a8.75,8.75,0,1,1-1.371-1.371Zm2.764-2.764A10.683,10.683,0,1,0,41.193,22.3l1.37-1.37a12.644,12.644,0,1,1-1.371-1.371Zm2.741-2.741a14.6,14.6,0,1,0,1.371,1.371l1.371-1.371a16.545,16.545,0,1,1-1.371-1.371ZM2.939,2.939h34.91v8.427a18.425,18.425,0,1,0,0,35.511V59.183H2.939Z" transform="translate(-1 -1)"/>
          <path id="Path_1040936" data-name="Path 1040936" d="M5,5H20.515V6.939H5Z" transform="translate(-1.121 -1.121)"/>
          <path id="Path_1040937" data-name="Path 1040937" d="M23,5H36.576V6.939H23Z" transform="translate(-1.666 -1.121)"/>
          <path id="Path_1040938" data-name="Path 1040938" d="M5.97,14.818H17.606a.97.97,0,0,0,.97-.97V9.97a.97.97,0,0,0-.97-.97H5.97A.97.97,0,0,0,5,9.97v3.879A.97.97,0,0,0,5.97,14.818Zm.97-3.879h9.7v1.939h-9.7Z" transform="translate(-1.121 -1.242)"/>
          <path id="Path_1040939" data-name="Path 1040939" d="M5,17h9.7v1.939H5Z" transform="translate(-1.121 -1.485)"/>
          <path id="Path_1040940" data-name="Path 1040940" d="M5,21h9.7v1.939H5Z" transform="translate(-1.121 -1.606)"/>
          <path id="Path_1040941" data-name="Path 1040941" d="M9,51H27.425v1.939H9Z" transform="translate(-1.242 -2.514)"/>
          <path id="Path_1040942" data-name="Path 1040942" d="M30,51h6.788v1.939H30Z" transform="translate(-1.878 -2.514)"/>
          <path id="Path_1040943" data-name="Path 1040943" d="M5,55H36.031v1.939H5Z" transform="translate(-1.121 -2.635)"/>
        </g>
      </g>
    </g>
  </g>
</svg>
