<svg xmlns="http://www.w3.org/2000/svg" xmlns:xlink="http://www.w3.org/1999/xlink" width="113" height="113" viewBox="0 0 113 113">
  <defs>
    <filter id="Path_982547" x="0" y="0" width="113" height="113" filterUnits="userSpaceOnUse">
      <feOffset dy="3" input="SourceAlpha"/>
      <feGaussianBlur stdDeviation="3" result="blur"/>
      <feFlood flood-opacity="0.161"/>
      <feComposite operator="in" in2="blur"/>
      <feComposite in="SourceGraphic"/>
    </filter>
  </defs>
  <g id="Group_1206704" data-name="Group 1206704" transform="translate(-1107.49 -1054.972)">
    <g id="Group_1206226" data-name="Group 1206226">
      <g id="Group_1202720" data-name="Group 1202720" transform="translate(314 -1645.051)">
        <g id="Group_1202072" data-name="Group 1202072" transform="translate(0 324.215)">
          <g id="Group_1178713" data-name="Group 1178713" transform="translate(0 886.374)">
            <g id="Group_1176922" data-name="Group 1176922" transform="translate(802.49 1495.435)">
              <g id="Group_1172322" data-name="Group 1172322" transform="translate(0 0)">
                <g id="Group_1164700" data-name="Group 1164700">
                  <g id="Group_1160931" data-name="Group 1160931">
                    <g id="Group_1160749" data-name="Group 1160749">
                      <g id="Group_1158891" data-name="Group 1158891">
                        <g id="Group_1157406" data-name="Group 1157406">
                          <g id="Group_1155793" data-name="Group 1155793">
                            <g id="Group_1154704" data-name="Group 1154704">
                              <g id="Group_1150790" data-name="Group 1150790">
                                <g id="Group_1154214" data-name="Group 1154214">
                                  <g id="Group_1152583" data-name="Group 1152583">
                                    <g id="Group_1146973" data-name="Group 1146973">
                                      <g id="Group_1146954" data-name="Group 1146954">
                                        <g transform="matrix(1, 0, 0, 1, -9, -6)" filter="url(#Path_982547)">
                                          <g id="Path_982547-2" data-name="Path 982547" transform="translate(9 6)" fill="#fbedfe">
                                            <path d="M 47.5000114440918 93.49987030029297 C 41.28938293457031 93.49987030029297 35.26534652709961 92.28384399414062 29.5951976776123 89.88558959960938 C 24.11773109436035 87.56881713867188 19.19814491271973 84.25183868408203 14.97310447692871 80.02680206298828 C 10.74805164337158 75.80176544189453 7.43107795715332 70.88218688964844 5.114304542541504 65.40472412109375 C 2.716038227081299 59.73458862304688 1.500011444091797 53.71054840087891 1.500011444091797 47.49993515014648 C 1.500011444091797 41.28932189941406 2.716038227081299 35.26528167724609 5.114304542541504 29.59514808654785 C 7.43107795715332 24.1176815032959 10.74805164337158 19.1981086730957 14.97310447692871 14.97306823730469 C 19.19814491271973 10.74802875518799 24.11773109436035 7.431055068969727 29.5951976776123 5.11428165435791 C 35.26534652709961 2.716028451919556 41.28938293457031 1.500001788139343 47.5000114440918 1.500001788139343 C 53.71063995361328 1.500001788139343 59.73467636108398 2.716028451919556 65.40482330322266 5.11428165435791 C 70.88229370117188 7.431055068969727 75.8018798828125 10.74802875518799 80.02691650390625 14.97306823730469 C 84.25196838378906 19.1981086730957 87.56894683837891 24.1176815032959 89.88571929931641 29.59514808654785 C 92.28398132324219 35.26528167724609 93.50001525878906 41.28932189941406 93.50001525878906 47.49993515014648 C 93.50001525878906 53.71054840087891 92.28398132324219 59.73458862304688 89.88571929931641 65.40472412109375 C 87.56894683837891 70.88218688964844 84.25196838378906 75.80176544189453 80.02691650390625 80.02680206298828 C 75.8018798828125 84.25183868408203 70.88229370117188 87.56881713867188 65.40482330322266 89.88558959960938 C 59.73467636108398 92.28384399414062 53.71063995361328 93.49987030029297 47.5000114440918 93.49987030029297 Z" stroke="none"/>
                                            <path d="M 47.5000114440918 3 C 41.49122619628906 3 35.66378021240234 4.1761474609375 30.17951965332031 6.495796203613281 C 24.880859375 8.7369384765625 20.12153625488281 11.94596862792969 16.03376770019531 16.03373718261719 C 11.94598388671875 20.12149047851562 8.736968994140625 24.88081359863281 6.495811462402344 30.17947387695312 C 4.176162719726562 35.66371917724609 3.000007629394531 41.49116516113281 3.000007629394531 47.49993515014648 C 3.000007629394531 53.50870513916016 4.176162719726562 59.33615112304688 6.495811462402344 64.82039642333984 C 8.736968994140625 70.11905670166016 11.94598388671875 74.87837982177734 16.03376770019531 78.96613311767578 C 20.12153625488281 83.05390167236328 24.880859375 86.26293182373047 30.17951965332031 88.50407409667969 C 35.66378021240234 90.82372283935547 41.49122619628906 91.99987030029297 47.5000114440918 91.99987030029297 C 53.50879669189453 91.99987030029297 59.33624267578125 90.82372283935547 64.82050323486328 88.50407409667969 C 70.11916351318359 86.26293182373047 74.87848663330078 83.05390167236328 78.96625518798828 78.96613311767578 C 83.05403900146484 74.87837982177734 86.2630615234375 70.11905670166016 88.50421142578125 64.82039642333984 C 90.82386016845703 59.33615112304688 92.00001525878906 53.50870513916016 92.00001525878906 47.49993515014648 C 92.00001525878906 41.49116516113281 90.82386016845703 35.66371917724609 88.50421142578125 30.17947387695312 C 86.2630615234375 24.88081359863281 83.05403900146484 20.12149047851562 78.96625518798828 16.03373718261719 C 74.87848663330078 11.94596862792969 70.11916351318359 8.7369384765625 64.82050323486328 6.495796203613281 C 59.33624267578125 4.1761474609375 53.50879669189453 3 47.5000114440918 3 M 47.5000114440918 0 C 73.73353576660156 0 95.00001525878906 21.26644134521484 95.00001525878906 47.49993515014648 C 95.00001525878906 73.73342895507812 73.73353576660156 94.99987030029297 47.5000114440918 94.99987030029297 C 21.26648712158203 94.99987030029297 7.62939453125e-06 73.73342895507812 7.62939453125e-06 47.49993515014648 C 7.62939453125e-06 21.26644134521484 21.26648712158203 0 47.5000114440918 0 Z" stroke="none" fill="#7b3289"/>
                                          </g>
                                        </g>
                                      </g>
                                    </g>
                                  </g>
                                </g>
                              </g>
                            </g>
                          </g>
                        </g>
                      </g>
                    </g>
                  </g>
                </g>
              </g>
            </g>
          </g>
        </g>
      </g>
      <g id="money_16008103" transform="translate(1133.49 1075.289)">
        <path id="Path_1045398" data-name="Path 1045398" d="M11,42h4.158V61.75H11Z" transform="translate(0.354 1.578)" fill="#ccc"/>
        <path id="Path_1045399" data-name="Path 1045399" d="M37,42h4.158V61.75H37Z" transform="translate(1.38 1.578)" fill="#ccc"/>
        <circle id="Ellipse_12640" data-name="Ellipse 12640" cx="23.907" cy="23.907" r="23.907" transform="translate(3.039 3.04)" fill="#a6e641"/>
        <circle id="Ellipse_12641" data-name="Ellipse 12641" cx="18.71" cy="18.71" r="18.71" transform="translate(8.236 8.237)" fill="#ff7175"/>
        <circle id="Ellipse_12642" data-name="Ellipse 12642" cx="13.513" cy="13.513" r="13.513" transform="translate(13.433 13.434)" fill="#ffd052"/>
        <path id="Path_1045400" data-name="Path 1045400" d="M64.159,23.413,62.5,22.165l-2.817,3.742H57.09l1.871-2.495L57.3,22.165l-2.807,3.742h-2.6A24.947,24.947,0,1,0,10.315,45.522V62.288H8.236v2.079H18.63V62.288H16.552V49.617a24.874,24.874,0,0,0,20.789,0V62.288H35.262v2.079H45.656V62.288H43.577V45.522a24.884,24.884,0,0,0,8.316-17.536h2.6l2.817,3.742,1.663-1.247L57.09,27.986h2.578l2.817,3.742,1.663-1.247-1.861-2.495h2.079V25.907H62.287ZM49.814,25.907H46.7A19.75,19.75,0,0,0,27.986,7.249V4.079A22.868,22.868,0,0,1,49.814,25.907Zm-8.316,0a14.552,14.552,0,1,0,0,2.079h3.118a17.671,17.671,0,1,1,0-2.079Zm-13.513,0H25.907a2.079,2.079,0,0,1,0-4.158h2.079a2.079,2.079,0,0,1,2.079,2.079h2.079a4.158,4.158,0,0,0-4.158-4.158V17.592H25.907v2.079a4.158,4.158,0,0,0,0,8.316h2.079a2.079,2.079,0,0,1,0,4.158H25.907a2.079,2.079,0,0,1-2.079-2.079H21.749a4.158,4.158,0,0,0,4.158,4.158V36.3h2.079V34.223a4.158,4.158,0,0,0,4.158-4.158,4.064,4.064,0,0,0-.582-2.079H39.42a12.473,12.473,0,1,1,0-2.079ZM25.907,4.079V7.2A19.75,19.75,0,0,0,7.248,25.907H4.078A22.868,22.868,0,0,1,25.907,4.079ZM4.078,27.986H7.2A19.75,19.75,0,0,0,25.907,46.7v3.118A22.868,22.868,0,0,1,4.078,27.986Zm10.395,34.3H12.394V47.2c.665.478,1.362.925,2.079,1.341Zm27.026,0H39.42V48.536c.717-.416,1.414-.863,2.079-1.341ZM27.986,49.815V46.7A19.75,19.75,0,0,0,46.7,27.986h3.118A22.868,22.868,0,0,1,27.986,49.815Z" transform="translate(0)"/>
        <path id="Path_1045401" data-name="Path 1045401" d="M25,60h2.079v2.079H25Z" transform="translate(0.907 2.288)"/>
        <path id="Path_1045402" data-name="Path 1045402" d="M29,60h2.079v2.079H29Z" transform="translate(1.064 2.288)"/>
        <path id="Path_1045403" data-name="Path 1045403" d="M21,60h2.079v2.079H21Z" transform="translate(0.749 2.288)"/>
      </g>
    </g>
  </g>
</svg>
