<svg xmlns="http://www.w3.org/2000/svg" xmlns:xlink="http://www.w3.org/1999/xlink" width="108" height="108" viewBox="0 0 108 108">
  <defs>
    <filter id="Path_904820" x="0" y="0" width="108" height="108" filterUnits="userSpaceOnUse">
      <feOffset dy="3" input="SourceAlpha"/>
      <feGaussianBlur stdDeviation="3" result="blur"/>
      <feFlood flood-opacity="0.161"/>
      <feComposite operator="in" in2="blur"/>
      <feComposite in="SourceGraphic"/>
    </filter>
  </defs>
  <g id="Group_1206727" data-name="Group 1206727" transform="translate(-620 -1798.783)">
    <g id="Group_1206429" data-name="Group 1206429">
      <g id="Group_1205961" data-name="Group 1205961" transform="translate(629 1804.783)">
        <g id="Group_1173585" data-name="Group 1173585" transform="translate(0 0)">
          <g id="Group_1173428" data-name="Group 1173428">
            <g id="Group_1171958" data-name="Group 1171958">
              <g id="Group_1167341" data-name="Group 1167341">
                <g id="Group_1166792" data-name="Group 1166792">
                  <g transform="matrix(1, 0, 0, 1, -9, -6)" filter="url(#Path_904820)">
                    <g id="Path_904820-2" data-name="Path 904820" transform="translate(9 6)" fill="#fef9e7">
                      <path d="M 44.99999618530273 88.50002288818359 C 39.12687301635742 88.50002288818359 33.43022155761719 87.35009765625 28.06829643249512 85.08218383789062 C 22.88852119445801 82.89133453369141 18.23629570007324 79.75460815429688 14.24084663391113 75.7591552734375 C 10.24540901184082 71.76371002197266 7.108683586120605 67.11148071289062 4.917821407318115 61.93170928955078 C 2.649921178817749 56.56978225708008 1.499996185302734 50.87313079833984 1.499996185302734 45.00000762939453 C 1.499996185302734 39.12688446044922 2.649921178817749 33.43023300170898 4.917821407318115 28.06830787658691 C 7.108683586120605 22.8885326385498 10.24540901184082 18.23630714416504 14.24084663391113 14.24085807800293 C 18.23629570007324 10.24542045593262 22.88852119445801 7.108695030212402 28.06829643249512 4.917832851409912 C 33.43022155761719 2.649932622909546 39.12687301635742 1.500007629394531 44.99999618530273 1.500007629394531 C 50.87311935424805 1.500007629394531 56.56977081298828 2.649932622909546 61.93169784545898 4.917832851409912 C 67.11147308349609 7.108695030212402 71.76369476318359 10.24542045593262 75.75914764404297 14.24085807800293 C 79.75458526611328 18.23630714416504 82.89131164550781 22.8885326385498 85.08216857910156 28.06830787658691 C 87.35007476806641 33.43023300170898 88.5 39.12688446044922 88.5 45.00000762939453 C 88.5 50.87313079833984 87.35007476806641 56.56978225708008 85.08216857910156 61.93170928955078 C 82.89131164550781 67.11148071289062 79.75458526611328 71.76371002197266 75.75914764404297 75.7591552734375 C 71.76369476318359 79.75460815429688 67.11147308349609 82.89133453369141 61.93169784545898 85.08218383789062 C 56.56977081298828 87.35009765625 50.87311935424805 88.50002288818359 44.99999618530273 88.50002288818359 Z" stroke="none"/>
                      <path d="M 44.99999618530273 2.999992370605469 C 39.32870864868164 2.999992370605469 33.82865142822266 4.110054016113281 28.65262603759766 6.299339294433594 C 23.65165710449219 8.414566040039062 19.15968322753906 11.44333648681641 15.301513671875 15.30150604248047 C 11.44333648681641 19.15967559814453 8.414566040039062 23.65164947509766 6.299339294433594 28.65262222290039 C 4.110054016113281 33.82866287231445 2.999992370605469 39.32872009277344 2.999992370605469 45.00000762939453 C 2.999992370605469 50.67129516601562 4.110054016113281 56.17133712768555 6.299339294433594 61.34738159179688 C 8.414566040039062 66.34835052490234 11.44333648681641 70.84030914306641 15.301513671875 74.69849395751953 C 19.15968322753906 78.55666351318359 23.65165710449219 81.58543395996094 28.65262603759766 83.70066833496094 C 33.82865142822266 85.88995361328125 39.32870864868164 87.00000762939453 44.99999618530273 87.00000762939453 C 50.67128372192383 87.00000762939453 56.17134094238281 85.88995361328125 61.34736633300781 83.70066833496094 C 66.34834289550781 81.58543395996094 70.84030914306641 78.55666351318359 74.69847869873047 74.69849395751953 C 78.55665588378906 70.84030914306641 81.58542633056641 66.34835052490234 83.70065307617188 61.34738159179688 C 85.88993835449219 56.17133712768555 87 50.67129516601562 87 45.00000762939453 C 87 39.32872009277344 85.88993835449219 33.82866287231445 83.70065307617188 28.65262222290039 C 81.58542633056641 23.65164947509766 78.55665588378906 19.15967559814453 74.69847869873047 15.30150604248047 C 70.84030914306641 11.44333648681641 66.34834289550781 8.414566040039062 61.34736633300781 6.299339294433594 C 56.17134094238281 4.110054016113281 50.67128372192383 2.999992370605469 44.99999618530273 2.999992370605469 M 44.99999618530273 -7.62939453125e-06 C 69.85281372070312 -7.62939453125e-06 90 20.14717864990234 90 45.00000762939453 C 90 69.85280609130859 69.85281372070312 90.00000762939453 44.99999618530273 90.00000762939453 C 20.14717864990234 90.00000762939453 -7.62939453125e-06 69.85280609130859 -7.62939453125e-06 45.00000762939453 C -7.62939453125e-06 20.14717864990234 20.14717864990234 -7.62939453125e-06 44.99999618530273 -7.62939453125e-06 Z" stroke="none" fill="#887013"/>
                    </g>
                  </g>
                </g>
              </g>
            </g>
          </g>
        </g>
      </g>
      <g id="connection_2460272" transform="translate(646.867 1814.334)">
        <path id="Path_1045660" data-name="Path 1045660" d="M223.127,287.587v16.5h-28.9V285.333a1.279,1.279,0,0,1,1.279-1.279h27.62v3.533Z" transform="translate(-173.574 -245.533)" fill="#dfdfea"/>
        <path id="Path_1045661" data-name="Path 1045661" d="M242.81,309.929V322.36a.455.455,0,0,1-.455.455H219.682a.455.455,0,0,1-.455-.455V309.51a.455.455,0,0,1,.455-.455h22.673a.455.455,0,0,1,.455.455v.419Z" transform="translate(-195.916 -267.875)" fill="#05f2a7"/>
        <path id="Path_1045662" data-name="Path 1045662" d="M234.986,320.859a11.8,11.8,0,0,1-11.8-11.8h-3.5a.455.455,0,0,0-.455.455v12.85a.455.455,0,0,0,.455.455h22.672a.455.455,0,0,0,.455-.455v-1.5Z" transform="translate(-195.916 -267.875)" fill="#13e29d"/>
        <path id="Path_1045663" data-name="Path 1045663" d="M7.5,232.579v3.667a1.807,1.807,0,0,0,1.807,1.807H21.84a1.807,1.807,0,0,0,1.807-1.807v-3.667Z" transform="translate(-6.702 -199.531)" fill="#fd6773"/>
        <path id="Path_1045664" data-name="Path 1045664" d="M23.646,26.3V23.257a1.807,1.807,0,0,0-1.807-1.807H9.306A1.807,1.807,0,0,0,7.5,23.257V26.3Z" transform="translate(-6.702 -10.853)" fill="#fd6773"/>
        <path id="Path_1045665" data-name="Path 1045665" d="M13.019,21.449H9.306A1.807,1.807,0,0,0,7.5,23.256V26.3h3.713V23.256A1.807,1.807,0,0,1,13.019,21.449Z" transform="translate(-6.702 -10.852)" fill="#fc4d5a"/>
        <path id="Path_1045666" data-name="Path 1045666" d="M7.5,63.088H23.647V81.536H7.5Z" transform="translate(-6.702 -48.063)" fill="#05f2a7"/>
        <path id="Path_1045667" data-name="Path 1045667" d="M11.209,67.089v-4H7.5V81.554H23.647V78.5H22.624A11.415,11.415,0,0,1,11.209,67.089Z" transform="translate(-6.702 -48.063)" fill="#13e29d"/>
        <path id="Path_1045668" data-name="Path 1045668" d="M43.192,114.188a.81.81,0,0,1,.5.746v5.022a.811.811,0,0,1-.811.81H33.765a.811.811,0,0,1-.811-.81v-5.022a.81.81,0,0,1,.811-.81h9.111a.8.8,0,0,1,.315.064" transform="translate(-29.45 -93.672)" fill="#fdcf8a"/>
        <path id="Path_1045669" data-name="Path 1045669" d="M44.353,114.187l-4.616,3.088a.487.487,0,0,1-.518.015l-4.7-2.755-.267-.055a.812.812,0,0,1,.673-.357h9.111A.8.8,0,0,1,44.353,114.187Z" transform="translate(-30.612 -93.671)" fill="#fcb64d"/>
        <path id="Path_1045670" data-name="Path 1045670" d="M191.57,466.66H159.978a2.569,2.569,0,0,1-2.569-2.569v-.254a.373.373,0,0,1,.373-.373h35.984a.373.373,0,0,1,.373.373v.254A2.569,2.569,0,0,1,191.57,466.66Z" transform="translate(-140.671 -405.865)" fill="#c5e1ff"/>
        <g id="Group_1206428" data-name="Group 1206428" transform="translate(1.831 10.103)">
          <path id="Path_1045671" data-name="Path 1045671" d="M343.383,200.544H332.407a3.773,3.773,0,0,0-3.773,3.773v9.964a.442.442,0,0,0,.7.361l2.4-1.686h11.652a3.773,3.773,0,0,0,3.773-3.773v-4.867A3.773,3.773,0,0,0,343.383,200.544Z" transform="translate(-295.52 -181.006)" fill="#65daf9"/>
          <circle id="Ellipse_12645" data-name="Ellipse 12645" cx="3.795" cy="3.795" r="3.795" transform="translate(0 35.362)" fill="#65daf9"/>
          <circle id="Ellipse_12646" data-name="Ellipse 12646" cx="3.795" cy="3.795" r="3.795" transform="translate(28.87 0)" fill="#65daf9"/>
        </g>
        <path id="Path_1045672" data-name="Path 1045672" d="M284.187,345.089a.81.81,0,0,1,.5.746v5.022a.811.811,0,0,1-.811.81H274.76a.811.811,0,0,1-.811-.81v-5.022a.81.81,0,0,1,.811-.81h9.111a.8.8,0,0,1,.315.064" transform="translate(-244.819 -300.021)" fill="#fdcf8a"/>
        <path id="Path_1045673" data-name="Path 1045673" d="M285.348,345.088l-4.616,3.088a.487.487,0,0,1-.518.015l-4.7-2.755-.267-.055a.812.812,0,0,1,.673-.357h9.111A.8.8,0,0,1,285.348,345.088Z" transform="translate(-245.981 -300.02)" fill="#fcb64d"/>
        <path id="Path_1045674" data-name="Path 1045674" d="M53.468,56.8H50.35v-14a4.577,4.577,0,0,0,3.915-4.523V33.414a4.577,4.577,0,0,0-3.773-4.5V15.776A2.678,2.678,0,0,0,47.817,13.1h-8.8a4.591,4.591,0,0,0-9.044,0H17.742v-.7a2.607,2.607,0,0,0-2.6-2.6H2.6A2.607,2.607,0,0,0,0,12.4v24.31a2.608,2.608,0,0,0,2.6,2.6H4.829v5.42a4.591,4.591,0,0,0,0,9.044v2.733A3.777,3.777,0,0,0,8.6,60.288h8.047a3.362,3.362,0,0,0,2.658,1.3H50.9a3.37,3.37,0,0,0,3.366-3.366V57.6a.8.8,0,0,0-.8-.8Zm-32.017,0v-17a.482.482,0,0,1,.482-.482H34.148v1.063H23.311a.8.8,0,0,0-.8.8v7.684a.8.8,0,1,0,1.6,0V41.977H34.148v2.23H29.941a1.61,1.61,0,0,0-1.608,1.608v5.021a1.61,1.61,0,0,0,1.608,1.608h9.111a1.61,1.61,0,0,0,1.608-1.608V45.815a1.61,1.61,0,0,0-1.608-1.608H36.364l1.931-1.355h7.8V54.143H24.109V52.054a.8.8,0,0,0-1.6,0V54.94a.8.8,0,0,0,.8.8H46.894a.8.8,0,0,0,.8-.8V42.852h1.063V56.8h-27.3Zm8.478-10.229,4.165,2.442a.8.8,0,0,0,.84-.021l4.132-2.7v4.545a.013.013,0,0,1-.013.013H29.941a.013.013,0,0,1-.013-.013Zm4.546.816L31.768,45.8H36.9Zm18.2-13.974v4.867a2.979,2.979,0,0,1-2.976,2.976H38.043a.8.8,0,0,0-.458.145l-1.842,1.293v-9.28a2.979,2.979,0,0,1,2.976-2.976H49.694a2.979,2.979,0,0,1,2.976,2.976ZM34.5,10.9a3,3,0,1,1-3,3,3,3,0,0,1,3-3ZM2.6,11.395H15.137a1.011,1.011,0,0,1,1.01,1.009v1.823H1.6V12.4a1.011,1.011,0,0,1,1.01-1.01ZM1.6,36.714V34.27H16.147v2.444a1.011,1.011,0,0,1-1.01,1.01H2.6A1.011,1.011,0,0,1,1.6,36.714ZM2.629,49.261a3,3,0,1,1,3,3,3,3,0,0,1-3-3ZM8.6,58.693a2.18,2.18,0,0,1-2.178-2.178V53.782a4.591,4.591,0,0,0,0-9.044v-5.42h8.713a2.608,2.608,0,0,0,2.6-2.6V31.206a.8.8,0,0,0-1.6,0v1.47H1.6V15.822H16.147V28.016a.8.8,0,1,0,1.6,0V14.7H29.975a4.591,4.591,0,0,0,9.044,0h8.8a1.081,1.081,0,0,1,1.08,1.08V28.844H38.718a4.576,4.576,0,0,0-4.571,4.571v4.309H21.932A2.079,2.079,0,0,0,19.856,39.8v17H16.738a.8.8,0,0,0-.8.8v.627a3.373,3.373,0,0,0,.033.467H8.6ZM50.9,60H19.307a1.774,1.774,0,0,1-1.763-1.6H52.662A1.774,1.774,0,0,1,50.9,60Z"/>
        <circle id="Ellipse_12647" data-name="Ellipse 12647" cx="1.056" cy="1.056" r="1.056" transform="translate(7.815 34.933)"/>
        <path id="Path_1045675" data-name="Path 1045675" d="M355.095,225.678h1.173a.8.8,0,1,0,0-1.6h-1.173a.8.8,0,1,0,0,1.6Z" transform="translate(-316.623 -191.939)"/>
        <path id="Path_1045676" data-name="Path 1045676" d="M388.9,224.881a.8.8,0,0,0,.8.8h8.33a.8.8,0,1,0,0-1.6H389.7A.8.8,0,0,0,388.9,224.881Z" transform="translate(-347.548 -191.939)"/>
        <path id="Path_1045677" data-name="Path 1045677" d="M458.18,252.74h-1.173a.8.8,0,1,0,0,1.6h1.173a.8.8,0,1,0,0-1.6Z" transform="translate(-407.699 -217.549)"/>
        <path id="Path_1045678" data-name="Path 1045678" d="M355.095,254.335h8.33a.8.8,0,1,0,0-1.6h-8.33a.8.8,0,1,0,0,1.6Z" transform="translate(-316.623 -217.549)"/>
        <path id="Path_1045679" data-name="Path 1045679" d="M356.268,281.555H355.1a.8.8,0,0,0,0,1.6h1.173a.8.8,0,0,0,0-1.6Z" transform="translate(-316.624 -243.3)"/>
        <path id="Path_1045680" data-name="Path 1045680" d="M398.029,281.555H389.7a.8.8,0,0,0,0,1.6h8.33a.8.8,0,0,0,0-1.6Z" transform="translate(-347.548 -243.3)"/>
        <path id="Path_1045681" data-name="Path 1045681" d="M36.177,106.292H27.066a1.61,1.61,0,0,0-1.608,1.608v5.021a1.61,1.61,0,0,0,1.608,1.608h9.111a1.61,1.61,0,0,0,1.608-1.608V107.9A1.61,1.61,0,0,0,36.177,106.292Zm-2.152,1.6L31.6,109.473l-2.706-1.586Zm2.152,5.048H27.066a.013.013,0,0,1-.013-.013v-4.264l4.166,2.442a.8.8,0,0,0,.84-.021l4.132-2.7v4.545A.013.013,0,0,1,36.177,112.935Z" transform="translate(-22.751 -86.673)"/>
        <path id="Path_1045682" data-name="Path 1045682" d="M306.983,34.234l1.763,1.318a.8.8,0,1,0,.955-1.278l-.949-.709.978-.805a.8.8,0,1,0-1.014-1.231l-1.763,1.451a.8.8,0,0,0,.03,1.254Z" transform="translate(-274.054 -19.697)"/>
        <path id="Path_1045683" data-name="Path 1045683" d="M34.66,375.086a.8.8,0,0,0,.62-.32L36.6,373a.8.8,0,0,0-1.278-.955l-.709.949-.805-.978a.8.8,0,0,0-1.231,1.014l1.451,1.763a.8.8,0,0,0,.616.291h.019Z" transform="translate(-28.948 -323.885)"/>
      </g>
    </g>
  </g>
</svg>
