<svg xmlns="http://www.w3.org/2000/svg" xmlns:xlink="http://www.w3.org/1999/xlink" width="113" height="113" viewBox="0 0 113 113">
  <defs>
    <filter id="Path_982547" x="0" y="0" width="113" height="113" filterUnits="userSpaceOnUse">
      <feOffset dy="3" input="SourceAlpha"/>
      <feGaussianBlur stdDeviation="3" result="blur"/>
      <feFlood flood-opacity="0.161"/>
      <feComposite operator="in" in2="blur"/>
      <feComposite in="SourceGraphic"/>
    </filter>
  </defs>
  <g id="Group_1179305" data-name="Group 1179305" transform="translate(-1216.125 -1166.158)">
    <g id="Group_1179196" data-name="Group 1179196">
      <g id="Group_1178848" data-name="Group 1178848" transform="translate(1225.125 1172.158)">
        <g id="Group_1177679" data-name="Group 1177679">
          <g id="Group_1172010" data-name="Group 1172010">
            <g id="Group_1171046" data-name="Group 1171046">
              <g id="Group_1148525" data-name="Group 1148525">
                <g transform="matrix(1, 0, 0, 1, -9, -6)" filter="url(#Path_982547)">
                  <g id="Path_982547-2" data-name="Path 982547" transform="translate(9 6)" fill="#fbedfe">
                    <path d="M 47.5 93.5 C 41.28937149047852 93.5 35.26533508300781 92.28397369384766 29.59518623352051 89.88570404052734 C 24.11771965026855 87.56893157958984 19.19813346862793 84.25196075439453 14.97309303283691 80.02691650390625 C 10.74804019927979 75.80186462402344 7.431066513061523 70.88229370117188 5.114293098449707 65.40481567382812 C 2.716026782989502 59.73468017578125 1.5 53.71062850952148 1.5 47.5 C 1.5 41.28937149047852 2.716026782989502 35.26533508300781 5.114293098449707 29.59518623352051 C 7.431066513061523 24.11771965026855 10.74804019927979 19.19813346862793 14.97309303283691 14.97309303283691 C 19.19813346862793 10.74804019927979 24.11771965026855 7.431066513061523 29.59518623352051 5.114293098449707 C 35.26533508300781 2.716026782989502 41.28937149047852 1.5 47.5 1.5 C 53.71062850952148 1.5 59.73468017578125 2.716026782989502 65.40481567382812 5.114293098449707 C 70.88229370117188 7.431066513061523 75.80186462402344 10.74804019927979 80.02691650390625 14.97309303283691 C 84.25196075439453 19.19813346862793 87.56893157958984 24.11771965026855 89.88570404052734 29.59518623352051 C 92.28397369384766 35.26533508300781 93.5 41.28937149047852 93.5 47.5 C 93.5 53.71062850952148 92.28397369384766 59.73468017578125 89.88570404052734 65.40481567382812 C 87.56893157958984 70.88229370117188 84.25196075439453 75.80186462402344 80.02691650390625 80.02691650390625 C 75.80186462402344 84.25196075439453 70.88229370117188 87.56893157958984 65.40481567382812 89.88570404052734 C 59.73468017578125 92.28397369384766 53.71062850952148 93.5 47.5 93.5 Z" stroke="none"/>
                    <path d="M 47.5 3 C 41.49121475219727 3 35.66376876831055 4.176155090332031 30.17950439453125 6.495796203613281 C 24.88084411621094 8.736953735351562 20.12152099609375 11.94598388671875 16.03375244140625 16.03375244140625 C 11.94598388671875 20.12152099609375 8.736953735351562 24.88084411621094 6.495796203613281 30.17950439453125 C 4.176155090332031 35.66376876831055 3 41.49121475219727 3 47.5 C 3 53.50878524780273 4.176155090332031 59.33623123168945 6.495796203613281 64.82049560546875 C 8.736953735351562 70.11915588378906 11.94598388671875 74.87847900390625 16.03375244140625 78.96624755859375 C 20.12152099609375 83.05401611328125 24.88084411621094 86.26304626464844 30.17950439453125 88.50419616699219 C 35.66376876831055 90.82384490966797 41.49121475219727 92 47.5 92 C 53.50878524780273 92 59.33623123168945 90.82384490966797 64.82049560546875 88.50419616699219 C 70.11915588378906 86.26304626464844 74.87847900390625 83.05401611328125 78.96624755859375 78.96624755859375 C 83.05401611328125 74.87847900390625 86.26304626464844 70.11915588378906 88.50419616699219 64.82049560546875 C 90.82384490966797 59.33623123168945 92 53.50878524780273 92 47.5 C 92 41.49121475219727 90.82384490966797 35.66376876831055 88.50419616699219 30.17950439453125 C 86.26304626464844 24.88084411621094 83.05401611328125 20.12152099609375 78.96624755859375 16.03375244140625 C 74.87847900390625 11.94598388671875 70.11915588378906 8.736953735351562 64.82049560546875 6.495796203613281 C 59.33623123168945 4.176155090332031 53.50878524780273 3 47.5 3 M 47.5 0 C 73.7335205078125 0 95 21.2664794921875 95 47.5 C 95 73.7335205078125 73.7335205078125 95 47.5 95 C 21.2664794921875 95 0 73.7335205078125 0 47.5 C 0 21.2664794921875 21.2664794921875 0 47.5 0 Z" stroke="none" fill="#e25cfa"/>
                  </g>
                </g>
              </g>
            </g>
          </g>
        </g>
      </g>
      <g id="copyright" transform="translate(1242.742 1189.742)">
        <path id="Path_1041562" data-name="Path 1041562" d="M44.445,9.593V55.748a1.89,1.89,0,0,1-1.884,1.884H4.884A1.89,1.89,0,0,1,3,55.748V4.884A1.89,1.89,0,0,1,4.884,3H37.851V9.593Z" transform="translate(-0.058 -0.058)" fill="#ffdaaa"/>
        <path id="Path_1041563" data-name="Path 1041563" d="M46.768,10V56.154a1.89,1.89,0,0,1-1.884,1.884H43a1.89,1.89,0,0,0,1.884-1.884V10Z" transform="translate(-2.381 -0.465)" fill="#ffc477"/>
        <path id="Path_1041564" data-name="Path 1041564" d="M59.374,25.652V34.8a18.819,18.819,0,0,1-7.9,15.327l-5.291,3.785-5.294-3.787A18.818,18.818,0,0,1,33,34.8V25.652L46.187,20Z" transform="translate(-1.8 -1.045)" fill="#57a4ff"/>
        <path id="Path_1041565" data-name="Path 1041565" d="M60.129,25.652V34.8a18.819,18.819,0,0,1-7.9,15.327l-5.291,3.785L46,53.231l4.352-3.108A18.818,18.818,0,0,0,58.245,34.8V25.652L46,20.405,46.942,20Z" transform="translate(-2.555 -1.045)" fill="#2488ff"/>
        <path id="Path_1041566" data-name="Path 1041566" d="M55.839,28.768v5.944a15.071,15.071,0,0,1-5.652,11.765L46.419,49.49l-3.768-3.014A15.071,15.071,0,0,1,37,34.711V28.768L46.419,25Z" transform="translate(-2.033 -1.336)" fill="#00e7f0"/>
        <path id="Path_1041567" data-name="Path 1041567" d="M56.361,28.768v5.944A15.071,15.071,0,0,1,50.71,46.476L46.942,49.49,46,48.737l2.826-2.261a15.071,15.071,0,0,0,5.652-11.765V28.768L46,25.377,46.942,25Z" transform="translate(-2.555 -1.336)" fill="#00b6bd"/>
        <path id="Path_1041568" data-name="Path 1041568" d="M46.593,7.71V9.593H40V3h1.884Z" transform="translate(-2.207 -0.058)" fill="#898890"/>
        <path id="Path_1041569" data-name="Path 1041569" d="M7,45H27.722V56.3H7Z" transform="translate(-0.29 -2.497)" fill="#ffeb99"/>
        <path id="Path_1041570" data-name="Path 1041570" d="M7,27H27.722V40.187H7Z" transform="translate(-0.29 -1.452)" fill="#ffeb99"/>
        <path id="Path_1041571" data-name="Path 1041571" d="M57.945,23.741,45.329,18.334V7.652a.942.942,0,0,0-.276-.666l-4.71-4.71A.942.942,0,0,0,39.677,2H4.826A2.826,2.826,0,0,0,2,4.826V55.69a2.826,2.826,0,0,0,2.826,2.826H42.5a2.826,2.826,0,0,0,2.826-2.826V53.348l4.9-3.5a19.816,19.816,0,0,0,8.283-16.1V24.606a.942.942,0,0,0-.571-.866Zm-14.5-15.7v.552h-4.71V3.884h.552ZM42.5,56.632H4.826a.942.942,0,0,1-.942-.942V4.826a.942.942,0,0,1,.942-.942H36.851V9.535a.942.942,0,0,0,.942.942h5.652v7.857L30.829,23.741a.942.942,0,0,0-.571.866V33.75a19.816,19.816,0,0,0,8.283,16.1l4.9,3.5V55.69A.942.942,0,0,1,42.5,56.632ZM56.632,33.75a17.934,17.934,0,0,1-7.494,14.563l-4.751,3.393-4.751-3.391A17.934,17.934,0,0,1,32.142,33.75V25.227L44.387,19.98l12.245,5.247Z"/>
        <path id="Path_1041572" data-name="Path 1041572" d="M46.361,23.923,36.592,27.83a.942.942,0,0,0-.592.875v5.944a16.013,16.013,0,0,0,6.01,12.5l4.351,3.216,4.352-3.217a16.013,16.013,0,0,0,6.009-12.5V28.705a.942.942,0,0,0-.592-.875Zm8.477,5.42v5.306a14.055,14.055,0,0,1-5.3,11.032l-3.174,2.541-3.174-2.543a14.055,14.055,0,0,1-5.3-11.03V29.343l8.477-3.391Z" transform="translate(-1.974 -1.273)"/>
        <path id="Path_1041573" data-name="Path 1041573" d="M6,14H17.3v1.884H6Z" transform="translate(-0.232 -0.697)"/>
        <path id="Path_1041574" data-name="Path 1041574" d="M20,14H38.839v1.884H20Z" transform="translate(-1.045 -0.697)"/>
        <path id="Path_1041575" data-name="Path 1041575" d="M6,10H22.955v1.884H6Z" transform="translate(-0.232 -0.465)"/>
        <path id="Path_1041576" data-name="Path 1041576" d="M26,10H36.361v1.884H26Z" transform="translate(-1.394 -0.465)"/>
        <path id="Path_1041577" data-name="Path 1041577" d="M6,22H17.3v1.884H6Z" transform="translate(-0.232 -1.161)"/>
        <path id="Path_1041578" data-name="Path 1041578" d="M20,22H30.361v1.884H20Z" transform="translate(-1.045 -1.161)"/>
        <path id="Path_1041579" data-name="Path 1041579" d="M6,18H22.955v1.884H6Z" transform="translate(-0.232 -0.929)"/>
        <path id="Path_1041580" data-name="Path 1041580" d="M26,18H39.187v1.884H26Z" transform="translate(-1.394 -0.929)"/>
        <path id="Path_1041581" data-name="Path 1041581" d="M6,6h9.419V7.884H6Z" transform="translate(-0.232 -0.232)"/>
        <path id="Path_1041582" data-name="Path 1041582" d="M18,6H35.9V7.884H18Z" transform="translate(-0.929 -0.232)"/>
        <path id="Path_1041583" data-name="Path 1041583" d="M27.664,44H6.942A.942.942,0,0,0,6,44.942v11.3a.942.942,0,0,0,.942.942H27.664a.942.942,0,0,0,.942-.942v-11.3A.942.942,0,0,0,27.664,44Zm-.942,11.3H7.884V45.884H26.722Z" transform="translate(-0.232 -2.439)"/>
        <path id="Path_1041584" data-name="Path 1041584" d="M27.664,26H6.942A.942.942,0,0,0,6,26.942V40.129a.942.942,0,0,0,.942.942H27.664a.942.942,0,0,0,.942-.942V26.942A.942.942,0,0,0,27.664,26Zm-.942,13.187H7.884v-11.3H26.722Z" transform="translate(-0.232 -1.394)"/>
        <path id="Path_1041585" data-name="Path 1041585" d="M42.625,37.006l-1.332,1.332,2.826,2.826a.942.942,0,0,0,.666.276h.031a.942.942,0,0,0,.678-.321l6.593-7.535-1.419-1.24-5.934,6.782Z" transform="translate(-2.282 -1.762)"/>
        <path id="Path_1041586" data-name="Path 1041586" d="M24,30h1.884v1.884H24Z" transform="translate(-1.278 -1.626)"/>
        <path id="Path_1041587" data-name="Path 1041587" d="M24,48h1.884v1.884H24Z" transform="translate(-1.278 -2.671)"/>
      </g>
    </g>
  </g>
</svg>
