<svg xmlns="http://www.w3.org/2000/svg" xmlns:xlink="http://www.w3.org/1999/xlink" width="113" height="113" viewBox="0 0 113 113">
  <defs>
    <filter id="Path_982547" x="0" y="0" width="113" height="113" filterUnits="userSpaceOnUse">
      <feOffset dy="3" input="SourceAlpha"/>
      <feGaussianBlur stdDeviation="3" result="blur"/>
      <feFlood flood-opacity="0.161"/>
      <feComposite operator="in" in2="blur"/>
      <feComposite in="SourceGraphic"/>
    </filter>
  </defs>
  <g id="Group_1206692" data-name="Group 1206692" transform="translate(-271.125 -812.023)">
    <g id="Group_1206165" data-name="Group 1206165">
      <g id="Group_1202699" data-name="Group 1202699" transform="translate(0 -1987.977)">
        <g id="Group_1202218" data-name="Group 1202218" transform="translate(280.125 2806)">
          <g id="Group_1178824" data-name="Group 1178824">
            <g id="Group_1177679" data-name="Group 1177679">
              <g id="Group_1172010" data-name="Group 1172010">
                <g id="Group_1171046" data-name="Group 1171046">
                  <g id="Group_1148525" data-name="Group 1148525">
                    <g transform="matrix(1, 0, 0, 1, -9, -6)" filter="url(#Path_982547)">
                      <g id="Path_982547-2" data-name="Path 982547" transform="translate(9 6)" fill="#fbedfe">
                        <path d="M 47.5 93.5 C 41.28937149047852 93.5 35.26533508300781 92.28397369384766 29.59518623352051 89.88570404052734 C 24.11771965026855 87.56893157958984 19.19813346862793 84.25196075439453 14.97309303283691 80.02691650390625 C 10.74804019927979 75.80186462402344 7.431066513061523 70.88229370117188 5.114293098449707 65.40481567382812 C 2.716026782989502 59.73468017578125 1.5 53.71062850952148 1.5 47.5 C 1.5 41.28937149047852 2.716026782989502 35.26533508300781 5.114293098449707 29.59518623352051 C 7.431066513061523 24.11771965026855 10.74804019927979 19.19813346862793 14.97309303283691 14.97309303283691 C 19.19813346862793 10.74804019927979 24.11771965026855 7.431066513061523 29.59518623352051 5.114293098449707 C 35.26533508300781 2.716026782989502 41.28937149047852 1.5 47.5 1.5 C 53.71062850952148 1.5 59.73468017578125 2.716026782989502 65.40481567382812 5.114293098449707 C 70.88229370117188 7.431066513061523 75.80186462402344 10.74804019927979 80.02691650390625 14.97309303283691 C 84.25196075439453 19.19813346862793 87.56893157958984 24.11771965026855 89.88570404052734 29.59518623352051 C 92.28397369384766 35.26533508300781 93.5 41.28937149047852 93.5 47.5 C 93.5 53.71062850952148 92.28397369384766 59.73468017578125 89.88570404052734 65.40481567382812 C 87.56893157958984 70.88229370117188 84.25196075439453 75.80186462402344 80.02691650390625 80.02691650390625 C 75.80186462402344 84.25196075439453 70.88229370117188 87.56893157958984 65.40481567382812 89.88570404052734 C 59.73468017578125 92.28397369384766 53.71062850952148 93.5 47.5 93.5 Z" stroke="none"/>
                        <path d="M 47.5 3 C 41.49121475219727 3 35.66376876831055 4.176155090332031 30.17950439453125 6.495796203613281 C 24.88084411621094 8.736953735351562 20.12152099609375 11.94598388671875 16.03375244140625 16.03375244140625 C 11.94598388671875 20.12152099609375 8.736953735351562 24.88084411621094 6.495796203613281 30.17950439453125 C 4.176155090332031 35.66376876831055 3 41.49121475219727 3 47.5 C 3 53.50878524780273 4.176155090332031 59.33623123168945 6.495796203613281 64.82049560546875 C 8.736953735351562 70.11915588378906 11.94598388671875 74.87847900390625 16.03375244140625 78.96624755859375 C 20.12152099609375 83.05401611328125 24.88084411621094 86.26304626464844 30.17950439453125 88.50419616699219 C 35.66376876831055 90.82384490966797 41.49121475219727 92 47.5 92 C 53.50878524780273 92 59.33623123168945 90.82384490966797 64.82049560546875 88.50419616699219 C 70.11915588378906 86.26304626464844 74.87847900390625 83.05401611328125 78.96624755859375 78.96624755859375 C 83.05401611328125 74.87847900390625 86.26304626464844 70.11915588378906 88.50419616699219 64.82049560546875 C 90.82384490966797 59.33623123168945 92 53.50878524780273 92 47.5 C 92 41.49121475219727 90.82384490966797 35.66376876831055 88.50419616699219 30.17950439453125 C 86.26304626464844 24.88084411621094 83.05401611328125 20.12152099609375 78.96624755859375 16.03375244140625 C 74.87847900390625 11.94598388671875 70.11915588378906 8.736953735351562 64.82049560546875 6.495796203613281 C 59.33623123168945 4.176155090332031 53.50878524780273 3 47.5 3 M 47.5 0 C 73.7335205078125 0 95 21.2664794921875 95 47.5 C 95 73.7335205078125 73.7335205078125 95 47.5 95 C 21.2664794921875 95 0 73.7335205078125 0 47.5 C 0 21.2664794921875 21.2664794921875 0 47.5 0 Z" stroke="none" fill="#7b3289"/>
                      </g>
                    </g>
                  </g>
                </g>
              </g>
            </g>
          </g>
        </g>
      </g>
      <g id="roi_12445842" transform="translate(266.767 787.821)">
        <g id="Group_1206164" data-name="Group 1206164" transform="translate(34.582 52.881)">
          <path id="Path_1045234" data-name="Path 1045234" d="M281.3,190.1h9.552v28.736H281.3Z" transform="translate(-254.171 -172.264)" fill="#6167af" fill-rule="evenodd"/>
          <path id="Path_1045235" data-name="Path 1045235" d="M172.6,278.6h9.552v16.664H172.6Z" transform="translate(-160.282 -248.705)" fill="#6167af" fill-rule="evenodd"/>
          <path id="Path_1045236" data-name="Path 1045236" d="M390,59.2h9.552v46.572H390Z" transform="translate(-348.06 -59.2)" fill="#6167af" fill-rule="evenodd"/>
          <path id="Path_1045237" data-name="Path 1045237" d="M117.139,401h44.474a2.739,2.739,0,0,1,2.739,2.739v2.044a2.739,2.739,0,0,1-2.739,2.739H117.139a2.739,2.739,0,0,1-2.739-2.739v-2.044A2.748,2.748,0,0,1,117.139,401Z" transform="translate(-110.013 -354.428)" fill="#b3b4b4" fill-rule="evenodd"/>
          <path id="Path_1045238" data-name="Path 1045238" d="M164.351,426.3v1.335a2.739,2.739,0,0,1-2.739,2.739H117.139a2.739,2.739,0,0,1-2.739-2.739V426.3Z" transform="translate(-110.013 -376.28)" fill="#686868" fill-rule="evenodd"/>
          <path id="Path_1045239" data-name="Path 1045239" d="M425.1,59.2h4.769v46.572H425.1Z" transform="translate(-378.378 -59.2)" fill="#9695c9" fill-rule="evenodd"/>
          <path id="Path_1045240" data-name="Path 1045240" d="M316.4,190.1h4.783v28.736H316.4Z" transform="translate(-284.489 -172.264)" fill="#9695c9" fill-rule="evenodd"/>
          <path id="Path_1045241" data-name="Path 1045241" d="M207.7,278.6h4.783v16.664H207.7Z" transform="translate(-190.6 -248.705)" fill="#9695c9" fill-rule="evenodd"/>
          <path id="Path_1045242" data-name="Path 1045242" d="M98.469,91.9A16.269,16.269,0,1,1,82.2,108.169,16.268,16.268,0,0,1,98.469,91.9Z" transform="translate(-82.2 -87.444)" fill="#f26722" fill-rule="evenodd"/>
          <path id="Path_1045243" data-name="Path 1045243" d="M130.773,129.3A11.18,11.18,0,1,1,119.6,140.487,11.185,11.185,0,0,1,130.773,129.3Z" transform="translate(-114.504 -119.748)" fill="#ffcd05" fill-rule="evenodd"/>
          <path id="Path_1045244" data-name="Path 1045244" d="M240.621,183.9a1.921,1.921,0,1,1-1.921,1.921A1.919,1.919,0,0,1,240.621,183.9Z" transform="translate(-217.376 -166.909)" fill="#feeb90" fill-rule="evenodd"/>
        </g>
        <path id="Path_1045245" data-name="Path 1045245" d="M47.649,76.017a.54.54,0,0,1,1.076-.1C48.848,77.3,51.1,77.993,52.4,76.93a1.5,1.5,0,0,0,.586-1.117c0-2.684-5.355-.491-5.355-4.374a2.893,2.893,0,0,1,2.657-2.684V67.8a.559.559,0,0,1,1.117.014l-.027.94a2.909,2.909,0,0,1,2.684,2.7.545.545,0,0,1-1.09,0c0-1.458-2.33-2.221-3.679-1.117a1.5,1.5,0,0,0-.586,1.117c0,2.684,5.355.5,5.355,4.374a2.907,2.907,0,0,1-2.671,2.7l-.014.954a.545.545,0,0,1-1.09,0v-.954A3.025,3.025,0,0,1,47.649,76.017Zm3.2-14.13A11.725,11.725,0,1,1,39.133,73.619,11.732,11.732,0,0,1,50.851,61.888Zm7.521,4.2a10.637,10.637,0,1,0,0,15.043A10.633,10.633,0,0,0,58.372,66.084Zm-7.521-9.293a16.808,16.808,0,0,1,16.46,13.38h3.951a.547.547,0,0,1,.545.545V98.908h4.169V52.881a.547.547,0,0,1,.545-.545h9.552a.547.547,0,0,1,.545.545V98.935a3.3,3.3,0,0,1,2.848,3.257v2.044a3.286,3.286,0,0,1-3.284,3.284H41.708a3.286,3.286,0,0,1-3.284-3.284v-2.044a3.286,3.286,0,0,1,3.284-3.284h4.646V89.82a16.821,16.821,0,0,1,4.5-33.028ZM67.5,71.262a16.836,16.836,0,0,1-5.246,14.716V98.908h8.461V71.262ZM61.166,86.89A16.353,16.353,0,0,1,57,89.261v9.647h4.169Zm-5.259,2.752a16.81,16.81,0,0,1-8.461.422v8.843h8.461Zm6.063-27.156a15.724,15.724,0,1,0,0,22.237A15.716,15.716,0,0,0,61.969,62.487Zm15.1,36.421h8.461V53.426H77.067ZM86.182,100H41.708a2.21,2.21,0,0,0-2.194,2.194v2.044a2.21,2.21,0,0,0,2.194,2.194H86.182a2.21,2.21,0,0,0,2.194-2.194v-2.044A2.2,2.2,0,0,0,86.182,100ZM29.731,77.325a.6.6,0,0,1-.218-.027l.123.177Zm-.6-.572a22,22,0,0,1,42.921-9.075.546.546,0,0,1-1.049.3,20.916,20.916,0,0,0-40.822,8.489l.777-1.431a.543.543,0,0,1,.954.518L30.195,78.77a.544.544,0,0,1-.927.068l-2.1-3a.548.548,0,0,1,.136-.763.561.561,0,0,1,.763.136Z"/>
      </g>
    </g>
  </g>
</svg>
