<svg xmlns="http://www.w3.org/2000/svg" xmlns:xlink="http://www.w3.org/1999/xlink" width="113" height="113" viewBox="0 0 113 113">
  <defs>
    <filter id="Path_982547" x="0" y="0" width="113" height="113" filterUnits="userSpaceOnUse">
      <feOffset dy="3" input="SourceAlpha"/>
      <feGaussianBlur stdDeviation="3" result="blur"/>
      <feFlood flood-opacity="0.161"/>
      <feComposite operator="in" in2="blur"/>
      <feComposite in="SourceGraphic"/>
    </filter>
  </defs>
  <g id="Group_1179294" data-name="Group 1179294" transform="translate(-8448.51 -3237.592)">
    <g id="Group_1179164" data-name="Group 1179164">
      <g id="Group_1178839" data-name="Group 1178839" transform="translate(8457.51 3243.592)">
        <g id="Group_1176922" data-name="Group 1176922" transform="translate(0 0)">
          <g id="Group_1172322" data-name="Group 1172322">
            <g id="Group_1164700" data-name="Group 1164700">
              <g id="Group_1160931" data-name="Group 1160931">
                <g id="Group_1160749" data-name="Group 1160749">
                  <g id="Group_1158891" data-name="Group 1158891">
                    <g id="Group_1157406" data-name="Group 1157406">
                      <g id="Group_1155793" data-name="Group 1155793">
                        <g id="Group_1154704" data-name="Group 1154704">
                          <g id="Group_1150790" data-name="Group 1150790">
                            <g id="Group_1154214" data-name="Group 1154214">
                              <g id="Group_1152583" data-name="Group 1152583">
                                <g id="Group_1146973" data-name="Group 1146973">
                                  <g id="Group_1146954" data-name="Group 1146954">
                                    <g transform="matrix(1, 0, 0, 1, -9, -6)" filter="url(#Path_982547)">
                                      <g id="Path_982547-2" data-name="Path 982547" transform="translate(9 6)" fill="#fbedfe">
                                        <path d="M 47.5000114440918 93.49987030029297 C 41.28938293457031 93.49987030029297 35.26534652709961 92.28384399414062 29.5951976776123 89.88558959960938 C 24.11773109436035 87.56881713867188 19.19814491271973 84.25183868408203 14.97310447692871 80.02680206298828 C 10.74805164337158 75.80176544189453 7.43107795715332 70.88218688964844 5.114304542541504 65.40472412109375 C 2.716038227081299 59.73458862304688 1.500011444091797 53.71054840087891 1.500011444091797 47.49993515014648 C 1.500011444091797 41.28932189941406 2.716038227081299 35.26528167724609 5.114304542541504 29.59514808654785 C 7.43107795715332 24.1176815032959 10.74805164337158 19.1981086730957 14.97310447692871 14.97306823730469 C 19.19814491271973 10.74802875518799 24.11773109436035 7.431055068969727 29.5951976776123 5.11428165435791 C 35.26534652709961 2.716028451919556 41.28938293457031 1.500001788139343 47.5000114440918 1.500001788139343 C 53.71063995361328 1.500001788139343 59.73467636108398 2.716028451919556 65.40482330322266 5.11428165435791 C 70.88229370117188 7.431055068969727 75.8018798828125 10.74802875518799 80.02691650390625 14.97306823730469 C 84.25196838378906 19.1981086730957 87.56894683837891 24.1176815032959 89.88571929931641 29.59514808654785 C 92.28398132324219 35.26528167724609 93.50001525878906 41.28932189941406 93.50001525878906 47.49993515014648 C 93.50001525878906 53.71054840087891 92.28398132324219 59.73458862304688 89.88571929931641 65.40472412109375 C 87.56894683837891 70.88218688964844 84.25196838378906 75.80176544189453 80.02691650390625 80.02680206298828 C 75.8018798828125 84.25183868408203 70.88229370117188 87.56881713867188 65.40482330322266 89.88558959960938 C 59.73467636108398 92.28384399414062 53.71063995361328 93.49987030029297 47.5000114440918 93.49987030029297 Z" stroke="none"/>
                                        <path d="M 47.5000114440918 3 C 41.49122619628906 3 35.66378021240234 4.1761474609375 30.17951965332031 6.495796203613281 C 24.880859375 8.7369384765625 20.12153625488281 11.94596862792969 16.03376770019531 16.03373718261719 C 11.94598388671875 20.12149047851562 8.736968994140625 24.88081359863281 6.495811462402344 30.17947387695312 C 4.176162719726562 35.66371917724609 3.000007629394531 41.49116516113281 3.000007629394531 47.49993515014648 C 3.000007629394531 53.50870513916016 4.176162719726562 59.33615112304688 6.495811462402344 64.82039642333984 C 8.736968994140625 70.11905670166016 11.94598388671875 74.87837982177734 16.03376770019531 78.96613311767578 C 20.12153625488281 83.05390167236328 24.880859375 86.26293182373047 30.17951965332031 88.50407409667969 C 35.66378021240234 90.82372283935547 41.49122619628906 91.99987030029297 47.5000114440918 91.99987030029297 C 53.50879669189453 91.99987030029297 59.33624267578125 90.82372283935547 64.82050323486328 88.50407409667969 C 70.11916351318359 86.26293182373047 74.87848663330078 83.05390167236328 78.96625518798828 78.96613311767578 C 83.05403900146484 74.87837982177734 86.2630615234375 70.11905670166016 88.50421142578125 64.82039642333984 C 90.82386016845703 59.33615112304688 92.00001525878906 53.50870513916016 92.00001525878906 47.49993515014648 C 92.00001525878906 41.49116516113281 90.82386016845703 35.66371917724609 88.50421142578125 30.17947387695312 C 86.2630615234375 24.88081359863281 83.05403900146484 20.12149047851562 78.96625518798828 16.03373718261719 C 74.87848663330078 11.94596862792969 70.11916351318359 8.7369384765625 64.82050323486328 6.495796203613281 C 59.33624267578125 4.1761474609375 53.50879669189453 3 47.5000114440918 3 M 47.5000114440918 0 C 73.73353576660156 0 95.00001525878906 21.26644134521484 95.00001525878906 47.49993515014648 C 95.00001525878906 73.73342895507812 73.73353576660156 94.99987030029297 47.5000114440918 94.99987030029297 C 21.26648712158203 94.99987030029297 7.62939453125e-06 73.73342895507812 7.62939453125e-06 47.49993515014648 C 7.62939453125e-06 21.26644134521484 21.26648712158203 0 47.5000114440918 0 Z" stroke="none" fill="#7b3289"/>
                                      </g>
                                    </g>
                                  </g>
                                </g>
                              </g>
                            </g>
                          </g>
                        </g>
                      </g>
                    </g>
                  </g>
                </g>
              </g>
            </g>
          </g>
        </g>
      </g>
      <g id="search_3598317" transform="translate(8472 3259)">
        <g id="Group_1179162" data-name="Group 1179162">
          <g id="Group_1179145" data-name="Group 1179145">
            <path id="Path_1041443" data-name="Path 1041443" d="M53,52v2H29V52a2.006,2.006,0,0,1,2-2H51A2.006,2.006,0,0,1,53,52Z" fill="#969faa"/>
          </g>
          <g id="Group_1179146" data-name="Group 1179146">
            <path id="Path_1041444" data-name="Path 1041444" d="M33,44H49v6H33Z" fill="#aab2bd"/>
          </g>
          <g id="Group_1179147" data-name="Group 1179147">
            <path id="Path_1041445" data-name="Path 1041445" d="M62,36v4a4,4,0,0,1-4,4H23V42a2.006,2.006,0,0,0-2-2H19a2.006,2.006,0,0,0,2-2V36Z" fill="#ccd1d9"/>
          </g>
          <g id="Group_1179148" data-name="Group 1179148">
            <path id="Path_1041446" data-name="Path 1041446" d="M21,14H58a4,4,0,0,1,4,4V36H21Z" fill="#4fc1e9"/>
          </g>
          <g id="Group_1179149" data-name="Group 1179149">
            <path id="Path_1041447" data-name="Path 1041447" d="M21,36v2a2.006,2.006,0,0,1-2,2H17a2.006,2.006,0,0,1-2-2V33.72a16.211,16.211,0,0,0,6,0Z" fill="#ffeaa7"/>
          </g>
          <g id="Group_1179150" data-name="Group 1179150">
            <path id="Path_1041448" data-name="Path 1041448" d="M21,40a2.006,2.006,0,0,1,2,2V57a5,5,0,0,1-10,0V42a2.006,2.006,0,0,1,2-2h6Z" fill="#969faa"/>
          </g>
          <g id="Group_1179151" data-name="Group 1179151">
            <path id="Path_1041449" data-name="Path 1041449" d="M15,33.72a16,16,0,1,1,6,0,16.211,16.211,0,0,1-6,0Z" fill="#e6e9ed"/>
          </g>
          <g id="Group_1179152" data-name="Group 1179152">
            <circle id="Ellipse_12542" data-name="Ellipse 12542" cx="12" cy="12" r="12" transform="translate(6 6)" fill="#69d6f4"/>
          </g>
          <g id="Group_1179153" data-name="Group 1179153">
            <path id="Path_1041450" data-name="Path 1041450" d="M26,26.93l.01.01A11.675,11.675,0,0,1,22,29.31V16h4Z" fill="#ff826e"/>
          </g>
          <g id="Group_1179154" data-name="Group 1179154">
            <path id="Path_1041451" data-name="Path 1041451" d="M22,29.31A11.8,11.8,0,0,1,18,30V20h4v9.3Z" fill="#ff826e"/>
          </g>
          <g id="Group_1179155" data-name="Group 1179155">
            <path id="Path_1041452" data-name="Path 1041452" d="M18,20V30a11.8,11.8,0,0,1-4-.69V10h4Z" fill="#ff826e"/>
          </g>
          <g id="Group_1179156" data-name="Group 1179156">
            <path id="Path_1041453" data-name="Path 1041453" d="M14,29.3v.01a11.675,11.675,0,0,1-4.01-2.37l.01-.01V14h4Z" fill="#ff826e"/>
          </g>
          <g id="Group_1179157" data-name="Group 1179157">
            <path id="Path_1041454" data-name="Path 1041454" d="M56,26v4a2.006,2.006,0,0,1-2,2H36a2.006,2.006,0,0,1-2-2V26Z" fill="#fcd770"/>
          </g>
          <g id="Group_1179158" data-name="Group 1179158">
            <path id="Path_1041455" data-name="Path 1041455" d="M56,16v6H34V16Z" fill="#fcd770"/>
          </g>
          <g id="Group_1179159" data-name="Group 1179159">
            <path id="Path_1041456" data-name="Path 1041456" d="M56,8v4H34V8a2.006,2.006,0,0,1,2-2H54A2.006,2.006,0,0,1,56,8Z" fill="#fcd770"/>
          </g>
          <g id="Group_1179160" data-name="Group 1179160">
            <path id="Path_1041457" data-name="Path 1041457" d="M34,22H56v4H34Z" fill="#ffeaa7"/>
          </g>
          <g id="Group_1179161" data-name="Group 1179161">
            <path id="Path_1041458" data-name="Path 1041458" d="M56,14v2H34V12H56Z" fill="#ffeaa7"/>
          </g>
        </g>
        <g id="Group_1179163" data-name="Group 1179163">
          <path id="Path_1041459" data-name="Path 1041459" d="M31,18A13,13,0,1,0,18,31,13.015,13.015,0,0,0,31,18ZM13,27.786a11.013,11.013,0,0,1-2-1.307V15h2Zm12-1.307a11.013,11.013,0,0,1-2,1.307V17h2Zm-4,2.095a11.006,11.006,0,0,1-2,.376V21h2ZM17,19v9.949a10.821,10.821,0,0,1-2-.376V11h2ZM7,18a11,11,0,1,1,20,6.305V15H21v4H19V9H13v4H9V24.305A10.93,10.93,0,0,1,7,18Z"/>
          <path id="Path_1041460" data-name="Path 1041460" d="M58,13H57V8a3,3,0,0,0-3-3H36a3,3,0,0,0-3,3v2.017A16.993,16.993,0,1,0,14,34.5V38a2.984,2.984,0,0,0,.22,1.116A3,3,0,0,0,12,42V57a6,6,0,1,0,12,0V45h8v4H31a3,3,0,0,0-3,3v3H54V52a3,3,0,0,0-3-3H50V45h8a5.006,5.006,0,0,0,5-5V18a5.006,5.006,0,0,0-5-5Zm0,2a3,3,0,0,1,3,3V35H22v-.495a17.049,17.049,0,0,0,11-8.522V30a3,3,0,0,0,3,3H54a3,3,0,0,0,3-3V15ZM35,27H55v3a1,1,0,0,1-1,1H36a1,1,0,0,1-1-1Zm20-2H35V23H55Zm0-4H35V17H55Zm0-6H35V13H55ZM36,7H54a1,1,0,0,1,1,1v3H35V8A1,1,0,0,1,36,7ZM3,18A15,15,0,1,1,18,33,15.017,15.017,0,0,1,3,18ZM18,35a17.138,17.138,0,0,0,2-.128V38a1,1,0,0,1-1,1H17a1,1,0,0,1-1-1V34.872A17.138,17.138,0,0,0,18,35Zm4,22a4,4,0,0,1-8,0V42a1,1,0,0,1,1-1h6a1,1,0,0,1,1,1Zm30-5v1H30V52a1,1,0,0,1,1-1H51A1,1,0,0,1,52,52Zm-4-3H34V45H48Zm10-6H24V42a2.994,2.994,0,0,0-2.22-2.884A2.984,2.984,0,0,0,22,38V37H61v3A3,3,0,0,1,58,43Z"/>
          <circle id="Ellipse_12543" data-name="Ellipse 12543" cx="1" cy="1" r="1" transform="translate(57 39)"/>
          <circle id="Ellipse_12544" data-name="Ellipse 12544" cx="1" cy="1" r="1" transform="translate(53 39)"/>
          <circle id="Ellipse_12545" data-name="Ellipse 12545" cx="1" cy="1" r="1" transform="translate(49 39)"/>
        </g>
      </g>
    </g>
  </g>
</svg>
