<svg xmlns="http://www.w3.org/2000/svg" xmlns:xlink="http://www.w3.org/1999/xlink" width="108" height="108" viewBox="0 0 108 108">
  <defs>
    <filter id="Path_904820" x="0" y="0" width="108" height="108" filterUnits="userSpaceOnUse">
      <feOffset dy="3" input="SourceAlpha"/>
      <feGaussianBlur stdDeviation="3" result="blur"/>
      <feFlood flood-opacity="0.161"/>
      <feComposite operator="in" in2="blur"/>
      <feComposite in="SourceGraphic"/>
    </filter>
  </defs>
  <g id="Group_1206753" data-name="Group 1206753" transform="translate(-200 -1939.783)">
    <g id="Group_1206514" data-name="Group 1206514">
      <g id="Group_1206136" data-name="Group 1206136" transform="translate(209 1945.783)">
        <g id="Group_1173585" data-name="Group 1173585" transform="translate(0 0)">
          <g id="Group_1173428" data-name="Group 1173428">
            <g id="Group_1171958" data-name="Group 1171958">
              <g id="Group_1167341" data-name="Group 1167341">
                <g id="Group_1166792" data-name="Group 1166792">
                  <g transform="matrix(1, 0, 0, 1, -9, -6)" filter="url(#Path_904820)">
                    <g id="Path_904820-2" data-name="Path 904820" transform="translate(9 6)" fill="#fef9e7">
                      <path d="M 44.99999618530273 88.50002288818359 C 39.12687301635742 88.50002288818359 33.43022155761719 87.35009765625 28.06829643249512 85.08218383789062 C 22.88852119445801 82.89133453369141 18.23629570007324 79.75460815429688 14.24084663391113 75.75916290283203 C 10.24540901184082 71.76371002197266 7.108683586120605 67.11148834228516 4.917821407318115 61.93171310424805 C 2.649921178817749 56.56978607177734 1.499996185302734 50.87313461303711 1.499996185302734 45.0000114440918 C 1.499996185302734 39.12688827514648 2.649921178817749 33.43023681640625 4.917821407318115 28.06829833984375 C 7.108683586120605 22.88852310180664 10.24540901184082 18.2363109588623 14.24084663391113 14.2408618927002 C 18.23629570007324 10.24541187286377 22.88852119445801 7.108686447143555 28.06829643249512 4.917823791503906 C 33.43022155761719 2.649924039840698 39.12687301635742 1.499998927116394 44.99999618530273 1.499998927116394 C 50.87311935424805 1.499998927116394 56.56977081298828 2.649924039840698 61.93169784545898 4.917823791503906 C 67.11147308349609 7.108686447143555 71.76369476318359 10.24541187286377 75.75914764404297 14.2408618927002 C 79.75458526611328 18.2363109588623 82.89131164550781 22.88852310180664 85.08216857910156 28.06829833984375 C 87.35007476806641 33.43023681640625 88.5 39.12688827514648 88.5 45.0000114440918 C 88.5 50.87313461303711 87.35007476806641 56.56978607177734 85.08216857910156 61.93171310424805 C 82.89131164550781 67.11148834228516 79.75458526611328 71.76371002197266 75.75914764404297 75.75916290283203 C 71.76369476318359 79.75460815429688 67.11147308349609 82.89133453369141 61.93169784545898 85.08218383789062 C 56.56977081298828 87.35009765625 50.87311935424805 88.50002288818359 44.99999618530273 88.50002288818359 Z" stroke="none"/>
                      <path d="M 44.99999618530273 3 C 39.32870864868164 3 33.82865142822266 4.110054016113281 28.65262603759766 6.299339294433594 C 23.65165710449219 8.414566040039062 19.15968322753906 11.44333648681641 15.301513671875 15.30152893066406 C 11.44333648681641 19.15969848632812 8.414566040039062 23.65165710449219 6.299339294433594 28.65264129638672 C 4.110054016113281 33.82866668701172 2.999992370605469 39.3287239074707 2.999992370605469 45.0000114440918 C 2.999992370605469 50.67129898071289 4.110054016113281 56.17135620117188 6.299339294433594 61.34738159179688 C 8.414566040039062 66.34836578369141 11.44333648681641 70.84032440185547 15.301513671875 74.69849395751953 C 19.15968322753906 78.55668640136719 23.65165710449219 81.58545684814453 28.65262603759766 83.70068359375 C 33.82865142822266 85.88996887207031 39.32870864868164 87.00002288818359 44.99999618530273 87.00002288818359 C 50.67128372192383 87.00002288818359 56.17134094238281 85.88996887207031 61.34736633300781 83.70068359375 C 66.34834289550781 81.58545684814453 70.84030914306641 78.55668640136719 74.69847869873047 74.69849395751953 C 78.55665588378906 70.84032440185547 81.58542633056641 66.34836578369141 83.70065307617188 61.34738159179688 C 85.88993835449219 56.17135620117188 87 50.67129898071289 87 45.0000114440918 C 87 39.3287239074707 85.88993835449219 33.82866668701172 83.70065307617188 28.65264129638672 C 81.58542633056641 23.65165710449219 78.55665588378906 19.15969848632812 74.69847869873047 15.30152893066406 C 70.84030914306641 11.44333648681641 66.34834289550781 8.414566040039062 61.34736633300781 6.299339294433594 C 56.17134094238281 4.110054016113281 50.67128372192383 3 44.99999618530273 3 M 44.99999618530273 0 C 69.85281372070312 0 90 20.14719390869141 90 45.0000114440918 C 90 69.85282897949219 69.85281372070312 90.00002288818359 44.99999618530273 90.00002288818359 C 20.14717864990234 90.00002288818359 -7.62939453125e-06 69.85282897949219 -7.62939453125e-06 45.0000114440918 C -7.62939453125e-06 20.14719390869141 20.14717864990234 0 44.99999618530273 0 Z" stroke="none" fill="#887013"/>
                    </g>
                  </g>
                </g>
              </g>
            </g>
          </g>
        </g>
      </g>
      <g id="campaign_1980692" transform="translate(222.004 1957.783)">
        <path id="Path_1046161" data-name="Path 1046161" d="M36,45h4V56a2,2,0,0,1-4,0Z" fill="#ccdce5"/>
        <path id="Path_1046162" data-name="Path 1046162" d="M16,49H28v9H16Z" fill="#3890ce"/>
        <path id="Path_1046163" data-name="Path 1046163" d="M39,30A17,17,0,1,0,12.866,44.319,6.741,6.741,0,0,1,16,50H28a6.69,6.69,0,0,1,3.094-5.656A16.954,16.954,0,0,0,39,30Z" fill="#ffc119"/>
        <path id="Path_1046164" data-name="Path 1046164" d="M16,54H28v2H16Z" fill="#3188c8"/>
        <path id="Path_1046165" data-name="Path 1046165" d="M16,50H28v2H16Z" fill="#3188c8"/>
        <path id="Path_1046166" data-name="Path 1046166" d="M56,24H42l-6,4V24H34a3,3,0,0,1-3-3V9a3,3,0,0,1,3-3H56a3,3,0,0,1,3,3V21a3,3,0,0,1-3,3Z" fill="#88bf40"/>
        <path id="Path_1046167" data-name="Path 1046167" d="M35,36h7V46H35a5,5,0,0,1,0-10Z" fill="#ef5249"/>
        <path id="Path_1046168" data-name="Path 1046168" d="M55,50,40,46V36l15-4Z" fill="#ccdce5"/>
        <rect id="Rectangle_418451" data-name="Rectangle 418451" width="4" height="22" rx="2" transform="translate(55 30)" fill="#ef5249"/>
        <path id="Path_1046169" data-name="Path 1046169" d="M56,25a4,4,0,0,0,4-4V9a4,4,0,0,0-4-4H34a4,4,0,0,0-4,4V21a4,4,0,0,0,4,4h1v3a1,1,0,0,0,1.555.832L42.3,25ZM41.445,23.168,37,26.131V24a1,1,0,0,0-1-1H34a2,2,0,0,1-2-2V9a2,2,0,0,1,2-2H56a2,2,0,0,1,2,2V21a2,2,0,0,1-2,2H42a1.006,1.006,0,0,0-.555.168Z"/>
        <path id="Path_1046170" data-name="Path 1046170" d="M35,10h2v2H35Z"/>
        <path id="Path_1046171" data-name="Path 1046171" d="M39,10H55v2H39Z"/>
        <path id="Path_1046172" data-name="Path 1046172" d="M35,14H55v2H35Z"/>
        <path id="Path_1046173" data-name="Path 1046173" d="M35,18H55v2H35Z"/>
        <path id="Path_1046174" data-name="Path 1046174" d="M39.5,34.237A17.95,17.95,0,0,0,40,30q0-.532-.03-1.058l-2,.116c.018.311.027.626.027.942a15.852,15.852,0,0,1-.445,3.763Z"/>
        <path id="Path_1046175" data-name="Path 1046175" d="M35,47v9a3,3,0,1,0,6,0V47.3l13.122,3.5A2.993,2.993,0,0,0,60,50V32a2.993,2.993,0,0,0-5.878-.8L39.869,35H35a6,6,0,0,0,0,12Zm4,9a1,1,0,0,1-2,0V47h2ZM57,31a1,1,0,0,1,1,1V50a1,1,0,0,1-2,0V32A1,1,0,0,1,57,31ZM54,48.7,41,45.232V36.768L54,33.3ZM35,37h4v8H35a4,4,0,0,1,0-8Z"/>
        <path id="Path_1046176" data-name="Path 1046176" d="M28.353,13.154A17.992,17.992,0,0,0,12.328,45.162,5.723,5.723,0,0,1,15,50v8a1,1,0,0,0,1,1h1v2h2V59h2v2h2V59h2v2h2V59h1a1,1,0,0,0,1-1V50a5.757,5.757,0,0,1,1.119-3.4l-1.607-1.19A7.76,7.76,0,0,0,27.066,49H23V39.92A7,7,0,0,0,29,33H27a5,5,0,0,1-10,0H15a7,7,0,0,0,6,6.92V49H16.936A7.722,7.722,0,0,0,13.4,43.476,15.994,15.994,0,0,1,27.647,15.025ZM17,57V55H27v2Zm0-4V51H27v2Z"/>
        <path id="Path_1046177" data-name="Path 1046177" d="M22,18a11.985,11.985,0,0,1,3.692.579l.616-1.9a14.021,14.021,0,0,0-16.73,6.862l1.773.925A11.975,11.975,0,0,1,22,18Z"/>
        <path id="Path_1046178" data-name="Path 1046178" d="M8.165,27.847l1.976.306a11.938,11.938,0,0,1,.438-1.846l-1.9-.614a14.018,14.018,0,0,0-.514,2.154Z"/>
      </g>
    </g>
  </g>
</svg>
