<svg xmlns="http://www.w3.org/2000/svg" xmlns:xlink="http://www.w3.org/1999/xlink" width="113" height="113" viewBox="0 0 113 113">
  <defs>
    <filter id="Path_982547" x="0" y="0" width="113" height="113" filterUnits="userSpaceOnUse">
      <feOffset dy="3" input="SourceAlpha"/>
      <feGaussianBlur stdDeviation="3" result="blur"/>
      <feFlood flood-opacity="0.161"/>
      <feComposite operator="in" in2="blur"/>
      <feComposite in="SourceGraphic"/>
    </filter>
  </defs>
  <g id="Group_1179250" data-name="Group 1179250" transform="translate(-1163.5 -685)">
    <g id="Group_1179133" data-name="Group 1179133" transform="translate(1172.5 691)">
      <g id="Group_1177985" data-name="Group 1177985">
        <g id="Group_1177680" data-name="Group 1177680">
          <g id="Group_1172010" data-name="Group 1172010">
            <g id="Group_1171046" data-name="Group 1171046">
              <g id="Group_1148525" data-name="Group 1148525">
                <g transform="matrix(1, 0, 0, 1, -9, -6)" filter="url(#Path_982547)">
                  <g id="Path_982547-2" data-name="Path 982547" transform="translate(9 6)" fill="#fbedfe">
                    <path d="M 47.5 93.5 C 41.28937149047852 93.5 35.26531982421875 92.28397369384766 29.59518623352051 89.88570404052734 C 24.11770629882812 87.56893157958984 19.19813346862793 84.25196075439453 14.97307968139648 80.02691650390625 C 10.74804019927979 75.80186462402344 7.431066513061523 70.88229370117188 5.114293098449707 65.40481567382812 C 2.716026782989502 59.73468017578125 1.5 53.71062850952148 1.5 47.5 C 1.5 41.28937149047852 2.716026782989502 35.26533508300781 5.114293098449707 29.59518623352051 C 7.431066513061523 24.11771965026855 10.74804019927979 19.19813346862793 14.97307968139648 14.97309303283691 C 19.19813346862793 10.74804019927979 24.11770629882812 7.431066513061523 29.59518623352051 5.114293098449707 C 35.26531982421875 2.716026782989502 41.28937149047852 1.5 47.5 1.5 C 53.71062850952148 1.5 59.73466491699219 2.716026782989502 65.40481567382812 5.114293098449707 C 70.88227844238281 7.431066513061523 75.80186462402344 10.74804019927979 80.02690887451172 14.97309303283691 C 84.25196075439453 19.19813346862793 87.56893157958984 24.11771965026855 89.88570404052734 29.59518623352051 C 92.28397369384766 35.26533508300781 93.5 41.28937149047852 93.5 47.5 C 93.5 53.71062850952148 92.28397369384766 59.73468017578125 89.88570404052734 65.40481567382812 C 87.56893157958984 70.88229370117188 84.25196075439453 75.80186462402344 80.02690887451172 80.02691650390625 C 75.80186462402344 84.25196075439453 70.88227844238281 87.56893157958984 65.40481567382812 89.88570404052734 C 59.73466491699219 92.28397369384766 53.71062850952148 93.5 47.5 93.5 Z" stroke="none"/>
                    <path d="M 47.5 3 C 41.49121475219727 3 35.66376876831055 4.176155090332031 30.17950439453125 6.495796203613281 C 24.88084411621094 8.736953735351562 20.12152099609375 11.94598388671875 16.03375244140625 16.03375244140625 C 11.94598388671875 20.12152099609375 8.736953735351562 24.88084411621094 6.495796203613281 30.17950439453125 C 4.176155090332031 35.66376876831055 3 41.49121475219727 3 47.5 C 3 53.50878524780273 4.176155090332031 59.33623123168945 6.495796203613281 64.82049560546875 C 8.736953735351562 70.11915588378906 11.94598388671875 74.87847900390625 16.03375244140625 78.96624755859375 C 20.12152099609375 83.05401611328125 24.88084411621094 86.26304626464844 30.17950439453125 88.50419616699219 C 35.66376876831055 90.82384490966797 41.49121475219727 92 47.5 92 C 53.50878524780273 92 59.33623123168945 90.82384490966797 64.82049560546875 88.50419616699219 C 70.11915588378906 86.26304626464844 74.87847900390625 83.05401611328125 78.96624755859375 78.96624755859375 C 83.05401611328125 74.87847900390625 86.26304626464844 70.11915588378906 88.50419616699219 64.82049560546875 C 90.82384490966797 59.33623123168945 92 53.50878524780273 92 47.5 C 92 41.49121475219727 90.82384490966797 35.66376876831055 88.50419616699219 30.17950439453125 C 86.26304626464844 24.88084411621094 83.05401611328125 20.12152099609375 78.96624755859375 16.03375244140625 C 74.87847900390625 11.94598388671875 70.11915588378906 8.736953735351562 64.82049560546875 6.495796203613281 C 59.33623123168945 4.176155090332031 53.50878524780273 3 47.5 3 M 47.5 0 C 73.7335205078125 0 95 21.2664794921875 95 47.5 C 95 73.7335205078125 73.7335205078125 95 47.5 95 C 21.2664794921875 95 0 73.7335205078125 0 47.5 C 0 21.2664794921875 21.2664794921875 0 47.5 0 Z" stroke="none" fill="#e25cfa"/>
                  </g>
                </g>
              </g>
            </g>
          </g>
        </g>
      </g>
      <g id="risk_10334155_1_" data-name="risk_10334155 (1)" transform="translate(17.473 17.722)">
        <path id="Path_1041347" data-name="Path 1041347" d="M138.6,293.837l5.735-9.931,5.732-9.931a2.967,2.967,0,0,1,5.138,0l11.47,19.863a2.967,2.967,0,0,1-2.569,4.451H141.174a2.967,2.967,0,0,1-2.569-4.452Z" transform="translate(-122.864 -240.695)" fill="#ffdf40"/>
        <path id="Path_1041348" data-name="Path 1041348" d="M262.147,283.9l5.732-9.931a2.867,2.867,0,0,1,2.569-1.483v25.8H258.981a2.967,2.967,0,0,1-2.569-4.452Z" transform="translate(-240.671 -240.687)" fill="#ffbe40"/>
        <path id="Path_1041349" data-name="Path 1041349" d="M21.741,21.73A29.777,29.777,0,1,1,63.851,63.844a.98.98,0,0,1-1.387,0L54.627,56a.98.98,0,0,1,0-1.386,16.734,16.734,0,0,0-9.235-28.361l3.625,14.336a6.488,6.488,0,0,1-1.224,5.982l10.74,18.6a4.928,4.928,0,0,1-4.268,7.391H31.329a4.928,4.928,0,0,1-4.267-7.393L32.8,55.241l5-8.667a6.494,6.494,0,0,1-1.225-5.98L40.2,26.256a16.731,16.731,0,0,0-9.233,28.361.98.98,0,0,1,0,1.386l-7.84,7.84a.98.98,0,0,1-1.387,0,29.78,29.78,0,0,1,0-42.113ZM56.69,55.293l6.457,6.459a27.842,27.842,0,0,0,6.761-25.215L61.083,38.9a18.777,18.777,0,0,1,.405,3.885,18.569,18.569,0,0,1-4.8,12.507Zm-.231-25.264a18.641,18.641,0,0,1,4.117,6.978L69.4,34.643A27.873,27.873,0,0,0,43.776,14.988v4.874l1.1,4.348a18.614,18.614,0,0,1,11.584,5.819ZM28.76,66.152A2.967,2.967,0,0,0,31.329,70.6H54.265a2.967,2.967,0,0,0,2.569-4.452L45.364,46.289a2.967,2.967,0,0,0-5.138,0L34.5,56.221Zm9.7-25.019a4.538,4.538,0,0,0,.446,3.613,4.936,4.936,0,0,1,7.784,0,4.529,4.529,0,0,0,.445-3.612c0-.013-.008-.027-.011-.041L42.8,23.984l-4.326,17.11c0,.013-.008.026-.011.039Zm-9.326-11.1A18.616,18.616,0,0,1,40.716,24.21l1.1-4.348V14.988A27.87,27.87,0,0,0,16.2,34.644l8.82,2.362A18.64,18.64,0,0,1,29.134,30.029ZM22.446,61.752,28.9,55.293a18.557,18.557,0,0,1-4.8-12.508A18.785,18.785,0,0,1,24.51,38.9l-8.822-2.361a27.849,27.849,0,0,0,6.758,25.215ZM42.8,51.058a2.926,2.926,0,0,1,2.11.907,2.7,2.7,0,0,1,.759,2.013l-.288,5.648a2.579,2.579,0,0,1-5.157,0l-.292-5.649a2.7,2.7,0,0,1,.759-2.012,2.925,2.925,0,0,1,2.11-.907Zm-.619,8.472a.651.651,0,0,0,.619.664.66.66,0,0,0,.622-.667l.288-5.647a.757.757,0,0,0-.221-.563.948.948,0,0,0-1.379,0,.756.756,0,0,0-.221.561Zm.619,3.419a2.583,2.583,0,1,1-2.582,2.586A2.583,2.583,0,0,1,42.8,62.949Zm0,3.206a.623.623,0,1,0-.621-.621.623.623,0,0,0,.621.621Z" transform="translate(-13.019 -13.01)"/>
        <path id="Path_1041350" data-name="Path 1041350" d="M378.494,211.248a18.557,18.557,0,0,0,4.8,12.508l-6.459,6.459A27.849,27.849,0,0,1,370.078,205l8.821,2.363A18.777,18.777,0,0,0,378.494,211.248Z" transform="translate(-367.41 -181.473)" fill="#ec4c36"/>
        <path id="Path_1041351" data-name="Path 1041351" d="M227.918,119.674c0,.014.007.027.011.041a4.529,4.529,0,0,1-.444,3.613,4.936,4.936,0,0,0-7.784,0,4.538,4.538,0,0,1-.446-3.613l.011-.039,4.326-17.11Z" transform="translate(-193.816 -91.59)" fill="#4d5e80"/>
        <path id="Path_1041352" data-name="Path 1041352" d="M289.633,29.156V34.03l-1.1,4.348a18.707,18.707,0,0,0-15.7,12.8l-8.82-2.362A27.87,27.87,0,0,1,289.633,29.156Z" transform="translate(-260.836 -27.177)" fill="#ffbe40"/>
        <path id="Path_1041353" data-name="Path 1041353" d="M33.39,207.364,42.214,205a27.842,27.842,0,0,1-6.761,25.215L29,223.756a18.569,18.569,0,0,0,4.8-12.508,18.786,18.786,0,0,0-.406-3.888Z" transform="translate(14.674 -181.473)" fill="#6cf"/>
        <path id="Path_1041354" data-name="Path 1041354" d="M38.93,34.03V29.156A27.873,27.873,0,0,1,64.552,48.811L55.73,51.174a18.7,18.7,0,0,0-15.7-12.8Z" transform="translate(-8.173 -27.177)" fill="#8cd96b"/>
        <path id="Path_1041355" data-name="Path 1041355" d="M251.539,436.526a.623.623,0,1,1-.621.625.623.623,0,0,1,.621-.625Z" transform="translate(-221.762 -384.627)" fill="#ec4c36"/>
        <path id="Path_1041356" data-name="Path 1041356" d="M249.5,339.5a.956.956,0,0,1,.689.3.757.757,0,0,1,.221.563l-.288,5.647a.66.66,0,0,1-.622.668.651.651,0,0,1-.619-.664l-.292-5.652a.756.756,0,0,1,.221-.561A.956.956,0,0,1,249.5,339.5Z" transform="translate(-219.719 -299.491)" fill="#ec4c36"/>
        <path id="Path_1041357" data-name="Path 1041357" d="M64.692,231.864a18.569,18.569,0,0,0,4.8-12.508,18.787,18.787,0,0,0-.406-3.889l4.6-1.227a23.4,23.4,0,0,1-5.642,20.971Z" transform="translate(-21.022 -189.58)" fill="#53bfea"/>
        <path id="Path_1041358" data-name="Path 1041358" d="M94.823,81.761l-4.594,1.231a18.7,18.7,0,0,0-15.7-12.8l-1.1-4.348v-.43A23.382,23.382,0,0,1,94.823,81.761Z" transform="translate(-42.672 -58.995)" fill="#80c95d"/>
        <path id="Path_1041359" data-name="Path 1041359" d="M264.014,81.836a23.384,23.384,0,0,1,21.26-16.374v.425l-1.1,4.348a18.707,18.707,0,0,0-15.7,12.8Z" transform="translate(-256.477 -59.034)" fill="#f4b13b"/>
        <path id="Path_1041360" data-name="Path 1041360" d="M375.5,235.4a23.4,23.4,0,0,1-5.579-20.859l4.456,1.193a18.781,18.781,0,0,0-.406,3.885,18.558,18.558,0,0,0,4.8,12.508Z" transform="translate(-362.889 -189.846)" fill="#d1311b"/>
        <path id="Path_1041361" data-name="Path 1041361" d="M256.215,119.673l4.326-17.11v18.863a4.8,4.8,0,0,0-3.891,1.9,4.538,4.538,0,0,1-.446-3.613C256.208,119.7,256.212,119.686,256.215,119.673Z" transform="translate(-230.765 -91.589)" fill="#445775"/>
      </g>
    </g>
  </g>
</svg>
