<svg xmlns="http://www.w3.org/2000/svg" xmlns:xlink="http://www.w3.org/1999/xlink" width="113" height="113" viewBox="0 0 113 113">
  <defs>
    <filter id="Path_982547" x="0" y="0" width="113" height="113" filterUnits="userSpaceOnUse">
      <feOffset dy="3" input="SourceAlpha"/>
      <feGaussianBlur stdDeviation="3" result="blur"/>
      <feFlood flood-opacity="0.161"/>
      <feComposite operator="in" in2="blur"/>
      <feComposite in="SourceGraphic"/>
    </filter>
  </defs>
  <g id="Group_1179302" data-name="Group 1179302" transform="translate(-271.125 -1166.158)">
    <g id="Group_1179168" data-name="Group 1179168">
      <g id="Group_1178844" data-name="Group 1178844" transform="translate(280.125 1172.158)">
        <g id="Group_1177679" data-name="Group 1177679">
          <g id="Group_1172010" data-name="Group 1172010">
            <g id="Group_1171046" data-name="Group 1171046">
              <g id="Group_1148525" data-name="Group 1148525">
                <g transform="matrix(1, 0, 0, 1, -9, -6)" filter="url(#Path_982547)">
                  <g id="Path_982547-2" data-name="Path 982547" transform="translate(9 6)" fill="#fbedfe">
                    <path d="M 47.5 93.5 C 41.28937149047852 93.5 35.26533508300781 92.28397369384766 29.59518623352051 89.88570404052734 C 24.11771965026855 87.56893157958984 19.19813346862793 84.25196075439453 14.97309303283691 80.02691650390625 C 10.74804019927979 75.80186462402344 7.431066513061523 70.88229370117188 5.114293098449707 65.40481567382812 C 2.716026782989502 59.73468017578125 1.5 53.71062850952148 1.5 47.5 C 1.5 41.28937149047852 2.716026782989502 35.26533508300781 5.114293098449707 29.59518623352051 C 7.431066513061523 24.11771965026855 10.74804019927979 19.19813346862793 14.97309303283691 14.97309303283691 C 19.19813346862793 10.74804019927979 24.11771965026855 7.431066513061523 29.59518623352051 5.114293098449707 C 35.26533508300781 2.716026782989502 41.28937149047852 1.5 47.5 1.5 C 53.71062850952148 1.5 59.73468017578125 2.716026782989502 65.40481567382812 5.114293098449707 C 70.88229370117188 7.431066513061523 75.80186462402344 10.74804019927979 80.02691650390625 14.97309303283691 C 84.25196075439453 19.19813346862793 87.56893157958984 24.11771965026855 89.88570404052734 29.59518623352051 C 92.28397369384766 35.26533508300781 93.5 41.28937149047852 93.5 47.5 C 93.5 53.71062850952148 92.28397369384766 59.73468017578125 89.88570404052734 65.40481567382812 C 87.56893157958984 70.88229370117188 84.25196075439453 75.80186462402344 80.02691650390625 80.02691650390625 C 75.80186462402344 84.25196075439453 70.88229370117188 87.56893157958984 65.40481567382812 89.88570404052734 C 59.73468017578125 92.28397369384766 53.71062850952148 93.5 47.5 93.5 Z" stroke="none"/>
                    <path d="M 47.5 3 C 41.49121475219727 3 35.66376876831055 4.176155090332031 30.17950439453125 6.495796203613281 C 24.88084411621094 8.736953735351562 20.12152099609375 11.94598388671875 16.03375244140625 16.03375244140625 C 11.94598388671875 20.12152099609375 8.736953735351562 24.88084411621094 6.495796203613281 30.17950439453125 C 4.176155090332031 35.66376876831055 3 41.49121475219727 3 47.5 C 3 53.50878524780273 4.176155090332031 59.33623123168945 6.495796203613281 64.82049560546875 C 8.736953735351562 70.11915588378906 11.94598388671875 74.87847900390625 16.03375244140625 78.96624755859375 C 20.12152099609375 83.05401611328125 24.88084411621094 86.26304626464844 30.17950439453125 88.50419616699219 C 35.66376876831055 90.82384490966797 41.49121475219727 92 47.5 92 C 53.50878524780273 92 59.33623123168945 90.82384490966797 64.82049560546875 88.50419616699219 C 70.11915588378906 86.26304626464844 74.87847900390625 83.05401611328125 78.96624755859375 78.96624755859375 C 83.05401611328125 74.87847900390625 86.26304626464844 70.11915588378906 88.50419616699219 64.82049560546875 C 90.82384490966797 59.33623123168945 92 53.50878524780273 92 47.5 C 92 41.49121475219727 90.82384490966797 35.66376876831055 88.50419616699219 30.17950439453125 C 86.26304626464844 24.88084411621094 83.05401611328125 20.12152099609375 78.96624755859375 16.03375244140625 C 74.87847900390625 11.94598388671875 70.11915588378906 8.736953735351562 64.82049560546875 6.495796203613281 C 59.33623123168945 4.176155090332031 53.50878524780273 3 47.5 3 M 47.5 0 C 73.7335205078125 0 95 21.2664794921875 95 47.5 C 95 73.7335205078125 73.7335205078125 95 47.5 95 C 21.2664794921875 95 0 73.7335205078125 0 47.5 C 0 21.2664794921875 21.2664794921875 0 47.5 0 Z" stroke="none" fill="#e25cfa"/>
                  </g>
                </g>
              </g>
            </g>
          </g>
        </g>
      </g>
      <g id="refinement_18609565" transform="translate(292.893 1183.994)">
        <path id="Path_1041507" data-name="Path 1041507" d="M188.931,17.624h-30.4a1.12,1.12,0,0,0-.819.34L152.2,23.479a1.12,1.12,0,0,0-.339.819v41.72a1.158,1.158,0,0,0,1.156,1.156h35.917a1.159,1.159,0,0,0,1.159-1.156V18.783a1.161,1.161,0,0,0-1.159-1.159Z" transform="translate(-128.645 -8.47)" fill="#eceff1" fill-rule="evenodd"/>
        <path id="Path_1041508" data-name="Path 1041508" d="M158.843,18.515v5.516a.581.581,0,0,1-.579.579h-5.516a1.161,1.161,0,0,1,.24-.339l5.516-5.516A1.218,1.218,0,0,1,158.843,18.515Z" transform="translate(-129.435 -9.262)" fill="#d1d1d6" fill-rule="evenodd"/>
        <path id="Path_1041509" data-name="Path 1041509" d="M474.618,17.624h-1.156v49.55h1.156a1.159,1.159,0,0,0,1.159-1.156V18.783a1.161,1.161,0,0,0-1.159-1.159Z" transform="translate(-414.332 -8.47)" fill="#d1d1d6" fill-rule="evenodd"/>
        <circle id="Ellipse_12547" data-name="Ellipse 12547" cx="7.538" cy="7.538" r="7.538" transform="translate(42.821 40.733)" fill="#8ac9fe"/>
        <path id="Path_1041510" data-name="Path 1041510" d="M387.424,300.437a7.631,7.631,0,0,1,.838-.046,7.538,7.538,0,1,1-.838,15.031,7.539,7.539,0,0,0,0-14.985Z" transform="translate(-337.902 -259.658)" fill="#60b7ff" fill-rule="evenodd"/>
        <path id="Path_1041511" data-name="Path 1041511" d="M354.344,136.206a.525.525,0,0,0-.416.849l4.066,5.16a.52.52,0,0,0,.824,0l4.066-5.16a.525.525,0,0,0-.416-.849h-1.686V124.985h-4.753v11.221Z" transform="translate(-308.047 -103.841)" fill="#6cf5c2" fill-rule="evenodd"/>
        <path id="Path_1041512" data-name="Path 1041512" d="M387.424,141.675l3.641-4.62a.525.525,0,0,0-.416-.849h1.675a.525.525,0,0,1,.416.849l-4.066,5.16a.52.52,0,0,1-.824,0Zm3.214-5.469h-1.675V124.985h1.675Z" transform="translate(-337.902 -103.841)" fill="#00e499" fill-rule="evenodd"/>
        <circle id="Ellipse_12548" data-name="Ellipse 12548" cx="7.538" cy="7.538" r="7.538" transform="translate(42.821 12.994)" fill="#fe646f"/>
        <path id="Path_1041513" data-name="Path 1041513" d="M387.424,52.055a7.629,7.629,0,0,1,.838-.046,7.538,7.538,0,1,1-.838,15.031,7.539,7.539,0,0,0,0-14.985Z" transform="translate(-337.902 -39.015)" fill="#fd4755" fill-rule="evenodd"/>
        <path id="Path_1041514" data-name="Path 1041514" d="M97.458,165.36a10.345,10.345,0,0,1,3.032,1.257l1.97-.874,2.322,2.322-.874,1.97a10.341,10.341,0,0,1,1.257,3.032l2.011.774v3.285l-2.011.774a10.349,10.349,0,0,1-1.257,3.031l.874,1.97-2.322,2.323-1.97-.876a10.347,10.347,0,0,1-3.032,1.258l-.774,2.009H93.4l-.774-2.011a10.35,10.35,0,0,1-3.031-1.257l-1.97.876L85.3,182.9l.876-1.969a10.377,10.377,0,0,1-1.258-3.032l-2.009-.774V173.84l2.009-.774a10.345,10.345,0,0,1,1.258-3.032l-.876-1.97,2.323-2.322,1.969.874a10.374,10.374,0,0,1,3.032-1.257l.774-2.011h3.285Z" transform="translate(-67.397 -137.921)" fill="#ffe177" fill-rule="evenodd"/>
        <path id="Path_1041515" data-name="Path 1041515" d="M136.964,166.036l.662-.294,2.322,2.321-.874,1.97a10.341,10.341,0,0,1,1.257,3.032l2.011.774v3.285l-2.011.774a10.349,10.349,0,0,1-1.257,3.031l.874,1.97-2.322,2.323-.662-.294,2.029-2.029-.876-1.97a10.352,10.352,0,0,0,1.257-3.031l2.011-.774V173.84l-2.011-.774a10.344,10.344,0,0,0-1.257-3.032l.876-1.97Zm-14.468,0,.294-.294,1.969.874c-.139.077-.277.158-.411.242Zm10.127-.676a10.343,10.343,0,0,1,3.032,1.257l-.543.242a13.531,13.531,0,0,0-3.445-1.5l-.774-2.011h.956Zm-7.863,18.988-1.97.876-.294-.294,1.852-.823Q124.55,184.231,124.76,184.348Zm10.9,0a10.347,10.347,0,0,1-3.032,1.258l-.774,2.009h-.956l.774-2.009a13.563,13.563,0,0,0,3.446-1.5Z" transform="translate(-102.562 -137.921)" fill="#ffd064" fill-rule="evenodd"/>
        <path id="Path_1041516" data-name="Path 1041516" d="M145.74,220.42a5.759,5.759,0,1,1-5.759,5.76A5.76,5.76,0,0,1,145.74,220.42Z" transform="translate(-118.094 -188.618)" fill="#eceff1" fill-rule="evenodd"/>
        <path id="Path_1041517" data-name="Path 1041517" d="M145.74,220.42c.131,0,.261,0,.391.014a5.759,5.759,0,0,0,0,11.492c-.13.008-.26.013-.391.013a5.759,5.759,0,0,1,0-11.518Z" transform="translate(-118.094 -188.618)" fill="#d1d1d6" fill-rule="evenodd"/>
        <path id="Path_1041518" data-name="Path 1041518" d="M31.68,350.09H19.743a2.581,2.581,0,0,1-1.61-.532,4.936,4.936,0,0,1-1.4-1.4,5.054,5.054,0,0,1-.8-2.138c-.275-1.424,0-8.4,0-8.4-.157-2.926,2.678-4.445,4.749-5.014a19.921,19.921,0,0,1,5.186-.627,16.562,16.562,0,0,1,4.918.627c2.191.683,4.661,2.245,4.661,5.014,0,0,.142,7.126,0,8.632a4.184,4.184,0,0,1-.693,2.093,5.1,5.1,0,0,1-1.259,1.144,3.822,3.822,0,0,1-1.817.605Z" transform="translate(-7.793 -287.713)" fill="#8ac9fe" fill-rule="evenodd"/>
        <path id="Path_1041519" data-name="Path 1041519" d="M98.8,331.986q.4-.013.79-.012a16.562,16.562,0,0,1,4.918.627c2.191.683,4.661,2.245,4.661,5.014,0,0,.142,7.126,0,8.632a4.184,4.184,0,0,1-.693,2.093,5.1,5.1,0,0,1-1.259,1.144,3.823,3.823,0,0,1-1.817.606h-1.62a3.823,3.823,0,0,0,1.817-.606,5.1,5.1,0,0,0,1.259-1.144,4.185,4.185,0,0,0,.693-2.093c.142-1.506,0-8.632,0-8.632,0-2.769-2.47-4.331-4.661-5.014A15.337,15.337,0,0,0,98.8,331.986Z" transform="translate(-81.513 -287.714)" fill="#60b7ff" fill-rule="evenodd"/>
        <path id="Path_1041520" data-name="Path 1041520" d="M70.57,240.262c2.366,0,4.287-2.389,4.287-6.115s-1.831-4.378-4.2-4.378-4.377.651-4.377,4.378S68.2,240.262,70.57,240.262Z" transform="translate(-52.627 -196.923)" fill="#f6dccd" fill-rule="evenodd"/>
        <path id="Path_1041521" data-name="Path 1041521" d="M97.416,240.165c1.979-.481,3.477-2.729,3.477-6.019s-1.427-4.183-3.39-4.347c.265-.022.537-.031.813-.031,2.366,0,4.2.651,4.2,4.378s-1.921,6.115-4.287,6.115A3.423,3.423,0,0,1,97.416,240.165Z" transform="translate(-80.283 -196.923)" fill="#f1cbbc" fill-rule="evenodd"/>
        <path id="Path_1041522" data-name="Path 1041522" d="M28.285,59.566a4.417,4.417,0,0,1-.7,1.559,6.23,6.23,0,0,1-1.537,1.391,4.743,4.743,0,0,1-2.258.722H11.855a3.429,3.429,0,0,1-2.139-.705A5.7,5.7,0,0,1,8.1,60.908a5.8,5.8,0,0,1-.933-2.466,84.465,84.465,0,0,1-.017-8.563C7,46.506,10.164,44.654,12.559,44a18.144,18.144,0,0,1,2.884-.53c-1.623-1.073-2.776-3.27-2.776-6.273,0-2.243.681-3.532,1.642-4.288a5.515,5.515,0,0,1,3.33-.979l-.684-1.539a.893.893,0,0,1,.185-.995l2.348-2.348a.893.893,0,0,1,.995-.185l1.574.7q.12-.067.242-.132V15.609a1.835,1.835,0,0,1,.556-1.339l5.625-5.625a1.835,1.835,0,0,1,1.339-.556H60.527a1.9,1.9,0,0,1,1.9,1.9V57.672a1.9,1.9,0,0,1-1.9,1.894Zm-8-16.125A14.472,14.472,0,0,1,23.166,44c2.263.706,4.713,2.289,5.2,4.906h.306l.562-1.461a.894.894,0,0,1,.627-.548,9.509,9.509,0,0,0,2.8-1.162.893.893,0,0,1,.832-.057l1.433.635,1.481-1.481L35.778,43.4a.893.893,0,0,1,.055-.829A9.64,9.64,0,0,0,37,39.767a.893.893,0,0,1,.548-.627l1.461-.562V36.483l-1.461-.562A.893.893,0,0,1,37,35.293a9.532,9.532,0,0,0-1.162-2.808.893.893,0,0,1-.056-.831l.635-1.433-1.481-1.481-1.433.637a.893.893,0,0,1-.832-.056,9.551,9.551,0,0,0-2.8-1.162.893.893,0,0,1-.627-.549l-.562-1.464H26.579l-.565,1.465a.894.894,0,0,1-.627.548,9.551,9.551,0,0,0-2.8,1.162.893.893,0,0,1-.832.056l-1.433-.637-1.48,1.48.637,1.433a.893.893,0,0,1,.076.4,4.216,4.216,0,0,1,1.946.863,3.562,3.562,0,0,1,.671.743,6.689,6.689,0,1,1-.05,7.658,5.646,5.646,0,0,1-1.828,2.119Zm8.18,7.255c.027,1.641.076,5.263.023,7.083H60.527a.109.109,0,0,0,.111-.107V9.987a.111.111,0,0,0-.111-.111H30.3v4.817a1.4,1.4,0,0,1-1.4,1.4H24.085V26.671q.212-.069.426-.129l.621-1.609a.893.893,0,0,1,.834-.572h3.321a.893.893,0,0,1,.834.573l.618,1.608a11.328,11.328,0,0,1,2.454,1.017l1.574-.7a.893.893,0,0,1,.995.185l2.348,2.348a.894.894,0,0,1,.185.994l-.7,1.574a11.305,11.305,0,0,1,1.018,2.459l1.605.618a.894.894,0,0,1,.573.834v3.321a.894.894,0,0,1-.573.834l-1.606.618A11.432,11.432,0,0,1,37.6,43.1l.7,1.575a.893.893,0,0,1-.185.994l-2.348,2.348a.894.894,0,0,1-.994.185l-1.574-.7a11.3,11.3,0,0,1-2.456,1.017l-.618,1.605a.893.893,0,0,1-.834.572Zm-5.507-14.68a9.875,9.875,0,0,1,.066,1.177,10.638,10.638,0,0,1-.125,1.653,4.9,4.9,0,1,0,.059-2.829Zm5.549-24.877L25.349,14.3h3.163ZM17.848,42.415c1.973,0,3.394-2.114,3.394-5.222,0-1.493-.286-2.4-.89-2.9a3.683,3.683,0,0,0-2.413-.584,4.016,4.016,0,0,0-2.523.6c-.636.5-.961,1.4-.961,2.884C14.455,40.3,15.875,42.415,17.848,42.415ZM24.528,61.29a5.59,5.59,0,0,0,.64-.326,3.971,3.971,0,0,0,.981-.9,3.379,3.379,0,0,0,.523-1.648c.141-1.488,0-8.53,0-8.53s0-.012,0-.018c0-2.344-2.179-3.583-4.034-4.161a15.661,15.661,0,0,0-4.652-.587,19.009,19.009,0,0,0-4.95.6,7.543,7.543,0,0,0-2.864,1.439,3.205,3.205,0,0,0-1.23,2.666c0,.028,0,.055,0,.083a81.538,81.538,0,0,0-.016,8.2,4.308,4.308,0,0,0,.663,1.809,4.171,4.171,0,0,0,1.186,1.18,1.926,1.926,0,0,0,.4.228V50.931a.893.893,0,0,1,1.787,0V61.452h9.785V50.931a.893.893,0,1,1,1.787,0ZM47.064,28.273a8.432,8.432,0,1,1,6.547,0v3.164H54.4a1.422,1.422,0,0,1,1.121,2.3h0L51.455,38.9a1.413,1.413,0,0,1-2.235,0l-4.065-5.159a1.422,1.422,0,0,1,1.121-2.3h.789Zm4.753.53a8.512,8.512,0,0,1-2.959,0v3.53a.9.9,0,0,1-.9.9h-.922l3.3,4.186,3.3-4.186h-.922a.9.9,0,0,1-.9-.9ZM50.337,13.856A6.645,6.645,0,1,0,56.982,20.5,6.648,6.648,0,0,0,50.337,13.856ZM49.074,20.5l-2.4-2.4a.893.893,0,0,1,1.264-1.263l2.4,2.4,2.4-2.4A.893.893,0,0,1,54,18.1l-2.4,2.4L54,22.9a.893.893,0,0,1-1.264,1.264l-2.4-2.4-2.4,2.4A.893.893,0,0,1,46.67,22.9Zm1.263,19.307a8.432,8.432,0,1,1-8.432,8.432A8.436,8.436,0,0,1,50.337,39.809Zm0,1.787a6.645,6.645,0,1,0,6.645,6.645A6.648,6.648,0,0,0,50.337,41.6Zm-3.783,7.037a.893.893,0,1,1,1.264-1.264L49.453,49l3.4-3.422a.893.893,0,1,1,1.267,1.26L50.088,50.9a.893.893,0,0,1-1.265,0Z" transform="translate(0)" fill-rule="evenodd"/>
      </g>
    </g>
  </g>
</svg>
