<svg xmlns="http://www.w3.org/2000/svg" xmlns:xlink="http://www.w3.org/1999/xlink" width="108" height="108" viewBox="0 0 108 108">
  <defs>
    <filter id="Path_904820" x="0" y="0" width="108" height="108" filterUnits="userSpaceOnUse">
      <feOffset dy="3" input="SourceAlpha"/>
      <feGaussianBlur stdDeviation="3" result="blur"/>
      <feFlood flood-opacity="0.161"/>
      <feComposite operator="in" in2="blur"/>
      <feComposite in="SourceGraphic"/>
    </filter>
  </defs>
  <g id="Group_1206752" data-name="Group 1206752" transform="translate(-200 -1813.783)">
    <g id="Group_1206512" data-name="Group 1206512">
      <g id="Group_1206135" data-name="Group 1206135" transform="translate(209 1819.783)">
        <g id="Group_1173585" data-name="Group 1173585" transform="translate(0 0)">
          <g id="Group_1173428" data-name="Group 1173428">
            <g id="Group_1171958" data-name="Group 1171958">
              <g id="Group_1167341" data-name="Group 1167341">
                <g id="Group_1166792" data-name="Group 1166792">
                  <g transform="matrix(1, 0, 0, 1, -9, -6)" filter="url(#Path_904820)">
                    <g id="Path_904820-2" data-name="Path 904820" transform="translate(9 6)" fill="#fef9e7">
                      <path d="M 44.99999618530273 88.50002288818359 C 39.12687301635742 88.50002288818359 33.43022155761719 87.35009765625 28.06829643249512 85.08218383789062 C 22.88852119445801 82.89133453369141 18.23629570007324 79.75460815429688 14.24084663391113 75.75916290283203 C 10.24540901184082 71.76371002197266 7.108683586120605 67.11148834228516 4.917821407318115 61.93171310424805 C 2.649921178817749 56.56978607177734 1.499996185302734 50.87313461303711 1.499996185302734 45.0000114440918 C 1.499996185302734 39.12688827514648 2.649921178817749 33.43023681640625 4.917821407318115 28.06829833984375 C 7.108683586120605 22.88852310180664 10.24540901184082 18.2363109588623 14.24084663391113 14.2408618927002 C 18.23629570007324 10.24541187286377 22.88852119445801 7.108686447143555 28.06829643249512 4.917823791503906 C 33.43022155761719 2.649924039840698 39.12687301635742 1.499998927116394 44.99999618530273 1.499998927116394 C 50.87311935424805 1.499998927116394 56.56977081298828 2.649924039840698 61.93169784545898 4.917823791503906 C 67.11147308349609 7.108686447143555 71.76369476318359 10.24541187286377 75.75914764404297 14.2408618927002 C 79.75458526611328 18.2363109588623 82.89131164550781 22.88852310180664 85.08216857910156 28.06829833984375 C 87.35007476806641 33.43023681640625 88.5 39.12688827514648 88.5 45.0000114440918 C 88.5 50.87313461303711 87.35007476806641 56.56978607177734 85.08216857910156 61.93171310424805 C 82.89131164550781 67.11148834228516 79.75458526611328 71.76371002197266 75.75914764404297 75.75916290283203 C 71.76369476318359 79.75460815429688 67.11147308349609 82.89133453369141 61.93169784545898 85.08218383789062 C 56.56977081298828 87.35009765625 50.87311935424805 88.50002288818359 44.99999618530273 88.50002288818359 Z" stroke="none"/>
                      <path d="M 44.99999618530273 3 C 39.32870864868164 3 33.82865142822266 4.110054016113281 28.65262603759766 6.299339294433594 C 23.65165710449219 8.414566040039062 19.15968322753906 11.44333648681641 15.301513671875 15.30152893066406 C 11.44333648681641 19.15969848632812 8.414566040039062 23.65165710449219 6.299339294433594 28.65264129638672 C 4.110054016113281 33.82866668701172 2.999992370605469 39.3287239074707 2.999992370605469 45.0000114440918 C 2.999992370605469 50.67129898071289 4.110054016113281 56.17135620117188 6.299339294433594 61.34738159179688 C 8.414566040039062 66.34836578369141 11.44333648681641 70.84032440185547 15.301513671875 74.69849395751953 C 19.15968322753906 78.55668640136719 23.65165710449219 81.58545684814453 28.65262603759766 83.70068359375 C 33.82865142822266 85.88996887207031 39.32870864868164 87.00002288818359 44.99999618530273 87.00002288818359 C 50.67128372192383 87.00002288818359 56.17134094238281 85.88996887207031 61.34736633300781 83.70068359375 C 66.34834289550781 81.58545684814453 70.84030914306641 78.55668640136719 74.69847869873047 74.69849395751953 C 78.55665588378906 70.84032440185547 81.58542633056641 66.34836578369141 83.70065307617188 61.34738159179688 C 85.88993835449219 56.17135620117188 87 50.67129898071289 87 45.0000114440918 C 87 39.3287239074707 85.88993835449219 33.82866668701172 83.70065307617188 28.65264129638672 C 81.58542633056641 23.65165710449219 78.55665588378906 19.15969848632812 74.69847869873047 15.30152893066406 C 70.84030914306641 11.44333648681641 66.34834289550781 8.414566040039062 61.34736633300781 6.299339294433594 C 56.17134094238281 4.110054016113281 50.67128372192383 3 44.99999618530273 3 M 44.99999618530273 0 C 69.85281372070312 0 90 20.14719390869141 90 45.0000114440918 C 90 69.85282897949219 69.85281372070312 90.00002288818359 44.99999618530273 90.00002288818359 C 20.14717864990234 90.00002288818359 -7.62939453125e-06 69.85282897949219 -7.62939453125e-06 45.0000114440918 C -7.62939453125e-06 20.14719390869141 20.14717864990234 0 44.99999618530273 0 Z" stroke="none" fill="#887013"/>
                    </g>
                  </g>
                </g>
              </g>
            </g>
          </g>
        </g>
      </g>
      <g id="search_4703856" transform="translate(215.283 1831.026)">
        <g id="Group_1206510" data-name="Group 1206510" transform="translate(8.991 8.991)">
          <g id="Group_1206508" data-name="Group 1206508" transform="translate(0 0)">
            <rect id="Rectangle_418449" data-name="Rectangle 418449" width="25.762" height="18.826" rx="2" fill="#ffda44"/>
            <path id="Path_1046127" data-name="Path 1046127" d="M56,56h2.973v2.973H56Z" transform="translate(-51.046 -51.046)" fill="#e0e0e2"/>
          </g>
          <g id="Group_1206509" data-name="Group 1206509" transform="translate(33.689 1.982)">
            <rect id="Rectangle_418450" data-name="Rectangle 418450" width="25.762" height="18.826" rx="3" fill="#ff9811"/>
            <path id="Path_1046128" data-name="Path 1046128" d="M328,72h2.973v2.973H328Z" transform="translate(-323.046 -67.046)" fill="#e0e0e2"/>
          </g>
          <circle id="Ellipse_12652" data-name="Ellipse 12652" cx="14.863" cy="14.863" r="14.863" transform="translate(14.863 22.79)" fill="#e0e0e2"/>
          <circle id="Ellipse_12653" data-name="Ellipse 12653" cx="10.899" cy="10.899" r="10.899" transform="translate(18.826 26.753)" fill="#78b9eb"/>
          <path id="Path_1046129" data-name="Path 1046129" d="M240,440h3.963v2.973H240Z" transform="translate(-212.256 -387.485)" fill="#e0e0e2"/>
          <path id="Path_1046130" data-name="Path 1046130" d="M224,464h7.927v3.963H224Z" transform="translate(-198.238 -408.512)" fill="#3e3d42"/>
        </g>
        <g id="Group_1206511" data-name="Group 1206511" transform="translate(8 8)">
          <path id="Path_1046131" data-name="Path 1046131" d="M48.991,52.954h2.973a.991.991,0,0,0,.991-.991V48.991A.991.991,0,0,0,51.963,48H48.991a.991.991,0,0,0-.991.991v2.973A.991.991,0,0,0,48.991,52.954Zm.991-2.973h.991v.991h-.991Z" transform="translate(-43.046 -43.046)"/>
          <path id="Path_1046132" data-name="Path 1046132" d="M96.991,49.982H106.9a.991.991,0,0,0,0-1.982H96.991a.991.991,0,1,0,0,1.982Z" transform="translate(-85.101 -43.046)"/>
          <path id="Path_1046133" data-name="Path 1046133" d="M96.991,73.982H106.9a.991.991,0,0,0,0-1.982H96.991a.991.991,0,1,0,0,1.982Z" transform="translate(-85.101 -64.073)"/>
          <path id="Path_1046134" data-name="Path 1046134" d="M48.991,97.982H64.844a.991.991,0,0,0,0-1.982H48.991a.991.991,0,0,0,0,1.982Z" transform="translate(-43.046 -85.101)"/>
          <path id="Path_1046135" data-name="Path 1046135" d="M57.908,120.991a.991.991,0,0,0-.991-.991H48.991a.991.991,0,0,0,0,1.982h7.927A.991.991,0,0,0,57.908,120.991Z" transform="translate(-43.046 -106.128)"/>
          <path id="Path_1046136" data-name="Path 1046136" d="M304.276,24H283.468A3.472,3.472,0,0,0,280,27.468V41.34a3.472,3.472,0,0,0,3.468,3.468h20.808a3.472,3.472,0,0,0,3.468-3.468V27.468A3.472,3.472,0,0,0,304.276,24Zm1.486,17.34a1.488,1.488,0,0,1-1.486,1.486H283.468a1.488,1.488,0,0,1-1.486-1.486V27.468a1.488,1.488,0,0,1,1.486-1.486h20.808a1.488,1.488,0,0,1,1.486,1.486Z" transform="translate(-246.311 -22.018)"/>
          <path id="Path_1046137" data-name="Path 1046137" d="M320.991,68.954h2.973a.991.991,0,0,0,.991-.991V64.991a.991.991,0,0,0-.991-.991h-2.973a.991.991,0,0,0-.991.991v2.973A.991.991,0,0,0,320.991,68.954Zm.991-2.973h.991v.991h-.991Z" transform="translate(-281.357 -57.064)"/>
          <path id="Path_1046138" data-name="Path 1046138" d="M378.9,64h-9.909a.991.991,0,0,0,0,1.982H378.9a.991.991,0,0,0,0-1.982Z" transform="translate(-323.412 -57.064)"/>
          <path id="Path_1046139" data-name="Path 1046139" d="M378.9,88h-9.909a.991.991,0,0,0,0,1.982H378.9a.991.991,0,0,0,0-1.982Z" transform="translate(-323.412 -78.092)"/>
          <path id="Path_1046140" data-name="Path 1046140" d="M336.844,112H320.991a.991.991,0,0,0,0,1.982h15.854a.991.991,0,0,0,0-1.982Z" transform="translate(-281.357 -99.119)"/>
          <path id="Path_1046141" data-name="Path 1046141" d="M328.918,136h-7.927a.991.991,0,0,0,0,1.982h7.927a.991.991,0,0,0,0-1.982Z" transform="translate(-281.357 -120.146)"/>
          <path id="Path_1046142" data-name="Path 1046142" d="M22.422,37.892l-5.5-3.669V28.808H32.276a3.472,3.472,0,0,0,3.468-3.468V11.468A3.472,3.472,0,0,0,32.276,8H11.468A3.472,3.472,0,0,0,8,11.468V25.34a3.472,3.472,0,0,0,3.468,3.468h3.468v5.945a.991.991,0,0,0,.441.824l5.945,3.963a.991.991,0,1,0,1.1-1.649ZM9.982,25.34V11.468a1.488,1.488,0,0,1,1.486-1.486H32.276a1.488,1.488,0,0,1,1.486,1.486V25.34a1.488,1.488,0,0,1-1.486,1.486H11.468A1.488,1.488,0,0,1,9.982,25.34Z" transform="translate(-8 -8)"/>
          <path id="Path_1046143" data-name="Path 1046143" d="M167.155,192.628a.991.991,0,0,0-1.36.337l-4.79,7.943h-2.9a15.853,15.853,0,1,0-17.226,22.508v1.272h-.991a.991.991,0,0,0-.991.991v3.963a.991.991,0,0,0,.991.991h7.927a.991.991,0,0,0,.991-.991v-3.963a.991.991,0,0,0-.991-.991h-.991v-1.272a15.854,15.854,0,0,0,12.087-20.527h2.652a.992.992,0,0,0,.848-.479l5.078-8.422A.991.991,0,0,0,167.155,192.628Zm-20.329,36.024h-5.945v-1.982h5.945Zm-3.963-3.963V223.7h1.982v.991Zm.991-2.973a13.872,13.872,0,1,1,12.01-20.808h-2.358a11.842,11.842,0,1,0,1.156,1.982h2.149a13.871,13.871,0,0,1-12.957,18.826Zm3.84-18.826h4.736a9.932,9.932,0,1,1-1.509-1.982h-3.228a.991.991,0,0,0,0,1.982Z" transform="translate(-113.137 -169.2)"/>
        </g>
      </g>
    </g>
  </g>
</svg>
