<svg xmlns="http://www.w3.org/2000/svg" xmlns:xlink="http://www.w3.org/1999/xlink" width="113" height="113" viewBox="0 0 113 113">
  <defs>
    <filter id="Path_982547" x="0" y="0" width="113" height="113" filterUnits="userSpaceOnUse">
      <feOffset dy="3" input="SourceAlpha"/>
      <feGaussianBlur stdDeviation="3" result="blur"/>
      <feFlood flood-opacity="0.161"/>
      <feComposite operator="in" in2="blur"/>
      <feComposite in="SourceGraphic"/>
    </filter>
  </defs>
  <g id="Group_1179262" data-name="Group 1179262" transform="translate(-1424.49 -2361.935)">
    <g id="Group_1179029" data-name="Group 1179029">
      <g id="Group_1178720" data-name="Group 1178720" transform="translate(631 872.5)">
        <g id="Group_1176922" data-name="Group 1176922" transform="translate(802.49 1495.435)">
          <g id="Group_1172322" data-name="Group 1172322" transform="translate(0 0)">
            <g id="Group_1164700" data-name="Group 1164700">
              <g id="Group_1160931" data-name="Group 1160931">
                <g id="Group_1160749" data-name="Group 1160749">
                  <g id="Group_1158891" data-name="Group 1158891">
                    <g id="Group_1157406" data-name="Group 1157406">
                      <g id="Group_1155793" data-name="Group 1155793">
                        <g id="Group_1154704" data-name="Group 1154704">
                          <g id="Group_1150790" data-name="Group 1150790">
                            <g id="Group_1154214" data-name="Group 1154214">
                              <g id="Group_1152583" data-name="Group 1152583">
                                <g id="Group_1146973" data-name="Group 1146973">
                                  <g id="Group_1146954" data-name="Group 1146954">
                                    <g transform="matrix(1, 0, 0, 1, -9, -6)" filter="url(#Path_982547)">
                                      <g id="Path_982547-2" data-name="Path 982547" transform="translate(9 6)" fill="#fbedfe">
                                        <path d="M 47.5000114440918 93.49987030029297 C 41.28938293457031 93.49987030029297 35.26534652709961 92.28384399414062 29.5951976776123 89.88558959960938 C 24.11773109436035 87.56881713867188 19.19814491271973 84.25183868408203 14.97310447692871 80.02680206298828 C 10.74805164337158 75.80176544189453 7.43107795715332 70.88218688964844 5.114304542541504 65.40472412109375 C 2.716038227081299 59.73458862304688 1.500011444091797 53.71054840087891 1.500011444091797 47.49993515014648 C 1.500011444091797 41.28932189941406 2.716038227081299 35.26528167724609 5.114304542541504 29.59514808654785 C 7.43107795715332 24.1176815032959 10.74805164337158 19.1981086730957 14.97310447692871 14.97306823730469 C 19.19814491271973 10.74802875518799 24.11773109436035 7.431055068969727 29.5951976776123 5.11428165435791 C 35.26534652709961 2.716028451919556 41.28938293457031 1.500001788139343 47.5000114440918 1.500001788139343 C 53.71063995361328 1.500001788139343 59.73467636108398 2.716028451919556 65.40482330322266 5.11428165435791 C 70.88229370117188 7.431055068969727 75.8018798828125 10.74802875518799 80.02691650390625 14.97306823730469 C 84.25196838378906 19.1981086730957 87.56894683837891 24.1176815032959 89.88571929931641 29.59514808654785 C 92.28398132324219 35.26528167724609 93.50001525878906 41.28932189941406 93.50001525878906 47.49993515014648 C 93.50001525878906 53.71054840087891 92.28398132324219 59.73458862304688 89.88571929931641 65.40472412109375 C 87.56894683837891 70.88218688964844 84.25196838378906 75.80176544189453 80.02691650390625 80.02680206298828 C 75.8018798828125 84.25183868408203 70.88229370117188 87.56881713867188 65.40482330322266 89.88558959960938 C 59.73467636108398 92.28384399414062 53.71063995361328 93.49987030029297 47.5000114440918 93.49987030029297 Z" stroke="none"/>
                                        <path d="M 47.5000114440918 3 C 41.49122619628906 3 35.66378021240234 4.1761474609375 30.17951965332031 6.495796203613281 C 24.880859375 8.7369384765625 20.12153625488281 11.94596862792969 16.03376770019531 16.03373718261719 C 11.94598388671875 20.12149047851562 8.736968994140625 24.88081359863281 6.495811462402344 30.17947387695312 C 4.176162719726562 35.66371917724609 3.000007629394531 41.49116516113281 3.000007629394531 47.49993515014648 C 3.000007629394531 53.50870513916016 4.176162719726562 59.33615112304688 6.495811462402344 64.82039642333984 C 8.736968994140625 70.11905670166016 11.94598388671875 74.87837982177734 16.03376770019531 78.96613311767578 C 20.12153625488281 83.05390167236328 24.880859375 86.26293182373047 30.17951965332031 88.50407409667969 C 35.66378021240234 90.82372283935547 41.49122619628906 91.99987030029297 47.5000114440918 91.99987030029297 C 53.50879669189453 91.99987030029297 59.33624267578125 90.82372283935547 64.82050323486328 88.50407409667969 C 70.11916351318359 86.26293182373047 74.87848663330078 83.05390167236328 78.96625518798828 78.96613311767578 C 83.05403900146484 74.87837982177734 86.2630615234375 70.11905670166016 88.50421142578125 64.82039642333984 C 90.82386016845703 59.33615112304688 92.00001525878906 53.50870513916016 92.00001525878906 47.49993515014648 C 92.00001525878906 41.49116516113281 90.82386016845703 35.66371917724609 88.50421142578125 30.17947387695312 C 86.2630615234375 24.88081359863281 83.05403900146484 20.12149047851562 78.96625518798828 16.03373718261719 C 74.87848663330078 11.94596862792969 70.11916351318359 8.7369384765625 64.82050323486328 6.495796203613281 C 59.33624267578125 4.1761474609375 53.50879669189453 3 47.5000114440918 3 M 47.5000114440918 0 C 73.73353576660156 0 95.00001525878906 21.26644134521484 95.00001525878906 47.49993515014648 C 95.00001525878906 73.73342895507812 73.73353576660156 94.99987030029297 47.5000114440918 94.99987030029297 C 21.26648712158203 94.99987030029297 7.62939453125e-06 73.73342895507812 7.62939453125e-06 47.49993515014648 C 7.62939453125e-06 21.26644134521484 21.26648712158203 0 47.5000114440918 0 Z" stroke="none" fill="#7b3289"/>
                                      </g>
                                    </g>
                                  </g>
                                </g>
                              </g>
                            </g>
                          </g>
                        </g>
                      </g>
                    </g>
                  </g>
                </g>
              </g>
            </g>
          </g>
        </g>
      </g>
      <g id="report_5329513_1_" data-name="report_5329513 (1)" transform="translate(1451.487 2373.234)">
        <g id="Group_1179028" data-name="Group 1179028" transform="translate(0.92 15.271)">
          <g id="Group_1179025" data-name="Group 1179025" transform="translate(0 1.865)">
            <path id="Path_1041010" data-name="Path 1041010" d="M178.055,365.923h17.967v9.561H178.055Z" transform="translate(-158.455 -328.189)" fill="#d1d1d6" fill-rule="evenodd"/>
            <path id="Path_1041011" data-name="Path 1041011" d="M256,365.923h8.983v9.561H256Z" transform="translate(-227.414 -328.189)" fill="#b1b1b5" fill-rule="evenodd"/>
            <path id="Path_1041012" data-name="Path 1041012" d="M12.392,38.527H60.769a4.408,4.408,0,0,1,4.395,4.395V73.156a4.408,4.408,0,0,1-4.395,4.395H12.392A4.408,4.408,0,0,1,8,73.156V42.922A4.408,4.408,0,0,1,12.392,38.527Z" transform="translate(-7.997 -38.527)" fill="#eceff1" fill-rule="evenodd"/>
            <path id="Path_1041013" data-name="Path 1041013" d="M256,38.527h24.189a4.408,4.408,0,0,1,4.395,4.395V73.156a4.408,4.408,0,0,1-4.395,4.395H256Z" transform="translate(-227.414 -38.527)" fill="#d1d1d6" fill-rule="evenodd"/>
            <path id="Path_1041014" data-name="Path 1041014" d="M40.492,70.413h48.6a.611.611,0,0,1,.609.609V98.359H39.883V71.022A.611.611,0,0,1,40.492,70.413Z" transform="translate(-36.208 -66.738)" fill="#837683" fill-rule="evenodd"/>
            <path id="Path_1041015" data-name="Path 1041015" d="M256,70.413h24.3a.611.611,0,0,1,.609.609V98.359H256Z" transform="translate(-227.414 -66.738)" fill="#685e68" fill-rule="evenodd"/>
            <path id="Path_1041016" data-name="Path 1041016" d="M88.65,443.678h36.536a1.155,1.155,0,0,0,1.153-1.153v-1.842c0-1.647-1.687-2.994-3.748-2.994H91.245c-2.061,0-3.748,1.347-3.748,2.994v1.842A1.155,1.155,0,0,0,88.65,443.678Z" transform="translate(-78.334 -391.683)" fill="#eceff1" fill-rule="evenodd"/>
            <path id="Path_1041017" data-name="Path 1041017" d="M256,443.678h18.268a1.155,1.155,0,0,0,1.153-1.153v-1.842c0-1.647-1.687-2.994-3.748-2.994H256Z" transform="translate(-227.414 -391.683)" fill="#d1d1d6" fill-rule="evenodd"/>
          </g>
          <g id="Group_1179026" data-name="Group 1179026" transform="translate(11.178 0)">
            <path id="Path_1041018" data-name="Path 1041018" d="M106.132,188.1h2.993a1.155,1.155,0,0,1,1.153,1.153v7.124a1.155,1.155,0,0,1-1.153,1.153h-2.993a1.155,1.155,0,0,1-1.153-1.153v-7.124A1.155,1.155,0,0,1,106.132,188.1Z" transform="translate(-104.979 -168.995)" fill="#fe646f" fill-rule="evenodd"/>
            <path id="Path_1041019" data-name="Path 1041019" d="M127.964,188.1h1.5a1.155,1.155,0,0,1,1.153,1.153v7.124a1.155,1.155,0,0,1-1.153,1.153h-1.5Z" transform="translate(-125.315 -168.995)" fill="#fd4755" fill-rule="evenodd"/>
            <path id="Path_1041020" data-name="Path 1041020" d="M191.488,104.163h2.993a1.155,1.155,0,0,1,1.153,1.153v16.8a1.155,1.155,0,0,1-1.153,1.153h-2.993a1.155,1.155,0,0,1-1.153-1.153v-16.8A1.155,1.155,0,0,1,191.488,104.163Z" transform="translate(-180.497 -94.733)" fill="#ffe177" fill-rule="evenodd"/>
            <path id="Path_1041021" data-name="Path 1041021" d="M213.32,104.163h1.5a1.155,1.155,0,0,1,1.153,1.153v16.8a1.155,1.155,0,0,1-1.153,1.153h-1.5Z" transform="translate(-200.833 -94.733)" fill="#ffd064" fill-rule="evenodd"/>
            <path id="Path_1041022" data-name="Path 1041022" d="M276.845,135.513h2.993a1.155,1.155,0,0,1,1.153,1.153V149.85A1.155,1.155,0,0,1,279.838,151h-2.993a1.155,1.155,0,0,1-1.153-1.153V136.666A1.155,1.155,0,0,1,276.845,135.513Z" transform="translate(-256.016 -122.47)" fill="#6cf5c2" fill-rule="evenodd"/>
            <path id="Path_1041023" data-name="Path 1041023" d="M298.676,135.513h1.5a1.155,1.155,0,0,1,1.153,1.153V149.85A1.155,1.155,0,0,1,300.173,151h-1.5Z" transform="translate(-276.351 -122.47)" fill="#00e499" fill-rule="evenodd"/>
            <path id="Path_1041024" data-name="Path 1041024" d="M362.2,22.349h2.993a1.155,1.155,0,0,1,1.153,1.153V49.729a1.155,1.155,0,0,1-1.153,1.153H362.2a1.155,1.155,0,0,1-1.153-1.153V23.5a1.155,1.155,0,0,1,1.153-1.152Z" transform="translate(-331.534 -22.349)" fill="#8ac9fe" fill-rule="evenodd"/>
            <path id="Path_1041025" data-name="Path 1041025" d="M384.031,22.349h1.5A1.155,1.155,0,0,1,386.68,23.5V49.729a1.155,1.155,0,0,1-1.153,1.153h-1.5Z" transform="translate(-351.869 -22.349)" fill="#60b7ff" fill-rule="evenodd"/>
          </g>
          <g id="Group_1179027" data-name="Group 1179027" transform="translate(32.554 19.914)">
            <path id="Path_1041026" data-name="Path 1041026" d="M301.8,196.766a8.224,8.224,0,0,1,3,1.244l1.6-.711,1.377,1.377-.71,1.6a8.222,8.222,0,0,1,1.244,3l1.632.628v1.948l-1.633.628a8.224,8.224,0,0,1-1.244,3l.711,1.6-1.377,1.377-1.6-.71a8.22,8.22,0,0,1-3,1.244l-.628,1.632h-1.948l-.628-1.633a8.224,8.224,0,0,1-3-1.244l-1.6.711-1.377-1.377.71-1.6a8.223,8.223,0,0,1-1.244-3l-1.632-.628v-1.948l1.633-.628a8.22,8.22,0,0,1,1.244-3l-.711-1.6,1.377-1.377,1.6.711a8.223,8.223,0,0,1,3-1.244l.628-1.633h1.948Zm-1.6,3.811a4.3,4.3,0,1,0,4.3,4.3A4.3,4.3,0,0,0,300.2,200.576Z" transform="translate(-290.449 -195.133)" fill="#ffe177" fill-rule="evenodd"/>
            <path id="Path_1041027" data-name="Path 1041027" d="M376.613,196.765a8.225,8.225,0,0,1,3,1.244l1.6-.711,1.377,1.377-.71,1.6a8.221,8.221,0,0,1,1.244,3l1.632.628v1.948l-1.633.628a8.225,8.225,0,0,1-1.244,3l.711,1.6-1.377,1.377-1.6-.71a8.22,8.22,0,0,1-3,1.244l-.628,1.632h-.974v-5.443a4.3,4.3,0,0,0,0-8.606v-5.443h.974Z" transform="translate(-365.265 -195.132)" fill="#ffd064" fill-rule="evenodd"/>
          </g>
        </g>
        <path id="Path_1041028" data-name="Path 1041028" d="M44.953,47.834H41.49a3.376,3.376,0,0,1-.8-5.14V43.8a.923.923,0,0,0,.922.922h4.984c0,.068.007.136.007.207a3.384,3.384,0,0,1-1.649,2.9Zm.954-4.953a3.38,3.38,0,0,0-3.374-1.261v1.261Zm-2.686-3.175a5.225,5.225,0,1,0,5.224,5.226,5.232,5.232,0,0,0-5.224-5.226ZM22.858,25.622h3.454v17.26H22.858Zm-.922,19.1h5.3a.922.922,0,0,0,.922-.922V24.7a.923.923,0,0,0-.922-.922h-5.3a.923.923,0,0,0-.922.922V43.8A.922.922,0,0,0,21.936,44.726ZM13.021,35.3h3.454v7.585H13.021ZM12.1,44.726h5.3a.923.923,0,0,0,.922-.922V34.375a.923.923,0,0,0-.922-.922H12.1a.922.922,0,0,0-.922.922V43.8a.922.922,0,0,0,.922.922Zm45.066,7.039V21.531a3.475,3.475,0,0,0-3.472-3.473H47.831v1.83H53.8a1.533,1.533,0,0,1,1.532,1.532V48.756a.922.922,0,0,1-.922.922H51.164l.481,1.082a.923.923,0,0,1-.191,1.026l-1.377,1.377a.922.922,0,0,1-1.026.191L47.9,52.844a9.079,9.079,0,0,1-2.392.991l-.452,1.173a.963.963,0,0,1-.128.228h8.765a3.476,3.476,0,0,0,3.472-3.472ZM37.566,62.22H21.443V57.081H37.566ZM48,66.136v2.072h-37V66.136c0-1.124,1.294-2.073,2.826-2.073H45.177C46.709,64.064,48,65.012,48,66.136ZM1.842,51.765a3.477,3.477,0,0,0,3.472,3.473h36.2a.934.934,0,0,1-.129-.228l-.452-1.173a9.1,9.1,0,0,1-2.392-.992l-1.151.512a.922.922,0,0,1-1.026-.191l-1.377-1.377a.92.92,0,0,1-.19-1.026l.481-1.082H4.6a.922.922,0,0,1-.922-.922V21.42a1.533,1.533,0,0,1,1.532-1.532H40.689v-1.83H5.315a3.476,3.476,0,0,0-3.472,3.473ZM45.988,16.193V36.166c-.159-.049-.318-.1-.481-.138l-.452-1.173a.921.921,0,0,0-.86-.591H42.533V16.193Zm7.5,27.008a.965.965,0,0,0-.192-.1l-1.172-.452a9.072,9.072,0,0,0-.992-2.393l.511-1.15a.923.923,0,0,0-.191-1.026L50.075,36.7a.922.922,0,0,0-1.026-.191L47.9,37.02l-.068-.039V21.732h5.659V43.2Zm-1.366,4.017,1.173-.452a.947.947,0,0,0,.192-.1v1.172H51.944q.1-.3.181-.617ZM34.8,39.1l.511,1.15a9.11,9.11,0,0,0-.992,2.393l-.613.236H32.7V29.236h3.454v7.68l-1.162,1.162A.921.921,0,0,0,34.8,39.1Zm5.891-3.008V21.732H5.518v26.1H34.5c-.068-.2-.128-.409-.181-.617l-1.173-.452a.922.922,0,0,1-.592-.86v-1.18h-.778a.922.922,0,0,1-.922-.922V28.314a.923.923,0,0,1,.922-.922h5.3a.923.923,0,0,1,.922.922v8.462l.548.244A9.151,9.151,0,0,1,40.689,36.094Zm8.559,13.815a.923.923,0,0,1,.077-.889,7.26,7.26,0,0,0,1.1-2.664A.923.923,0,0,1,51,45.673l1.042-.4v-.681L51,44.19a.924.924,0,0,1-.573-.682,7.266,7.266,0,0,0-1.105-2.665.924.924,0,0,1-.077-.889l.454-1.021-.483-.482L48.2,38.9a.92.92,0,0,1-.889-.077,7.262,7.262,0,0,0-2.664-1.1.922.922,0,0,1-.683-.574l-.4-1.042H42.88l-.4,1.042a.923.923,0,0,1-.682.574,7.278,7.278,0,0,0-2.665,1.1.919.919,0,0,1-.889.077l-1.021-.453-.482.482.453,1.021a.919.919,0,0,1-.077.889,7.269,7.269,0,0,0-1.1,2.664.923.923,0,0,1-.574.683l-1.042.4v.681l1.042.4a.923.923,0,0,1,.574.684,7.278,7.278,0,0,0,1.1,2.664.917.917,0,0,1,.077.887L36.74,50.93l.482.482,1.021-.453a.919.919,0,0,1,.889.077,7.276,7.276,0,0,0,2.665,1.1.923.923,0,0,1,.682.574l.4,1.042h.681l.4-1.042a.922.922,0,0,1,.683-.574,7.269,7.269,0,0,0,2.665-1.1.921.921,0,0,1,.887-.077l1.021.453.483-.482Zm4.445-33.695H47.831v-.943a.922.922,0,0,0-.922-.922h-5.3a.923.923,0,0,0-.922.922v.943H5.315A5.323,5.323,0,0,0,0,21.531V51.765a5.324,5.324,0,0,0,5.317,5.317H19.6v5.138H13.831c-2.575,0-4.67,1.757-4.67,3.917V69.13a.922.922,0,0,0,.922.922H48.924a.922.922,0,0,0,.922-.922V66.136c0-2.16-2.095-3.917-4.669-3.917H39.41V57.081H53.692a5.323,5.323,0,0,0,5.316-5.317V21.531A5.322,5.322,0,0,0,53.693,16.214Z" transform="translate(0 0)" fill-rule="evenodd"/>
      </g>
    </g>
  </g>
</svg>
