<svg xmlns="http://www.w3.org/2000/svg" xmlns:xlink="http://www.w3.org/1999/xlink" width="113" height="113" viewBox="0 0 113 113">
  <defs>
    <filter id="Path_982547" x="0" y="0" width="113" height="113" filterUnits="userSpaceOnUse">
      <feOffset dy="3" input="SourceAlpha"/>
      <feGaussianBlur stdDeviation="3" result="blur"/>
      <feFlood flood-opacity="0.161"/>
      <feComposite operator="in" in2="blur"/>
      <feComposite in="SourceGraphic"/>
    </filter>
  </defs>
  <g id="Group_1179261" data-name="Group 1179261" transform="translate(-1109.49 -2375.809)">
    <g id="Group_1179016" data-name="Group 1179016">
      <g id="Group_1178714" data-name="Group 1178714" transform="translate(316 886.374)">
        <g id="Group_1176922" data-name="Group 1176922" transform="translate(802.49 1495.435)">
          <g id="Group_1172322" data-name="Group 1172322" transform="translate(0 0)">
            <g id="Group_1164700" data-name="Group 1164700">
              <g id="Group_1160931" data-name="Group 1160931">
                <g id="Group_1160749" data-name="Group 1160749">
                  <g id="Group_1158891" data-name="Group 1158891">
                    <g id="Group_1157406" data-name="Group 1157406">
                      <g id="Group_1155793" data-name="Group 1155793">
                        <g id="Group_1154704" data-name="Group 1154704">
                          <g id="Group_1150790" data-name="Group 1150790">
                            <g id="Group_1154214" data-name="Group 1154214">
                              <g id="Group_1152583" data-name="Group 1152583">
                                <g id="Group_1146973" data-name="Group 1146973">
                                  <g id="Group_1146954" data-name="Group 1146954">
                                    <g transform="matrix(1, 0, 0, 1, -9, -6)" filter="url(#Path_982547)">
                                      <g id="Path_982547-2" data-name="Path 982547" transform="translate(9 6)" fill="#fbedfe">
                                        <path d="M 47.5000114440918 93.49987030029297 C 41.28938293457031 93.49987030029297 35.26534652709961 92.28384399414062 29.5951976776123 89.88558959960938 C 24.11773109436035 87.56881713867188 19.19814491271973 84.25183868408203 14.97310447692871 80.02680206298828 C 10.74805164337158 75.80176544189453 7.43107795715332 70.88218688964844 5.114304542541504 65.40472412109375 C 2.716038227081299 59.73458862304688 1.500011444091797 53.71054840087891 1.500011444091797 47.49993515014648 C 1.500011444091797 41.28932189941406 2.716038227081299 35.26528167724609 5.114304542541504 29.59514808654785 C 7.43107795715332 24.1176815032959 10.74805164337158 19.1981086730957 14.97310447692871 14.97306823730469 C 19.19814491271973 10.74802875518799 24.11773109436035 7.431055068969727 29.5951976776123 5.11428165435791 C 35.26534652709961 2.716028451919556 41.28938293457031 1.500001788139343 47.5000114440918 1.500001788139343 C 53.71063995361328 1.500001788139343 59.73467636108398 2.716028451919556 65.40482330322266 5.11428165435791 C 70.88229370117188 7.431055068969727 75.8018798828125 10.74802875518799 80.02691650390625 14.97306823730469 C 84.25196838378906 19.1981086730957 87.56894683837891 24.1176815032959 89.88571929931641 29.59514808654785 C 92.28398132324219 35.26528167724609 93.50001525878906 41.28932189941406 93.50001525878906 47.49993515014648 C 93.50001525878906 53.71054840087891 92.28398132324219 59.73458862304688 89.88571929931641 65.40472412109375 C 87.56894683837891 70.88218688964844 84.25196838378906 75.80176544189453 80.02691650390625 80.02680206298828 C 75.8018798828125 84.25183868408203 70.88229370117188 87.56881713867188 65.40482330322266 89.88558959960938 C 59.73467636108398 92.28384399414062 53.71063995361328 93.49987030029297 47.5000114440918 93.49987030029297 Z" stroke="none"/>
                                        <path d="M 47.5000114440918 3 C 41.49122619628906 3 35.66378021240234 4.1761474609375 30.17951965332031 6.495796203613281 C 24.880859375 8.7369384765625 20.12153625488281 11.94596862792969 16.03376770019531 16.03373718261719 C 11.94598388671875 20.12149047851562 8.736968994140625 24.88081359863281 6.495811462402344 30.17947387695312 C 4.176162719726562 35.66371917724609 3.000007629394531 41.49116516113281 3.000007629394531 47.49993515014648 C 3.000007629394531 53.50870513916016 4.176162719726562 59.33615112304688 6.495811462402344 64.82039642333984 C 8.736968994140625 70.11905670166016 11.94598388671875 74.87837982177734 16.03376770019531 78.96613311767578 C 20.12153625488281 83.05390167236328 24.880859375 86.26293182373047 30.17951965332031 88.50407409667969 C 35.66378021240234 90.82372283935547 41.49122619628906 91.99987030029297 47.5000114440918 91.99987030029297 C 53.50879669189453 91.99987030029297 59.33624267578125 90.82372283935547 64.82050323486328 88.50407409667969 C 70.11916351318359 86.26293182373047 74.87848663330078 83.05390167236328 78.96625518798828 78.96613311767578 C 83.05403900146484 74.87837982177734 86.2630615234375 70.11905670166016 88.50421142578125 64.82039642333984 C 90.82386016845703 59.33615112304688 92.00001525878906 53.50870513916016 92.00001525878906 47.49993515014648 C 92.00001525878906 41.49116516113281 90.82386016845703 35.66371917724609 88.50421142578125 30.17947387695312 C 86.2630615234375 24.88081359863281 83.05403900146484 20.12149047851562 78.96625518798828 16.03373718261719 C 74.87848663330078 11.94596862792969 70.11916351318359 8.7369384765625 64.82050323486328 6.495796203613281 C 59.33624267578125 4.1761474609375 53.50879669189453 3 47.5000114440918 3 M 47.5000114440918 0 C 73.73353576660156 0 95.00001525878906 21.26644134521484 95.00001525878906 47.49993515014648 C 95.00001525878906 73.73342895507812 73.73353576660156 94.99987030029297 47.5000114440918 94.99987030029297 C 21.26648712158203 94.99987030029297 7.62939453125e-06 73.73342895507812 7.62939453125e-06 47.49993515014648 C 7.62939453125e-06 21.26644134521484 21.26648712158203 0 47.5000114440918 0 Z" stroke="none" fill="#7b3289"/>
                                      </g>
                                    </g>
                                  </g>
                                </g>
                              </g>
                            </g>
                          </g>
                        </g>
                      </g>
                    </g>
                  </g>
                </g>
              </g>
            </g>
          </g>
        </g>
      </g>
      <g id="data-quality_5865913" transform="translate(1136.876 2401.108)">
        <g id="Group_1179023" data-name="Group 1179023" transform="translate(0.939 0.939)">
          <g id="Group_1179017" data-name="Group 1179017" transform="translate(0 37.566)">
            <path id="Path_1040965" data-name="Path 1040965" d="M43.61,332.98l-2.74,10.047H9.878A1.878,1.878,0,0,1,8,341.148V328H42.515a10.219,10.219,0,0,0,.708,1.46l-1.044,2.088Z" transform="translate(-8 -328)" fill="#ef7385"/>
          </g>
          <g id="Group_1179018" data-name="Group 1179018" transform="translate(0 30.053)">
            <path id="Path_1040966" data-name="Path 1040966" d="M42.515,271.513H8v-5.635A1.878,1.878,0,0,1,9.878,264H24.127a1.879,1.879,0,0,1,1.329.551l3.206,3.206h11.27v1.878l2.213.737A10.04,10.04,0,0,0,42.515,271.513Z" transform="translate(-8 -264)" fill="#ed5565"/>
          </g>
          <g id="Group_1179019" data-name="Group 1179019" transform="translate(14.087)">
            <path id="Path_1040967" data-name="Path 1040967" d="M156.175,9.878V29.6l-.737,2.213a10.237,10.237,0,0,0-2.6,1.079l-2.088-1.044L148.092,34.5l1.044,2.088a10.236,10.236,0,0,0-1.079,2.6l-2.213.737V41.81h-11.27L131.368,38.6a1.879,1.879,0,0,0-1.329-.551H128V9.878A1.878,1.878,0,0,1,129.878,8H154.3A1.878,1.878,0,0,1,156.175,9.878Z" transform="translate(-128 -8)" fill="#e6e9ed"/>
          </g>
          <g id="Group_1179020" data-name="Group 1179020" transform="translate(46.019 42.546)">
            <path id="Path_1040968" data-name="Path 1040968" d="M405.635,379.527l-2.817,3.757L400,373.893l.737-2.213a10.237,10.237,0,0,0,2.6-1.079l2.088,1.044,1.224-1.224,2.74,10.047Z" transform="translate(-400 -370.42)" fill="#b4dd7f"/>
          </g>
          <g id="Group_1179021" data-name="Group 1179021" transform="translate(32.87 42.546)">
            <path id="Path_1040969" data-name="Path 1040969" d="M291.757,379.527l-3.757.939,2.74-10.047,1.224,1.224,2.088-1.044a10.235,10.235,0,0,0,2.6,1.079l.737,2.213-2.817,9.392Z" transform="translate(-288 -370.42)" fill="#b4dd7f"/>
          </g>
          <g id="Group_1179022" data-name="Group 1179022" transform="translate(31.931 21.601)">
            <path id="Path_1040970" data-name="Path 1040970" d="M282.584,207.966a10.043,10.043,0,0,1-.371-1.141L280,206.087v-3.757l2.213-.737a10.237,10.237,0,0,1,1.079-2.6l-1.044-2.088,2.655-2.655,2.088,1.044a10.236,10.236,0,0,1,2.6-1.079l.737-2.213h3.757l.737,2.213a10.237,10.237,0,0,1,2.6,1.079l2.088-1.044,2.655,2.655-1.044,2.088a10.237,10.237,0,0,1,1.079,2.6l2.213.737v3.757l-2.213.737a10.237,10.237,0,0,1-1.079,2.6l1.044,2.088-1.431,1.431-1.224,1.224-2.088-1.044a10.238,10.238,0,0,1-2.6,1.079l-.737,2.213h-3.757l-.737-2.213a10.236,10.236,0,0,1-2.6-1.079L284.9,214.17l-1.224-1.224-1.431-1.431,1.044-2.088A10.219,10.219,0,0,1,282.584,207.966Z" transform="translate(-280 -192)" fill="#fcd770"/>
          </g>
        </g>
        <g id="Group_1179024" data-name="Group 1179024">
          <path id="Path_1040971" data-name="Path 1040971" d="M55.059,29.508l1.125-2.25L52.57,23.645,50.32,24.77a11.2,11.2,0,0,0-1.89-.784l-.8-2.385H44.14V2.817A2.821,2.821,0,0,0,41.323,0H16.9a2.821,2.821,0,0,0-2.817,2.817V30.053H2.817A2.821,2.821,0,0,0,0,32.87V51.654a2.821,2.821,0,0,0,2.817,2.817H33.925l3.264-.816,3.56,4.746L43.9,47.9h2.359L49.41,58.4l3.56-4.746,4.708,1.177L54.659,43.764l1.525-1.525-1.125-2.25a11.2,11.2,0,0,0,.784-1.89l2.385-.795v-5.11l-2.385-.8a11.2,11.2,0,0,0-.784-1.89ZM16.9,1.878H41.323a.94.94,0,0,1,.939.939V11.27h-26.3V2.817A.94.94,0,0,1,16.9,1.878Zm-.939,22.54H34.749V22.54H15.966V13.148h26.3v9.239l-.533,1.6a11.206,11.206,0,0,0-1.89.784l-2.25-1.125-3.614,3.614,1.125,2.25a11.2,11.2,0,0,0-.784,1.89l-2.385.795V33.81H21.99l-2.931-2.931a2.8,2.8,0,0,0-1.992-.825h-1.1ZM1.878,51.654V39.445H30.053V37.566H1.878v-4.7a.94.94,0,0,1,.939-.939H17.066a.932.932,0,0,1,.664.275l3.482,3.481h10.72V37.3l2.385.8a11.207,11.207,0,0,0,.784,1.89l-1.125,2.25L35.5,43.764l-2.408,8.829H2.817A.94.94,0,0,1,1.878,51.654ZM40.019,54.3l-1.406-1.875,1.723-5.168-1.782-.594-1.715,5.146-1.7.425,1.892-6.938.559.559,2.25-1.125a11.2,11.2,0,0,0,1.89.784l.487,1.461Zm15-2.066-1.7-.425-1.715-5.146-1.782.594,1.723,5.168L50.14,54.3l-2.2-7.325.487-1.461a11.206,11.206,0,0,0,1.89-.784l2.25,1.125.559-.559ZM56.349,35.95l-2.054.685-.129.493a9.333,9.333,0,0,1-.98,2.364l-.258.439.969,1.938-1.7,1.7L50.261,42.6l-.439.258a9.337,9.337,0,0,1-2.364.98l-.493.129-.685,2.054h-2.4l-.685-2.054-.493-.129a9.333,9.333,0,0,1-2.364-.98L39.9,42.6l-1.938.969-1.7-1.7.969-1.938-.258-.439a9.337,9.337,0,0,1-.98-2.364l-.129-.493L33.81,35.95v-2.4l2.054-.685.129-.493a9.333,9.333,0,0,1,.98-2.364l.258-.439-.969-1.938,1.7-1.7L39.9,26.9l.439-.258a9.337,9.337,0,0,1,2.364-.98l.493-.129.685-2.053h2.4l.685,2.054.493.129a9.333,9.333,0,0,1,2.364.98l.439.258L52.2,25.93l1.7,1.7-.969,1.938.258.439a9.337,9.337,0,0,1,.98,2.364l.129.493,2.053.685Z"/>
          <path id="Path_1040972" data-name="Path 1040972" d="M332.885,259.071l-1.214-1.214-1.328,1.328,2.542,2.542,10.056-10.056-1.328-1.328Z" transform="translate(-291.563 -220.954)"/>
          <path id="Path_1040973" data-name="Path 1040973" d="M128,288h1.878v1.878H128Z" transform="translate(-112.973 -254.19)"/>
          <path id="Path_1040974" data-name="Path 1040974" d="M64,288h1.878v1.878H64Z" transform="translate(-56.487 -254.19)"/>
          <path id="Path_1040975" data-name="Path 1040975" d="M96,288h1.878v1.878H96Z" transform="translate(-84.73 -254.19)"/>
          <path id="Path_1040976" data-name="Path 1040976" d="M32,288h1.878v1.878H32Z" transform="translate(-28.243 -254.19)"/>
          <path id="Path_1040977" data-name="Path 1040977" d="M152,32h1.878v1.878H152Z" transform="translate(-134.156 -28.243)"/>
          <path id="Path_1040978" data-name="Path 1040978" d="M152,64h1.878v1.878H152Z" transform="translate(-134.156 -56.487)"/>
          <path id="Path_1040979" data-name="Path 1040979" d="M184,32h1.878v1.878H184Z" transform="translate(-162.399 -28.243)"/>
          <path id="Path_1040980" data-name="Path 1040980" d="M184,64h1.878v1.878H184Z" transform="translate(-162.399 -56.487)"/>
          <path id="Path_1040981" data-name="Path 1040981" d="M152,224h1.878v1.878H152Z" transform="translate(-134.156 -197.704)"/>
          <path id="Path_1040982" data-name="Path 1040982" d="M184,224h1.878v1.878H184Z" transform="translate(-162.399 -197.704)"/>
          <path id="Path_1040983" data-name="Path 1040983" d="M184,256h1.878v1.878H184Z" transform="translate(-162.399 -225.947)"/>
          <path id="Path_1040984" data-name="Path 1040984" d="M328,128h1.878v1.878H328Z" transform="translate(-289.495 -112.973)"/>
          <path id="Path_1040985" data-name="Path 1040985" d="M328,160h1.878v1.878H328Z" transform="translate(-289.495 -141.217)"/>
          <path id="Path_1040986" data-name="Path 1040986" d="M296,128h1.878v1.878H296Z" transform="translate(-261.251 -112.973)"/>
          <path id="Path_1040987" data-name="Path 1040987" d="M296,160h1.878v1.878H296Z" transform="translate(-261.251 -141.217)"/>
          <path id="Path_1040988" data-name="Path 1040988" d="M32,384h9.392v1.878H32Z" transform="translate(-28.243 -338.92)"/>
          <path id="Path_1040989" data-name="Path 1040989" d="M32,416h7.513v1.878H32Z" transform="translate(-28.243 -367.164)"/>
          <path id="Path_1040990" data-name="Path 1040990" d="M392,56h8.452v1.878H392Z" transform="translate(-345.981 -49.426)"/>
          <path id="Path_1040991" data-name="Path 1040991" d="M480,56h1.878v1.878H480Z" transform="translate(-423.651 -49.426)"/>
          <path id="Path_1040992" data-name="Path 1040992" d="M392,88h6.574v1.878H392Z" transform="translate(-345.981 -77.669)"/>
          <path id="Path_1040993" data-name="Path 1040993" d="M464,88h1.878v1.878H464Z" transform="translate(-409.529 -77.669)"/>
          <path id="Path_1040994" data-name="Path 1040994" d="M392,24h6.574v1.878H392Z" transform="translate(-345.981 -21.183)"/>
          <path id="Path_1040995" data-name="Path 1040995" d="M464,24h1.878v1.878H464Z" transform="translate(-409.529 -21.183)"/>
          <path id="Path_1040996" data-name="Path 1040996" d="M392,120h8.452v1.878H392Z" transform="translate(-345.981 -105.913)"/>
          <path id="Path_1040997" data-name="Path 1040997" d="M480,120h1.878v1.878H480Z" transform="translate(-423.651 -105.913)"/>
          <path id="Path_1040998" data-name="Path 1040998" d="M392,152h6.574v1.878H392Z" transform="translate(-345.981 -134.156)"/>
          <path id="Path_1040999" data-name="Path 1040999" d="M464,152h1.878v1.878H464Z" transform="translate(-409.529 -134.156)"/>
          <path id="Path_1041000" data-name="Path 1041000" d="M32,56h8.452v1.878H32Z" transform="translate(-28.243 -49.426)"/>
          <path id="Path_1041001" data-name="Path 1041001" d="M0,56H1.878v1.878H0Z" transform="translate(0 -49.426)"/>
          <path id="Path_1041002" data-name="Path 1041002" d="M48,88h6.574v1.878H48Z" transform="translate(-42.365 -77.669)"/>
          <path id="Path_1041003" data-name="Path 1041003" d="M16,88h1.878v1.878H16Z" transform="translate(-14.122 -77.669)"/>
          <path id="Path_1041004" data-name="Path 1041004" d="M48,24h6.574v1.878H48Z" transform="translate(-42.365 -21.183)"/>
          <path id="Path_1041005" data-name="Path 1041005" d="M16,24h1.878v1.878H16Z" transform="translate(-14.122 -21.183)"/>
          <path id="Path_1041006" data-name="Path 1041006" d="M32,120h8.452v1.878H32Z" transform="translate(-28.243 -105.913)"/>
          <path id="Path_1041007" data-name="Path 1041007" d="M0,120H1.878v1.878H0Z" transform="translate(0 -105.913)"/>
          <path id="Path_1041008" data-name="Path 1041008" d="M48,152h6.574v1.878H48Z" transform="translate(-42.365 -134.156)"/>
          <path id="Path_1041009" data-name="Path 1041009" d="M16,152h1.878v1.878H16Z" transform="translate(-14.122 -134.156)"/>
        </g>
      </g>
    </g>
  </g>
</svg>
