<svg xmlns="http://www.w3.org/2000/svg" width="37.559" height="36.307" viewBox="0 0 37.559 36.307">
  <g id="Group_1179310" data-name="Group 1179310" transform="translate(-298.373 -5658.186)">
    <path id="planning_12197402" d="M37.271,35.779a.468.468,0,0,1-.468.468H28.022a.468.468,0,1,1,0-.935H36.8A.468.468,0,0,1,37.271,35.779Zm-14.41,4.385a3.2,3.2,0,0,0,3.192-3.192c0-.063,0-.126-.005-.188a.468.468,0,0,0-.933.055c0,.044,0,.088,0,.132a2.257,2.257,0,1,1-2.257-2.257,2.227,2.227,0,0,1,1.044.256.468.468,0,1,0,.434-.828,3.192,3.192,0,1,0-1.478,6.022Zm2.766-5.916-2.674,2.674-.838-.838a.468.468,0,0,0-.662.662l1.169,1.169a.467.467,0,0,0,.661,0l3-3a.467.467,0,0,0-.66-.662Zm2.395,4.416H34.48a.468.468,0,0,0,0-.935H28.022a.468.468,0,0,0,0,.935ZM36.8,42.791H28.022a.468.468,0,1,0,0,.935H36.8a.468.468,0,0,0,0-.935ZM22.861,47.644a3.2,3.2,0,0,0,3.192-3.192c0-.063,0-.126-.005-.188a.468.468,0,1,0-.933.055c0,.044,0,.088,0,.132a2.257,2.257,0,1,1-2.257-2.257,2.227,2.227,0,0,1,1.044.256.468.468,0,0,0,.434-.828,3.192,3.192,0,1,0-1.478,6.022Zm2.766-5.916L22.953,44.4l-.838-.838a.468.468,0,1,0-.662.662l1.169,1.169a.467.467,0,0,0,.661,0l3-3a.467.467,0,1,0-.66-.662Zm8.853,3.481H28.022a.468.468,0,0,0,0,.935H34.48a.468.468,0,0,0,0-.935Zm-8.927,6.1a.467.467,0,0,0-.439.494c0,.044,0,.088,0,.132a2.257,2.257,0,1,1-2.257-2.257,2.222,2.222,0,0,1,1.044.256.468.468,0,1,0,.434-.828,3.192,3.192,0,1,0,1.713,2.829c0-.063,0-.126-.005-.188A.469.469,0,0,0,25.554,51.3Zm.074-2.1-2.674,2.674-.838-.838a.468.468,0,0,0-.662.662l1.169,1.169a.467.467,0,0,0,.661,0l3-3a.467.467,0,0,0-.66-.662ZM52.3,58.4a1.834,1.834,0,0,1-1.625.938H19.057A4.061,4.061,0,0,1,15,55.28V31.427a4.061,4.061,0,0,1,4.057-4.057H21.63v-.077a1.52,1.52,0,0,1,1.518-1.518H25.6a3.213,3.213,0,0,1,6.358,0h2.455a1.52,1.52,0,0,1,1.518,1.518v.077h2.574a4.061,4.061,0,0,1,4.057,4.057V39.7a1.889,1.889,0,0,1,.168.245L52.3,56.523A1.835,1.835,0,0,1,52.3,58.4ZM35.934,28.305v1.222h2.574a1.9,1.9,0,0,1,1.9,1.9v7.714a1.906,1.906,0,0,1,.7-.13,1.94,1.94,0,0,1,.521.07V31.427a3.125,3.125,0,0,0-3.122-3.122Zm3.538,11.662v-8.54a.965.965,0,0,0-.965-.965H35.934v.365a1.52,1.52,0,0,1-1.518,1.518H23.148a1.52,1.52,0,0,1-1.518-1.518v-.365H19.057a.965.965,0,0,0-.965.965V55.279a.965.965,0,0,0,.965.965H30.075l1.513-2.621H28.022a.468.468,0,1,1,0-.935h4.106l.856-1.483H28.022a.468.468,0,0,1,0-.935h5.5Zm-16.907-9.14a.584.584,0,0,0,.583.583H34.416A.584.584,0,0,0,35,30.827V27.294a.584.584,0,0,0-.583-.583H31.528a.468.468,0,0,1-.468-.468,2.278,2.278,0,0,0-4.555,0,.468.468,0,0,1-.468.468H23.149a.584.584,0,0,0-.583.583v3.533ZM19.057,58.4h10.86a0,0,0,0,1,0,0,1.841,1.841,0,0,1-.235-1.219H19.057a1.9,1.9,0,0,1-1.9-1.9V31.427a1.9,1.9,0,0,1,1.9-1.9H21.63V28.305H19.057a3.125,3.125,0,0,0-3.122,3.122V55.279A3.126,3.126,0,0,0,19.057,58.4ZM51.491,56.99,41.923,40.417a.941.941,0,0,0-1.63,0L30.724,56.99a.941.941,0,0,0,.814,1.411H50.676a.941.941,0,0,0,.815-1.411Zm-9.153-11.86a1.554,1.554,0,0,1,.434,1.16l-.3,5.507a1.369,1.369,0,0,1-2.726,0l-.3-5.507a1.554,1.554,0,0,1,.434-1.16,1.692,1.692,0,0,1,2.461,0Zm-.679.643a.757.757,0,0,0-1.1,0,.624.624,0,0,0-.179.467l.3,5.507a.437.437,0,0,0,.859,0l.3-5.507a.622.622,0,0,0-.179-.467Zm.991,10.1a1.542,1.542,0,1,1-1.542-1.542A1.544,1.544,0,0,1,42.65,55.876Zm-.935,0a.607.607,0,1,0-.607.607A.608.608,0,0,0,41.715,55.876Z" transform="translate(283.373 5635.156)"/>
  </g>
</svg>
