<svg xmlns="http://www.w3.org/2000/svg" xmlns:xlink="http://www.w3.org/1999/xlink" width="113" height="113" viewBox="0 0 113 113">
  <defs>
    <filter id="Path_982547" x="0" y="0" width="113" height="113" filterUnits="userSpaceOnUse">
      <feOffset dy="3" input="SourceAlpha"/>
      <feGaussianBlur stdDeviation="3" result="blur"/>
      <feFlood flood-opacity="0.161"/>
      <feComposite operator="in" in2="blur"/>
      <feComposite in="SourceGraphic"/>
    </filter>
  </defs>
  <g id="Group_1179304" data-name="Group 1179304" transform="translate(-901.125 -1166.158)">
    <g id="Group_1179195" data-name="Group 1179195">
      <g id="Group_1178847" data-name="Group 1178847" transform="translate(910.125 1172.158)">
        <g id="Group_1177679" data-name="Group 1177679">
          <g id="Group_1172010" data-name="Group 1172010">
            <g id="Group_1171046" data-name="Group 1171046">
              <g id="Group_1148525" data-name="Group 1148525">
                <g transform="matrix(1, 0, 0, 1, -9, -6)" filter="url(#Path_982547)">
                  <g id="Path_982547-2" data-name="Path 982547" transform="translate(9 6)" fill="#fbedfe">
                    <path d="M 47.5 93.5 C 41.28937149047852 93.5 35.26533508300781 92.28397369384766 29.59518623352051 89.88570404052734 C 24.11771965026855 87.56893157958984 19.19813346862793 84.25196075439453 14.97309303283691 80.02691650390625 C 10.74804019927979 75.80186462402344 7.431066513061523 70.88229370117188 5.114293098449707 65.40481567382812 C 2.716026782989502 59.73468017578125 1.5 53.71062850952148 1.5 47.5 C 1.5 41.28937149047852 2.716026782989502 35.26533508300781 5.114293098449707 29.59518623352051 C 7.431066513061523 24.11771965026855 10.74804019927979 19.19813346862793 14.97309303283691 14.97309303283691 C 19.19813346862793 10.74804019927979 24.11771965026855 7.431066513061523 29.59518623352051 5.114293098449707 C 35.26533508300781 2.716026782989502 41.28937149047852 1.5 47.5 1.5 C 53.71062850952148 1.5 59.73468017578125 2.716026782989502 65.40481567382812 5.114293098449707 C 70.88229370117188 7.431066513061523 75.80186462402344 10.74804019927979 80.02691650390625 14.97309303283691 C 84.25196075439453 19.19813346862793 87.56893157958984 24.11771965026855 89.88570404052734 29.59518623352051 C 92.28397369384766 35.26533508300781 93.5 41.28937149047852 93.5 47.5 C 93.5 53.71062850952148 92.28397369384766 59.73468017578125 89.88570404052734 65.40481567382812 C 87.56893157958984 70.88229370117188 84.25196075439453 75.80186462402344 80.02691650390625 80.02691650390625 C 75.80186462402344 84.25196075439453 70.88229370117188 87.56893157958984 65.40481567382812 89.88570404052734 C 59.73468017578125 92.28397369384766 53.71062850952148 93.5 47.5 93.5 Z" stroke="none"/>
                    <path d="M 47.5 3 C 41.49121475219727 3 35.66376876831055 4.176155090332031 30.17950439453125 6.495796203613281 C 24.88084411621094 8.736953735351562 20.12152099609375 11.94598388671875 16.03375244140625 16.03375244140625 C 11.94598388671875 20.12152099609375 8.736953735351562 24.88084411621094 6.495796203613281 30.17950439453125 C 4.176155090332031 35.66376876831055 3 41.49121475219727 3 47.5 C 3 53.50878524780273 4.176155090332031 59.33623123168945 6.495796203613281 64.82049560546875 C 8.736953735351562 70.11915588378906 11.94598388671875 74.87847900390625 16.03375244140625 78.96624755859375 C 20.12152099609375 83.05401611328125 24.88084411621094 86.26304626464844 30.17950439453125 88.50419616699219 C 35.66376876831055 90.82384490966797 41.49121475219727 92 47.5 92 C 53.50878524780273 92 59.33623123168945 90.82384490966797 64.82049560546875 88.50419616699219 C 70.11915588378906 86.26304626464844 74.87847900390625 83.05401611328125 78.96624755859375 78.96624755859375 C 83.05401611328125 74.87847900390625 86.26304626464844 70.11915588378906 88.50419616699219 64.82049560546875 C 90.82384490966797 59.33623123168945 92 53.50878524780273 92 47.5 C 92 41.49121475219727 90.82384490966797 35.66376876831055 88.50419616699219 30.17950439453125 C 86.26304626464844 24.88084411621094 83.05401611328125 20.12152099609375 78.96624755859375 16.03375244140625 C 74.87847900390625 11.94598388671875 70.11915588378906 8.736953735351562 64.82049560546875 6.495796203613281 C 59.33623123168945 4.176155090332031 53.50878524780273 3 47.5 3 M 47.5 0 C 73.7335205078125 0 95 21.2664794921875 95 47.5 C 95 73.7335205078125 73.7335205078125 95 47.5 95 C 21.2664794921875 95 0 73.7335205078125 0 47.5 C 0 21.2664794921875 21.2664794921875 0 47.5 0 Z" stroke="none" fill="#e25cfa"/>
                  </g>
                </g>
              </g>
            </g>
          </g>
        </g>
      </g>
      <g id="data_2980485_1_" data-name="data_2980485 (1)" transform="translate(925.5 1187.488)">
        <g id="Group_1179193" data-name="Group 1179193">
          <g id="Group_1179182" data-name="Group 1179182">
            <path id="Path_1041541" data-name="Path 1041541" d="M62,31V41c0,2.76-8.51,5-19,5a59.887,59.887,0,0,1-11.69-1.06l-1.09-2.11a14.529,14.529,0,0,0,1.24-3.02L34,39V35.4a64.862,64.862,0,0,0,9,.6c10.49,0,19-2.24,19-5Z" fill="#fcd770"/>
          </g>
          <g id="Group_1179183" data-name="Group 1179183">
            <path id="Path_1041542" data-name="Path 1041542" d="M62,21V31c0,2.76-8.51,5-19,5a64.862,64.862,0,0,1-9-.6V33l-2.54-.81a14.529,14.529,0,0,0-1.24-3.02l1.22-2.36-2.43-2.43A53.35,53.35,0,0,0,43,26c10.49,0,19-2.24,19-5Z" fill="#fcd770"/>
          </g>
          <g id="Group_1179184" data-name="Group 1179184">
            <path id="Path_1041543" data-name="Path 1041543" d="M62,41V51c0,2.76-8.51,5-19,5-6.97,0-13.06-.99-16.37-2.46L25.37,48.5l1.82.93,4.25-4.24-.13-.25A59.887,59.887,0,0,0,43,46c10.49,0,19-2.24,19-5Z" fill="#fcd770"/>
          </g>
          <g id="Group_1179185" data-name="Group 1179185">
            <path id="Path_1041544" data-name="Path 1041544" d="M17.99,52H21l.81-2.54a14.529,14.529,0,0,0,3.02-1.24l.54.28,1.26,5.04L28,59l-5-2-3,4-1.99-8.94h-.02v-.01Z" fill="#ff826e"/>
          </g>
          <g id="Group_1179186" data-name="Group 1179186">
            <path id="Path_1041545" data-name="Path 1041545" d="M17.99,52.05v.01L16,61l-3-4L8,59l2.63-10.5.54-.28a14.529,14.529,0,0,0,3.02,1.24L15,52h2.99Z" fill="#ff826e"/>
          </g>
          <g id="Group_1179187" data-name="Group 1179187">
            <path id="Path_1041546" data-name="Path 1041546" d="M25.94,23.21l1.25-.65,1.82,1.82,2.43,2.43-1.22,2.36a14.529,14.529,0,0,1,1.24,3.02L34,33v6l-2.54.81a14.529,14.529,0,0,1-1.24,3.02l1.09,2.11.13.25-4.25,4.24-1.82-.93-.54-.28a14.529,14.529,0,0,1-3.02,1.24L21,52H15l-.81-2.54a14.529,14.529,0,0,1-3.02-1.24l-.54.28-1.82.93L4.56,45.19l1.22-2.36a14.529,14.529,0,0,1-1.24-3.02L2,39V33l2.54-.81a14.529,14.529,0,0,1,1.24-3.02L4.56,26.81l4.25-4.25,2.36,1.22a14.529,14.529,0,0,1,3.02-1.24L15,20h6l.81,2.54a14.529,14.529,0,0,1,3.02,1.24Z" fill="#b4dd7f"/>
          </g>
          <g id="Group_1179188" data-name="Group 1179188">
            <circle id="Ellipse_12549" data-name="Ellipse 12549" cx="10" cy="10" r="10" transform="translate(8 26)" fill="#e6e9ed"/>
          </g>
          <g id="Group_1179189" data-name="Group 1179189">
            <ellipse id="Ellipse_12550" data-name="Ellipse 12550" cx="19" cy="5" rx="19" ry="5" transform="translate(24 16)" fill="#ffeaa7"/>
          </g>
          <g id="Group_1179190" data-name="Group 1179190">
            <path id="Path_1041547" data-name="Path 1041547" d="M56,17.35V21H50V6h6Z" fill="#ff826e"/>
          </g>
          <g id="Group_1179191" data-name="Group 1179191">
            <path id="Path_1041548" data-name="Path 1041548" d="M40,16.06V10h6V21H40Z" fill="#ff826e"/>
          </g>
          <g id="Group_1179192" data-name="Group 1179192">
            <path id="Path_1041549" data-name="Path 1041549" d="M36,16.35V21H30V2h6Z" fill="#ff826e"/>
          </g>
        </g>
        <g id="Group_1179194" data-name="Group 1179194">
          <path id="Path_1041550" data-name="Path 1041550" d="M29,36A11,11,0,1,0,18,47,11.013,11.013,0,0,0,29,36ZM9,36a9,9,0,1,1,9,9A9.011,9.011,0,0,1,9,36Z"/>
          <path id="Path_1041551" data-name="Path 1041551" d="M23.293,31.293,15,39.586l-2.293-2.293-1.414,1.414L15,42.414l9.707-9.707Z"/>
          <path id="Path_1041552" data-name="Path 1041552" d="M57,16.593V5H49V15.259q-.987-.086-2-.141V9H39v6.117q-1.015.057-2,.141V1H29V16.593c-3.965,1.091-6,2.569-6,4.407a2.427,2.427,0,0,0,.2.953c-.2-.073-.394-.153-.6-.219L21.729,19H14.27l-.876,2.734a14.935,14.935,0,0,0-2.229.919L8.616,21.341,3.342,26.615l1.312,2.549a14.935,14.935,0,0,0-.919,2.229L1,32.271V39.73l2.734.876a14.866,14.866,0,0,0,.919,2.229L3.341,45.384l5.274,5.273.5-.259L6.556,60.655l6.1-2.442L16.5,63.34,18,56.609l1.5,6.731,3.845-5.127,6.1,2.442L28.066,55.14A52.361,52.361,0,0,0,43,57c9.939,0,20-2.061,20-6V21C63,19.162,60.965,17.684,57,16.593ZM61,21c0,1.357-6.354,4-18,4a53.777,53.777,0,0,1-13.474-1.516L28.042,22H59V20H57V18.663C59.907,19.538,61,20.509,61,21ZM55,7V20H51V7ZM49,17.266V20H47V17.12Q48.015,17.178,49,17.266ZM45,11v9H41V11Zm-6,6.12V20H37V17.266q.984-.087,2-.146ZM35,3V20H31V3ZM29,18.663V20H27v1.539l-1.024.527C25.269,21.617,25,21.231,25,21,25,20.509,26.093,19.538,29,18.663ZM5.788,45l1.13-2.195-.263-.469a12.89,12.89,0,0,1-1.153-2.8l-.146-.517L3,38.271V33.73l2.356-.755.146-.517a12.965,12.965,0,0,1,1.153-2.8l.262-.468L5.788,27,9,23.788l2.195,1.129.468-.262a12.914,12.914,0,0,1,2.8-1.153l.517-.146L15.729,21H20.27l.755,2.356.517.146a12.965,12.965,0,0,1,2.8,1.153l.468.262L27,23.788,30.212,27l-1.129,2.195.262.468a12.914,12.914,0,0,1,1.153,2.8l.146.517L33,33.729V38.27l-2.356.754-.146.517a12.841,12.841,0,0,1-1.153,2.8l-.263.469L30.212,45,27,48.212l-2.195-1.129-.468.263a13.009,13.009,0,0,1-2.8,1.152l-.517.146L20.271,51H15.73l-.755-2.356-.517-.146a13.009,13.009,0,0,1-2.8-1.152l-.468-.263L9,48.212ZM15.5,58.66l-2.155-2.873-3.9,1.558,1.971-7.883a15.037,15.037,0,0,0,1.979.8L14.271,53h2.483Zm7.164-2.873L20.5,58.66,19.247,53H21.73l.876-2.734a14.9,14.9,0,0,0,1.979-.8l1.971,7.883ZM43,55c-6.275,0-12.141-.835-15.517-2.19l-.6-2.412.5.259,4.576-4.575A62.13,62.13,0,0,0,43,47c7.259,0,14.578-1.1,18-3.228V51C61,52.357,54.646,55,43,55Zm0-10a59.365,59.365,0,0,1-11.028-.951l-.625-1.215a14.91,14.91,0,0,0,.919-2.229L35,39.729v-3.2A67.611,67.611,0,0,0,43,37c7.259,0,14.578-1.1,18-3.228V41C61,42.357,54.646,45,43,45Zm0-10a65.346,65.346,0,0,1-8-.482V32.27l-2.734-.876a14.935,14.935,0,0,0-.919-2.229l1.312-2.549-.5-.5A62.484,62.484,0,0,0,43,27c7.259,0,14.578-1.1,18-3.228V31C61,32.357,54.646,35,43,35Z"/>
          <path id="Path_1041553" data-name="Path 1041553" d="M49.148,28.729l.183,1.991c.693-.063,1.369-.137,2.023-.22L51.1,28.516q-.949.12-1.955.213Z"/>
          <path id="Path_1041554" data-name="Path 1041554" d="M56.83,27.389l.56,1.92a20.013,20.013,0,0,0,1.989-.686l-.758-1.851A18.093,18.093,0,0,1,56.83,27.389Z"/>
          <path id="Path_1041555" data-name="Path 1041555" d="M53.042,28.231l.331,1.973q1.054-.177,2.013-.388l-.43-1.953Q54.047,28.062,53.042,28.231Z"/>
          <path id="Path_1041556" data-name="Path 1041556" d="M53.042,38.23l.331,1.973q1.054-.177,2.013-.388l-.43-1.953Q54.047,38.061,53.042,38.23Z"/>
          <path id="Path_1041557" data-name="Path 1041557" d="M56.829,37.389l.562,1.92a20.239,20.239,0,0,0,1.988-.686l-.758-1.852a18.358,18.358,0,0,1-1.792.618Z"/>
          <path id="Path_1041558" data-name="Path 1041558" d="M49.148,38.729l.183,1.992c.693-.063,1.368-.138,2.022-.22l-.25-1.984c-.632.08-1.285.15-1.955.212Z"/>
          <path id="Path_1041559" data-name="Path 1041559" d="M53.042,48.23l.331,1.973q1.054-.177,2.013-.388l-.43-1.953Q54.047,48.061,53.042,48.23Z"/>
          <path id="Path_1041560" data-name="Path 1041560" d="M49.148,48.729l.183,1.992c.693-.063,1.368-.138,2.022-.22l-.25-1.984c-.632.08-1.285.15-1.955.212Z"/>
          <path id="Path_1041561" data-name="Path 1041561" d="M56.829,47.389l.562,1.92a20.239,20.239,0,0,0,1.988-.686l-.758-1.852a18.358,18.358,0,0,1-1.792.618Z"/>
        </g>
      </g>
    </g>
  </g>
</svg>
