<svg xmlns="http://www.w3.org/2000/svg" xmlns:xlink="http://www.w3.org/1999/xlink" width="113" height="113" viewBox="0 0 113 113">
  <defs>
    <filter id="Path_982547" x="0" y="0" width="113" height="113" filterUnits="userSpaceOnUse">
      <feOffset dy="3" input="SourceAlpha"/>
      <feGaussianBlur stdDeviation="3" result="blur"/>
      <feFlood flood-opacity="0.161"/>
      <feComposite operator="in" in2="blur"/>
      <feComposite in="SourceGraphic"/>
    </filter>
  </defs>
  <g id="Group_1179293" data-name="Group 1179293" transform="translate(-8132.51 -3237.592)">
    <g id="Group_1179144" data-name="Group 1179144">
      <g id="Group_1178838" data-name="Group 1178838" transform="translate(8141.51 3243.592)">
        <g id="Group_1176922" data-name="Group 1176922" transform="translate(0 0)">
          <g id="Group_1172322" data-name="Group 1172322">
            <g id="Group_1164700" data-name="Group 1164700">
              <g id="Group_1160931" data-name="Group 1160931">
                <g id="Group_1160749" data-name="Group 1160749">
                  <g id="Group_1158891" data-name="Group 1158891">
                    <g id="Group_1157406" data-name="Group 1157406">
                      <g id="Group_1155793" data-name="Group 1155793">
                        <g id="Group_1154704" data-name="Group 1154704">
                          <g id="Group_1150790" data-name="Group 1150790">
                            <g id="Group_1154214" data-name="Group 1154214">
                              <g id="Group_1152583" data-name="Group 1152583">
                                <g id="Group_1146973" data-name="Group 1146973">
                                  <g id="Group_1146954" data-name="Group 1146954">
                                    <g transform="matrix(1, 0, 0, 1, -9, -6)" filter="url(#Path_982547)">
                                      <g id="Path_982547-2" data-name="Path 982547" transform="translate(9 6)" fill="#fbedfe">
                                        <path d="M 47.5000114440918 93.49987030029297 C 41.28938293457031 93.49987030029297 35.26534652709961 92.28384399414062 29.5951976776123 89.88558959960938 C 24.11773109436035 87.56881713867188 19.19814491271973 84.25183868408203 14.97310447692871 80.02680206298828 C 10.74805164337158 75.80176544189453 7.43107795715332 70.88218688964844 5.114304542541504 65.40472412109375 C 2.716038227081299 59.73458862304688 1.500011444091797 53.71054840087891 1.500011444091797 47.49993515014648 C 1.500011444091797 41.28932189941406 2.716038227081299 35.26528167724609 5.114304542541504 29.59514808654785 C 7.43107795715332 24.1176815032959 10.74805164337158 19.1981086730957 14.97310447692871 14.97306823730469 C 19.19814491271973 10.74802875518799 24.11773109436035 7.431055068969727 29.5951976776123 5.11428165435791 C 35.26534652709961 2.716028451919556 41.28938293457031 1.500001788139343 47.5000114440918 1.500001788139343 C 53.71063995361328 1.500001788139343 59.73467636108398 2.716028451919556 65.40482330322266 5.11428165435791 C 70.88229370117188 7.431055068969727 75.8018798828125 10.74802875518799 80.02691650390625 14.97306823730469 C 84.25196838378906 19.1981086730957 87.56894683837891 24.1176815032959 89.88571929931641 29.59514808654785 C 92.28398132324219 35.26528167724609 93.50001525878906 41.28932189941406 93.50001525878906 47.49993515014648 C 93.50001525878906 53.71054840087891 92.28398132324219 59.73458862304688 89.88571929931641 65.40472412109375 C 87.56894683837891 70.88218688964844 84.25196838378906 75.80176544189453 80.02691650390625 80.02680206298828 C 75.8018798828125 84.25183868408203 70.88229370117188 87.56881713867188 65.40482330322266 89.88558959960938 C 59.73467636108398 92.28384399414062 53.71063995361328 93.49987030029297 47.5000114440918 93.49987030029297 Z" stroke="none"/>
                                        <path d="M 47.5000114440918 3 C 41.49122619628906 3 35.66378021240234 4.1761474609375 30.17951965332031 6.495796203613281 C 24.880859375 8.7369384765625 20.12153625488281 11.94596862792969 16.03376770019531 16.03373718261719 C 11.94598388671875 20.12149047851562 8.736968994140625 24.88081359863281 6.495811462402344 30.17947387695312 C 4.176162719726562 35.66371917724609 3.000007629394531 41.49116516113281 3.000007629394531 47.49993515014648 C 3.000007629394531 53.50870513916016 4.176162719726562 59.33615112304688 6.495811462402344 64.82039642333984 C 8.736968994140625 70.11905670166016 11.94598388671875 74.87837982177734 16.03376770019531 78.96613311767578 C 20.12153625488281 83.05390167236328 24.880859375 86.26293182373047 30.17951965332031 88.50407409667969 C 35.66378021240234 90.82372283935547 41.49122619628906 91.99987030029297 47.5000114440918 91.99987030029297 C 53.50879669189453 91.99987030029297 59.33624267578125 90.82372283935547 64.82050323486328 88.50407409667969 C 70.11916351318359 86.26293182373047 74.87848663330078 83.05390167236328 78.96625518798828 78.96613311767578 C 83.05403900146484 74.87837982177734 86.2630615234375 70.11905670166016 88.50421142578125 64.82039642333984 C 90.82386016845703 59.33615112304688 92.00001525878906 53.50870513916016 92.00001525878906 47.49993515014648 C 92.00001525878906 41.49116516113281 90.82386016845703 35.66371917724609 88.50421142578125 30.17947387695312 C 86.2630615234375 24.88081359863281 83.05403900146484 20.12149047851562 78.96625518798828 16.03373718261719 C 74.87848663330078 11.94596862792969 70.11916351318359 8.7369384765625 64.82050323486328 6.495796203613281 C 59.33624267578125 4.1761474609375 53.50879669189453 3 47.5000114440918 3 M 47.5000114440918 0 C 73.73353576660156 0 95.00001525878906 21.26644134521484 95.00001525878906 47.49993515014648 C 95.00001525878906 73.73342895507812 73.73353576660156 94.99987030029297 47.5000114440918 94.99987030029297 C 21.26648712158203 94.99987030029297 7.62939453125e-06 73.73342895507812 7.62939453125e-06 47.49993515014648 C 7.62939453125e-06 21.26644134521484 21.26648712158203 0 47.5000114440918 0 Z" stroke="none" fill="#7b3289"/>
                                      </g>
                                    </g>
                                  </g>
                                </g>
                              </g>
                            </g>
                          </g>
                        </g>
                      </g>
                    </g>
                  </g>
                </g>
              </g>
            </g>
          </g>
        </g>
      </g>
      <g id="user-experience_11176236" transform="translate(8162.065 3254.767)">
        <g id="Group_1179143" data-name="Group 1179143" transform="translate(-6.916 7.288)">
          <g id="Group_1179140" data-name="Group 1179140" transform="translate(6.225 9.129)">
            <path id="Path_1041422" data-name="Path 1041422" d="M184.28,352.571h16.839v7.83H184.28Z" transform="translate(-165.91 -317.284)" fill="#a79ba7" fill-rule="evenodd"/>
            <path id="Path_1041423" data-name="Path 1041423" d="M45.6,78.256h45.34a4.131,4.131,0,0,1,4.119,4.119v28.336a4.131,4.131,0,0,1-4.119,4.119H45.6a4.131,4.131,0,0,1-4.119-4.119V82.375A4.131,4.131,0,0,1,45.6,78.256Z" transform="translate(-41.479 -78.256)" fill="#eceff1" fill-rule="evenodd"/>
            <path id="Path_1041424" data-name="Path 1041424" d="M68.825,105.031h45.547a.618.618,0,0,1,.571.653v29.271H68.254V105.684A.618.618,0,0,1,68.825,105.031Z" transform="translate(-64.81 -101.587)" fill="#d8ecfe" fill-rule="evenodd"/>
            <path id="Path_1041425" data-name="Path 1041425" d="M108.236,419.056h36.4v-2.806c0-1.544-1.581-2.806-3.512-2.806H111.749c-1.932,0-3.513,1.263-3.513,2.806v2.806Z" transform="translate(-99.649 -370.325)" fill="#eceff1" fill-rule="evenodd"/>
            <path id="Path_1041426" data-name="Path 1041426" d="M415.964,78.256h1.286a4.131,4.131,0,0,1,4.119,4.119v28.336a4.131,4.131,0,0,1-4.119,4.119h-1.286a4.131,4.131,0,0,0,4.119-4.119V82.375A4.131,4.131,0,0,0,415.964,78.256Z" transform="translate(-367.791 -78.256)" fill="#d1d1d6" fill-rule="evenodd"/>
            <path id="Path_1041427" data-name="Path 1041427" d="M416.767,105.031h1.286a.618.618,0,0,1,.571.653v29.271h-1.286V105.684A.618.618,0,0,0,416.767,105.031Z" transform="translate(-368.491 -101.587)" fill="#c4e2ff" fill-rule="evenodd"/>
            <path id="Path_1041428" data-name="Path 1041428" d="M108.237,422.392h36.4v-2.806a2.708,2.708,0,0,0-1.532-2.314,2.3,2.3,0,0,1,.245,1.028v2.806H108.237Z" transform="translate(-99.649 -373.661)" fill="#d1d1d6" fill-rule="evenodd"/>
          </g>
          <g id="Group_1179141" data-name="Group 1179141" transform="translate(0 0)">
            <circle id="Ellipse_12539" data-name="Ellipse 12539" cx="8.808" cy="8.808" r="8.808" transform="translate(0 41.33) rotate(-45)" fill="#a79ba7"/>
            <path id="Path_1041429" data-name="Path 1041429" d="M85.594,260.129a8.808,8.808,0,1,1,0,17.616q-.325,0-.643-.023a8.808,8.808,0,0,0,0-17.569Q85.27,260.13,85.594,260.129Z" transform="translate(-73.134 -227.604)" fill="#837683" fill-rule="evenodd"/>
            <path id="Path_1041430" data-name="Path 1041430" d="M50.086,280.188l1.353,3.564a.277.277,0,0,0,.25.182l3.808.186a.282.282,0,0,1,.163.5l-2.972,2.389a.277.277,0,0,0-.1.294l1,3.679a.282.282,0,0,1-.426.31l-3.19-2.088a.277.277,0,0,0-.309,0l-3.19,2.088a.282.282,0,0,1-.426-.31l1-3.679a.277.277,0,0,0-.1-.294l-2.972-2.389a.282.282,0,0,1,.163-.5l3.808-.186a.277.277,0,0,0,.25-.182l1.353-3.564A.283.283,0,0,1,50.086,280.188Z" transform="translate(-37.345 -244.925)" fill="#ffe177" fill-rule="evenodd"/>
            <path id="Path_1041431" data-name="Path 1041431" d="M64.733,280.188l1.353,3.564a.277.277,0,0,0,.25.181l3.808.186a.282.282,0,0,1,.163.5l-2.972,2.389a.277.277,0,0,0-.1.294l1,3.679a.282.282,0,0,1-.426.31l-.944-.618-.917-3.371a.277.277,0,0,1,.1-.294l2.972-2.389a.282.282,0,0,0-.163-.5l-3.808-.186a.277.277,0,0,1-.25-.181l-.974-2.564.38-1A.283.283,0,0,1,64.733,280.188Zm-.418,9.016-.489-.32a.277.277,0,0,0-.309,0l-2.735,1.79-.084.308a.282.282,0,0,0,.426.31Z" transform="translate(-51.992 -244.926)" fill="#ffd064" fill-rule="evenodd"/>
            <circle id="Ellipse_12540" data-name="Ellipse 12540" cx="8.808" cy="8.808" r="8.808" transform="translate(0.003 12.455) rotate(-45)" fill="#8ac9fe"/>
            <path id="Path_1041432" data-name="Path 1041432" d="M85.594,35.637a8.808,8.808,0,1,1,0,17.616q-.325,0-.643-.023a8.808,8.808,0,0,0,0-17.569Q85.27,35.637,85.594,35.637Z" transform="translate(-73.134 -31.99)" fill="#60b7ff" fill-rule="evenodd"/>
            <path id="Path_1041433" data-name="Path 1041433" d="M50.087,55.7,51.44,59.26a.277.277,0,0,0,.25.182l3.808.186a.282.282,0,0,1,.163.5l-2.972,2.389a.277.277,0,0,0-.1.294l1,3.679a.282.282,0,0,1-.426.31l-3.19-2.088a.277.277,0,0,0-.309,0L46.479,66.8a.282.282,0,0,1-.426-.31l1-3.679a.277.277,0,0,0-.1-.294l-2.972-2.389a.282.282,0,0,1,.163-.5l3.808-.186a.277.277,0,0,0,.25-.182L49.56,55.7A.283.283,0,0,1,50.087,55.7Z" transform="translate(-37.346 -49.311)" fill="#ffe177" fill-rule="evenodd"/>
            <path id="Path_1041434" data-name="Path 1041434" d="M64.734,55.7l1.353,3.564a.277.277,0,0,0,.25.182l3.808.186a.282.282,0,0,1,.163.5l-2.972,2.389a.277.277,0,0,0-.1.294l1,3.679a.282.282,0,0,1-.426.31l-.944-.618-.917-3.371a.277.277,0,0,1,.1-.294l2.972-2.389a.282.282,0,0,0-.163-.5l-3.808-.186a.277.277,0,0,1-.25-.182L63.827,56.7l.38-1A.283.283,0,0,1,64.734,55.7Zm-.418,9.016-.489-.32a.277.277,0,0,0-.309,0l-2.735,1.79-.084.308a.282.282,0,0,0,.426.31Z" transform="translate(-51.993 -49.311)" fill="#ffd064" fill-rule="evenodd"/>
            <circle id="Ellipse_12541" data-name="Ellipse 12541" cx="8.808" cy="8.808" r="8.808" transform="translate(46.084 3.647)" fill="#6cf5c2"/>
            <path id="Path_1041435" data-name="Path 1041435" d="M415.445,35.637a8.808,8.808,0,1,1,0,17.616q-.325,0-.643-.023a8.808,8.808,0,0,0,0-17.569Q415.121,35.637,415.445,35.637Z" transform="translate(-360.553 -31.99)" fill="#00e499" fill-rule="evenodd"/>
            <path id="Path_1041436" data-name="Path 1041436" d="M379.938,55.7l1.353,3.564a.277.277,0,0,0,.25.182l3.808.186a.282.282,0,0,1,.163.5l-2.972,2.389a.277.277,0,0,0-.1.294l1,3.679a.282.282,0,0,1-.426.31l-3.19-2.088a.277.277,0,0,0-.309,0L376.33,66.8a.282.282,0,0,1-.426-.31l1-3.679a.276.276,0,0,0-.1-.294l-2.971-2.389a.282.282,0,0,1,.163-.5l3.808-.186a.277.277,0,0,0,.25-.182l1.353-3.564a.283.283,0,0,1,.527,0Z" transform="translate(-324.766 -49.311)" fill="#ffe177" fill-rule="evenodd"/>
            <path id="Path_1041437" data-name="Path 1041437" d="M394.584,55.7l1.353,3.564a.277.277,0,0,0,.25.182l3.808.186a.282.282,0,0,1,.163.5l-2.972,2.389a.277.277,0,0,0-.1.294l1,3.679a.282.282,0,0,1-.426.31l-.944-.618L395.8,62.81a.277.277,0,0,1,.1-.294l2.972-2.389a.282.282,0,0,0-.163-.5l-3.808-.186a.277.277,0,0,1-.25-.182l-.974-2.565.38-1A.283.283,0,0,1,394.584,55.7Zm-.418,9.016-.489-.32a.277.277,0,0,0-.309,0l-2.735,1.79-.084.308a.282.282,0,0,0,.426.31Z" transform="translate(-339.412 -49.311)" fill="#ffd064" fill-rule="evenodd"/>
          </g>
          <g id="Group_1179142" data-name="Group 1179142" transform="translate(39.405 36.803)">
            <path id="Path_1041438" data-name="Path 1041438" d="M304.488,304.744l-4.808-8.328a2.021,2.021,0,1,1,3.5-2.021l3.946,6.836a2.059,2.059,0,0,1,3.722-1.7,1.868,1.868,0,0,1,3.481-1.065l.152.263a1.824,1.824,0,0,1,3.392-.7l4.233,7.332a4.625,4.625,0,0,1,.647,2.361,1.666,1.666,0,0,0,.23.817l.921,1.6a.654.654,0,0,1-.239.892l-10.056,5.806a.654.654,0,0,1-.892-.239L311.8,315a1.631,1.631,0,0,0-1.44-.835l-2.374-.009a3.951,3.951,0,0,1-3.357-1.579l-2.044-2.911a3.186,3.186,0,0,1,1.3-4.574Z" transform="translate(-299.411 -293.386)" fill="#f6dccd" fill-rule="evenodd"/>
            <path id="Path_1041439" data-name="Path 1041439" d="M317.138,297.993a1.811,1.811,0,0,1,.643-.628,1.83,1.83,0,0,1,2.493.668l4.233,7.332a4.627,4.627,0,0,1,.647,2.361,1.666,1.666,0,0,0,.23.817l.921,1.6a.654.654,0,0,1-.239.892l-1.508.871a.654.654,0,0,0,.239-.892l-.921-1.6a1.667,1.667,0,0,1-.23-.817,4.625,4.625,0,0,0-.647-2.361l-4.233-7.332A1.829,1.829,0,0,0,317.138,297.993Zm-3.889,1.543a2.065,2.065,0,0,0-2.792-.72,2.042,2.042,0,0,0-.657.6,2.065,2.065,0,0,1,1.941.987l.654,1.132a.871.871,0,0,0,1.508-.871Zm.283-1.126a1.873,1.873,0,0,1,1.69.931l.461.8a.871.871,0,0,0,1.508-.871l-.461-.8a1.874,1.874,0,0,0-2.552-.684A1.854,1.854,0,0,0,313.532,298.41Zm-11.368-4.147a2,2,0,0,1,.655-.607,2.028,2.028,0,0,1,2.761.74l4.808,8.328a.871.871,0,0,1-1.508.871l-4.808-8.328A2.028,2.028,0,0,0,302.164,294.263Zm3.279,11.464a4.127,4.127,0,0,1,.839-.633l.6-.349,2.065,3.577a.871.871,0,1,1-1.508.871Z" transform="translate(-301.81 -293.387)" fill="#f1cbbc" fill-rule="evenodd"/>
            <path id="Path_1041440" data-name="Path 1041440" d="M395.7,417.668l11.187-6.459.921,1.6a.654.654,0,0,1-.239.892L397.515,419.5a.654.654,0,0,1-.892-.239Z" transform="translate(-383.315 -396.053)" fill="#a79ba7" fill-rule="evenodd"/>
            <path id="Path_1041441" data-name="Path 1041441" d="M470.946,412.081l1.508-.871.921,1.6.008.015.008.015.007.015.007.015.007.015.006.015.006.015.005.015,0,.015,0,.015,0,.016,0,.016,0,.016,0,.016,0,.016,0,.016c0,.011,0,.021,0,.032v.047c0,.011,0,.021,0,.032v.031l0,.016,0,.016c0,.01,0,.021-.005.031s0,.021-.007.031l0,.015,0,.015-.01.03-.011.029-.006.015-.006.014-.007.014-.007.014-.015.028-.008.013-.008.013-.009.013-.018.026-.01.013-.01.012-.01.012-.011.012-.011.012-.011.011-.012.011-.012.011-.012.011-.013.01-.013.01-.013.01-.014.01-.014.009-.014.009-.014.009-1.508.871a.654.654,0,0,0,.239-.892Z" transform="translate(-448.88 -396.053)" fill="#837683" fill-rule="evenodd"/>
          </g>
        </g>
        <path id="Path_1041442" data-name="Path 1041442" d="M20.348,61.744a1.317,1.317,0,0,0-.446,1.372L20.414,65l-1.633-1.069a1.319,1.319,0,0,0-1.443,0L15.706,65l.512-1.883a1.317,1.317,0,0,0-.446-1.372l-1.521-1.222,1.948-.1a1.318,1.318,0,0,0,1.168-.849l.693-1.824.693,1.825a1.32,1.32,0,0,0,1.167.848l1.949.1Zm4.758-2.274a1.309,1.309,0,0,0-1.189-.909L20.5,58.394,19.291,55.2a1.318,1.318,0,0,0-2.463,0l-1.213,3.194L12.2,58.56a1.318,1.318,0,0,0-.762,2.344L14.1,63.044l-.9,3.3A1.316,1.316,0,0,0,15.2,67.79l2.858-1.872,2.859,1.872a1.318,1.318,0,0,0,1.993-1.448l-.9-3.3L24.679,60.9A1.308,1.308,0,0,0,25.106,59.469ZM16.2,30.872a1.314,1.314,0,0,0,1.168-.848L18.06,28.2l.693,1.824a1.316,1.316,0,0,0,1.167.848l1.949.1-1.52,1.222a1.318,1.318,0,0,0-.446,1.374l.512,1.882-1.633-1.069a1.316,1.316,0,0,0-1.443,0l-1.632,1.068.512-1.882a1.317,1.317,0,0,0-.446-1.372l-1.521-1.223Zm-2.992,5.916a1.323,1.323,0,0,0,1.271,1.666,1.328,1.328,0,0,0,.722-.217l2.858-1.872,2.859,1.872a1.318,1.318,0,0,0,1.993-1.448l-.9-3.3,2.664-2.141a1.318,1.318,0,0,0-.761-2.344L20.5,28.841l-1.213-3.2a1.318,1.318,0,0,0-2.463,0l-1.213,3.2-3.412.166a1.317,1.317,0,0,0-.762,2.342L14.1,33.491Zm23.359,4.931A1.029,1.029,0,1,1,38.355,40.7l5.735,10.058A1.029,1.029,0,1,1,42.3,51.777Zm-8.086,11.7,11.168,3.058a1.045,1.045,0,0,0,.272.037,1.029,1.029,0,0,0,.271-2.022L29.024,51.439a1.029,1.029,0,0,0-.544,1.985Zm19.023-3.1L50.561,39.16a1.029,1.029,0,1,1,1.985.543L49.488,50.871a1.029,1.029,0,0,1-1.985-.544ZM59.622,30.872a1.314,1.314,0,0,0,1.168-.848l.693-1.824.692,1.824a1.316,1.316,0,0,0,1.168.848l1.949.1-1.52,1.222a1.316,1.316,0,0,0-.446,1.374l.512,1.882L62.2,34.376a1.318,1.318,0,0,0-1.442,0l-1.634,1.068.512-1.882a1.318,1.318,0,0,0-.445-1.372l-1.522-1.223Zm1.168-4.5v0S60.792,26.378,60.79,26.376ZM56.631,36.788a1.318,1.318,0,0,0,1.993,1.448l2.86-1.872,2.858,1.87a1.317,1.317,0,0,0,1.993-1.447l-.9-3.3L68.1,31.351a1.318,1.318,0,0,0-.762-2.344l-3.412-.166-1.213-3.2a1.319,1.319,0,0,0-2.464,0l-1.213,3.2-3.412.166a1.318,1.318,0,0,0-.762,2.342l2.664,2.142ZM43.948,53.273a6.2,6.2,0,0,1,5.061-.358,1.029,1.029,0,0,1-.545,1.985,4.309,4.309,0,0,0-3.417.112,3.734,3.734,0,0,0-1.411,2.647,1.03,1.03,0,0,1-1.012.851.962.962,0,0,1-.18-.017A1.03,1.03,0,0,1,41.61,57.3a5.649,5.649,0,0,1,2.338-4.028ZM59.746,79.9l-.237-.415L69.133,74l.238.417ZM21.479,75.818c0-1,1.175-1.843,2.565-1.843H47.783c.028.054.056.108.087.162.016.026.031.051.049.077l2.062,2.972a4.742,4.742,0,0,0,.379.476H21.479Zm10.01-8.54H46.663v4.639H31.489ZM27.835,64H46.9l.7,1.222H27.477A9.813,9.813,0,0,0,27.835,64Zm-9.793,5.764a7.985,7.985,0,1,0-7.985-7.985,7.993,7.993,0,0,0,7.985,7.985Zm0-45.523a7.985,7.985,0,1,0,7.985,7.986,7.994,7.994,0,0,0-7.985-7.986Zm33.667,5.611a9.893,9.893,0,0,0-.243,1.466H28.042a9.908,9.908,0,0,0-.243-1.466Zm9.757-5.611a7.985,7.985,0,1,0,7.984,7.986A7.994,7.994,0,0,0,61.466,24.238Zm4,37.465-.19-.334A2.85,2.85,0,0,0,64,60.194V41.944a9.962,9.962,0,0,0,1.466-.509ZM14.157,41.484V52.517a10.135,10.135,0,0,0-1.466.768V40.715a9.99,9.99,0,0,0,1.466.769Zm3.885,10.249A10.055,10.055,0,0,1,28.086,61.777c0,.054,0,.108,0,.162H45.73l-.738-1.294a3.085,3.085,0,0,1,5.36-3.055l2.733,4.791a3.093,3.093,0,0,1,.8-.655,3.13,3.13,0,0,1,2.825-.13A2.91,2.91,0,0,1,59.9,60.422a2.947,2.947,0,0,1,.81.359,2.826,2.826,0,0,1,.631-.489,2.873,2.873,0,0,1,.6-.256V42.255c-.156.007-.314.012-.472.012a10.058,10.058,0,0,1-9.976-8.893H28.017a10.029,10.029,0,0,1-11.8,8.723V51.9a10.059,10.059,0,0,1,1.827-.17ZM48.773,67.278l.56.981a5.552,5.552,0,0,0-.611.475V67.278ZM68.259,71.77a3.682,3.682,0,0,0-.51-1.9l-4.264-7.479a.825.825,0,0,0-1.537.311,1.029,1.029,0,0,1-1.915.381l-.153-.267a.873.873,0,0,0-1.187-.324.879.879,0,0,0-.437.815,1.029,1.029,0,0,1-1.912.589,1.065,1.065,0,0,0-1.928.869,1.029,1.029,0,0,1-1.876.819l-3.975-6.973a1.027,1.027,0,0,0-1.784,1.018L51.613,68.1a1.029,1.029,0,0,1-.361,1.39l-.607.367a2.251,2.251,0,0,0-1.007,3.219l2.034,2.93a3.043,3.043,0,0,0,2.569,1.182l2.415.023a2.7,2.7,0,0,1,1.654.574l.009.006,9.965-5.682a2.635,2.635,0,0,1-.024-.345Zm3.409,2.52-1.257-2.2a.667.667,0,0,1-.094-.328,5.712,5.712,0,0,0-.78-2.907l-2.562-4.5a5.2,5.2,0,0,0,.547-2.321v-21.8A10.04,10.04,0,1,0,52.457,27.791H27.052a10.04,10.04,0,1,0-16.419,11.2V55.006A10.038,10.038,0,1,0,26.439,67.278h2.992v4.639H24.044c-2.55,0-4.624,1.751-4.624,3.9V78.69a1.029,1.029,0,0,0,1.029,1.029H57.272l1.2,2.1a1.029,1.029,0,0,0,1.4.385l11.412-6.507A1.029,1.029,0,0,0,71.668,74.29Z" transform="translate(-12.996 -12.976)" fill="#242222" fill-rule="evenodd"/>
      </g>
    </g>
  </g>
</svg>
