<svg xmlns="http://www.w3.org/2000/svg" xmlns:xlink="http://www.w3.org/1999/xlink" width="113" height="113" viewBox="0 0 113 113">
  <defs>
    <filter id="Path_982547" x="0" y="0" width="113" height="113" filterUnits="userSpaceOnUse">
      <feOffset dy="3" input="SourceAlpha"/>
      <feGaussianBlur stdDeviation="3" result="blur"/>
      <feFlood flood-opacity="0.161"/>
      <feComposite operator="in" in2="blur"/>
      <feComposite in="SourceGraphic"/>
    </filter>
  </defs>
  <g id="Group_1179314" data-name="Group 1179314" transform="translate(-784.49 -3201.912)">
    <g id="Group_1179197" data-name="Group 1179197">
      <g id="Group_1178877" data-name="Group 1178877" transform="translate(-9 1712.477)">
        <g id="Group_1176922" data-name="Group 1176922" transform="translate(802.49 1495.435)">
          <g id="Group_1172322" data-name="Group 1172322" transform="translate(0 0)">
            <g id="Group_1164700" data-name="Group 1164700">
              <g id="Group_1160931" data-name="Group 1160931">
                <g id="Group_1160749" data-name="Group 1160749">
                  <g id="Group_1158891" data-name="Group 1158891">
                    <g id="Group_1157406" data-name="Group 1157406">
                      <g id="Group_1155793" data-name="Group 1155793">
                        <g id="Group_1154704" data-name="Group 1154704">
                          <g id="Group_1150790" data-name="Group 1150790">
                            <g id="Group_1154214" data-name="Group 1154214">
                              <g id="Group_1152583" data-name="Group 1152583">
                                <g id="Group_1146973" data-name="Group 1146973">
                                  <g id="Group_1146954" data-name="Group 1146954">
                                    <g transform="matrix(1, 0, 0, 1, -9, -6)" filter="url(#Path_982547)">
                                      <g id="Path_982547-2" data-name="Path 982547" transform="translate(9 6)" fill="#fbedfe">
                                        <path d="M 47.5000114440918 93.49987030029297 C 41.28938293457031 93.49987030029297 35.26534652709961 92.28384399414062 29.5951976776123 89.88558959960938 C 24.11773109436035 87.56881713867188 19.19814491271973 84.25183868408203 14.97310447692871 80.02680206298828 C 10.74805164337158 75.80176544189453 7.43107795715332 70.88218688964844 5.114304542541504 65.40472412109375 C 2.716038227081299 59.73458862304688 1.500011444091797 53.71054840087891 1.500011444091797 47.49993515014648 C 1.500011444091797 41.28932189941406 2.716038227081299 35.26528167724609 5.114304542541504 29.59514808654785 C 7.43107795715332 24.1176815032959 10.74805164337158 19.1981086730957 14.97310447692871 14.97306823730469 C 19.19814491271973 10.74802875518799 24.11773109436035 7.431055068969727 29.5951976776123 5.11428165435791 C 35.26534652709961 2.716028451919556 41.28938293457031 1.500001788139343 47.5000114440918 1.500001788139343 C 53.71063995361328 1.500001788139343 59.73467636108398 2.716028451919556 65.40482330322266 5.11428165435791 C 70.88229370117188 7.431055068969727 75.8018798828125 10.74802875518799 80.02691650390625 14.97306823730469 C 84.25196838378906 19.1981086730957 87.56894683837891 24.1176815032959 89.88571929931641 29.59514808654785 C 92.28398132324219 35.26528167724609 93.50001525878906 41.28932189941406 93.50001525878906 47.49993515014648 C 93.50001525878906 53.71054840087891 92.28398132324219 59.73458862304688 89.88571929931641 65.40472412109375 C 87.56894683837891 70.88218688964844 84.25196838378906 75.80176544189453 80.02691650390625 80.02680206298828 C 75.8018798828125 84.25183868408203 70.88229370117188 87.56881713867188 65.40482330322266 89.88558959960938 C 59.73467636108398 92.28384399414062 53.71063995361328 93.49987030029297 47.5000114440918 93.49987030029297 Z" stroke="none"/>
                                        <path d="M 47.5000114440918 3 C 41.49122619628906 3 35.66378021240234 4.1761474609375 30.17951965332031 6.495796203613281 C 24.880859375 8.7369384765625 20.12153625488281 11.94596862792969 16.03376770019531 16.03373718261719 C 11.94598388671875 20.12149047851562 8.736968994140625 24.88081359863281 6.495811462402344 30.17947387695312 C 4.176162719726562 35.66371917724609 3.000007629394531 41.49116516113281 3.000007629394531 47.49993515014648 C 3.000007629394531 53.50870513916016 4.176162719726562 59.33615112304688 6.495811462402344 64.82039642333984 C 8.736968994140625 70.11905670166016 11.94598388671875 74.87837982177734 16.03376770019531 78.96613311767578 C 20.12153625488281 83.05390167236328 24.880859375 86.26293182373047 30.17951965332031 88.50407409667969 C 35.66378021240234 90.82372283935547 41.49122619628906 91.99987030029297 47.5000114440918 91.99987030029297 C 53.50879669189453 91.99987030029297 59.33624267578125 90.82372283935547 64.82050323486328 88.50407409667969 C 70.11916351318359 86.26293182373047 74.87848663330078 83.05390167236328 78.96625518798828 78.96613311767578 C 83.05403900146484 74.87837982177734 86.2630615234375 70.11905670166016 88.50421142578125 64.82039642333984 C 90.82386016845703 59.33615112304688 92.00001525878906 53.50870513916016 92.00001525878906 47.49993515014648 C 92.00001525878906 41.49116516113281 90.82386016845703 35.66371917724609 88.50421142578125 30.17947387695312 C 86.2630615234375 24.88081359863281 83.05403900146484 20.12149047851562 78.96625518798828 16.03373718261719 C 74.87848663330078 11.94596862792969 70.11916351318359 8.7369384765625 64.82050323486328 6.495796203613281 C 59.33624267578125 4.1761474609375 53.50879669189453 3 47.5000114440918 3 M 47.5000114440918 0 C 73.73353576660156 0 95.00001525878906 21.26644134521484 95.00001525878906 47.49993515014648 C 95.00001525878906 73.73342895507812 73.73353576660156 94.99987030029297 47.5000114440918 94.99987030029297 C 21.26648712158203 94.99987030029297 7.62939453125e-06 73.73342895507812 7.62939453125e-06 47.49993515014648 C 7.62939453125e-06 21.26644134521484 21.26648712158203 0 47.5000114440918 0 Z" stroke="none" fill="#7b3289"/>
                                      </g>
                                    </g>
                                  </g>
                                </g>
                              </g>
                            </g>
                          </g>
                        </g>
                      </g>
                    </g>
                  </g>
                </g>
              </g>
            </g>
          </g>
        </g>
      </g>
      <g id="project-management_10008040" transform="translate(797.123 3214.558)">
        <path id="Path_1041588" data-name="Path 1041588" d="M30.374,165.649H28.683a.772.772,0,0,1-.771-.736l-.095-2.043a.76.76,0,0,0-.559-.706,11.212,11.212,0,0,1-2.374-.985.761.761,0,0,0-.9.1l-1.512,1.378a.771.771,0,0,1-1.065-.024l-2.391-2.393A.771.771,0,0,1,19,159.181l1.378-1.513a.761.761,0,0,0,.1-.9,11.223,11.223,0,0,1-.985-2.374.76.76,0,0,0-.706-.559l-2.043-.095a.772.772,0,0,1-.736-.771v-3.382a.772.772,0,0,1,.736-.771l2.043-.095a.76.76,0,0,0,.706-.559,11.275,11.275,0,0,1,.985-2.374.761.761,0,0,0-.1-.9L19,143.387a.771.771,0,0,1,.024-1.065l2.391-2.391a.771.771,0,0,1,1.065-.024l1.513,1.378a.761.761,0,0,0,.9.1,11.222,11.222,0,0,1,2.374-.985.76.76,0,0,0,.559-.706l.095-2.043a.772.772,0,0,1,.771-.736h1.691v9.023a5.343,5.343,0,1,0,0,10.685v9.021Z" transform="translate(-5.28 -109.529)" fill="#fedf30" fill-rule="evenodd"/>
        <path id="Path_1041589" data-name="Path 1041589" d="M135.488,121.39h11.534l7.79,7.79v23.7a1.211,1.211,0,0,1-1.208,1.208H135.488a1.211,1.211,0,0,1-1.208-1.208V122.6a1.211,1.211,0,0,1,1.208-1.208Z" transform="translate(-109.186 -95.885)" fill="#fbf3f3" fill-rule="evenodd"/>
        <path id="Path_1041590" data-name="Path 1041590" d="M239.2,121.39v6.748a1.043,1.043,0,0,0,1.042,1.042h6.748Z" transform="translate(-201.364 -95.885)" fill="#ffc66c" fill-rule="evenodd"/>
        <path id="Path_1041591" data-name="Path 1041591" d="M388.214,264.411h-9.257a2.637,2.637,0,0,1-2.621-2.932,6.345,6.345,0,0,1,6.29-5.619h1.92a6.344,6.344,0,0,1,6.29,5.619,2.637,2.637,0,0,1-2.622,2.932Z" transform="translate(-321.828 -214.024)" fill="#2fb1d4" fill-rule="evenodd"/>
        <circle id="Ellipse_12551" data-name="Ellipse 12551" cx="4.063" cy="4.063" r="4.063" transform="translate(57.444 33.583) rotate(-3.555)" fill="#f9d0b4"/>
        <path id="Path_1041592" data-name="Path 1041592" d="M388.214,96.941h-9.257a2.637,2.637,0,0,1-2.621-2.932,6.345,6.345,0,0,1,6.29-5.619h1.92a6.344,6.344,0,0,1,6.29,5.619,2.637,2.637,0,0,1-2.622,2.932Z" transform="translate(-321.828 -66.893)" fill="#2fb1d4" fill-rule="evenodd"/>
        <circle id="Ellipse_12552" data-name="Ellipse 12552" cx="4.063" cy="4.063" r="4.063" transform="translate(57.446 13.245) rotate(-3.555)" fill="#f9d0b4"/>
        <path id="Path_1041593" data-name="Path 1041593" d="M388.214,431.891h-9.257a2.637,2.637,0,0,1-2.621-2.932,6.345,6.345,0,0,1,6.29-5.62h1.92a6.344,6.344,0,0,1,6.29,5.62,2.637,2.637,0,0,1-2.622,2.932Z" transform="translate(-321.828 -361.163)" fill="#2fb1d4" fill-rule="evenodd"/>
        <circle id="Ellipse_12553" data-name="Ellipse 12553" cx="4.063" cy="4.063" r="4.063" transform="translate(56.469 59.926) rotate(-67.486)" fill="#f9d0b4"/>
        <path id="Path_1041594" data-name="Path 1041594" d="M60.375,42.582a5.593,5.593,0,0,0-5.143,4.955,1.815,1.815,0,0,0,.474,1.485,1.836,1.836,0,0,0,1.423.636h9.257a1.908,1.908,0,0,0,1.9-2.122,5.594,5.594,0,0,0-5.565-4.972H60.8v.017Zm-1.952-5.2a3.333,3.333,0,1,0,3.333-3.333A3.337,3.337,0,0,0,58.423,37.38Zm0,20.34a3.333,3.333,0,1,0,3.333-3.334A3.336,3.336,0,0,0,58.423,57.721ZM62.717,62.9H60.8v.017h-.42a5.594,5.594,0,0,0-5.145,4.955,1.813,1.813,0,0,0,.474,1.485A1.838,1.838,0,0,0,57.129,70h9.257a1.91,1.91,0,0,0,1.9-2.123A5.6,5.6,0,0,0,62.717,62.9ZM44.9,56.995V34.023H38.88a1.773,1.773,0,0,1-1.771-1.771V26.234H26.3a.48.48,0,0,0-.48.48V56.995a.48.48,0,0,0,.48.479H44.419A.48.48,0,0,0,44.9,56.995ZM20.48,41.755a4.619,4.619,0,0,0,3.885,4.556V37.2a4.622,4.622,0,0,0-3.885,4.556Zm3.885,13.636H23.4a.041.041,0,0,1-.043-.04l-.095-2.043a1.481,1.481,0,0,0-1.087-1.374,10.46,10.46,0,0,1-2.22-.921,1.479,1.479,0,0,0-1.739.2L16.708,52.6a.043.043,0,0,1-.06,0L14.257,50.2a.043.043,0,0,1,0-.06l1.378-1.512a1.48,1.48,0,0,0,.2-1.74,10.459,10.459,0,0,1-.921-2.22,1.48,1.48,0,0,0-1.372-1.086L11.5,43.489a.044.044,0,0,1-.041-.044V40.064a.044.044,0,0,1,.041-.044l2.043-.095a1.479,1.479,0,0,0,1.372-1.086,10.459,10.459,0,0,1,.921-2.22,1.48,1.48,0,0,0-.2-1.74l-1.378-1.512a.043.043,0,0,1,0-.06l2.391-2.391a.042.042,0,0,1,.06,0l1.513,1.378a1.481,1.481,0,0,0,1.739.2,10.587,10.587,0,0,1,2.22-.921A1.481,1.481,0,0,0,23.266,30.2l.095-2.044a.042.042,0,0,1,.043-.04h.962V35.73a6.069,6.069,0,0,0,0,12.052Zm14.2-23.139V27.265l5.3,5.3H38.878A.313.313,0,0,1,38.565,32.253ZM58.423,17.041a3.333,3.333,0,1,0,3.333-3.334A3.336,3.336,0,0,0,58.423,17.041Zm4.293,5.185H60.8A5.6,5.6,0,0,0,55.23,27.2a1.908,1.908,0,0,0,1.9,2.122h9.257a1.908,1.908,0,0,0,1.9-2.122A5.594,5.594,0,0,0,62.717,22.226ZM56.478,42.582H50.852V58.74a2.705,2.705,0,0,0,2.679,2.724h5.242a4.789,4.789,0,1,1,5.694.2,7.051,7.051,0,0,1,5.264,6.046,3.367,3.367,0,0,1-3.345,3.743H57.129a3.367,3.367,0,0,1-3.346-3.743,7.042,7.042,0,0,1,2.695-4.792H53.531a4.164,4.164,0,0,1-4.137-4.182V42.582h-3.04V56.995a1.938,1.938,0,0,1-1.937,1.936H26.3a1.939,1.939,0,0,1-1.937-1.936v-.146H23.4a1.5,1.5,0,0,1-1.5-1.431l-.095-2.043c0-.024-.007-.032-.032-.039a12,12,0,0,1-2.527-1.048.034.034,0,0,0-.05.006l-1.513,1.377a1.5,1.5,0,0,1-2.072-.047l-2.391-2.391a1.5,1.5,0,0,1-.049-2.072l1.378-1.512a.037.037,0,0,0,.006-.051,11.937,11.937,0,0,1-1.048-2.527c-.007-.023-.016-.029-.04-.03l-2.043-.095A1.5,1.5,0,0,1,10,43.446V40.064a1.5,1.5,0,0,1,1.431-1.5l2.043-.095a.035.035,0,0,0,.039-.032,12,12,0,0,1,1.048-2.527.034.034,0,0,0-.006-.05l-1.378-1.513a1.5,1.5,0,0,1,.049-2.071l2.391-2.393a1.5,1.5,0,0,1,2.072-.047L19.2,31.217a.035.035,0,0,0,.05,0,12.065,12.065,0,0,1,2.527-1.048.035.035,0,0,0,.032-.039l.095-2.043a1.5,1.5,0,0,1,1.5-1.431h.966A1.938,1.938,0,0,1,26.3,24.776H37.836a.726.726,0,0,1,.515.213l7.79,7.79a.725.725,0,0,1,.211.515h0v7.83h3.04V24.967a4.164,4.164,0,0,1,4.137-4.182h5.242a4.79,4.79,0,1,1,5.694.2,7.051,7.051,0,0,1,5.264,6.047,3.367,3.367,0,0,1-3.345,3.742H57.127a3.367,3.367,0,0,1-3.346-3.742,7.04,7.04,0,0,1,2.695-4.792H53.53a2.705,2.705,0,0,0-2.679,2.724V41.125h7.921a4.79,4.79,0,1,1,5.694.2,7.053,7.053,0,0,1,5.264,6.047,3.366,3.366,0,0,1-3.345,3.742H57.127a3.366,3.366,0,0,1-3.346-3.742,7.048,7.048,0,0,1,2.7-4.792ZM40.167,51.76a.729.729,0,0,1,0,1.457H28.738a.729.729,0,0,1,0-1.457Zm0-5.318a.729.729,0,1,1,0,1.457H28.738a.729.729,0,1,1,0-1.457Zm0-5.317a.729.729,0,0,1,0,1.457H28.738a.729.729,0,1,1,0-1.457Zm0-5.317a.729.729,0,0,1,0,1.457H28.738a.729.729,0,1,1,0-1.457ZM28.01,29.976a.729.729,0,0,1,.729-.729h5.1a.729.729,0,0,1,0,1.457h-5.1a.73.73,0,0,1-.73-.729Z" transform="translate(0)" fill="#222124" fill-rule="evenodd"/>
      </g>
    </g>
  </g>
</svg>
