<svg xmlns="http://www.w3.org/2000/svg" xmlns:xlink="http://www.w3.org/1999/xlink" width="108" height="108" viewBox="0 0 108 108">
  <defs>
    <filter id="Path_904820" x="0" y="0" width="108" height="108" filterUnits="userSpaceOnUse">
      <feOffset dy="3" input="SourceAlpha"/>
      <feGaussianBlur stdDeviation="3" result="blur"/>
      <feFlood flood-opacity="0.161"/>
      <feComposite operator="in" in2="blur"/>
      <feComposite in="SourceGraphic"/>
    </filter>
  </defs>
  <g id="Group_1179300" data-name="Group 1179300" transform="translate(-620 -315)">
    <g id="Group_1179167" data-name="Group 1179167">
      <g id="Group_1178846" data-name="Group 1178846" transform="translate(629 321)">
        <g id="Group_1173585" data-name="Group 1173585" transform="translate(0 0)">
          <g id="Group_1173428" data-name="Group 1173428">
            <g id="Group_1171958" data-name="Group 1171958">
              <g id="Group_1167341" data-name="Group 1167341">
                <g id="Group_1166792" data-name="Group 1166792">
                  <g transform="matrix(1, 0, 0, 1, -9, -6)" filter="url(#Path_904820)">
                    <g id="Path_904820-2" data-name="Path 904820" transform="translate(9 6)" fill="#edf5fb">
                      <path d="M 44.99999618530273 88.49999237060547 C 39.12687301635742 88.49999237060547 33.43022155761719 87.35006713867188 28.06829643249512 85.08216857910156 C 22.88852119445801 82.89130401611328 18.23629570007324 79.75457763671875 14.24084663391113 75.75914001464844 C 10.24540901184082 71.76369476318359 7.108683586120605 67.11146545410156 4.917821407318115 61.93169403076172 C 2.649921178817749 56.56976699829102 1.499996185302734 50.87311553955078 1.499996185302734 44.99999237060547 C 1.499996185302734 39.12686920166016 2.649921178817749 33.43021774291992 4.917821407318115 28.06829261779785 C 7.108683586120605 22.88851737976074 10.24540901184082 18.23630523681641 14.24084663391113 14.24085521697998 C 18.23629570007324 10.24540519714355 22.88852119445801 7.108692169189453 28.06829643249512 4.917829990386963 C 33.43022155761719 2.649929761886597 39.12687301635742 1.500004887580872 44.99999618530273 1.500004887580872 C 50.87311935424805 1.500004887580872 56.56977081298828 2.649929761886597 61.93169784545898 4.917829990386963 C 67.11147308349609 7.108692169189453 71.76369476318359 10.24540519714355 75.75914764404297 14.24085521697998 C 79.75458526611328 18.23630523681641 82.89131164550781 22.88851737976074 85.08216857910156 28.06829261779785 C 87.35007476806641 33.43021774291992 88.5 39.12686920166016 88.5 44.99999237060547 C 88.5 50.87311553955078 87.35007476806641 56.56976699829102 85.08216857910156 61.93169403076172 C 82.89131164550781 67.11146545410156 79.75458526611328 71.76369476318359 75.75914764404297 75.75914001464844 C 71.76369476318359 79.75457763671875 67.11147308349609 82.89130401611328 61.93169784545898 85.08216857910156 C 56.56977081298828 87.35006713867188 50.87311935424805 88.49999237060547 44.99999618530273 88.49999237060547 Z" stroke="none"/>
                      <path d="M 44.99999618530273 2.999992370605469 C 39.32870864868164 2.999992370605469 33.82865142822266 4.11004638671875 28.65262603759766 6.299331665039062 C 23.65165710449219 8.414566040039062 19.15968322753906 11.44333648681641 15.301513671875 15.30150604248047 C 11.44333648681641 19.15967559814453 8.414566040039062 23.65164947509766 6.299339294433594 28.65262222290039 C 4.110054016113281 33.82864761352539 2.999992370605469 39.32870483398438 2.999992370605469 44.99999237060547 C 2.999992370605469 50.67127990722656 4.110054016113281 56.17132186889648 6.299339294433594 61.34736633300781 C 8.414566040039062 66.34833526611328 11.44333648681641 70.84029388427734 15.301513671875 74.69846343994141 C 19.15968322753906 78.55663299560547 23.65165710449219 81.58540344238281 28.65262603759766 83.70063781738281 C 33.82865142822266 85.88992309570312 39.32870864868164 86.99997711181641 44.99999618530273 86.99997711181641 C 50.67128372192383 86.99997711181641 56.17134094238281 85.88992309570312 61.34736633300781 83.70063781738281 C 66.34834289550781 81.58540344238281 70.84030914306641 78.55663299560547 74.69847869873047 74.69846343994141 C 78.55665588378906 70.84029388427734 81.58542633056641 66.34833526611328 83.70065307617188 61.34736633300781 C 85.88993835449219 56.17132186889648 87 50.67127990722656 87 44.99999237060547 C 87 39.32870483398438 85.88993835449219 33.82864761352539 83.70065307617188 28.65262222290039 C 81.58542633056641 23.65164947509766 78.55665588378906 19.15967559814453 74.69847869873047 15.30150604248047 C 70.84030914306641 11.44333648681641 66.34834289550781 8.414566040039062 61.34736633300781 6.299331665039062 C 56.17134094238281 4.11004638671875 50.67128372192383 2.999992370605469 44.99999618530273 2.999992370605469 M 44.99999618530273 -7.62939453125e-06 C 69.85281372070312 -7.62939453125e-06 90 20.14717864990234 90 44.99999237060547 C 90 69.85279083251953 69.85281372070312 89.99997711181641 44.99999618530273 89.99997711181641 C 20.14717864990234 89.99997711181641 -7.62939453125e-06 69.85279083251953 -7.62939453125e-06 44.99999237060547 C -7.62939453125e-06 20.14717864990234 20.14717864990234 -7.62939453125e-06 44.99999618530273 -7.62939453125e-06 Z" stroke="none" fill="#56a8dd"/>
                    </g>
                  </g>
                </g>
              </g>
            </g>
          </g>
        </g>
      </g>
      <g id="crisis-management_18501830" transform="translate(619.688 323.468)">
        <g id="Group_1179166" data-name="Group 1179166" transform="translate(29 16)">
          <path id="Path_1041496" data-name="Path 1041496" d="M67.508,23.789a.734.734,0,0,1,.221.535V46.059a2.144,2.144,0,0,1,1.135.958L81.008,68.052a2.155,2.155,0,0,1-1.872,3.24H54.849a2.129,2.129,0,0,1-1.87-1.084,2.118,2.118,0,0,1,.023-2.2l.844-1.461h-22.2A2.658,2.658,0,0,1,29,63.9V18.649A2.658,2.658,0,0,1,31.649,16H59.412a.732.732,0,0,1,.525.22Z" transform="translate(-29 -16)" fill-rule="evenodd"/>
          <path id="Path_1041497" data-name="Path 1041497" d="M253.143,300.046l-5.7,9.867a.682.682,0,0,0-.022.733.652.652,0,0,0,.6.343h24.29a.684.684,0,0,0,.6-1.041l-12.144-21.03a.691.691,0,0,0-1.2,0l-6.424,11.127Zm7.027,5.542a2.13,2.13,0,1,1-2.13,2.13A2.132,2.132,0,0,1,260.17,305.588Zm2.163-11.343-.285,8.363a2.022,2.022,0,0,1-1.054,1.931,1.793,1.793,0,0,1-1.651,0,2.024,2.024,0,0,1-1.054-1.931L258,294.244a2.17,2.17,0,0,1,3.7-1.553A2.058,2.058,0,0,1,262.333,294.244Z" transform="translate(-222.177 -257.169)" fill="#ffab3c" fill-rule="evenodd"/>
          <path id="Path_1041498" data-name="Path 1041498" d="M69.311,70.614h-.677a.736.736,0,0,1-.736-.735V50.862a.736.736,0,0,1,.736-.736h4.523a.736.736,0,0,1,.736.736V62.68l2.515-4.357a2.13,2.13,0,0,1,1.136-.954V36.358H72.306a2.347,2.347,0,0,1-2.342-2.341V28.78H42.931a1.185,1.185,0,0,0-1.181,1.177V75.2a1.185,1.185,0,0,0,1.181,1.176H65.97ZM45.629,38.273a8.128,8.128,0,0,1,.758-1.821c-1.049-1.049-.908-.713-.908-2.189a.73.73,0,0,1,.217-.526l1.071-1.072a.737.737,0,0,1,.521-.215c1.488,0,1.143-.139,2.189.909a8.044,8.044,0,0,1,1.824-.751c0-1.488-.139-1.144.908-2.189a.735.735,0,0,1,.515-.222h1.522a.734.734,0,0,1,.53.222l.691.691a.73.73,0,0,1,.215.52v.978a8.075,8.075,0,0,1,1.821.756c1.049-1.049.713-.909,2.189-.909a.73.73,0,0,1,.52.215l1.072,1.071a.735.735,0,0,1,.215.521c0,1.489.139,1.144-.909,2.189a8.075,8.075,0,0,1,.756,1.821c1.488,0,1.144-.139,2.189.907a.737.737,0,0,1,.215.521V41.22a.733.733,0,0,1-.22.524l-.691.691a.735.735,0,0,1-.52.215h-.979a8.075,8.075,0,0,1-.748,1.821c1.049,1.049.909.713.909,2.189a.733.733,0,0,1-.22.524l-1.071,1.071a.733.733,0,0,1-.521.215c-1.488,0-1.144.139-2.189-.908a8.107,8.107,0,0,1-1.821.756c0,1.488.139,1.144-.907,2.189a.733.733,0,0,1-.521.215H52.722a.733.733,0,0,1-.524-.22l-.691-.691a.737.737,0,0,1-.215-.521v-.978a8.1,8.1,0,0,1-1.82-.756c-1.051,1.049-.714.908-2.189.908a.737.737,0,0,1-.525-.219L45.7,47.181a.732.732,0,0,1-.219-.521c0-1.489-.139-1.144.908-2.189a8.128,8.128,0,0,1-.756-1.821c-1.488,0-1.144.139-2.189-.908a.73.73,0,0,1-.215-.52V39.7a.734.734,0,0,1,.219-.528l.691-.691a.733.733,0,0,1,.521-.215Zm5.493,19.49a.735.735,0,0,1-.31,1.438l-3.849-.841a.734.734,0,0,1-.524-1l1.18-3.7a.733.733,0,1,1,1.4.442l-.623,1.958L67.7,44.913a.733.733,0,0,1,.73,1.267L49.123,57.327Zm10.01-3.437h4.523a.736.736,0,0,1,.736.735V69.879a.736.736,0,0,1-.736.735H61.132a.736.736,0,0,1-.736-.735V55.061A.736.736,0,0,1,61.132,54.326Zm-7.5,3.181h4.523a.736.736,0,0,1,.736.735V69.876a.736.736,0,0,1-.736.735H53.634a.735.735,0,0,1-.735-.735V58.241A.735.735,0,0,1,53.634,57.506Zm-7.5,3.085h4.523a.736.736,0,0,1,.736.736v8.552a.736.736,0,0,1-.736.735H46.136a.735.735,0,0,1-.735-.735V61.327a.736.736,0,0,1,.735-.736Z" transform="translate(-40.281 -27.308)" fill="#f2f2f2" fill-rule="evenodd"/>
          <path id="Path_1041499" data-name="Path 1041499" d="M299.41,37.81v4.2a.874.874,0,0,0,.874.87h4.2Z" transform="translate(-268.26 -35.298)" fill="#919091" fill-rule="evenodd"/>
          <path id="Path_1041500" data-name="Path 1041500" d="M354.21,449.288a.659.659,0,1,0,0,.932A.659.659,0,0,0,354.21,449.288Z" transform="translate(-315.753 -399.204)" fill="#ef6262" fill-rule="evenodd"/>
          <path id="Path_1041501" data-name="Path 1041501" d="M353.862,340.663l.285-8.374a.7.7,0,0,0-1.2-.461.656.656,0,0,0-.194.461l.285,8.374c.012.333.051.558.255.661.252.129.576-.05.576-.623Z" transform="translate(-315.456 -295.26)" fill="#ef6262" fill-rule="evenodd"/>
          <path id="Path_1041502" data-name="Path 1041502" d="M284.53,240.491V226.86h-3.05v17.545h.791Z" transform="translate(-252.395 -202.57)" fill="#07718b" fill-rule="evenodd"/>
        </g>
        <path id="Path_1041503" data-name="Path 1041503" d="M216.39,263.31h3.05v13.347h-3.05Z" transform="translate(-165.804 -218.821)" fill="#f7ba2d"/>
        <path id="Path_1041504" data-name="Path 1041504" d="M151.3,290.92h3.05v10.166H151.3Z" transform="translate(-108.212 -243.251)" fill="#0c9198"/>
        <path id="Path_1041505" data-name="Path 1041505" d="M86.21,317.71h3.05v7.08H86.21Z" transform="translate(-50.62 -266.954)" fill="#ef6262"/>
        <path id="Path_1041506" data-name="Path 1041506" d="M70.509,58.977a6.711,6.711,0,0,0-.957,2.323.735.735,0,0,1-.727.63H67.57l-.26.26V63.1l.26.26h1.254a.736.736,0,0,1,.727.626,6.776,6.776,0,0,0,.957,2.325.736.736,0,0,1-.059.975l-.887.886v.369l.645.645h.369l.887-.887a.735.735,0,0,1,.973-.059,6.786,6.786,0,0,0,2.325.957.736.736,0,0,1,.626.728v1.253l.26.26h.912l.26-.26V69.923a.735.735,0,0,1,.626-.728,6.78,6.78,0,0,0,2.324-.957.736.736,0,0,1,.975.059l.887.887H82l.644-.645V68.17l-.886-.886a.735.735,0,0,1-.059-.975,6.774,6.774,0,0,0,.956-2.325.737.737,0,0,1,.728-.626h1.253l.26-.26v-.912l-.26-.256H83.383a.736.736,0,0,1-.728-.626,6.778,6.778,0,0,0-.956-2.323.735.735,0,0,1,.059-.975l.886-.887v-.373L82,56.1h-.369l-.887.887a.735.735,0,0,1-.975.058,6.8,6.8,0,0,0-2.324-.956.736.736,0,0,1-.625-.726V54.11l-.26-.26h-.912l-.26.26v1.254a.737.737,0,0,1-.626.727,6.784,6.784,0,0,0-2.325.956.734.734,0,0,1-.973-.058l-.887-.887h-.369l-.645.644v.369L70.45,58A.736.736,0,0,1,70.509,58.977Zm9.05,7.121a4.887,4.887,0,1,1,0-6.912A4.887,4.887,0,0,1,79.559,66.1Z" transform="translate(-33.897 -33.49)" fill="#378fef" fill-rule="evenodd"/>
        <circle id="Ellipse_12546" data-name="Ellipse 12546" cx="3.414" cy="3.414" r="3.414" transform="translate(38.234 26.409) rotate(-10.254)" fill="#67aaf3"/>
      </g>
    </g>
  </g>
</svg>
