<svg xmlns="http://www.w3.org/2000/svg" xmlns:xlink="http://www.w3.org/1999/xlink" width="113" height="113" viewBox="0 0 113 113">
  <defs>
    <filter id="Path_982547" x="0" y="0" width="113" height="113" filterUnits="userSpaceOnUse">
      <feOffset dy="3" input="SourceAlpha"/>
      <feGaussianBlur stdDeviation="3" result="blur"/>
      <feFlood flood-opacity="0.161"/>
      <feComposite operator="in" in2="blur"/>
      <feComposite in="SourceGraphic"/>
    </filter>
  </defs>
  <g id="Group_1179248" data-name="Group 1179248" transform="translate(-323.5 -685)">
    <g id="Group_1179132" data-name="Group 1179132">
      <g id="Group_1177984" data-name="Group 1177984" transform="translate(0 -227)">
        <g id="Group_1177679" data-name="Group 1177679" transform="translate(332.5 918)">
          <g id="Group_1172010" data-name="Group 1172010">
            <g id="Group_1171046" data-name="Group 1171046">
              <g id="Group_1148525" data-name="Group 1148525">
                <g transform="matrix(1, 0, 0, 1, -9, -6)" filter="url(#Path_982547)">
                  <g id="Path_982547-2" data-name="Path 982547" transform="translate(9 6)" fill="#fbedfe">
                    <path d="M 47.5 93.5 C 41.28937149047852 93.5 35.26533508300781 92.28397369384766 29.59518623352051 89.88570404052734 C 24.11771965026855 87.56893157958984 19.19813346862793 84.25196075439453 14.97309303283691 80.02691650390625 C 10.74804019927979 75.80186462402344 7.431066513061523 70.88229370117188 5.114293098449707 65.40481567382812 C 2.716026782989502 59.73468017578125 1.5 53.71062850952148 1.5 47.5 C 1.5 41.28937149047852 2.716026782989502 35.26533508300781 5.114293098449707 29.59518623352051 C 7.431066513061523 24.11771965026855 10.74804019927979 19.19813346862793 14.97309303283691 14.97309303283691 C 19.19813346862793 10.74804019927979 24.11771965026855 7.431066513061523 29.59518623352051 5.114293098449707 C 35.26533508300781 2.716026782989502 41.28937149047852 1.5 47.5 1.5 C 53.71062850952148 1.5 59.73468017578125 2.716026782989502 65.40481567382812 5.114293098449707 C 70.88229370117188 7.431066513061523 75.80186462402344 10.74804019927979 80.02691650390625 14.97309303283691 C 84.25196075439453 19.19813346862793 87.56893157958984 24.11771965026855 89.88570404052734 29.59518623352051 C 92.28397369384766 35.26533508300781 93.5 41.28937149047852 93.5 47.5 C 93.5 53.71062850952148 92.28397369384766 59.73468017578125 89.88570404052734 65.40481567382812 C 87.56893157958984 70.88229370117188 84.25196075439453 75.80186462402344 80.02691650390625 80.02691650390625 C 75.80186462402344 84.25196075439453 70.88229370117188 87.56893157958984 65.40481567382812 89.88570404052734 C 59.73468017578125 92.28397369384766 53.71062850952148 93.5 47.5 93.5 Z" stroke="none"/>
                    <path d="M 47.5 3 C 41.49121475219727 3 35.66376876831055 4.176155090332031 30.17950439453125 6.495796203613281 C 24.88084411621094 8.736953735351562 20.12152099609375 11.94598388671875 16.03375244140625 16.03375244140625 C 11.94598388671875 20.12152099609375 8.736953735351562 24.88084411621094 6.495796203613281 30.17950439453125 C 4.176155090332031 35.66376876831055 3 41.49121475219727 3 47.5 C 3 53.50878524780273 4.176155090332031 59.33623123168945 6.495796203613281 64.82049560546875 C 8.736953735351562 70.11915588378906 11.94598388671875 74.87847900390625 16.03375244140625 78.96624755859375 C 20.12152099609375 83.05401611328125 24.88084411621094 86.26304626464844 30.17950439453125 88.50419616699219 C 35.66376876831055 90.82384490966797 41.49121475219727 92 47.5 92 C 53.50878524780273 92 59.33623123168945 90.82384490966797 64.82049560546875 88.50419616699219 C 70.11915588378906 86.26304626464844 74.87847900390625 83.05401611328125 78.96624755859375 78.96624755859375 C 83.05401611328125 74.87847900390625 86.26304626464844 70.11915588378906 88.50419616699219 64.82049560546875 C 90.82384490966797 59.33623123168945 92 53.50878524780273 92 47.5 C 92 41.49121475219727 90.82384490966797 35.66376876831055 88.50419616699219 30.17950439453125 C 86.26304626464844 24.88084411621094 83.05401611328125 20.12152099609375 78.96624755859375 16.03375244140625 C 74.87847900390625 11.94598388671875 70.11915588378906 8.736953735351562 64.82049560546875 6.495796203613281 C 59.33623123168945 4.176155090332031 53.50878524780273 3 47.5 3 M 47.5 0 C 73.7335205078125 0 95 21.2664794921875 95 47.5 C 95 73.7335205078125 73.7335205078125 95 47.5 95 C 21.2664794921875 95 0 73.7335205078125 0 47.5 C 0 21.2664794921875 21.2664794921875 0 47.5 0 Z" stroke="none" fill="#e25cfa"/>
                  </g>
                </g>
              </g>
            </g>
          </g>
        </g>
      </g>
      <g id="control_17116653" transform="translate(331.658 689.912)">
        <g id="Group_1179131" data-name="Group 1179131" transform="translate(19.052 52.147)">
          <path id="Path_1041338" data-name="Path 1041338" d="M27.393,327.247l3.49-1.694a2.5,2.5,0,0,1,3.328,1.153l6.78,13.966A2.5,2.5,0,0,1,39.839,344l-3.49,1.694a2.5,2.5,0,0,1-3.328-1.153l-6.78-13.966a2.5,2.5,0,0,1,1.153-3.328Z" transform="translate(-25.993 -319.963)" fill="#88d5e8" fill-rule="evenodd"/>
          <path id="Path_1041339" data-name="Path 1041339" d="M116.371,293.7c6.8,1.582,13.468-6.261,19.405-9.532,3.882-1.767,8.425,2.156,4.679,5.9,0,0-5.043,4.409-16.481,11.294-3.992,2.4-5.638,3.511-10.176,2.882-3.675-.509-10.626-3.069-13.373-1.825-.9.409-2,.9-2.936,1.405L91.145,290.76h0l9.9-5.484a9.894,9.894,0,0,1,7.2-1.374l7.072,1.879C122.052,287.838,119.914,293.677,116.371,293.7Z" transform="translate(-82.778 -283.712)" fill="#f8dccd" fill-rule="evenodd"/>
          <path id="Path_1041340" data-name="Path 1041340" d="M54.706,356.293a1.747,1.747,0,1,0-1.747-1.747A1.747,1.747,0,0,0,54.706,356.293Z" transform="translate(-49.496 -343.927)" fill="#d8ecfe" fill-rule="evenodd"/>
        </g>
        <path id="Path_1041341" data-name="Path 1041341" d="M189.371,118.833h4.69v16.726h-4.69Z" transform="translate(-149.337 -87.861)" fill="#a7adf1"/>
        <path id="Path_1041342" data-name="Path 1041342" d="M251.555,133.821h4.69v14.8h-4.69Z" transform="translate(-203.535 -100.924)" fill="#d8ecfe"/>
        <path id="Path_1041343" data-name="Path 1041343" d="M313.738,89.011h4.69v20.556h-4.69Z" transform="translate(-257.732 -61.868)" fill="#a7adf1"/>
        <path id="Path_1041344" data-name="Path 1041344" d="M290.323,143.5H288.45a8.487,8.487,0,0,1-1.163,2.8l1.325,1.325a10.388,10.388,0,0,1-2.539,2.539l-1.324-1.324a8.524,8.524,0,0,1-2.805,1.16v1.875a10.418,10.418,0,0,1-3.591,0v-1.874a8.5,8.5,0,0,1-2.8-1.163l-1.325,1.325a10.391,10.391,0,0,1-2.539-2.539l1.324-1.324a8.524,8.524,0,0,1-1.16-2.805h-1.875a10.414,10.414,0,0,1,0-3.591h1.875a8.523,8.523,0,0,1,1.16-2.8l-1.324-1.324a10.393,10.393,0,0,1,2.539-2.539l1.325,1.325a8.5,8.5,0,0,1,2.8-1.163v-1.873a10.421,10.421,0,0,1,3.591,0V133.4a8.523,8.523,0,0,1,2.805,1.16l1.324-1.324a10.392,10.392,0,0,1,2.539,2.539l-1.326,1.325a8.487,8.487,0,0,1,1.163,2.8h1.874a10.425,10.425,0,0,1,0,3.591Zm-10.175-6.58a4.784,4.784,0,1,0,4.784,4.784,4.784,4.784,0,0,0-4.784-4.784Z" transform="translate(-219.452 -98.79)" fill="#ffe266" fill-rule="evenodd"/>
        <path id="Path_1041345" data-name="Path 1041345" d="M127.189,191.445h4.69v7.4h-4.69Z" transform="translate(-95.14 -151.147)" fill="#d8ecfe"/>
        <path id="Path_1041346" data-name="Path 1041346" d="M20.009,58.508l3.49-1.694a3.53,3.53,0,0,1,4.3,1l9.009-4.993a10.936,10.936,0,0,1,7.9-1.49l7.246,1.926c2.574.8,4.024,2.145,4.66,3.575A4.5,4.5,0,0,1,56.3,61.1c5.176-1.158,10.465-6.763,15.263-9.4q.034-.019.069-.035v0c3.35-1.525,7.323.457,7.521,3.708a5.02,5.02,0,0,1-1.69,3.857c-.427.427-6.077,5.062-16.678,11.446-4.112,2.477-5.892,3.7-10.847,3.018-1.183-.164-2.669-.527-4.248-.913-3.278-.8-6.988-1.707-8.564-.993l-2.011.934a3.53,3.53,0,0,1-1.764,4.383l-3.492,1.7a3.527,3.527,0,0,1-4.695-1.631L18.378,63.2a3.527,3.527,0,0,1,1.63-4.7ZM32.049,39.27h4.69A1.027,1.027,0,0,1,37.767,40.3v7.4a1.027,1.027,0,0,1-1.027,1.027H32.05A1.027,1.027,0,0,1,31.023,47.7V40.3A1.027,1.027,0,0,1,32.05,39.27Zm3.662,2.055H33.077V46.67h2.635V41.325Zm35.16,4.412a1.027,1.027,0,0,0,1.011-.85,11.252,11.252,0,0,0,.007-3.9,1.027,1.027,0,0,0-1.019-.893H69.788a9.547,9.547,0,0,0-.668-1.608l.767-.767,0,0A1.024,1.024,0,0,0,70,36.4a11.224,11.224,0,0,0-2.737-2.756,1.027,1.027,0,0,0-1.367.076l-.767.767a9.776,9.776,0,0,0-1.608-.666V32.739h0a1.027,1.027,0,0,0-.85-1.011q-.471-.082-.945-.125v-4.46A1.027,1.027,0,0,0,60.7,26.115h-4.69a1.027,1.027,0,0,0-1.027,1.027v6.306c-.517-.107-.842.185-1.241.493V32.9a1.027,1.027,0,0,0-1.027-1.027h-4.69A1.027,1.027,0,0,0,46.994,32.9V47.7a1.027,1.027,0,0,0,1.027,1.027h3.193a1.021,1.021,0,0,0,.18.7,11.208,11.208,0,0,0,2.712,2.731A1.027,1.027,0,0,0,55.5,52.1l.767-.767A9.546,9.546,0,0,0,57.874,52v1.084a1.027,1.027,0,0,0,.85,1.011,11.316,11.316,0,0,0,3.9.007,1.027,1.027,0,0,0,.893-1.019V52a9.772,9.772,0,0,0,1.608-.666l.767.767h0a1.026,1.026,0,0,0,1.315.114A11.215,11.215,0,0,0,69.942,49.5a1.027,1.027,0,0,0-.056-1.393l-.767-.767a9.542,9.542,0,0,0,.668-1.608Zm-18.918.934H49.049V33.925h2.635v2.08q-.129.169-.253.343a1.027,1.027,0,0,0,.076,1.367l.767.767a9.783,9.783,0,0,0-.666,1.608H50.522a1.027,1.027,0,0,0-1.011.85,11.316,11.316,0,0,0-.007,3.9,1.027,1.027,0,0,0,1.019.892h1.086l.345.934Zm5.081-12.542V28.17H59.67V31.6q-.452.041-.9.118a1.027,1.027,0,0,0-.893,1.019v1.084l-.84.306ZM69,43.682h.971a9.5,9.5,0,0,0,0-1.536H69a1.027,1.027,0,0,1-1-.81,7.532,7.532,0,0,0-.989-2.413,1.027,1.027,0,0,1,.1-1.334L67.8,36.9a9.782,9.782,0,0,0-1.087-1.085l-.686.686h0a1.026,1.026,0,0,1-1.279.138,7.45,7.45,0,0,0-2.426-1.011,1.027,1.027,0,0,1-.853-1.013v-.973a9.5,9.5,0,0,0-1.536,0v.971h0a1.027,1.027,0,0,1-.81,1A7.539,7.539,0,0,0,56.7,36.6a1.027,1.027,0,0,1-1.334-.1l-.688-.688A9.782,9.782,0,0,0,53.6,36.9l.687.687h0a1.025,1.025,0,0,1,.138,1.279,7.451,7.451,0,0,0-1.01,2.426,1.027,1.027,0,0,1-1.013.852h-.973a9.468,9.468,0,0,0,0,1.536H52.4a1.027,1.027,0,0,1,1,.81,7.481,7.481,0,0,0,.986,2.414,1.027,1.027,0,0,1-.1,1.334l-.687.686a9.794,9.794,0,0,0,1.086,1.087l.688-.688h0a1.026,1.026,0,0,1,1.279-.138A7.52,7.52,0,0,0,59.076,50.2a1.027,1.027,0,0,1,.852,1.013v.971a9.511,9.511,0,0,0,1.536,0v-.973h0a1.027,1.027,0,0,1,.81-1,7.481,7.481,0,0,0,2.414-.986,1.027,1.027,0,0,1,1.334.1l.686.687A9.794,9.794,0,0,0,67.8,48.928l-.688-.688h0a1.026,1.026,0,0,1-.138-1.279,7.513,7.513,0,0,0,1.013-2.425A1.027,1.027,0,0,1,69,43.682ZM60.7,37.1a5.812,5.812,0,1,1-5.812,5.812A5.812,5.812,0,0,1,60.7,37.1Zm0,2.055a3.757,3.757,0,1,1-3.757,3.757A3.757,3.757,0,0,1,60.7,39.158ZM34.944,29.594a1.023,1.023,0,0,1-1.1-1.726l7.986-5.085a1.021,1.021,0,0,1,.866-.11v0l7.453,2.421L56.2,20.118l-.822-.043a1.025,1.025,0,1,1,.1-2.047l3.456.182a1.026,1.026,0,0,1,.958,1.191l-.571,3.41a1.025,1.025,0,0,1-2.023-.337l.119-.711L51.065,26.99a1.025,1.025,0,0,1-1.017.225L42.52,24.769Zm5.091.352h4.69a1.027,1.027,0,0,1,1.027,1.027V47.7a1.027,1.027,0,0,1-1.027,1.027h-4.69A1.027,1.027,0,0,1,39.008,47.7V30.972a1.027,1.027,0,0,1,1.027-1.027ZM43.7,32H41.063v14.67H43.7V32ZM24.263,59.992a2.774,2.774,0,1,0,2.774,2.774A2.774,2.774,0,0,0,24.263,59.992Zm0,2.055a.719.719,0,1,0,.719.719A.719.719,0,0,0,24.263,62.046Zm28.151,1.084a85.749,85.749,0,0,1-9.152-2.4,1.024,1.024,0,0,1,.546-1.975c.916.255,1.651.475,2.381.694a56.463,56.463,0,0,0,6.539,1.654,2.307,2.307,0,0,0,1.741-.966,2.443,2.443,0,0,0,.274-2.476c-.419-.943-1.466-1.855-3.4-2.456l-7.054-1.874a8.409,8.409,0,0,0-2.983-.054A10.534,10.534,0,0,0,37.821,54.6l-9.055,5.019,5.462,11.252,2.05-.952c3.172-1.437,10.067,1.209,13.935,1.745,4.228.586,5.833-.533,9.506-2.746C70.4,62.49,75.42,58.277,76,57.78a3.086,3.086,0,0,0,1.1-2.286,2.446,2.446,0,0,0-1.53-1.97,3.7,3.7,0,0,0-3.077,0A48.974,48.974,0,0,0,67.2,57.175c-4.629,3.481-9.544,7.177-14.786,5.957v0Zm-19.563,9.6-6.5-13.393a1.468,1.468,0,0,0-1.959-.675L20.9,60.354a1.468,1.468,0,0,0-.675,1.959l6.747,13.9a1.473,1.473,0,0,0,2.057.712l3.425-1.663a1.468,1.468,0,0,0,.675-1.959Z" transform="translate(0 0)" fill="#0b0a0a" fill-rule="evenodd"/>
      </g>
    </g>
  </g>
</svg>
