<svg xmlns="http://www.w3.org/2000/svg" xmlns:xlink="http://www.w3.org/1999/xlink" width="113" height="113" viewBox="0 0 113 113">
  <defs>
    <filter id="Path_982547" x="0" y="0" width="113" height="113" filterUnits="userSpaceOnUse">
      <feOffset dy="3" input="SourceAlpha"/>
      <feGaussianBlur stdDeviation="3" result="blur"/>
      <feFlood flood-opacity="0.161"/>
      <feComposite operator="in" in2="blur"/>
      <feComposite in="SourceGraphic"/>
    </filter>
  </defs>
  <g id="Group_1179295" data-name="Group 1179295" transform="translate(-8132.51 -3642.592)">
    <g id="Group_1179165" data-name="Group 1179165">
      <g id="Group_1178840" data-name="Group 1178840" transform="translate(8141.51 3648.592)">
        <g id="Group_1176922" data-name="Group 1176922" transform="translate(0 0)">
          <g id="Group_1172322" data-name="Group 1172322">
            <g id="Group_1164700" data-name="Group 1164700">
              <g id="Group_1160931" data-name="Group 1160931">
                <g id="Group_1160749" data-name="Group 1160749">
                  <g id="Group_1158891" data-name="Group 1158891">
                    <g id="Group_1157406" data-name="Group 1157406">
                      <g id="Group_1155793" data-name="Group 1155793">
                        <g id="Group_1154704" data-name="Group 1154704">
                          <g id="Group_1150790" data-name="Group 1150790">
                            <g id="Group_1154214" data-name="Group 1154214">
                              <g id="Group_1152583" data-name="Group 1152583">
                                <g id="Group_1146973" data-name="Group 1146973">
                                  <g id="Group_1146954" data-name="Group 1146954">
                                    <g transform="matrix(1, 0, 0, 1, -9, -6)" filter="url(#Path_982547)">
                                      <g id="Path_982547-2" data-name="Path 982547" transform="translate(9 6)" fill="#fbedfe">
                                        <path d="M 47.5000114440918 93.49987030029297 C 41.28938293457031 93.49987030029297 35.26534652709961 92.28384399414062 29.5951976776123 89.88558959960938 C 24.11773109436035 87.56881713867188 19.19814491271973 84.25183868408203 14.97310447692871 80.02680206298828 C 10.74805164337158 75.80176544189453 7.43107795715332 70.88218688964844 5.114304542541504 65.40472412109375 C 2.716038227081299 59.73458862304688 1.500011444091797 53.71054840087891 1.500011444091797 47.49993515014648 C 1.500011444091797 41.28932189941406 2.716038227081299 35.26528167724609 5.114304542541504 29.59514808654785 C 7.43107795715332 24.1176815032959 10.74805164337158 19.1981086730957 14.97310447692871 14.97306823730469 C 19.19814491271973 10.74802875518799 24.11773109436035 7.431055068969727 29.5951976776123 5.11428165435791 C 35.26534652709961 2.716028451919556 41.28938293457031 1.500001788139343 47.5000114440918 1.500001788139343 C 53.71063995361328 1.500001788139343 59.73467636108398 2.716028451919556 65.40482330322266 5.11428165435791 C 70.88229370117188 7.431055068969727 75.8018798828125 10.74802875518799 80.02691650390625 14.97306823730469 C 84.25196838378906 19.1981086730957 87.56894683837891 24.1176815032959 89.88571929931641 29.59514808654785 C 92.28398132324219 35.26528167724609 93.50001525878906 41.28932189941406 93.50001525878906 47.49993515014648 C 93.50001525878906 53.71054840087891 92.28398132324219 59.73458862304688 89.88571929931641 65.40472412109375 C 87.56894683837891 70.88218688964844 84.25196838378906 75.80176544189453 80.02691650390625 80.02680206298828 C 75.8018798828125 84.25183868408203 70.88229370117188 87.56881713867188 65.40482330322266 89.88558959960938 C 59.73467636108398 92.28384399414062 53.71063995361328 93.49987030029297 47.5000114440918 93.49987030029297 Z" stroke="none"/>
                                        <path d="M 47.5000114440918 3 C 41.49122619628906 3 35.66378021240234 4.1761474609375 30.17951965332031 6.495796203613281 C 24.880859375 8.7369384765625 20.12153625488281 11.94596862792969 16.03376770019531 16.03373718261719 C 11.94598388671875 20.12149047851562 8.736968994140625 24.88081359863281 6.495811462402344 30.17947387695312 C 4.176162719726562 35.66371917724609 3.000007629394531 41.49116516113281 3.000007629394531 47.49993515014648 C 3.000007629394531 53.50870513916016 4.176162719726562 59.33615112304688 6.495811462402344 64.82039642333984 C 8.736968994140625 70.11905670166016 11.94598388671875 74.87837982177734 16.03376770019531 78.96613311767578 C 20.12153625488281 83.05390167236328 24.880859375 86.26293182373047 30.17951965332031 88.50407409667969 C 35.66378021240234 90.82372283935547 41.49122619628906 91.99987030029297 47.5000114440918 91.99987030029297 C 53.50879669189453 91.99987030029297 59.33624267578125 90.82372283935547 64.82050323486328 88.50407409667969 C 70.11916351318359 86.26293182373047 74.87848663330078 83.05390167236328 78.96625518798828 78.96613311767578 C 83.05403900146484 74.87837982177734 86.2630615234375 70.11905670166016 88.50421142578125 64.82039642333984 C 90.82386016845703 59.33615112304688 92.00001525878906 53.50870513916016 92.00001525878906 47.49993515014648 C 92.00001525878906 41.49116516113281 90.82386016845703 35.66371917724609 88.50421142578125 30.17947387695312 C 86.2630615234375 24.88081359863281 83.05403900146484 20.12149047851562 78.96625518798828 16.03373718261719 C 74.87848663330078 11.94596862792969 70.11916351318359 8.7369384765625 64.82050323486328 6.495796203613281 C 59.33624267578125 4.1761474609375 53.50879669189453 3 47.5000114440918 3 M 47.5000114440918 0 C 73.73353576660156 0 95.00001525878906 21.26644134521484 95.00001525878906 47.49993515014648 C 95.00001525878906 73.73342895507812 73.73353576660156 94.99987030029297 47.5000114440918 94.99987030029297 C 21.26648712158203 94.99987030029297 7.62939453125e-06 73.73342895507812 7.62939453125e-06 47.49993515014648 C 7.62939453125e-06 21.26644134521484 21.26648712158203 0 47.5000114440918 0 Z" stroke="none" fill="#7b3289"/>
                                      </g>
                                    </g>
                                  </g>
                                </g>
                              </g>
                            </g>
                          </g>
                        </g>
                      </g>
                    </g>
                  </g>
                </g>
              </g>
            </g>
          </g>
        </g>
      </g>
      <g id="analysis_3043574" transform="translate(8145.961 3650.587)">
        <path id="Path_1041461" data-name="Path 1041461" d="M180.028,243.732A16.6,16.6,0,0,1,160,246.37L168.3,232Z" transform="translate(-126.434 -189.651)" fill="#8acce7"/>
        <path id="Path_1041462" data-name="Path 1041462" d="M113.148,40.578H96.557l-8.3,14.37a16.591,16.591,0,1,1,24.887-14.37Z" transform="translate(-56.16 -7.012)" fill="#e44042"/>
        <path id="Path_1041463" data-name="Path 1041463" d="M172.877,40.59h-16.59l-8.3-14.37a16.595,16.595,0,0,1,24.887,14.37Z" transform="translate(-115.889 -7.024)" fill="#a2c32a"/>
        <path id="Path_1041464" data-name="Path 1041464" d="M272.59,199.83a16.538,16.538,0,0,1-4.859,11.732L256,199.83Z" transform="translate(-210.723 -161.405)" fill="#eedc9a"/>
        <path id="Path_1041465" data-name="Path 1041465" d="M26.928,235.132H44.494a2.928,2.928,0,0,0,2.928-2.928V205.855L41.566,200H26.928A2.928,2.928,0,0,0,24,202.928V232.2A2.928,2.928,0,0,0,26.928,235.132Z" transform="translate(-7.024 -161.555)" fill="#eedc9a"/>
        <path id="Path_1041466" data-name="Path 1041466" d="M168,200v5.855h5.855Z" transform="translate(-133.458 -161.555)" fill="#eebe33"/>
        <rect id="Rectangle_416795" data-name="Rectangle 416795" width="15.633" height="9.38" rx="4.69" transform="translate(51.529 64.036)" fill="#8acce7"/>
        <rect id="Rectangle_416796" data-name="Rectangle 416796" width="13.548" height="10.422" rx="5.211" transform="translate(59.867 22.348)" fill="#2d80b3"/>
        <path id="Path_1041467" data-name="Path 1041467" d="M35.232,192.286a.976.976,0,0,0-.69-.286H19.9a3.908,3.908,0,0,0-3.9,3.9v29.277a3.908,3.908,0,0,0,3.9,3.9H37.47a3.908,3.908,0,0,0,3.9-3.9V198.831a.976.976,0,0,0-.286-.69Zm.286,3.046,2.523,2.523H35.518Zm1.952,31.8H19.9a1.954,1.954,0,0,1-1.952-1.952V195.9a1.954,1.954,0,0,1,1.952-1.952H33.566v4.879a.976.976,0,0,0,.976.976h4.88v25.373A1.954,1.954,0,0,1,37.47,227.133Z" transform="translate(0 -154.531)"/>
        <path id="Path_1041468" data-name="Path 1041468" d="M48,224h3.9v1.952H48Z" transform="translate(-28.097 -182.627)"/>
        <path id="Path_1041469" data-name="Path 1041469" d="M80,272h9.759v1.952H80Z" transform="translate(-56.193 -224.772)"/>
        <path id="Path_1041470" data-name="Path 1041470" d="M176,272h1.952v1.952H176Z" transform="translate(-140.482 -224.772)"/>
        <path id="Path_1041471" data-name="Path 1041471" d="M160,336h3.9v1.952H160Z" transform="translate(-126.434 -280.964)"/>
        <path id="Path_1041472" data-name="Path 1041472" d="M48,336H59.711v1.952H48Z" transform="translate(-28.097 -280.964)"/>
        <path id="Path_1041473" data-name="Path 1041473" d="M128,304h7.807v1.952H128Z" transform="translate(-98.338 -252.868)"/>
        <path id="Path_1041474" data-name="Path 1041474" d="M48,304h7.807v1.952H48Z" transform="translate(-28.097 -252.868)"/>
        <path id="Path_1041475" data-name="Path 1041475" d="M48,368h5.855v1.952H48Z" transform="translate(-28.097 -309.061)"/>
        <path id="Path_1041476" data-name="Path 1041476" d="M112,368h9.759v1.952H112Z" transform="translate(-84.289 -309.061)"/>
        <path id="Path_1041477" data-name="Path 1041477" d="M48,400h9.759v1.952H48Z" transform="translate(-28.097 -337.157)"/>
        <path id="Path_1041478" data-name="Path 1041478" d="M144.8,400H148.6v1.952H144.8Z" transform="translate(-113.086 -337.157)"/>
        <path id="Path_1041479" data-name="Path 1041479" d="M152.8,432H156.6v1.952H152.8Z" transform="translate(-120.111 -365.254)"/>
        <path id="Path_1041480" data-name="Path 1041480" d="M231.77,358.787l.056,1.951a17.772,17.772,0,0,0,2.066-.181l-.284-1.931A15.786,15.786,0,0,1,231.77,358.787Z" transform="translate(-189.449 -300.831)"/>
        <path id="Path_1041481" data-name="Path 1041481" d="M241.319,253.33a17.568,17.568,0,0,0,4.673-3.348.976.976,0,0,0,0-1.38l-10.269-10.269-1.38,1.38,9.558,9.557a15.6,15.6,0,0,1-3.443,2.308Z" transform="translate(-191.708 -195.212)"/>
        <path id="Path_1041482" data-name="Path 1041482" d="M74.059,35.4a15.849,15.849,0,0,1-.107-1.838,15.677,15.677,0,0,1,6.977-13.009l7.51,13.009-1.972,3.416,1.69.976,1.972-3.416h16.027a.976.976,0,0,0,.976-.976,17.566,17.566,0,1,0-35.132,0,17.8,17.8,0,0,0,.12,2.064Zm31.092-2.814H90.13L82.618,19.579A15.62,15.62,0,0,1,105.15,32.59Z" transform="translate(-49.169 0)"/>
        <path id="Path_1041483" data-name="Path 1041483" d="M255.807,191.83h-6.831a.976.976,0,0,0-.69,1.666l11.732,11.732a.976.976,0,0,0,1.38,0,17.451,17.451,0,0,0,5.145-12.422.976.976,0,0,0-.976-.976h-1.952v1.952h.946a15.479,15.479,0,0,1-3.874,9.354l-9.354-9.354h4.475Z" transform="translate(-203.699 -154.381)"/>
        <path id="Path_1041484" data-name="Path 1041484" d="M243.723,330.343l-1.38,1.38,5.855,5.855a.976.976,0,0,0,.69.286h17.566v-1.952H249.292Z" transform="translate(-198.732 -275.997)"/>
        <path id="Path_1041485" data-name="Path 1041485" d="M309.663,400H299.9a3.908,3.908,0,0,0-3.9,3.9v3.9a3.908,3.908,0,0,0,3.9,3.9h9.759a3.908,3.908,0,0,0,3.9-3.9v-3.9A3.908,3.908,0,0,0,309.663,400Zm1.952,7.807a1.954,1.954,0,0,1-1.952,1.952H299.9a1.954,1.954,0,0,1-1.952-1.952v-3.9a1.954,1.954,0,0,1,1.952-1.952h9.759a1.954,1.954,0,0,1,1.952,1.952Z" transform="translate(-245.844 -337.157)"/>
        <path id="Path_1041486" data-name="Path 1041486" d="M336,424h5.855v1.952H336Z" transform="translate(-280.964 -358.23)"/>
        <path id="Path_1041487" data-name="Path 1041487" d="M400,424h1.952v1.952H400Z" transform="translate(-337.157 -358.23)"/>
        <path id="Path_1041488" data-name="Path 1041488" d="M320,456h1.952v1.952H320Z" transform="translate(-266.916 -386.326)"/>
        <path id="Path_1041489" data-name="Path 1041489" d="M352,456h5.855v1.952H352Z" transform="translate(-295.012 -386.326)"/>
        <path id="Path_1041490" data-name="Path 1041490" d="M379.711,64H371.9a3.908,3.908,0,0,0-3.9,3.9v3.9a3.908,3.908,0,0,0,3.9,3.9h7.807a3.908,3.908,0,0,0,3.9-3.9V67.9A3.908,3.908,0,0,0,379.711,64Zm1.952,7.807a1.954,1.954,0,0,1-1.952,1.952H371.9a1.954,1.954,0,0,1-1.952-1.952V67.9a1.954,1.954,0,0,1,1.952-1.952h7.807a1.954,1.954,0,0,1,1.952,1.952Z" transform="translate(-309.061 -42.145)"/>
        <path id="Path_1041491" data-name="Path 1041491" d="M408,88h3.9v1.952H408Z" transform="translate(-344.181 -63.217)"/>
        <path id="Path_1041492" data-name="Path 1041492" d="M456,88h1.952v1.952H456Z" transform="translate(-386.326 -63.217)"/>
        <path id="Path_1041493" data-name="Path 1041493" d="M392,120h1.952v1.952H392Z" transform="translate(-330.133 -91.314)"/>
        <path id="Path_1041494" data-name="Path 1041494" d="M424,120h3.9v1.952H424Z" transform="translate(-358.229 -91.314)"/>
        <path id="Path_1041495" data-name="Path 1041495" d="M327.222,168.286l-4.88,4.879,1.38,1.38,4.594-4.594h15.21V168H327.913a.976.976,0,0,0-.69.286Z" transform="translate(-268.973 -133.459)"/>
      </g>
    </g>
  </g>
</svg>
