<svg xmlns="http://www.w3.org/2000/svg" xmlns:xlink="http://www.w3.org/1999/xlink" width="113" height="113" viewBox="0 0 113 113">
  <defs>
    <filter id="Path_982547" x="0" y="0" width="113" height="113" filterUnits="userSpaceOnUse">
      <feOffset dy="3" input="SourceAlpha"/>
      <feGaussianBlur stdDeviation="3" result="blur"/>
      <feFlood flood-opacity="0.161"/>
      <feComposite operator="in" in2="blur"/>
      <feComposite in="SourceGraphic"/>
    </filter>
  </defs>
  <g id="Group_1179318" data-name="Group 1179318" transform="translate(-12263.49 -3839.314)">
    <g id="Group_1179242" data-name="Group 1179242">
      <g id="Group_1178881" data-name="Group 1178881" transform="translate(11470 2349.879)">
        <g id="Group_1176922" data-name="Group 1176922" transform="translate(802.49 1495.435)">
          <g id="Group_1172322" data-name="Group 1172322" transform="translate(0 0)">
            <g id="Group_1164700" data-name="Group 1164700">
              <g id="Group_1160931" data-name="Group 1160931">
                <g id="Group_1160749" data-name="Group 1160749">
                  <g id="Group_1158891" data-name="Group 1158891">
                    <g id="Group_1157406" data-name="Group 1157406">
                      <g id="Group_1155793" data-name="Group 1155793">
                        <g id="Group_1154704" data-name="Group 1154704">
                          <g id="Group_1150790" data-name="Group 1150790">
                            <g id="Group_1154214" data-name="Group 1154214">
                              <g id="Group_1152583" data-name="Group 1152583">
                                <g id="Group_1146973" data-name="Group 1146973">
                                  <g id="Group_1146954" data-name="Group 1146954">
                                    <g transform="matrix(1, 0, 0, 1, -9, -6)" filter="url(#Path_982547)">
                                      <g id="Path_982547-2" data-name="Path 982547" transform="translate(9 6)" fill="#fbedfe">
                                        <path d="M 47.5000114440918 93.49987030029297 C 41.28938293457031 93.49987030029297 35.26534652709961 92.28384399414062 29.5951976776123 89.88558959960938 C 24.11773109436035 87.56881713867188 19.19814491271973 84.25183868408203 14.97310447692871 80.02680206298828 C 10.74805164337158 75.80176544189453 7.43107795715332 70.88218688964844 5.114304542541504 65.40472412109375 C 2.716038227081299 59.73458862304688 1.500011444091797 53.71054840087891 1.500011444091797 47.49993515014648 C 1.500011444091797 41.28932189941406 2.716038227081299 35.26528167724609 5.114304542541504 29.59514808654785 C 7.43107795715332 24.1176815032959 10.74805164337158 19.1981086730957 14.97310447692871 14.97306823730469 C 19.19814491271973 10.74802875518799 24.11773109436035 7.431055068969727 29.5951976776123 5.11428165435791 C 35.26534652709961 2.716028451919556 41.28938293457031 1.500001788139343 47.5000114440918 1.500001788139343 C 53.71063995361328 1.500001788139343 59.73467636108398 2.716028451919556 65.40482330322266 5.11428165435791 C 70.88229370117188 7.431055068969727 75.8018798828125 10.74802875518799 80.02691650390625 14.97306823730469 C 84.25196838378906 19.1981086730957 87.56894683837891 24.1176815032959 89.88571929931641 29.59514808654785 C 92.28398132324219 35.26528167724609 93.50001525878906 41.28932189941406 93.50001525878906 47.49993515014648 C 93.50001525878906 53.71054840087891 92.28398132324219 59.73458862304688 89.88571929931641 65.40472412109375 C 87.56894683837891 70.88218688964844 84.25196838378906 75.80176544189453 80.02691650390625 80.02680206298828 C 75.8018798828125 84.25183868408203 70.88229370117188 87.56881713867188 65.40482330322266 89.88558959960938 C 59.73467636108398 92.28384399414062 53.71063995361328 93.49987030029297 47.5000114440918 93.49987030029297 Z" stroke="none"/>
                                        <path d="M 47.5000114440918 3 C 41.49122619628906 3 35.66378021240234 4.1761474609375 30.17951965332031 6.495796203613281 C 24.880859375 8.7369384765625 20.12153625488281 11.94596862792969 16.03376770019531 16.03373718261719 C 11.94598388671875 20.12149047851562 8.736968994140625 24.88081359863281 6.495811462402344 30.17947387695312 C 4.176162719726562 35.66371917724609 3.000007629394531 41.49116516113281 3.000007629394531 47.49993515014648 C 3.000007629394531 53.50870513916016 4.176162719726562 59.33615112304688 6.495811462402344 64.82039642333984 C 8.736968994140625 70.11905670166016 11.94598388671875 74.87837982177734 16.03376770019531 78.96613311767578 C 20.12153625488281 83.05390167236328 24.880859375 86.26293182373047 30.17951965332031 88.50407409667969 C 35.66378021240234 90.82372283935547 41.49122619628906 91.99987030029297 47.5000114440918 91.99987030029297 C 53.50879669189453 91.99987030029297 59.33624267578125 90.82372283935547 64.82050323486328 88.50407409667969 C 70.11916351318359 86.26293182373047 74.87848663330078 83.05390167236328 78.96625518798828 78.96613311767578 C 83.05403900146484 74.87837982177734 86.2630615234375 70.11905670166016 88.50421142578125 64.82039642333984 C 90.82386016845703 59.33615112304688 92.00001525878906 53.50870513916016 92.00001525878906 47.49993515014648 C 92.00001525878906 41.49116516113281 90.82386016845703 35.66371917724609 88.50421142578125 30.17947387695312 C 86.2630615234375 24.88081359863281 83.05403900146484 20.12149047851562 78.96625518798828 16.03373718261719 C 74.87848663330078 11.94596862792969 70.11916351318359 8.7369384765625 64.82050323486328 6.495796203613281 C 59.33624267578125 4.1761474609375 53.50879669189453 3 47.5000114440918 3 M 47.5000114440918 0 C 73.73353576660156 0 95.00001525878906 21.26644134521484 95.00001525878906 47.49993515014648 C 95.00001525878906 73.73342895507812 73.73353576660156 94.99987030029297 47.5000114440918 94.99987030029297 C 21.26648712158203 94.99987030029297 7.62939453125e-06 73.73342895507812 7.62939453125e-06 47.49993515014648 C 7.62939453125e-06 21.26644134521484 21.26648712158203 0 47.5000114440918 0 Z" stroke="none" fill="#7b3289"/>
                                      </g>
                                    </g>
                                  </g>
                                </g>
                              </g>
                            </g>
                          </g>
                        </g>
                      </g>
                    </g>
                  </g>
                </g>
              </g>
            </g>
          </g>
        </g>
      </g>
      <g id="performance_2654596" transform="translate(12288 3862)">
        <g id="Group_1179240" data-name="Group 1179240">
          <g id="Group_1179222" data-name="Group 1179222">
            <path id="Path_1041631" data-name="Path 1041631" d="M9.37,16.85A3.956,3.956,0,0,1,10,19a4.007,4.007,0,1,1-.63-2.15Z" fill="#fcd770"/>
          </g>
          <g id="Group_1179223" data-name="Group 1179223">
            <path id="Path_1041632" data-name="Path 1041632" d="M17,8a4,4,0,0,1,4,4,3.786,3.786,0,0,1-.21,1.26A4,4,0,1,1,17,8Z" fill="#fcd770"/>
          </g>
          <g id="Group_1179224" data-name="Group 1179224">
            <path id="Path_1041633" data-name="Path 1041633" d="M34,16a5.07,5.07,0,0,1-.83,2.77h-.01A5,5,0,0,1,24,16a5.173,5.173,0,0,1,.25-1.58h.01A5,5,0,0,1,34,16Z" fill="#fcd770"/>
          </g>
          <g id="Group_1179225" data-name="Group 1179225">
            <path id="Path_1041634" data-name="Path 1041634" d="M42.87,21.66A2.964,2.964,0,0,1,44,24a3,3,0,0,1-6,0,3.059,3.059,0,0,1,.5-1.66,2.993,2.993,0,0,1,4.37-.68Z" fill="#fcd770"/>
          </g>
          <g id="Group_1179226" data-name="Group 1179226">
            <path id="Path_1041635" data-name="Path 1041635" d="M53,2a7,7,0,0,1,0,14,6.88,6.88,0,0,1-4.37-1.54A6.994,6.994,0,0,1,53,2Z" fill="#ffc729"/>
          </g>
          <g id="Group_1179227" data-name="Group 1179227">
            <circle id="Ellipse_12557" data-name="Ellipse 12557" cx="3" cy="3" r="3" transform="translate(50 6)" fill="#fcd770"/>
          </g>
          <g id="Group_1179228" data-name="Group 1179228">
            <path id="Path_1041636" data-name="Path 1041636" d="M20,20V32.3a15.15,15.15,0,0,0-6,0V20Z" fill="#ffeaa7"/>
          </g>
          <g id="Group_1179229" data-name="Group 1179229">
            <path id="Path_1041637" data-name="Path 1041637" d="M32,25V43h-.54a13.761,13.761,0,0,0-.6-1.74A15.055,15.055,0,0,0,27.6,36.4,15.383,15.383,0,0,0,25.99,35l.01-.01V25Z" fill="#ffeaa7"/>
          </g>
          <g id="Group_1179230" data-name="Group 1179230">
            <path id="Path_1041638" data-name="Path 1041638" d="M38,31h6V43H38Z" fill="#ffeaa7"/>
          </g>
          <g id="Group_1179231" data-name="Group 1179231">
            <path id="Path_1041639" data-name="Path 1041639" d="M56,20V43.75L54,43H50V20Z" fill="#ffeaa7"/>
          </g>
          <g id="Group_1179232" data-name="Group 1179232">
            <path id="Path_1041640" data-name="Path 1041640" d="M36,47H54v4H36Z" fill="#ff826e"/>
          </g>
          <g id="Group_1179233" data-name="Group 1179233">
            <path id="Path_1041641" data-name="Path 1041641" d="M38,43H54v4H36V43Z" fill="#b4dd7f"/>
          </g>
          <g id="Group_1179234" data-name="Group 1179234">
            <path id="Path_1041642" data-name="Path 1041642" d="M61.06,45.65a1.439,1.439,0,0,1,0,2.7L54,51V43l2,.75Z" fill="#aab2bd"/>
          </g>
          <g id="Group_1179235" data-name="Group 1179235">
            <path id="Path_1041643" data-name="Path 1041643" d="M32,43h4v8H31.46a15.085,15.085,0,0,0,0-8Z" fill="#aab2bd"/>
          </g>
          <g id="Group_1179236" data-name="Group 1179236">
            <path id="Path_1041644" data-name="Path 1041644" d="M28,47h4A15,15,0,0,1,2,47H6a11.088,11.088,0,0,1,.83-4.21h.01a10.939,10.939,0,0,1,5.95-5.95v-.01a11.092,11.092,0,0,1,8.42,0v.01a10.939,10.939,0,0,1,5.95,5.95h.01A11.088,11.088,0,0,1,28,47Z" fill="#69d6f4"/>
          </g>
          <g id="Group_1179237" data-name="Group 1179237">
            <path id="Path_1041645" data-name="Path 1041645" d="M31.46,43a13.761,13.761,0,0,0-.6-1.74A15.055,15.055,0,0,0,27.6,36.4,15.383,15.383,0,0,0,25.99,35a14.722,14.722,0,0,0-3.25-1.86A14.99,14.99,0,0,0,20,32.3a15.15,15.15,0,0,0-6,0A15,15,0,0,0,2,47H6a11.088,11.088,0,0,1,.83-4.21h.01a10.939,10.939,0,0,1,5.95-5.95v-.01a11.092,11.092,0,0,1,8.42,0v.01a10.939,10.939,0,0,1,5.95,5.95h.01A11.088,11.088,0,0,1,28,47h4a15.085,15.085,0,0,0-.54-4Z" fill="#b4dd7f"/>
          </g>
          <g id="Group_1179238" data-name="Group 1179238">
            <path id="Path_1041646" data-name="Path 1041646" d="M19,44.83v7.94a2.982,2.982,0,0,0-4,0V44.83A6.835,6.835,0,0,1,17,40,6.835,6.835,0,0,1,19,44.83Z" fill="#ff826e"/>
          </g>
          <g id="Group_1179239" data-name="Group 1179239">
            <path id="Path_1041647" data-name="Path 1041647" d="M19,52.78A2.9,2.9,0,0,1,20,55a3,3,0,0,1-6,0,2.9,2.9,0,0,1,1-2.22v-.01a2.982,2.982,0,0,1,4,0Z" fill="#ff826e"/>
          </g>
        </g>
        <g id="Group_1179241" data-name="Group 1179241">
          <path id="Path_1041648" data-name="Path 1041648" d="M20,44.828a7.77,7.77,0,0,0-2.293-5.535L17,38.586l-.707.707A7.772,7.772,0,0,0,14,44.828v7.554A3.962,3.962,0,0,0,13,55a4,4,0,1,0,7-2.618Zm-3-3.267a5.79,5.79,0,0,1,1,3.268v6.314A3.9,3.9,0,0,0,17,51a3.939,3.939,0,0,0-1,.142V44.828A5.789,5.789,0,0,1,17,41.561ZM17,57a2,2,0,1,1,2-2A2,2,0,0,1,17,57Z"/>
          <path id="Path_1041649" data-name="Path 1041649" d="M61.415,44.712,57,43.057V19H49V42H45V30H37V42H33V24H25v9.165a15.881,15.881,0,0,0-4-1.638V19H13V31.527A15.99,15.99,0,1,0,32.189,52H54.181l7.234-2.713a2.443,2.443,0,0,0,0-4.575ZM37,44H53v2H37Zm0,4H53v2H37ZM51,21h4V42.307L54.181,42H51ZM39,32h4V42H39ZM6.344,41.5,4.5,40.738a14.016,14.016,0,0,1,1.936-2.893L7.85,39.262A12.022,12.022,0,0,0,6.344,41.5ZM5.58,43.352A11.908,11.908,0,0,0,5.042,46H3.051a13.905,13.905,0,0,1,.674-3.417Zm3.684-5.5L7.846,36.432A14.03,14.03,0,0,1,10.739,34.5l.763,1.842A11.964,11.964,0,0,0,9.264,37.85Zm4.087-2.273-.767-1.852A13.9,13.9,0,0,1,16,33.051v2A11.907,11.907,0,0,0,13.351,35.577ZM18,33.051a13.9,13.9,0,0,1,3.416.674l-.767,1.852A11.907,11.907,0,0,0,18,35.048ZM23.262,34.5a14.016,14.016,0,0,1,2.893,1.936L24.737,37.85A12.045,12.045,0,0,0,22.5,36.338Zm4.306,3.35A14.03,14.03,0,0,1,29.5,40.739l-1.847.765a12.026,12.026,0,0,0-1.5-2.24Zm2.707,4.737A13.9,13.9,0,0,1,30.949,46H28.958a11.853,11.853,0,0,0-.539-2.648ZM27,26h4V39.271a16.1,16.1,0,0,0-4-4.741ZM15,21h4V31.139A15.9,15.9,0,0,0,17,31a15.9,15.9,0,0,0-2,.139Zm2,40A14.007,14.007,0,0,1,3.051,48H7V47a10,10,0,0,1,20,0v1h3.949A14.007,14.007,0,0,1,17,61ZM32.708,44H35v6H32.708a15.557,15.557,0,0,0,0-6Zm28,3.415L55,49.557V44.443l5.711,2.141a.443.443,0,0,1,0,.831Z"/>
          <path id="Path_1041650" data-name="Path 1041650" d="M53,13a4,4,0,1,0-4-4A4,4,0,0,0,53,13Zm0-6a2,2,0,1,1-2,2A2,2,0,0,1,53,7Z"/>
          <path id="Path_1041651" data-name="Path 1041651" d="M6,24a5.006,5.006,0,0,0,5-5,4.948,4.948,0,0,0-.342-1.779l2.754-1.753a4.961,4.961,0,0,0,7.9-.978l1.768.59A5.937,5.937,0,0,0,23,16a5.992,5.992,0,0,0,10.361,4.109l3.877,2.585A3.932,3.932,0,0,0,37,24a4,4,0,0,0,8,0,3.963,3.963,0,0,0-.809-2.387l4.639-5.8a7.99,7.99,0,1,0-1.564-1.247l-4.632,5.791a3.925,3.925,0,0,0-4.287.671l-3.874-2.583a6,6,0,0,0-10.767-5.264l-1.766-.589A4.841,4.841,0,0,0,22,12a5,5,0,0,0-10,0,4.943,4.943,0,0,0,.342,1.779L9.588,15.532A5,5,0,1,0,6,24ZM53,3a6,6,0,1,1-6,6A6.006,6.006,0,0,1,53,3ZM41,22a2,2,0,1,1-2,2A2,2,0,0,1,41,22ZM29,12a4,4,0,1,1-4,4A4,4,0,0,1,29,12ZM17,9a3,3,0,1,1-3,3A3,3,0,0,1,17,9ZM6,16a3,3,0,1,1-3,3A3,3,0,0,1,6,16Z"/>
        </g>
      </g>
    </g>
  </g>
</svg>
