<svg xmlns="http://www.w3.org/2000/svg" xmlns:xlink="http://www.w3.org/1999/xlink" width="113" height="113" viewBox="0 0 113 113">
  <defs>
    <filter id="Path_982547" x="0" y="0" width="113" height="113" filterUnits="userSpaceOnUse">
      <feOffset dy="3" input="SourceAlpha"/>
      <feGaussianBlur stdDeviation="3" result="blur"/>
      <feFlood flood-opacity="0.161"/>
      <feComposite operator="in" in2="blur"/>
      <feComposite in="SourceGraphic"/>
    </filter>
  </defs>
  <g id="Group_1206701" data-name="Group 1206701" transform="translate(-793.49 -1055.342)">
    <g id="Group_1206200" data-name="Group 1206200">
      <g id="Group_1202717" data-name="Group 1202717" transform="translate(0 -1644.681)">
        <g id="Group_1202072" data-name="Group 1202072" transform="translate(0 324.215)">
          <g id="Group_1178713" data-name="Group 1178713" transform="translate(0 886.374)">
            <g id="Group_1176922" data-name="Group 1176922" transform="translate(802.49 1495.435)">
              <g id="Group_1172322" data-name="Group 1172322" transform="translate(0 0)">
                <g id="Group_1164700" data-name="Group 1164700">
                  <g id="Group_1160931" data-name="Group 1160931">
                    <g id="Group_1160749" data-name="Group 1160749">
                      <g id="Group_1158891" data-name="Group 1158891">
                        <g id="Group_1157406" data-name="Group 1157406">
                          <g id="Group_1155793" data-name="Group 1155793">
                            <g id="Group_1154704" data-name="Group 1154704">
                              <g id="Group_1150790" data-name="Group 1150790">
                                <g id="Group_1154214" data-name="Group 1154214">
                                  <g id="Group_1152583" data-name="Group 1152583">
                                    <g id="Group_1146973" data-name="Group 1146973">
                                      <g id="Group_1146954" data-name="Group 1146954">
                                        <g transform="matrix(1, 0, 0, 1, -9, -6)" filter="url(#Path_982547)">
                                          <g id="Path_982547-2" data-name="Path 982547" transform="translate(9 6)" fill="#fbedfe">
                                            <path d="M 47.5000114440918 93.49987030029297 C 41.28938293457031 93.49987030029297 35.26534652709961 92.28384399414062 29.5951976776123 89.88558959960938 C 24.11773109436035 87.56881713867188 19.19814491271973 84.25183868408203 14.97310447692871 80.02680206298828 C 10.74805164337158 75.80176544189453 7.43107795715332 70.88218688964844 5.114304542541504 65.40472412109375 C 2.716038227081299 59.73458862304688 1.500011444091797 53.71054840087891 1.500011444091797 47.49993515014648 C 1.500011444091797 41.28932189941406 2.716038227081299 35.26528167724609 5.114304542541504 29.59514808654785 C 7.43107795715332 24.1176815032959 10.74805164337158 19.1981086730957 14.97310447692871 14.97306823730469 C 19.19814491271973 10.74802875518799 24.11773109436035 7.431055068969727 29.5951976776123 5.11428165435791 C 35.26534652709961 2.716028451919556 41.28938293457031 1.500001788139343 47.5000114440918 1.500001788139343 C 53.71063995361328 1.500001788139343 59.73467636108398 2.716028451919556 65.40482330322266 5.11428165435791 C 70.88229370117188 7.431055068969727 75.8018798828125 10.74802875518799 80.02691650390625 14.97306823730469 C 84.25196838378906 19.1981086730957 87.56894683837891 24.1176815032959 89.88571929931641 29.59514808654785 C 92.28398132324219 35.26528167724609 93.50001525878906 41.28932189941406 93.50001525878906 47.49993515014648 C 93.50001525878906 53.71054840087891 92.28398132324219 59.73458862304688 89.88571929931641 65.40472412109375 C 87.56894683837891 70.88218688964844 84.25196838378906 75.80176544189453 80.02691650390625 80.02680206298828 C 75.8018798828125 84.25183868408203 70.88229370117188 87.56881713867188 65.40482330322266 89.88558959960938 C 59.73467636108398 92.28384399414062 53.71063995361328 93.49987030029297 47.5000114440918 93.49987030029297 Z" stroke="none"/>
                                            <path d="M 47.5000114440918 3 C 41.49122619628906 3 35.66378021240234 4.1761474609375 30.17951965332031 6.495796203613281 C 24.880859375 8.7369384765625 20.12153625488281 11.94596862792969 16.03376770019531 16.03373718261719 C 11.94598388671875 20.12149047851562 8.736968994140625 24.88081359863281 6.495811462402344 30.17947387695312 C 4.176162719726562 35.66371917724609 3.000007629394531 41.49116516113281 3.000007629394531 47.49993515014648 C 3.000007629394531 53.50870513916016 4.176162719726562 59.33615112304688 6.495811462402344 64.82039642333984 C 8.736968994140625 70.11905670166016 11.94598388671875 74.87837982177734 16.03376770019531 78.96613311767578 C 20.12153625488281 83.05390167236328 24.880859375 86.26293182373047 30.17951965332031 88.50407409667969 C 35.66378021240234 90.82372283935547 41.49122619628906 91.99987030029297 47.5000114440918 91.99987030029297 C 53.50879669189453 91.99987030029297 59.33624267578125 90.82372283935547 64.82050323486328 88.50407409667969 C 70.11916351318359 86.26293182373047 74.87848663330078 83.05390167236328 78.96625518798828 78.96613311767578 C 83.05403900146484 74.87837982177734 86.2630615234375 70.11905670166016 88.50421142578125 64.82039642333984 C 90.82386016845703 59.33615112304688 92.00001525878906 53.50870513916016 92.00001525878906 47.49993515014648 C 92.00001525878906 41.49116516113281 90.82386016845703 35.66371917724609 88.50421142578125 30.17947387695312 C 86.2630615234375 24.88081359863281 83.05403900146484 20.12149047851562 78.96625518798828 16.03373718261719 C 74.87848663330078 11.94596862792969 70.11916351318359 8.7369384765625 64.82050323486328 6.495796203613281 C 59.33624267578125 4.1761474609375 53.50879669189453 3 47.5000114440918 3 M 47.5000114440918 0 C 73.73353576660156 0 95.00001525878906 21.26644134521484 95.00001525878906 47.49993515014648 C 95.00001525878906 73.73342895507812 73.73353576660156 94.99987030029297 47.5000114440918 94.99987030029297 C 21.26648712158203 94.99987030029297 7.62939453125e-06 73.73342895507812 7.62939453125e-06 47.49993515014648 C 7.62939453125e-06 21.26644134521484 21.26648712158203 0 47.5000114440918 0 Z" stroke="none" fill="#7b3289"/>
                                          </g>
                                        </g>
                                      </g>
                                    </g>
                                  </g>
                                </g>
                              </g>
                            </g>
                          </g>
                        </g>
                      </g>
                    </g>
                  </g>
                </g>
              </g>
            </g>
          </g>
        </g>
      </g>
      <g id="adjustment_11213523" transform="translate(790.623 1070.262)">
        <g id="Group_1206199" data-name="Group 1206199" transform="translate(34.175 9.997)">
          <path id="Path_1045316" data-name="Path 1045316" d="M129.433,17.327H87.895a2.291,2.291,0,0,0-2.285,2.285V64.844a2.291,2.291,0,0,0,2.285,2.285h41.538a2.291,2.291,0,0,0,2.285-2.285V19.612a2.291,2.291,0,0,0-2.285-2.285Z" transform="translate(-80.314 -17.327)" fill="#e6f7db" fill-rule="evenodd"/>
          <path id="Path_1045317" data-name="Path 1045317" d="M129.628,17.327H87.7a1.919,1.919,0,0,0-2.09,1.663v7.737a.407.407,0,0,0,.406.406h45.3a.407.407,0,0,0,.406-.406V18.99A1.919,1.919,0,0,0,129.628,17.327Z" transform="translate(-80.314 -17.327)" fill="#21323c" fill-rule="evenodd"/>
          <path id="Path_1045318" data-name="Path 1045318" d="M136.177,47.1h-9.556a.767.767,0,0,0-.764.764v1.147a.767.767,0,0,0,.764.764h9.556a.767.767,0,0,0,.764-.764V47.861A.767.767,0,0,0,136.177,47.1Z" transform="translate(-115.741 -43.532)" fill="#cbffff" fill-rule="evenodd"/>
          <path id="Path_1045319" data-name="Path 1045319" d="M410.219,47.1h-2.676a.767.767,0,0,0-.764.764v1.147a.767.767,0,0,0,.764.764h2.676a.767.767,0,0,0,.764-.764V47.861A.767.767,0,0,0,410.219,47.1Z" transform="translate(-363.02 -43.532)" fill="#cbffff" fill-rule="evenodd"/>
          <path id="Path_1045320" data-name="Path 1045320" d="M346.386,47.1H343.71a.767.767,0,0,0-.764.764v1.147a.767.767,0,0,0,.764.764h2.676a.767.767,0,0,0,.765-.764V47.861A.767.767,0,0,0,346.386,47.1Z" transform="translate(-306.832 -43.532)" fill="#cbffff" fill-rule="evenodd"/>
          <path id="Path_1045321" data-name="Path 1045321" d="M296.555,128.212H278.517a.407.407,0,0,0-.406.406v3.9a.407.407,0,0,0,.406.406h18.038a.407.407,0,0,0,.406-.406v-3.9A.407.407,0,0,0,296.555,128.212Z" transform="translate(-249.761 -114.933)" fill="#7d6ab0" fill-rule="evenodd"/>
          <path id="Path_1045322" data-name="Path 1045322" d="M68.911,128.741H47.339a.407.407,0,0,0-.406.406v21.572a.407.407,0,0,0,.406.406H68.911a.407.407,0,0,0,.406-.406V129.147A.407.407,0,0,0,68.911,128.741Z" transform="translate(-46.269 -115.398)" fill="#d4812c" fill-rule="evenodd"/>
          <g id="Group_1206198" data-name="Group 1206198" transform="translate(4.788 20.128)">
            <path id="Path_1045323" data-name="Path 1045323" d="M178.224,217.476h-2.015a.407.407,0,0,0-.406.406v3.052a.407.407,0,0,0,.406.406h2.015a.407.407,0,0,0,.406-.406v-3.052A.407.407,0,0,0,178.224,217.476Z" transform="translate(-164.492 -213.634)" fill="#21323c" fill-rule="evenodd"/>
            <path id="Path_1045324" data-name="Path 1045324" d="M131,185.4h-2.015a.407.407,0,0,0-.406.406v3.052a.407.407,0,0,0,.406.406H131a.407.407,0,0,0,.406-.406v-3.052A.407.407,0,0,0,131,185.4Z" transform="translate(-122.927 -185.399)" fill="#21323c" fill-rule="evenodd"/>
            <path id="Path_1045325" data-name="Path 1045325" d="M83.785,192.286H81.77a.407.407,0,0,0-.406.406v3.052a.407.407,0,0,0,.406.406h2.015a.407.407,0,0,0,.406-.406v-3.052A.407.407,0,0,0,83.785,192.286Z" transform="translate(-81.364 -191.461)" fill="#21323c" fill-rule="evenodd"/>
          </g>
          <path id="Path_1045326" data-name="Path 1045326" d="M58.961,264.852a1.561,1.561,0,0,0-1.556,1.556v8.7a1.556,1.556,0,0,0-3.112,0,1.556,1.556,0,1,0-3.112,0v.946a1.556,1.556,0,0,0-3.112,0v5.054a23.926,23.926,0,0,1,1.494,3.533,14.621,14.621,0,0,1,.209,3.249h9.794a5.015,5.015,0,0,1,.826-2.5,8.779,8.779,0,0,0,4.927-7c.13-1.214.1-2.392-1.474-2.581-1.422-.171-1.6.777-1.873,1.684a5.787,5.787,0,0,1-1.455,2.291V266.408a1.56,1.56,0,0,0-1.556-1.556Z" transform="translate(-47.269 -235.209)" fill="#f3a766" fill-rule="evenodd"/>
          <path id="Path_1045327" data-name="Path 1045327" d="M41.387,457.253H56.076v4.481H41.387Z" transform="translate(-41.387 -404.568)" fill="#21323c" fill-rule="evenodd"/>
          <circle id="Ellipse_12639" data-name="Ellipse 12639" cx="7.069" cy="7.069" r="7.069" transform="translate(29.833 35.665) rotate(-45)" fill="#f74933"/>
          <path id="Path_1045328" data-name="Path 1045328" d="M315.1,315.553a7.069,7.069,0,0,0,11.209,5.29.406.406,0,0,0,.074-.587l-4.106-4.986a.394.394,0,0,0-.314-.148h-6.459a.406.406,0,0,0-.405.431Z" transform="translate(-282.323 -279.458)" fill="#7d6ab0" fill-rule="evenodd"/>
          <path id="Path_1045329" data-name="Path 1045329" d="M321.729,256.2a7.069,7.069,0,0,0-6.625,6.625.406.406,0,0,0,.405.431h6.244a.407.407,0,0,0,.406-.406v-6.244a.406.406,0,0,0-.431-.405Z" transform="translate(-282.323 -227.592)" fill="#f8a805" fill-rule="evenodd"/>
        </g>
        <path id="Path_1045330" data-name="Path 1045330" d="M62.285,57.2a.838.838,0,0,1,0-1.677h9.267a.838.838,0,1,1,0,1.677Zm13.227,0a.838.838,0,1,1,0-1.677H78.8a.838.838,0,1,1,0,1.677ZM67.876,44.862h5.376V39.486a6.272,6.272,0,0,0-5.376,5.376Zm7.052-5.376V45.4l3.757,4.562a6.27,6.27,0,0,0-3.757-10.48ZM73.7,46.539l3.7,4.49a6.271,6.271,0,0,1-9.52-4.49Zm-5.227-6.457A7.946,7.946,0,1,1,66.144,45.7,7.921,7.921,0,0,1,68.471,40.082Zm-29.7,12.654a.838.838,0,1,1-1.677,0v-2.02a.732.732,0,0,0-.186-.313.726.726,0,0,0-1.239.512v4.893a11.819,11.819,0,0,1,1.7,5.426q.027.383.033.744h8.252a6.039,6.039,0,0,1,.2-.775c.513-1.555.717-1.417,1.844-2.17a8.676,8.676,0,0,0,2.309-2.2,7.652,7.652,0,0,0,1.337-3.656,3.012,3.012,0,0,0-.044-1.285c-.078-.194-.279-.339-.705-.391-.841-.1-1.174,1.763-1.621,2.466a8.076,8.076,0,0,1-1.028,1.282.836.836,0,0,1-1.434-.62q0-6.709,0-13.419a.726.726,0,0,0-1.453,0v10.3a.838.838,0,0,1-1.677,0V49.963a.725.725,0,0,0-1.239-.512c-.415.415-.262,1.713-.262,2.246a.838.838,0,0,1-1.677,0V49.706a.732.732,0,0,0-.166-.255.726.726,0,0,0-1.239.512c0,.932-.029,1.82-.029,2.772Zm9.188,10.919H34.871v2.83H47.964ZM34.032,61.978a.838.838,0,0,0-.838.838v4.506a.838.838,0,0,0,.838.838H48.8a.838.838,0,0,0,.838-.838V62.816a.838.838,0,0,0-.838-.838H47.38q.034-.128.074-.251a3.916,3.916,0,0,1,.363-.8q.152-.087.3-.176H83.424a3.143,3.143,0,0,0,3.136-3.135V12.136A3.143,3.143,0,0,0,83.424,9H41.655a3.143,3.143,0,0,0-3.136,3.136V22.417H34.7a.838.838,0,0,0-.838.838V45.764a.838.838,0,0,0,.838.838H38.52v1.182a2.423,2.423,0,0,0-1.065.971A2.4,2.4,0,0,0,34,50.915V56a.834.834,0,0,0,.126.442,23.5,23.5,0,0,1,1.392,3.278c.088.586.155,1.133.19,1.635q.023.323.029.626h-1.7ZM40.2,47.654V46.6h3.191v1.071a2.4,2.4,0,0,0-2.291.469,2.4,2.4,0,0,0-.9-.488Zm3.191-2.729H35.538V24.094H56.37V44.926H48.189V41.211a2.4,2.4,0,0,0-4.8,0Zm4.8,1.677v4.95a2.072,2.072,0,0,1,2.61-1.714A2.288,2.288,0,0,1,52.86,51.27a4.359,4.359,0,0,1,.155,2.084A9.3,9.3,0,0,1,51.383,57.8,9.517,9.517,0,0,1,50.3,59.078H83.424a1.465,1.465,0,0,0,1.459-1.459V20.537H40.2v1.88H57.209a.838.838,0,0,1,.838.838V45.764a.838.838,0,0,1-.838.838H48.189ZM40.851,31.746v2.209H39.685V31.746h1.167Zm-2.005-1.677h.583v-1.72a.838.838,0,0,1,1.677,0v1.72h.583a.838.838,0,0,1,.838.838v3.885a.838.838,0,0,1-.838.838h-.583V40.67a.838.838,0,0,1-1.677,0V35.632h-.583a.838.838,0,0,1-.838-.838V30.908a.838.838,0,0,1,.838-.838Zm7.691.847v2.209H45.371V30.917h1.167ZM44.533,29.24h.583v-.891a.838.838,0,0,1,1.677,0v.891h.583a.838.838,0,0,1,.838.838v3.885a.838.838,0,0,1-.838.838h-.583v1.544a.838.838,0,0,1-1.677,0V34.8h-.583a.838.838,0,0,1-.838-.838V30.078A.838.838,0,0,1,44.533,29.24Zm7.691,5.539v2.209H51.058V34.779h1.167ZM50.219,33.1H50.8V28.349a.838.838,0,1,1,1.677,0V33.1h.583a.838.838,0,0,1,.838.838v3.886a.838.838,0,0,1-.838.838h-.583v2a.838.838,0,1,1-1.677,0v-2h-.583a.838.838,0,0,1-.838-.838V33.941a.838.838,0,0,1,.838-.838ZM80.656,24.03v3.062H63.378V24.03ZM62.54,22.353H81.494a.838.838,0,0,1,.838.838V27.93a.838.838,0,0,1-.838.838H62.54a.838.838,0,0,1-.838-.838V23.192A.838.838,0,0,1,62.54,22.353ZM78.972,34.645a.838.838,0,0,1,0,1.677H71.185a.838.838,0,1,1,0-1.677Zm-.041-3.18a.838.838,0,0,1,0,1.677H74.447a.838.838,0,1,1,0-1.677Zm-5.195-17.2v1.014H71.186V14.262Zm-2.621-1.677h2.691a1.613,1.613,0,0,1,1.607,1.607v1.153a1.612,1.612,0,0,1-1.607,1.607H71.116a1.613,1.613,0,0,1-1.607-1.607V14.192A1.612,1.612,0,0,1,71.116,12.585Zm10.308,1.677v1.014H78.873V14.262ZM78.8,12.585h2.691A1.613,1.613,0,0,1,83.1,14.192v1.153a1.616,1.616,0,0,1-1.607,1.607H78.8A1.613,1.613,0,0,1,77.2,15.345V14.192A1.616,1.616,0,0,1,78.8,12.585ZM54.512,14.262v1.014h-9.47V14.262Zm-9.539-1.677h9.609a1.613,1.613,0,0,1,1.607,1.607v1.153a1.616,1.616,0,0,1-1.607,1.607H44.973a1.613,1.613,0,0,1-1.607-1.607V14.192A1.616,1.616,0,0,1,44.973,12.585ZM40.2,18.861V12.136a1.465,1.465,0,0,1,1.459-1.459H83.424a1.465,1.465,0,0,1,1.459,1.459v6.725Z" fill-rule="evenodd"/>
      </g>
    </g>
  </g>
</svg>
