<svg xmlns="http://www.w3.org/2000/svg" xmlns:xlink="http://www.w3.org/1999/xlink" width="113" height="113" viewBox="0 0 113 113">
  <defs>
    <filter id="Path_982547" x="0" y="0" width="113" height="113" filterUnits="userSpaceOnUse">
      <feOffset dy="3" input="SourceAlpha"/>
      <feGaussianBlur stdDeviation="3" result="blur"/>
      <feFlood flood-opacity="0.161"/>
      <feComposite operator="in" in2="blur"/>
      <feComposite in="SourceGraphic"/>
    </filter>
  </defs>
  <g id="Group_1206703" data-name="Group 1206703" transform="translate(-788.49 -1054.972)">
    <g id="Group_1206225" data-name="Group 1206225">
      <g id="Group_1202719" data-name="Group 1202719" transform="translate(-5 -1645.051)">
        <g id="Group_1202072" data-name="Group 1202072" transform="translate(0 324.215)">
          <g id="Group_1178713" data-name="Group 1178713" transform="translate(0 886.374)">
            <g id="Group_1176922" data-name="Group 1176922" transform="translate(802.49 1495.435)">
              <g id="Group_1172322" data-name="Group 1172322" transform="translate(0 0)">
                <g id="Group_1164700" data-name="Group 1164700">
                  <g id="Group_1160931" data-name="Group 1160931">
                    <g id="Group_1160749" data-name="Group 1160749">
                      <g id="Group_1158891" data-name="Group 1158891">
                        <g id="Group_1157406" data-name="Group 1157406">
                          <g id="Group_1155793" data-name="Group 1155793">
                            <g id="Group_1154704" data-name="Group 1154704">
                              <g id="Group_1150790" data-name="Group 1150790">
                                <g id="Group_1154214" data-name="Group 1154214">
                                  <g id="Group_1152583" data-name="Group 1152583">
                                    <g id="Group_1146973" data-name="Group 1146973">
                                      <g id="Group_1146954" data-name="Group 1146954">
                                        <g transform="matrix(1, 0, 0, 1, -9, -6)" filter="url(#Path_982547)">
                                          <g id="Path_982547-2" data-name="Path 982547" transform="translate(9 6)" fill="#fbedfe">
                                            <path d="M 47.5000114440918 93.49987030029297 C 41.28938293457031 93.49987030029297 35.26534652709961 92.28384399414062 29.5951976776123 89.88558959960938 C 24.11773109436035 87.56881713867188 19.19814491271973 84.25183868408203 14.97310447692871 80.02680206298828 C 10.74805164337158 75.80176544189453 7.43107795715332 70.88218688964844 5.114304542541504 65.40472412109375 C 2.716038227081299 59.73458862304688 1.500011444091797 53.71054840087891 1.500011444091797 47.49993515014648 C 1.500011444091797 41.28932189941406 2.716038227081299 35.26528167724609 5.114304542541504 29.59514808654785 C 7.43107795715332 24.1176815032959 10.74805164337158 19.1981086730957 14.97310447692871 14.97306823730469 C 19.19814491271973 10.74802875518799 24.11773109436035 7.431055068969727 29.5951976776123 5.11428165435791 C 35.26534652709961 2.716028451919556 41.28938293457031 1.500001788139343 47.5000114440918 1.500001788139343 C 53.71063995361328 1.500001788139343 59.73467636108398 2.716028451919556 65.40482330322266 5.11428165435791 C 70.88229370117188 7.431055068969727 75.8018798828125 10.74802875518799 80.02691650390625 14.97306823730469 C 84.25196838378906 19.1981086730957 87.56894683837891 24.1176815032959 89.88571929931641 29.59514808654785 C 92.28398132324219 35.26528167724609 93.50001525878906 41.28932189941406 93.50001525878906 47.49993515014648 C 93.50001525878906 53.71054840087891 92.28398132324219 59.73458862304688 89.88571929931641 65.40472412109375 C 87.56894683837891 70.88218688964844 84.25196838378906 75.80176544189453 80.02691650390625 80.02680206298828 C 75.8018798828125 84.25183868408203 70.88229370117188 87.56881713867188 65.40482330322266 89.88558959960938 C 59.73467636108398 92.28384399414062 53.71063995361328 93.49987030029297 47.5000114440918 93.49987030029297 Z" stroke="none"/>
                                            <path d="M 47.5000114440918 3 C 41.49122619628906 3 35.66378021240234 4.1761474609375 30.17951965332031 6.495796203613281 C 24.880859375 8.7369384765625 20.12153625488281 11.94596862792969 16.03376770019531 16.03373718261719 C 11.94598388671875 20.12149047851562 8.736968994140625 24.88081359863281 6.495811462402344 30.17947387695312 C 4.176162719726562 35.66371917724609 3.000007629394531 41.49116516113281 3.000007629394531 47.49993515014648 C 3.000007629394531 53.50870513916016 4.176162719726562 59.33615112304688 6.495811462402344 64.82039642333984 C 8.736968994140625 70.11905670166016 11.94598388671875 74.87837982177734 16.03376770019531 78.96613311767578 C 20.12153625488281 83.05390167236328 24.880859375 86.26293182373047 30.17951965332031 88.50407409667969 C 35.66378021240234 90.82372283935547 41.49122619628906 91.99987030029297 47.5000114440918 91.99987030029297 C 53.50879669189453 91.99987030029297 59.33624267578125 90.82372283935547 64.82050323486328 88.50407409667969 C 70.11916351318359 86.26293182373047 74.87848663330078 83.05390167236328 78.96625518798828 78.96613311767578 C 83.05403900146484 74.87837982177734 86.2630615234375 70.11905670166016 88.50421142578125 64.82039642333984 C 90.82386016845703 59.33615112304688 92.00001525878906 53.50870513916016 92.00001525878906 47.49993515014648 C 92.00001525878906 41.49116516113281 90.82386016845703 35.66371917724609 88.50421142578125 30.17947387695312 C 86.2630615234375 24.88081359863281 83.05403900146484 20.12149047851562 78.96625518798828 16.03373718261719 C 74.87848663330078 11.94596862792969 70.11916351318359 8.7369384765625 64.82050323486328 6.495796203613281 C 59.33624267578125 4.1761474609375 53.50879669189453 3 47.5000114440918 3 M 47.5000114440918 0 C 73.73353576660156 0 95.00001525878906 21.26644134521484 95.00001525878906 47.49993515014648 C 95.00001525878906 73.73342895507812 73.73353576660156 94.99987030029297 47.5000114440918 94.99987030029297 C 21.26648712158203 94.99987030029297 7.62939453125e-06 73.73342895507812 7.62939453125e-06 47.49993515014648 C 7.62939453125e-06 21.26644134521484 21.26648712158203 0 47.5000114440918 0 Z" stroke="none" fill="#7b3289"/>
                                          </g>
                                        </g>
                                      </g>
                                    </g>
                                  </g>
                                </g>
                              </g>
                            </g>
                          </g>
                        </g>
                      </g>
                    </g>
                  </g>
                </g>
              </g>
            </g>
          </g>
        </g>
      </g>
      <g id="Layer_9" data-name="Layer 9" transform="translate(814 1076)">
        <path id="Path_1045355" data-name="Path 1045355" d="M13.25,28A8.24,8.24,0,0,1,13,26a8,8,0,1,1,16,0,8.24,8.24,0,0,1-.25,2Z" fill="#f7d881"/>
        <path id="Path_1045356" data-name="Path 1045356" d="M6,34H36V60a2,2,0,0,1-2,2H8a2,2,0,0,1-2-2Z" fill="#8892a0"/>
        <path id="Path_1045357" data-name="Path 1045357" d="M6,34V55.88A16.86,16.86,0,0,0,12,57c10.54,0,19.27-10,20.77-23Z" fill="#cfd3d9"/>
        <path id="Path_1045358" data-name="Path 1045358" d="M6,28H36a2,2,0,0,1,2,2v4H4V30a2,2,0,0,1,2-2Z" fill="#444950"/>
        <path id="Path_1045359" data-name="Path 1045359" d="M48,42H60v4H48Z" fill="#f7d881"/>
        <path id="Path_1045360" data-name="Path 1045360" d="M50,46H62v4H50Z" fill="#f7d881"/>
        <path id="Path_1045361" data-name="Path 1045361" d="M48,50H60v4H48Z" fill="#f7d881"/>
        <path id="Path_1045362" data-name="Path 1045362" d="M48,54H60v4H48Z" fill="#f7d881"/>
        <path id="Path_1045363" data-name="Path 1045363" d="M50,58H62v4H50Z" fill="#f7d881"/>
        <path id="Path_1045364" data-name="Path 1045364" d="M32,58H44v4H32Z" fill="#f7d881"/>
        <path id="Path_1045365" data-name="Path 1045365" d="M30,54H42v4H30Z" fill="#f7d881"/>
        <path id="Path_1045366" data-name="Path 1045366" d="M30,50H42v4H30Z" fill="#f7d881"/>
        <path id="Path_1045367" data-name="Path 1045367" d="M32,46H44v4H32Z" fill="#f7d881"/>
        <path id="Path_1045368" data-name="Path 1045368" d="M48,27v3H44l6,6,6-6H52V27Z" fill="#8892a0"/>
        <path id="Path_1045369" data-name="Path 1045369" d="M2,2H8V16H2Z" transform="translate(10 18) rotate(180)" fill="#66acd7"/>
        <path id="Path_1045370" data-name="Path 1045370" d="M8,8h4v6l3.41,3.41a2,2,0,0,0,1.42.59H17a2,2,0,0,0,2-2v-.17a2,2,0,0,0-.59-1.42L16,12V10a2,2,0,0,1,2-2h6a2,2,0,0,1,2,2v2l-2.41,2.41A2,2,0,0,0,23,15.83V16a2,2,0,0,0,2,2h.17a2,2,0,0,0,1.42-.59L30,14V8h8a2,2,0,0,0,0-4H8Z" fill="#fadfb2"/>
        <g id="Group_1206224" data-name="Group 1206224">
          <path id="Path_1045371" data-name="Path 1045371" d="M29,62H8a2,2,0,0,1-2-2V34" fill="none" stroke="#000" stroke-linejoin="round" stroke-width="2"/>
          <path id="Path_1045372" data-name="Path 1045372" d="M36,34V46" fill="none" stroke="#000" stroke-linejoin="round" stroke-width="2"/>
          <path id="Path_1045373" data-name="Path 1045373" d="M6,28H36a2,2,0,0,1,2,2v4H4V30a2,2,0,0,1,2-2Z" fill="none" stroke="#000" stroke-linejoin="round" stroke-width="2"/>
          <path id="Path_1045374" data-name="Path 1045374" d="M24,45a3,3,0,1,0-3,3,3,3,0,1,1-3,3" fill="none" stroke="#000" stroke-linejoin="round" stroke-width="2"/>
          <path id="Path_1045375" data-name="Path 1045375" d="M21,42V39" fill="none" stroke="#000" stroke-linejoin="round" stroke-width="2"/>
          <path id="Path_1045376" data-name="Path 1045376" d="M21,54v3" fill="none" stroke="#000" stroke-linejoin="round" stroke-width="2"/>
          <path id="Path_1045377" data-name="Path 1045377" d="M8,8h4v6l3.41,3.41a2,2,0,0,0,1.42.59H17a2,2,0,0,0,2-2v-.17a2,2,0,0,0-.59-1.42L16,12V10a2,2,0,0,1,2-2h6a2,2,0,0,1,2,2v2l-2.41,2.41A2,2,0,0,0,23,15.83V16a2,2,0,0,0,2,2h.17a2,2,0,0,0,1.42-.59L30,14V8h8a2,2,0,0,0,0-4H8" fill="none" stroke="#000" stroke-linejoin="round" stroke-width="2"/>
          <path id="Path_1045378" data-name="Path 1045378" d="M2,2H8V16H2Z" transform="translate(10 18) rotate(180)" fill="none" stroke="#000" stroke-linejoin="round" stroke-width="2"/>
          <path id="Path_1045379" data-name="Path 1045379" d="M24,24H19l4,4" fill="none" stroke="#000" stroke-linejoin="round" stroke-width="2"/>
          <path id="Path_1045380" data-name="Path 1045380" d="M21,24V21" fill="none" stroke="#000" stroke-linejoin="round" stroke-width="2"/>
          <path id="Path_1045381" data-name="Path 1045381" d="M13.25,28A8.24,8.24,0,0,1,13,26a8,8,0,1,1,16,0,8.24,8.24,0,0,1-.25,2" fill="none" stroke="#000" stroke-linejoin="round" stroke-width="2"/>
          <path id="Path_1045382" data-name="Path 1045382" d="M50,58H62v4H50Z" fill="none" stroke="#000" stroke-linejoin="round" stroke-width="2"/>
          <path id="Path_1045383" data-name="Path 1045383" d="M48,54H60v4H48Z" fill="none" stroke="#000" stroke-linejoin="round" stroke-width="2"/>
          <path id="Path_1045384" data-name="Path 1045384" d="M32,58H44v4H32Z" fill="none" stroke="#000" stroke-linejoin="round" stroke-width="2"/>
          <path id="Path_1045385" data-name="Path 1045385" d="M30,54H42v4H30Z" fill="none" stroke="#000" stroke-linejoin="round" stroke-width="2"/>
          <path id="Path_1045386" data-name="Path 1045386" d="M30,50H42v4H30Z" fill="none" stroke="#000" stroke-linejoin="round" stroke-width="2"/>
          <path id="Path_1045387" data-name="Path 1045387" d="M32,46H44v4H32Z" fill="none" stroke="#000" stroke-linejoin="round" stroke-width="2"/>
          <path id="Path_1045388" data-name="Path 1045388" d="M48,50H60v4H48Z" fill="none" stroke="#000" stroke-linejoin="round" stroke-width="2"/>
          <path id="Path_1045389" data-name="Path 1045389" d="M50,46H62v4H50Z" fill="none" stroke="#000" stroke-linejoin="round" stroke-width="2"/>
          <path id="Path_1045390" data-name="Path 1045390" d="M48,42H60v4H48Z" fill="none" stroke="#000" stroke-linejoin="round" stroke-width="2"/>
          <path id="Path_1045391" data-name="Path 1045391" d="M48,27v3H44l6,6,6-6H52V27" fill="none" stroke="#000" stroke-linejoin="round" stroke-width="2"/>
          <path id="Path_1045392" data-name="Path 1045392" d="M52,25V23" fill="none" stroke="#000" stroke-linejoin="round" stroke-width="2"/>
          <path id="Path_1045393" data-name="Path 1045393" d="M52,21V19" fill="none" stroke="#000" stroke-linejoin="round" stroke-width="2"/>
          <path id="Path_1045394" data-name="Path 1045394" d="M52,17V15" fill="none" stroke="#000" stroke-linejoin="round" stroke-width="2"/>
          <path id="Path_1045395" data-name="Path 1045395" d="M48,25V23" fill="none" stroke="#000" stroke-linejoin="round" stroke-width="2"/>
          <path id="Path_1045396" data-name="Path 1045396" d="M48,21V19" fill="none" stroke="#000" stroke-linejoin="round" stroke-width="2"/>
          <path id="Path_1045397" data-name="Path 1045397" d="M48,17V15" fill="none" stroke="#000" stroke-linejoin="round" stroke-width="2"/>
        </g>
      </g>
    </g>
  </g>
</svg>
