<svg xmlns="http://www.w3.org/2000/svg" xmlns:xlink="http://www.w3.org/1999/xlink" width="108" height="108" viewBox="0 0 108 108">
  <defs>
    <filter id="Path_904820" x="0" y="0" width="108" height="108" filterUnits="userSpaceOnUse">
      <feOffset dy="3" input="SourceAlpha"/>
      <feGaussianBlur stdDeviation="3" result="blur"/>
      <feFlood flood-opacity="0.161"/>
      <feComposite operator="in" in2="blur"/>
      <feComposite in="SourceGraphic"/>
    </filter>
  </defs>
  <g id="Group_1206726" data-name="Group 1206726" transform="translate(-620 -1665.783)">
    <g id="Group_1206427" data-name="Group 1206427">
      <g id="Group_1205960" data-name="Group 1205960" transform="translate(629 1671.783)">
        <g id="Group_1173585" data-name="Group 1173585" transform="translate(0 0)">
          <g id="Group_1173428" data-name="Group 1173428">
            <g id="Group_1171958" data-name="Group 1171958">
              <g id="Group_1167341" data-name="Group 1167341">
                <g id="Group_1166792" data-name="Group 1166792">
                  <g transform="matrix(1, 0, 0, 1, -9, -6)" filter="url(#Path_904820)">
                    <g id="Path_904820-2" data-name="Path 904820" transform="translate(9 6)" fill="#fef9e7">
                      <path d="M 44.99999618530273 88.50002288818359 C 39.12687301635742 88.50002288818359 33.43022155761719 87.35009765625 28.06829643249512 85.08218383789062 C 22.88852119445801 82.89133453369141 18.23629570007324 79.75460815429688 14.24084663391113 75.7591552734375 C 10.24540901184082 71.76371002197266 7.108683586120605 67.11148071289062 4.917821407318115 61.93170928955078 C 2.649921178817749 56.56978225708008 1.499996185302734 50.87313079833984 1.499996185302734 45.00000762939453 C 1.499996185302734 39.12688446044922 2.649921178817749 33.43023300170898 4.917821407318115 28.06830787658691 C 7.108683586120605 22.8885326385498 10.24540901184082 18.23630714416504 14.24084663391113 14.24085807800293 C 18.23629570007324 10.24542045593262 22.88852119445801 7.108695030212402 28.06829643249512 4.917832851409912 C 33.43022155761719 2.649932622909546 39.12687301635742 1.500007629394531 44.99999618530273 1.500007629394531 C 50.87311935424805 1.500007629394531 56.56977081298828 2.649932622909546 61.93169784545898 4.917832851409912 C 67.11147308349609 7.108695030212402 71.76369476318359 10.24542045593262 75.75914764404297 14.24085807800293 C 79.75458526611328 18.23630714416504 82.89131164550781 22.8885326385498 85.08216857910156 28.06830787658691 C 87.35007476806641 33.43023300170898 88.5 39.12688446044922 88.5 45.00000762939453 C 88.5 50.87313079833984 87.35007476806641 56.56978225708008 85.08216857910156 61.93170928955078 C 82.89131164550781 67.11148071289062 79.75458526611328 71.76371002197266 75.75914764404297 75.7591552734375 C 71.76369476318359 79.75460815429688 67.11147308349609 82.89133453369141 61.93169784545898 85.08218383789062 C 56.56977081298828 87.35009765625 50.87311935424805 88.50002288818359 44.99999618530273 88.50002288818359 Z" stroke="none"/>
                      <path d="M 44.99999618530273 2.999992370605469 C 39.32870864868164 2.999992370605469 33.82865142822266 4.110054016113281 28.65262603759766 6.299339294433594 C 23.65165710449219 8.414566040039062 19.15968322753906 11.44333648681641 15.301513671875 15.30150604248047 C 11.44333648681641 19.15967559814453 8.414566040039062 23.65164947509766 6.299339294433594 28.65262222290039 C 4.110054016113281 33.82866287231445 2.999992370605469 39.32872009277344 2.999992370605469 45.00000762939453 C 2.999992370605469 50.67129516601562 4.110054016113281 56.17133712768555 6.299339294433594 61.34738159179688 C 8.414566040039062 66.34835052490234 11.44333648681641 70.84030914306641 15.301513671875 74.69849395751953 C 19.15968322753906 78.55666351318359 23.65165710449219 81.58543395996094 28.65262603759766 83.70066833496094 C 33.82865142822266 85.88995361328125 39.32870864868164 87.00000762939453 44.99999618530273 87.00000762939453 C 50.67128372192383 87.00000762939453 56.17134094238281 85.88995361328125 61.34736633300781 83.70066833496094 C 66.34834289550781 81.58543395996094 70.84030914306641 78.55666351318359 74.69847869873047 74.69849395751953 C 78.55665588378906 70.84030914306641 81.58542633056641 66.34835052490234 83.70065307617188 61.34738159179688 C 85.88993835449219 56.17133712768555 87 50.67129516601562 87 45.00000762939453 C 87 39.32872009277344 85.88993835449219 33.82866287231445 83.70065307617188 28.65262222290039 C 81.58542633056641 23.65164947509766 78.55665588378906 19.15967559814453 74.69847869873047 15.30150604248047 C 70.84030914306641 11.44333648681641 66.34834289550781 8.414566040039062 61.34736633300781 6.299339294433594 C 56.17134094238281 4.110054016113281 50.67128372192383 2.999992370605469 44.99999618530273 2.999992370605469 M 44.99999618530273 -7.62939453125e-06 C 69.85281372070312 -7.62939453125e-06 90 20.14717864990234 90 45.00000762939453 C 90 69.85280609130859 69.85281372070312 90.00000762939453 44.99999618530273 90.00000762939453 C 20.14717864990234 90.00000762939453 -7.62939453125e-06 69.85280609130859 -7.62939453125e-06 45.00000762939453 C -7.62939453125e-06 20.14717864990234 20.14717864990234 -7.62939453125e-06 44.99999618530273 -7.62939453125e-06 Z" stroke="none" fill="#887013"/>
                    </g>
                  </g>
                </g>
              </g>
            </g>
          </g>
        </g>
      </g>
      <g id="goals_18840213" transform="translate(635.591 1679.177)">
        <g id="Group_1206424" data-name="Group 1206424" transform="translate(4.004 3.81)">
          <path id="Path_1045602" data-name="Path 1045602" d="M49.907,38.258a.134.134,0,0,1-.022.109.14.14,0,0,1-.109.044H41.171a1.484,1.484,0,0,0-.327.044,1.829,1.829,0,0,0-1.527,1.81v18.17a.118.118,0,0,1-.076.12,18.2,18.2,0,0,1-7.689,1.669,18.672,18.672,0,1,1,0-37.344,20.236,20.236,0,0,1,11.659,4.046.128.128,0,0,1,.044.175.707.707,0,0,0-.087.382v.731a7.818,7.818,0,0,0,1,.218c.763.131.971.175,1.036.284a.154.154,0,0,1,.011.153c-.076.109-.284.153-1.058.284a6.622,6.622,0,0,0-.992.207v.633a.861.861,0,0,0,.851.862h1.025a.135.135,0,0,1,.142.131v.524a2.341,2.341,0,0,0,2.345,2.345h.545a2.4,2.4,0,0,0,.578-.065.141.141,0,0,1,.164.087,24.6,24.6,0,0,1,1.091,4.384Z" transform="translate(-3.195 -2.044)" fill="#d50000"/>
          <path id="Path_1045603" data-name="Path 1045603" d="M45.117,37.885a.151.151,0,0,1-.022.12.14.14,0,0,1-.109.044H40.809a1.484,1.484,0,0,0-.327.044,1.829,1.829,0,0,0-1.527,1.81V53.132a.175.175,0,0,1-.055.12,14.312,14.312,0,1,1,6.217-15.367Z" transform="translate(-2.833 -1.682)" fill="#ffebee"/>
          <path id="Path_1045604" data-name="Path 1045604" d="M30.827,30.88A9.947,9.947,0,1,0,38.57,47.065a.118.118,0,0,0,.022-.087V39.54a1.829,1.829,0,0,1,1.516-1.81.1.1,0,0,0,.1-.065.129.129,0,0,0,.011-.109,9.954,9.954,0,0,0-9.39-6.675Z" transform="translate(-2.47 -1.319)" fill="#d50000"/>
          <circle id="Ellipse_12643" data-name="Ellipse 12643" cx="5.584" cy="5.584" r="5.584" transform="translate(22.773 33.923)" fill="#ffebee"/>
          <circle id="Ellipse_12644" data-name="Ellipse 12644" cx="1.909" cy="1.909" r="1.909" transform="translate(26.448 37.599)" fill="#d50000"/>
          <g id="Group_1206420" data-name="Group 1206420" transform="translate(0 28.808)">
            <g id="Group_1206419" data-name="Group 1206419" transform="translate(0 8.437)">
              <path id="Path_1045605" data-name="Path 1045605" d="M9.708,42.267l.1-.117,1.9-1.855H6.031L4,42.267Z" transform="translate(-4 -37.711)" fill="#263238"/>
              <path id="Path_1045606" data-name="Path 1045606" d="M4,37.926l2.031,1.93h5.676a12.16,12.16,0,0,1-2.014-1.93Z" transform="translate(-4 -37.926)" fill="#263238"/>
              <path id="Path_1045607" data-name="Path 1045607" d="M4,37.926l2.031,1.93h5.676a12.16,12.16,0,0,1-2.014-1.93Z" transform="translate(-4 -37.926)" fill="#263238"/>
            </g>
            <path id="Path_1045608" data-name="Path 1045608" d="M47.9,30.19H42.381a.126.126,0,0,0-.131.131v.524a2.611,2.611,0,0,0,2.618,2.618h.545a2.315,2.315,0,0,0,.643-.076,2.624,2.624,0,0,0,1.985-2.541v-.524A.135.135,0,0,0,47.9,30.19Z" transform="translate(-0.533 -30.19)" fill="#263238"/>
            <path id="Path_1045609" data-name="Path 1045609" d="M47.9,30.19H42.381a.126.126,0,0,0-.131.131v.524a2.611,2.611,0,0,0,2.618,2.618h.545a2.315,2.315,0,0,0,.643-.076,2.624,2.624,0,0,0,1.985-2.541v-.524A.135.135,0,0,0,47.9,30.19Z" transform="translate(-0.533 -30.19)" fill="#263238"/>
          </g>
          <path id="Path_1045610" data-name="Path 1045610" d="M54.326,13.59a9.064,9.064,0,0,0-8.714-6.62c-.316,0-.654.022-1.025.055a9.066,9.066,0,0,0-7.569,6.195,8.315,8.315,0,0,0-.393,1.789c-.033.338-.055.665-.055.982a8.978,8.978,0,0,0,2.694,6.467A7.517,7.517,0,0,1,41.6,27.823a.143.143,0,0,0,.131.142h7.765a.135.135,0,0,0,.131-.142,7.12,7.12,0,0,1,.622-2.9,7.786,7.786,0,0,1,1.712-2.454c.262-.273.491-.524.7-.785a9.057,9.057,0,0,0,2.007-5.66V15.99a9.3,9.3,0,0,0-.338-2.4Z" transform="translate(-1.048 -3.486)" fill="#ffd600"/>
          <g id="Group_1206421" data-name="Group 1206421" transform="translate(28.505)">
            <path id="Path_1045611" data-name="Path 1045611" d="M56.335,12.541a.545.545,0,0,1-.274-1.018l.974-.563a.545.545,0,0,1,.545.944l-.974.563a.55.55,0,0,1-.273.073Z" transform="translate(-27.811 -3.131)" fill="#ffab00"/>
            <path id="Path_1045612" data-name="Path 1045612" d="M44.907,5.991a.546.546,0,0,1-.545-.545V4.321a.545.545,0,0,1,1.091,0V5.446A.546.546,0,0,1,44.907,5.991Z" transform="translate(-28.847 -3.776)" fill="#ffab00"/>
            <path id="Path_1045613" data-name="Path 1045613" d="M38.357,7.747a.547.547,0,0,1-.473-.273L37.321,6.5a.545.545,0,1,1,.944-.545l.563.975a.545.545,0,0,1-.472.818Z" transform="translate(-29.491 -3.603)" fill="#ffab00"/>
            <path id="Path_1045614" data-name="Path 1045614" d="M33.56,12.541a.539.539,0,0,1-.273-.073l-.975-.563a.545.545,0,1,1,.545-.944l.975.563a.545.545,0,0,1-.274,1.018Z" transform="translate(-29.963 -3.131)" fill="#ffab00"/>
            <path id="Path_1045615" data-name="Path 1045615" d="M31.806,19.093H30.681a.545.545,0,0,1,0-1.091h1.124a.545.545,0,0,1,0,1.091Z" transform="translate(-30.136 -2.487)" fill="#ffab00"/>
            <path id="Path_1045616" data-name="Path 1045616" d="M59.228,19.093H58.1A.545.545,0,0,1,58.1,18h1.124a.545.545,0,0,1,0,1.091Z" transform="translate(-27.65 -2.487)" fill="#ffab00"/>
            <path id="Path_1045617" data-name="Path 1045617" d="M51.5,7.747a.539.539,0,0,1-.273-.073.546.546,0,0,1-.2-.745l.563-.975a.545.545,0,1,1,.944.545l-.563.975a.547.547,0,0,1-.473.273Z" transform="translate(-28.249 -3.603)" fill="#ffab00"/>
          </g>
          <path id="Path_1045618" data-name="Path 1045618" d="M47.566,27.2H46.475V19.35h-2.4V27.2H42.985V19.347a2.723,2.723,0,0,1,.1-5.443h.445a.546.546,0,0,1,.545.545v3.81h2.4v-3.81a.546.546,0,0,1,.545-.545h.428a2.722,2.722,0,0,1,2.728,2.727,2.726,2.726,0,0,1-2.61,2.716V27.2ZM42.985,15a1.632,1.632,0,0,0,0,3.258Zm4.581,0v3.256a1.634,1.634,0,0,0,1.519-1.623A1.63,1.63,0,0,0,47.566,15Z" transform="translate(-0.704 -2.858)" fill="#ffab00"/>
          <path id="Path_1045619" data-name="Path 1045619" d="M53.567,36.88H39a1.313,1.313,0,0,0-.382.044A2.08,2.08,0,0,0,36.88,39V60.111A2.118,2.118,0,0,0,39,62.226H53.567a2.118,2.118,0,0,0,2.116-2.116V39a2.118,2.118,0,0,0-2.116-2.116Z" transform="translate(-1.02 -0.775)" fill="#e0e0e0"/>
          <g id="Group_1206422" data-name="Group 1206422" transform="translate(38.796 40.155)">
            <path id="Path_1045620" data-name="Path 1045620" d="M41.083,43.66A.548.548,0,0,1,40.7,43.5l-.965-.966a.545.545,0,0,1,.771-.771l.605.605,1.878-1.639a.545.545,0,0,1,.717.821L41.44,43.526a.539.539,0,0,1-.359.135Z" transform="translate(-39.572 -40.594)" fill="#00c853"/>
            <path id="Path_1045621" data-name="Path 1045621" d="M41.083,47.66A.548.548,0,0,1,40.7,47.5l-.965-.966a.545.545,0,0,1,.771-.771l.605.605,1.878-1.639a.545.545,0,1,1,.717.821L41.44,47.526a.539.539,0,0,1-.359.135Z" transform="translate(-39.572 -40.231)" fill="#00c853"/>
            <path id="Path_1045622" data-name="Path 1045622" d="M41.083,51.66A.548.548,0,0,1,40.7,51.5l-.965-.966a.545.545,0,0,1,.771-.771l.605.605,1.878-1.639a.545.545,0,1,1,.717.821L41.44,51.526a.539.539,0,0,1-.359.135Z" transform="translate(-39.572 -39.869)" fill="#00c853"/>
            <path id="Path_1045623" data-name="Path 1045623" d="M41.083,55.66A.548.548,0,0,1,40.7,55.5l-.965-.966a.545.545,0,0,1,.771-.771l.605.605,1.878-1.639a.545.545,0,0,1,.717.821L41.44,55.526a.539.539,0,0,1-.359.135Z" transform="translate(-39.572 -39.506)" fill="#00c853"/>
          </g>
          <g id="Group_1206423" data-name="Group 1206423" transform="translate(45.262 41.143)">
            <path id="Path_1045624" data-name="Path 1045624" d="M51.5,42.591H46.045a.545.545,0,0,1,0-1.091H51.5a.545.545,0,1,1,0,1.091Z" transform="translate(-45.5 -41.5)" fill="#eee"/>
            <path id="Path_1045625" data-name="Path 1045625" d="M51.5,46.591H46.045a.545.545,0,0,1,0-1.091H51.5a.545.545,0,1,1,0,1.091Z" transform="translate(-45.5 -41.137)" fill="#eee"/>
            <path id="Path_1045626" data-name="Path 1045626" d="M51.5,50.591H46.045a.545.545,0,0,1,0-1.091H51.5a.545.545,0,1,1,0,1.091Z" transform="translate(-45.5 -40.775)" fill="#eee"/>
            <path id="Path_1045627" data-name="Path 1045627" d="M51.5,54.591H46.045a.545.545,0,0,1,0-1.091H51.5a.545.545,0,1,1,0,1.091Z" transform="translate(-45.5 -40.412)" fill="#eee"/>
          </g>
          <path id="Path_1045628" data-name="Path 1045628" d="M32.021,40.886H11.013a.3.3,0,0,1-.3-.3V39.551a.3.3,0,0,1,.3-.3H32.021a.818.818,0,0,1,0,1.636Z" transform="translate(-3.392 -0.561)" fill="#37474f"/>
          <path id="Path_1045629" data-name="Path 1045629" d="M50.216,27.981V27.2a1.141,1.141,0,0,0-1.145-1.156H41.545a1.155,1.155,0,0,0-1.025.643.965.965,0,0,0-.12.513v.785c0,.2.229.251,1.232.425.153.033.349.065.513.1-.164.033-.36.065-.524.087-.992.175-1.222.229-1.222.425V29.7a1.131,1.131,0,0,0,1.123,1.134h7.569A1.131,1.131,0,0,0,50.216,29.7v-.687c0-.2-.24-.251-1.232-.425-.164-.022-.36-.055-.524-.087.164-.033.36-.065.513-.1C49.976,28.232,50.216,28.178,50.216,27.981Z" transform="translate(-0.701 -1.758)" fill="#37474f"/>
        </g>
        <path id="Path_1045630" data-name="Path 1045630" d="M31.568,60.843A19.359,19.359,0,1,1,43.686,26.407L42.659,27.68A17.717,17.717,0,1,0,31.568,59.207a17.329,17.329,0,0,0,7.293-1.583l.684,1.487a18.95,18.95,0,0,1-7.976,1.732Z" transform="translate(0.748 1.697)"/>
        <path id="Path_1045631" data-name="Path 1045631" d="M46.058,37.41a17.152,17.152,0,0,0-1.3-4.174l1.485-.684a18.79,18.79,0,0,1,1.425,4.572l-1.611.286Z" transform="translate(3.698 2.642)"/>
        <path id="Path_1045632" data-name="Path 1045632" d="M43.849,30.991l.011-.807Zm.829-.807h-.829v-.829Z" transform="translate(3.616 2.352)"/>
        <path id="Path_1045633" data-name="Path 1045633" d="M31.205,56.118A15,15,0,1,1,45.8,37.661a.818.818,0,0,1-.8,1.008H40.825a.549.549,0,0,0-.143.014,1.167,1.167,0,0,0-1.024,1.153V53.065a.82.82,0,0,1-.375.688,14.892,14.892,0,0,1-8.077,2.366Zm0-28.357a13.36,13.36,0,1,0,6.817,24.848V39.834a2.766,2.766,0,0,1,2.31-2.748,1.858,1.858,0,0,1,.493-.055h3.1A13.312,13.312,0,0,0,31.2,27.761Z" transform="translate(1.11 2.06)"/>
        <path id="Path_1045634" data-name="Path 1045634" d="M30.843,51.392a10.634,10.634,0,1,1,10.033-14.13.819.819,0,0,1-.639,1.075,1.134,1.134,0,0,0-.94,1.134V46.91a.819.819,0,0,1-.181.513,10.573,10.573,0,0,1-8.271,3.97Zm0-19.632a9,9,0,1,0,6.817,14.855V39.472a2.78,2.78,0,0,1,1.375-2.414,8.993,8.993,0,0,0-8.192-5.3Z" transform="translate(1.473 2.422)"/>
        <path id="Path_1045635" data-name="Path 1045635" d="M30.48,46.667A6.271,6.271,0,1,1,36.751,40.4,6.279,6.279,0,0,1,30.48,46.667Zm0-10.906A4.635,4.635,0,1,0,35.115,40.4,4.641,4.641,0,0,0,30.48,35.761Z" transform="translate(1.835 2.785)"/>
        <path id="Path_1045636" data-name="Path 1045636" d="M30.118,41.942a1.909,1.909,0,1,1,1.909-1.909A1.911,1.911,0,0,1,30.118,41.942Zm0-2.181a.273.273,0,0,0-.273.273c0,.3.545.3.545,0A.273.273,0,0,0,30.118,39.761Z" transform="translate(2.198 3.147)"/>
        <g id="Group_1206426" data-name="Group 1206426" transform="translate(3.959 40.919)">
          <path id="Path_1045637" data-name="Path 1045637" d="M10.672,39.125H32.8v1.636H10.672Z" transform="translate(-3.351 -37.681)"/>
          <g id="Group_1206425" data-name="Group 1206425">
            <path id="Path_1045638" data-name="Path 1045638" d="M9.667,42.142l.1-.117,1.9-1.855H5.99L3.959,42.142Z" transform="translate(-3.959 -37.586)"/>
            <path id="Path_1045639" data-name="Path 1045639" d="M3.959,37.8l2.031,1.93h5.676A12.16,12.16,0,0,1,9.651,37.8Z" transform="translate(-3.959 -37.801)"/>
          </g>
        </g>
        <path id="Path_1045640" data-name="Path 1045640" d="M49.177,31.369H41.61a1.8,1.8,0,0,1-1.8-1.8v-.688a.824.824,0,0,1,.158-.522.82.82,0,0,1-.158-.521V27.05a1.834,1.834,0,0,1,1.832-1.832h7.52a1.83,1.83,0,0,1,1.822,1.832v.784a.82.82,0,0,1-.158.521.822.822,0,0,1,.158.522v.688a1.805,1.805,0,0,1-1.8,1.8Zm-7.734-1.9v.1a.165.165,0,0,0,.167.167h7.567a.166.166,0,0,0,.168-.167v-.1c-.154-.028-.318-.057-.444-.077-.891-.151-1.261-.214-1.5-.6a.816.816,0,0,1,0-.865c.238-.382.606-.446,1.5-.6.127-.023.292-.051.446-.081v-.2a.189.189,0,0,0-.187-.2h-7.52a.192.192,0,0,0-.2.2v.2c.154.029.32.059.446.081.89.155,1.259.219,1.5.6a.82.82,0,0,1,0,.868c-.239.381-.607.443-1.5.593-.125.022-.29.049-.444.077Zm.887-.385h.011Z" transform="translate(3.249 1.977)"/>
        <path id="Path_1045641" data-name="Path 1045641" d="M45.5,34.011h-.542a3.314,3.314,0,0,1-3.31-3.31v-.522a.818.818,0,0,1,.818-.818h5.524a.818.818,0,0,1,.818.818V30.7a3.314,3.314,0,0,1-3.309,3.31ZM43.31,31a1.676,1.676,0,0,0,1.648,1.377H45.5A1.676,1.676,0,0,0,47.147,31Z" transform="translate(3.416 2.353)"/>
        <path id="Path_1045642" data-name="Path 1045642" d="M49.509,28.575h-7.76a.818.818,0,0,1-.818-.818A6.864,6.864,0,0,0,38.8,22.869a9.644,9.644,0,0,1-2.9-6.955,9.509,9.509,0,0,1,.063-1.056,9.2,9.2,0,0,1,.419-1.925,9.78,9.78,0,0,1,3.711-4.974A9.6,9.6,0,0,1,44.52,6.283c.383-.038.747-.06,1.108-.06A9.744,9.744,0,0,1,55,13.341a9.626,9.626,0,0,1,.358,2.572v.038a9.738,9.738,0,0,1-2.154,6.1,9.53,9.53,0,0,1-.755.833,7.244,7.244,0,0,0-1.563,2.247,6.537,6.537,0,0,0-.558,2.631.818.818,0,0,1-.818.818Zm-6.983-1.636h6.207a8.241,8.241,0,0,1,.655-2.471A8.859,8.859,0,0,1,51.3,21.713a7.834,7.834,0,0,0,.627-.69,7.985,7.985,0,0,0,1.794-5.073l.818-.034-.818,0a8.094,8.094,0,0,0-8.091-8.061c-.308,0-.618.02-.936.051A7.96,7.96,0,0,0,41.034,9.3a8.135,8.135,0,0,0-3.093,4.141,7.635,7.635,0,0,0-.347,1.595,7.913,7.913,0,0,0-.053.879A8.028,8.028,0,0,0,39.954,21.7a8.572,8.572,0,0,1,2.574,5.235Z" transform="translate(2.895 0.256)"/>
        <path id="Path_1045643" data-name="Path 1045643" d="M44.888,6.161a.818.818,0,0,1-.818-.818V4.219a.818.818,0,1,1,1.636,0V5.343A.818.818,0,0,1,44.888,6.161Z" transform="translate(3.636)"/>
        <path id="Path_1045644" data-name="Path 1045644" d="M38.338,7.917a.817.817,0,0,1-.709-.409l-.563-.975a.817.817,0,1,1,1.416-.818l.563.975a.818.818,0,0,1-.708,1.227Z" transform="translate(2.991 0.173)"/>
        <path id="Path_1045645" data-name="Path 1045645" d="M33.542,12.712a.812.812,0,0,1-.409-.11l-.974-.563a.817.817,0,0,1,.818-1.416l.974.563a.818.818,0,0,1-.41,1.526Z" transform="translate(2.519 0.645)"/>
        <path id="Path_1045646" data-name="Path 1045646" d="M31.786,19.263H30.662a.818.818,0,0,1,0-1.636h1.124a.818.818,0,0,1,0,1.636Z" transform="translate(2.346 1.289)"/>
        <path id="Path_1045647" data-name="Path 1045647" d="M59.208,19.263H58.084a.818.818,0,0,1,0-1.636h1.124a.818.818,0,0,1,0,1.636Z" transform="translate(4.832 1.289)"/>
        <path id="Path_1045648" data-name="Path 1045648" d="M56.317,12.712a.818.818,0,0,1-.41-1.526l.974-.563a.817.817,0,0,1,.818,1.416l-.974.563a.817.817,0,0,1-.409.11Z" transform="translate(4.672 0.645)"/>
        <path id="Path_1045649" data-name="Path 1045649" d="M51.486,7.917a.818.818,0,0,1-.708-1.227l.563-.975a.817.817,0,0,1,1.416.818l-.563.975a.817.817,0,0,1-.709.409Z" transform="translate(4.234 0.173)"/>
        <path id="Path_1045650" data-name="Path 1045650" d="M47.821,27.093H46.185V19.52H44.33v7.573H42.695V19.5a3,3,0,0,1,.373-5.967h.445a.818.818,0,0,1,.818.818v3.537h1.854V14.348A.818.818,0,0,1,47,13.53h.429a2.994,2.994,0,0,1,3,3,3,3,0,0,1-2.61,2.965ZM42.695,15.217a1.358,1.358,0,0,0,0,2.614Zm5.126.005v2.6a1.358,1.358,0,0,0,.974-1.3,1.4,1.4,0,0,0-.409-.977,1.372,1.372,0,0,0-.565-.329Z" transform="translate(3.274 0.918)"/>
        <path id="Path_1045651" data-name="Path 1045651" d="M53.583,62.846H39.012a2.806,2.806,0,0,1-2.8-2.8V52.158a.818.818,0,0,1,1.636,0v7.884a1.154,1.154,0,0,0,1.167,1.167H53.583a1.155,1.155,0,0,0,1.167-1.167V38.928a1.155,1.155,0,0,0-1.167-1.167H43.189a.818.818,0,1,1,0-1.636H53.583a2.806,2.806,0,0,1,2.8,2.8V60.043A2.806,2.806,0,0,1,53.583,62.846Z" transform="translate(2.923 2.966)"/>
        <path id="Path_1045652" data-name="Path 1045652" d="M41.064,43.83a.816.816,0,0,1-.578-.24l-.966-.966a.818.818,0,0,1,1.157-1.157l.425.425,1.686-1.472a.818.818,0,0,1,1.075,1.232L41.6,43.627a.813.813,0,0,1-.538.2Z" transform="translate(3.202 3.337)"/>
        <path id="Path_1045653" data-name="Path 1045653" d="M51.48,42.761H46.027a.818.818,0,1,1,0-1.636H51.48a.818.818,0,1,1,0,1.636Z" transform="translate(3.739 3.419)"/>
        <path id="Path_1045654" data-name="Path 1045654" d="M41.064,47.83a.812.812,0,0,1-.578-.24l-.966-.966a.818.818,0,0,1,1.157-1.157l.425.425,1.686-1.472a.818.818,0,0,1,1.075,1.232L41.6,47.627a.819.819,0,0,1-.538.2Z" transform="translate(3.202 3.7)"/>
        <path id="Path_1045655" data-name="Path 1045655" d="M51.48,46.761H46.027a.818.818,0,1,1,0-1.636H51.48a.818.818,0,1,1,0,1.636Z" transform="translate(3.739 3.782)"/>
        <path id="Path_1045656" data-name="Path 1045656" d="M41.064,51.83a.812.812,0,0,1-.578-.24l-.966-.966a.818.818,0,0,1,1.157-1.157l.425.425,1.686-1.472a.818.818,0,0,1,1.075,1.234L41.6,51.628A.819.819,0,0,1,41.064,51.83Z" transform="translate(3.202 4.062)"/>
        <path id="Path_1045657" data-name="Path 1045657" d="M51.48,50.761H46.027a.818.818,0,1,1,0-1.636H51.48a.818.818,0,1,1,0,1.636Z" transform="translate(3.739 4.144)"/>
        <path id="Path_1045658" data-name="Path 1045658" d="M41.064,55.83a.812.812,0,0,1-.578-.24l-.966-.966a.818.818,0,0,1,1.157-1.157l.425.425,1.686-1.472a.818.818,0,0,1,1.075,1.234L41.6,55.628A.819.819,0,0,1,41.064,55.83Z" transform="translate(3.202 4.425)"/>
        <path id="Path_1045659" data-name="Path 1045659" d="M51.48,54.761H46.027a.818.818,0,1,1,0-1.636H51.48a.818.818,0,1,1,0,1.636Z" transform="translate(3.739 4.507)"/>
      </g>
    </g>
  </g>
</svg>
