<svg xmlns="http://www.w3.org/2000/svg" xmlns:xlink="http://www.w3.org/1999/xlink" width="113" height="113" viewBox="0 0 113 113">
  <defs>
    <filter id="Path_982547" x="0" y="0" width="113" height="113" filterUnits="userSpaceOnUse">
      <feOffset dy="3" input="SourceAlpha"/>
      <feGaussianBlur stdDeviation="3" result="blur"/>
      <feFlood flood-opacity="0.161"/>
      <feComposite operator="in" in2="blur"/>
      <feComposite in="SourceGraphic"/>
    </filter>
  </defs>
  <g id="Group_1206702" data-name="Group 1206702" transform="translate(-1109.98 -1055.342)">
    <g id="Group_1206223" data-name="Group 1206223">
      <g id="Group_1202718" data-name="Group 1202718" transform="translate(316.49 -1644.681)">
        <g id="Group_1202072" data-name="Group 1202072" transform="translate(0 324.215)">
          <g id="Group_1178713" data-name="Group 1178713" transform="translate(0 886.374)">
            <g id="Group_1176922" data-name="Group 1176922" transform="translate(802.49 1495.435)">
              <g id="Group_1172322" data-name="Group 1172322" transform="translate(0 0)">
                <g id="Group_1164700" data-name="Group 1164700">
                  <g id="Group_1160931" data-name="Group 1160931">
                    <g id="Group_1160749" data-name="Group 1160749">
                      <g id="Group_1158891" data-name="Group 1158891">
                        <g id="Group_1157406" data-name="Group 1157406">
                          <g id="Group_1155793" data-name="Group 1155793">
                            <g id="Group_1154704" data-name="Group 1154704">
                              <g id="Group_1150790" data-name="Group 1150790">
                                <g id="Group_1154214" data-name="Group 1154214">
                                  <g id="Group_1152583" data-name="Group 1152583">
                                    <g id="Group_1146973" data-name="Group 1146973">
                                      <g id="Group_1146954" data-name="Group 1146954">
                                        <g transform="matrix(1, 0, 0, 1, -9, -6)" filter="url(#Path_982547)">
                                          <g id="Path_982547-2" data-name="Path 982547" transform="translate(9 6)" fill="#fbedfe">
                                            <path d="M 47.5000114440918 93.49987030029297 C 41.28938293457031 93.49987030029297 35.26534652709961 92.28384399414062 29.5951976776123 89.88558959960938 C 24.11773109436035 87.56881713867188 19.19814491271973 84.25183868408203 14.97310447692871 80.02680206298828 C 10.74805164337158 75.80176544189453 7.43107795715332 70.88218688964844 5.114304542541504 65.40472412109375 C 2.716038227081299 59.73458862304688 1.500011444091797 53.71054840087891 1.500011444091797 47.49993515014648 C 1.500011444091797 41.28932189941406 2.716038227081299 35.26528167724609 5.114304542541504 29.59514808654785 C 7.43107795715332 24.1176815032959 10.74805164337158 19.1981086730957 14.97310447692871 14.97306823730469 C 19.19814491271973 10.74802875518799 24.11773109436035 7.431055068969727 29.5951976776123 5.11428165435791 C 35.26534652709961 2.716028451919556 41.28938293457031 1.500001788139343 47.5000114440918 1.500001788139343 C 53.71063995361328 1.500001788139343 59.73467636108398 2.716028451919556 65.40482330322266 5.11428165435791 C 70.88229370117188 7.431055068969727 75.8018798828125 10.74802875518799 80.02691650390625 14.97306823730469 C 84.25196838378906 19.1981086730957 87.56894683837891 24.1176815032959 89.88571929931641 29.59514808654785 C 92.28398132324219 35.26528167724609 93.50001525878906 41.28932189941406 93.50001525878906 47.49993515014648 C 93.50001525878906 53.71054840087891 92.28398132324219 59.73458862304688 89.88571929931641 65.40472412109375 C 87.56894683837891 70.88218688964844 84.25196838378906 75.80176544189453 80.02691650390625 80.02680206298828 C 75.8018798828125 84.25183868408203 70.88229370117188 87.56881713867188 65.40482330322266 89.88558959960938 C 59.73467636108398 92.28384399414062 53.71063995361328 93.49987030029297 47.5000114440918 93.49987030029297 Z" stroke="none"/>
                                            <path d="M 47.5000114440918 3 C 41.49122619628906 3 35.66378021240234 4.1761474609375 30.17951965332031 6.495796203613281 C 24.880859375 8.7369384765625 20.12153625488281 11.94596862792969 16.03376770019531 16.03373718261719 C 11.94598388671875 20.12149047851562 8.736968994140625 24.88081359863281 6.495811462402344 30.17947387695312 C 4.176162719726562 35.66371917724609 3.000007629394531 41.49116516113281 3.000007629394531 47.49993515014648 C 3.000007629394531 53.50870513916016 4.176162719726562 59.33615112304688 6.495811462402344 64.82039642333984 C 8.736968994140625 70.11905670166016 11.94598388671875 74.87837982177734 16.03376770019531 78.96613311767578 C 20.12153625488281 83.05390167236328 24.880859375 86.26293182373047 30.17951965332031 88.50407409667969 C 35.66378021240234 90.82372283935547 41.49122619628906 91.99987030029297 47.5000114440918 91.99987030029297 C 53.50879669189453 91.99987030029297 59.33624267578125 90.82372283935547 64.82050323486328 88.50407409667969 C 70.11916351318359 86.26293182373047 74.87848663330078 83.05390167236328 78.96625518798828 78.96613311767578 C 83.05403900146484 74.87837982177734 86.2630615234375 70.11905670166016 88.50421142578125 64.82039642333984 C 90.82386016845703 59.33615112304688 92.00001525878906 53.50870513916016 92.00001525878906 47.49993515014648 C 92.00001525878906 41.49116516113281 90.82386016845703 35.66371917724609 88.50421142578125 30.17947387695312 C 86.2630615234375 24.88081359863281 83.05403900146484 20.12149047851562 78.96625518798828 16.03373718261719 C 74.87848663330078 11.94596862792969 70.11916351318359 8.7369384765625 64.82050323486328 6.495796203613281 C 59.33624267578125 4.1761474609375 53.50879669189453 3 47.5000114440918 3 M 47.5000114440918 0 C 73.73353576660156 0 95.00001525878906 21.26644134521484 95.00001525878906 47.49993515014648 C 95.00001525878906 73.73342895507812 73.73353576660156 94.99987030029297 47.5000114440918 94.99987030029297 C 21.26648712158203 94.99987030029297 7.62939453125e-06 73.73342895507812 7.62939453125e-06 47.49993515014648 C 7.62939453125e-06 21.26644134521484 21.26648712158203 0 47.5000114440918 0 Z" stroke="none" fill="#7b3289"/>
                                          </g>
                                        </g>
                                      </g>
                                    </g>
                                  </g>
                                </g>
                              </g>
                            </g>
                          </g>
                        </g>
                      </g>
                    </g>
                  </g>
                </g>
              </g>
            </g>
          </g>
        </g>
      </g>
      <g id="decision-making_2452157" transform="translate(1134.48 1075.276)">
        <g id="Group_1206221" data-name="Group 1206221">
          <g id="Group_1206201" data-name="Group 1206201">
            <path id="Path_1045331" data-name="Path 1045331" d="M28,41a13.352,13.352,0,0,0,.29,2.77c-.14-.03-.27-.05-.41-.07l-2.01-.29L23,43l-.93-3.71A6.939,6.939,0,0,0,25.92,34H27a3,3,0,0,0,2.06-5.18l.5-1.5A8.609,8.609,0,0,0,30,24.6a2.175,2.175,0,0,0-.01-.26H30l.1.1a3.971,3.971,0,0,0,2.93,1.16,3.851,3.851,0,0,0,1.45-.31c.02,0,.03-.01.05-.02A3.984,3.984,0,0,0,37,21.58V20h8v1.58a3.984,3.984,0,0,0,2.47,3.69c.02.01.03.02.05.02a3.972,3.972,0,0,0,4.38-.85l1.12-1.12,5.66,5.66L57.56,30.1a4,4,0,0,0-.85,4.38c0,.02.01.03.02.05A3.984,3.984,0,0,0,60.42,37H62v8H60.42a3.984,3.984,0,0,0-3.69,2.47c-.01.02-.02.03-.02.05a4,4,0,0,0,.85,4.38l1.12,1.12-5.66,5.66L51.9,57.56a4,4,0,0,0-4.38-.85c-.02,0-.03.01-.05.02A3.984,3.984,0,0,0,45,60.42V62H36V53a12.824,12.824,0,0,0,5,1A13,13,0,1,0,28,41Z" fill="#ffc729"/>
          </g>
          <g id="Group_1206202" data-name="Group 1206202">
            <path id="Path_1045332" data-name="Path 1045332" d="M32,41a9,9,0,1,0,9-9A9,9,0,0,0,32,41Zm-.21,4.19A9.617,9.617,0,0,0,29,43.93c-.23-.06-.47-.12-.71-.16A13.352,13.352,0,0,1,28,41,13,13,0,1,1,41,54a12.824,12.824,0,0,1-5-1,9.48,9.48,0,0,0-4.21-7.81Z" fill="#fcd770"/>
          </g>
          <g id="Group_1206203" data-name="Group 1206203">
            <path id="Path_1045333" data-name="Path 1045333" d="M11,55l4,7H2V53.06a9.471,9.471,0,0,1,4.21-7.87A9.617,9.617,0,0,1,9,43.93V51l6,1Z" fill="#b4dd7f"/>
          </g>
          <g id="Group_1206204" data-name="Group 1206204">
            <path id="Path_1045334" data-name="Path 1045334" d="M36,53.06V62H23l4-7-4-3,6-1V43.93a9.617,9.617,0,0,1,2.79,1.26A9.48,9.48,0,0,1,36,53Z" fill="#b4dd7f"/>
          </g>
          <g id="Group_1206205" data-name="Group 1206205">
            <path id="Path_1045335" data-name="Path 1045335" d="M14.16,48.9l1.16,3.15L15,52,9,51V43.93a8.556,8.556,0,0,1,1.12-.23l2.01-.29Z" fill="#a0d468"/>
          </g>
          <g id="Group_1206206" data-name="Group 1206206">
            <path id="Path_1045336" data-name="Path 1045336" d="M15.32,52.05,19,62H15l-4-7,4-3Z" fill="#a0d468"/>
          </g>
          <g id="Group_1206207" data-name="Group 1206207">
            <path id="Path_1045337" data-name="Path 1045337" d="M27,55l-4,7H19l3.68-9.95L23,52Z" fill="#a0d468"/>
          </g>
          <g id="Group_1206208" data-name="Group 1206208">
            <path id="Path_1045338" data-name="Path 1045338" d="M29,43.93V51l-6,1-.32.05,1.16-3.15,2.03-5.49,2.01.29c.14.02.27.04.41.07.24.04.48.1.71.16Z" fill="#a0d468"/>
          </g>
          <g id="Group_1206209" data-name="Group 1206209">
            <path id="Path_1045339" data-name="Path 1045339" d="M23.84,48.9l-1.16,3.15L19,62l-3.68-9.95L14.16,48.9,19,46Z" fill="#ff826e"/>
          </g>
          <g id="Group_1206210" data-name="Group 1206210">
            <path id="Path_1045340" data-name="Path 1045340" d="M19,46l-4.84,2.9-2.03-5.49L15,43Z" fill="#fc6e51"/>
          </g>
          <g id="Group_1206211" data-name="Group 1206211">
            <path id="Path_1045341" data-name="Path 1045341" d="M25.87,43.41,23.84,48.9,19,46l4-3Z" fill="#fc6e51"/>
          </g>
          <g id="Group_1206212" data-name="Group 1206212">
            <path id="Path_1045342" data-name="Path 1045342" d="M61,16l-6,4V12Z" fill="#ff826e"/>
          </g>
          <g id="Group_1206213" data-name="Group 1206213">
            <path id="Path_1045343" data-name="Path 1045343" d="M57,6l-6,4V2Z" fill="#ff826e"/>
          </g>
          <g id="Group_1206214" data-name="Group 1206214">
            <path id="Path_1045344" data-name="Path 1045344" d="M31,6v4L25,6l6-4Z" fill="#ff826e"/>
          </g>
          <g id="Group_1206215" data-name="Group 1206215">
            <path id="Path_1045345" data-name="Path 1045345" d="M13,15.23V16L7,12l6-4v7.23Z" fill="#ff826e"/>
          </g>
          <g id="Group_1206216" data-name="Group 1206216">
            <path id="Path_1045346" data-name="Path 1045346" d="M11,28a3,3,0,0,0-3,3L6.8,29.2a4.773,4.773,0,0,1,1.33-6.62L9,22,7.83,20.83a2.83,2.83,0,0,1,2-4.83H21.4a8.591,8.591,0,0,1,8.59,8.34,2.175,2.175,0,0,1,.01.26,8.609,8.609,0,0,1-.44,2.72l-.5,1.5A3.008,3.008,0,0,0,27,28H24.61A6.768,6.768,0,0,1,19,25a6.746,6.746,0,0,1-5.61,3H11Z" fill="#656d78"/>
          </g>
          <g id="Group_1206217" data-name="Group 1206217">
            <path id="Path_1045347" data-name="Path 1045347" d="M22.07,39.29,23,43l-4,3-4-3,.93-3.71a6.992,6.992,0,0,0,6.14,0Z" fill="#f0d0b4"/>
          </g>
          <g id="Group_1206218" data-name="Group 1206218">
            <path id="Path_1045348" data-name="Path 1045348" d="M27,28a3,3,0,0,1,0,6H25.92A5.547,5.547,0,0,0,26,33V28Z" fill="#f0d0b4"/>
          </g>
          <g id="Group_1206219" data-name="Group 1206219">
            <path id="Path_1045349" data-name="Path 1045349" d="M26,28v5a5.547,5.547,0,0,1-.08,1,6.939,6.939,0,0,1-3.85,5.29,6.992,6.992,0,0,1-6.14,0A6.965,6.965,0,0,1,12.08,34,5.546,5.546,0,0,1,12,33V28h1.39A6.746,6.746,0,0,0,19,25a6.768,6.768,0,0,0,5.61,3Z" fill="#f0d0b4"/>
          </g>
          <g id="Group_1206220" data-name="Group 1206220">
            <path id="Path_1045350" data-name="Path 1045350" d="M12,33a5.547,5.547,0,0,0,.08,1H11a3,3,0,0,1,0-6h1Z" fill="#f0d0b4"/>
          </g>
        </g>
        <g id="Group_1206222" data-name="Group 1206222">
          <path id="Path_1045351" data-name="Path 1045351" d="M60.423,36a3.06,3.06,0,0,1-2.152-5.2l1.823-1.823L53.02,21.907,51.2,23.73a2.954,2.954,0,0,1-1.2.727V18a1,1,0,0,1,1-1h3v4.868L62.8,16,54,10.132V15H51a3,3,0,0,0-3,3v6.4c-.049-.018-.1-.029-.147-.05A2.992,2.992,0,0,1,46,21.577V19H44V17H42v2H40V17H38v2H36v2.577a3.014,3.014,0,0,1-1.9,2.8c-.031.013-.064.02-.1.032V14a3,3,0,0,0-2-2.816V7h5a1,1,0,0,1,1,1v3h2V8a3,3,0,0,0-3-3H32V.132L23.2,6l7.5,5H14V6.132L5.2,12l4.517,3.011a3.822,3.822,0,0,0-2.593,6.524l.312.312a5.771,5.771,0,0,0-1.463,7.91l1.066,1.6A3.991,3.991,0,0,0,11,35h.263a8.011,8.011,0,0,0,3.511,4.78L14.192,42.1l-4.209.6a10.55,10.55,0,0,0-4.324,1.652A10.444,10.444,0,0,0,1,53.064V63H46V60.423a3.06,3.06,0,0,1,5.2-2.152l1.823,1.823,7.074-7.074L58.27,51.2A3.061,3.061,0,0,1,60.423,46H63V36ZM56,13.868,59.2,16,56,18.132ZM30,8.132,26.8,6,30,3.868ZM31,13a1,1,0,0,1,1,1V24.458a2.975,2.975,0,0,1-1.037-.592A9.611,9.611,0,0,0,21.4,15H14V13Zm5.952,39.285a10.463,10.463,0,0,0-.455-2.369,10.015,10.015,0,1,0-5.088-6.1,10.589,10.589,0,0,0-2.236-.87A12.21,12.21,0,0,1,29,41a12.039,12.039,0,1,1,7.952,11.285ZM23.268,44.048l1.234.176-1.183,3.2-2.53-1.518Zm4.465.639c.09.013.177.038.267.054v5.412l-3.788.632,2.317-6.27ZM19,47.166l3.614,2.169L19,59.114l-3.614-9.779ZM17.564,61H15.58l-3.274-5.729,2.458-1.844Zm5.671-7.574,2.458,1.844L22.42,61H20.436Zm5.072,1.3L25.47,52.6,30,51.848v-6.49a8.321,8.321,0,0,1,5,7.706V61H24.723ZM33.069,42H40v6.931A8.008,8.008,0,0,1,33.069,42ZM42,42h6.931A8.007,8.007,0,0,1,42,48.931Zm0-2V33.069A8.007,8.007,0,0,1,48.931,40Zm-2,0H33.069A8.007,8.007,0,0,1,40,33.069ZM27,41a14.236,14.236,0,0,0,.091,1.574L23.807,42.1l-.582-2.325A8.018,8.018,0,0,0,26.736,35H27a3.984,3.984,0,0,0,1.516-.3A13.89,13.89,0,0,0,27,41Zm0-12a2,2,0,0,1,0,4ZM12,9.868v4.264L8.8,12ZM8.681,23.415l1.889-1.26L8.536,20.121A1.828,1.828,0,0,1,9.828,17H21.4a7.6,7.6,0,0,1,7.213,10.008l-.1.293A3.977,3.977,0,0,0,27,27H24.6a5.723,5.723,0,0,1-4.773-2.555L19,23.2l-.832,1.248A5.724,5.724,0,0,1,13.395,27H11a4,4,0,0,0-3.3,1.746l-.066-.1a3.771,3.771,0,0,1,1.047-5.232ZM9,31a2,2,0,0,1,2-2v4A2,2,0,0,1,9,31Zm4,2V29h.4A7.717,7.717,0,0,0,19,26.6,7.719,7.719,0,0,0,24.6,29H25v4a6,6,0,0,1-12,0Zm6,8a7.99,7.99,0,0,0,2.379-.361l.489,1.96L19,44.75,16.131,42.6l.489-1.96A7.97,7.97,0,0,0,19,41Zm-4.268,3.048,2.479,1.859-2.53,1.518-1.183-3.2Zm-3.261.466,2.317,6.27L10,50.152V44.74c.089-.016.177-.041.267-.054ZM3,53.064a8.321,8.321,0,0,1,5-7.706v6.49l4.531.754L9.694,54.729,13.277,61H3ZM61,44h-.577a5.06,5.06,0,0,0-3.567,8.611l.409.409-4.246,4.246-.409-.409A5.059,5.059,0,0,0,44,60.423V61H37V54.416a14,14,0,1,0-6.025-23.168c0-.083.025-.163.025-.248a3.961,3.961,0,0,0-.814-2.393l.322-.967a9.7,9.7,0,0,0,.366-1.485,5.046,5.046,0,0,0,4.04.044A4.99,4.99,0,0,0,38,21.577V21h6v.577a5.06,5.06,0,0,0,8.611,3.567l.409-.409,4.246,4.246-.409.409A5.059,5.059,0,0,0,60.423,38H61Z"/>
          <path id="Path_1045352" data-name="Path 1045352" d="M44,8a1,1,0,0,1,1-1h5v4.868L58.8,6,50,.132V5H45a3,3,0,0,0-3,3v3h2Zm8-4.132L55.2,6,52,8.132Z"/>
          <path id="Path_1045353" data-name="Path 1045353" d="M42,13h2v2H42Z"/>
          <path id="Path_1045354" data-name="Path 1045354" d="M38,13h2v2H38Z"/>
        </g>
      </g>
    </g>
  </g>
</svg>
