<svg xmlns="http://www.w3.org/2000/svg" xmlns:xlink="http://www.w3.org/1999/xlink" width="113" height="113" viewBox="0 0 113 113">
  <defs>
    <filter id="Path_982547" x="0" y="0" width="113" height="113" filterUnits="userSpaceOnUse">
      <feOffset dy="3" input="SourceAlpha"/>
      <feGaussianBlur stdDeviation="3" result="blur"/>
      <feFlood flood-opacity="0.161"/>
      <feComposite operator="in" in2="blur"/>
      <feComposite in="SourceGraphic"/>
    </filter>
  </defs>
  <g id="Group_1206693" data-name="Group 1206693" transform="translate(-586.125 -812.023)">
    <g id="Group_1206170" data-name="Group 1206170">
      <g id="Group_1202700" data-name="Group 1202700" transform="translate(0 -1987.977)">
        <g id="Group_1202219" data-name="Group 1202219" transform="translate(595.125 2806)">
          <g id="Group_1178824" data-name="Group 1178824">
            <g id="Group_1177679" data-name="Group 1177679">
              <g id="Group_1172010" data-name="Group 1172010">
                <g id="Group_1171046" data-name="Group 1171046">
                  <g id="Group_1148525" data-name="Group 1148525">
                    <g transform="matrix(1, 0, 0, 1, -9, -6)" filter="url(#Path_982547)">
                      <g id="Path_982547-2" data-name="Path 982547" transform="translate(9 6)" fill="#fbedfe">
                        <path d="M 47.5 93.5 C 41.28937149047852 93.5 35.26533508300781 92.28397369384766 29.59518623352051 89.88570404052734 C 24.11771965026855 87.56893157958984 19.19813346862793 84.25196075439453 14.97309303283691 80.02691650390625 C 10.74804019927979 75.80186462402344 7.431066513061523 70.88229370117188 5.114293098449707 65.40481567382812 C 2.716026782989502 59.73468017578125 1.5 53.71062850952148 1.5 47.5 C 1.5 41.28937149047852 2.716026782989502 35.26533508300781 5.114293098449707 29.59518623352051 C 7.431066513061523 24.11771965026855 10.74804019927979 19.19813346862793 14.97309303283691 14.97309303283691 C 19.19813346862793 10.74804019927979 24.11771965026855 7.431066513061523 29.59518623352051 5.114293098449707 C 35.26533508300781 2.716026782989502 41.28937149047852 1.5 47.5 1.5 C 53.71062850952148 1.5 59.73468017578125 2.716026782989502 65.40481567382812 5.114293098449707 C 70.88229370117188 7.431066513061523 75.80186462402344 10.74804019927979 80.02691650390625 14.97309303283691 C 84.25196075439453 19.19813346862793 87.56893157958984 24.11771965026855 89.88570404052734 29.59518623352051 C 92.28397369384766 35.26533508300781 93.5 41.28937149047852 93.5 47.5 C 93.5 53.71062850952148 92.28397369384766 59.73468017578125 89.88570404052734 65.40481567382812 C 87.56893157958984 70.88229370117188 84.25196075439453 75.80186462402344 80.02691650390625 80.02691650390625 C 75.80186462402344 84.25196075439453 70.88229370117188 87.56893157958984 65.40481567382812 89.88570404052734 C 59.73468017578125 92.28397369384766 53.71062850952148 93.5 47.5 93.5 Z" stroke="none"/>
                        <path d="M 47.5 3 C 41.49121475219727 3 35.66376876831055 4.176155090332031 30.17950439453125 6.495796203613281 C 24.88084411621094 8.736953735351562 20.12152099609375 11.94598388671875 16.03375244140625 16.03375244140625 C 11.94598388671875 20.12152099609375 8.736953735351562 24.88084411621094 6.495796203613281 30.17950439453125 C 4.176155090332031 35.66376876831055 3 41.49121475219727 3 47.5 C 3 53.50878524780273 4.176155090332031 59.33623123168945 6.495796203613281 64.82049560546875 C 8.736953735351562 70.11915588378906 11.94598388671875 74.87847900390625 16.03375244140625 78.96624755859375 C 20.12152099609375 83.05401611328125 24.88084411621094 86.26304626464844 30.17950439453125 88.50419616699219 C 35.66376876831055 90.82384490966797 41.49121475219727 92 47.5 92 C 53.50878524780273 92 59.33623123168945 90.82384490966797 64.82049560546875 88.50419616699219 C 70.11915588378906 86.26304626464844 74.87847900390625 83.05401611328125 78.96624755859375 78.96624755859375 C 83.05401611328125 74.87847900390625 86.26304626464844 70.11915588378906 88.50419616699219 64.82049560546875 C 90.82384490966797 59.33623123168945 92 53.50878524780273 92 47.5 C 92 41.49121475219727 90.82384490966797 35.66376876831055 88.50419616699219 30.17950439453125 C 86.26304626464844 24.88084411621094 83.05401611328125 20.12152099609375 78.96624755859375 16.03375244140625 C 74.87847900390625 11.94598388671875 70.11915588378906 8.736953735351562 64.82049560546875 6.495796203613281 C 59.33623123168945 4.176155090332031 53.50878524780273 3 47.5 3 M 47.5 0 C 73.7335205078125 0 95 21.2664794921875 95 47.5 C 95 73.7335205078125 73.7335205078125 95 47.5 95 C 21.2664794921875 95 0 73.7335205078125 0 47.5 C 0 21.2664794921875 21.2664794921875 0 47.5 0 Z" stroke="none" fill="#7b3289"/>
                      </g>
                    </g>
                  </g>
                </g>
              </g>
            </g>
          </g>
        </g>
      </g>
      <g id="intelligence_2835261" transform="translate(611 834)">
        <g id="Group_1206188" data-name="Group 1206188">
          <g id="Group_1206171" data-name="Group 1206171">
            <path id="Path_1045269" data-name="Path 1045269" d="M55,2a7,7,0,1,1-6.4,9.84A6.917,6.917,0,0,1,48,9,7,7,0,0,1,55,2Z" fill="#ffc729"/>
          </g>
          <g id="Group_1206172" data-name="Group 1206172">
            <path id="Path_1045270" data-name="Path 1045270" d="M11.69,14.93A1.97,1.97,0,0,1,12,16a2,2,0,1,1-.31-1.07Z" fill="#fcd770"/>
          </g>
          <g id="Group_1206173" data-name="Group 1206173">
            <path id="Path_1045271" data-name="Path 1045271" d="M21,6a3,3,0,1,1-2.53,4.61A2.95,2.95,0,0,1,18,9,3,3,0,0,1,21,6Z" fill="#fcd770"/>
          </g>
          <g id="Group_1206174" data-name="Group 1206174">
            <path id="Path_1045272" data-name="Path 1045272" d="M39.74,15.78A2.934,2.934,0,0,1,40,17a3,3,0,1,1-.26-1.22Z" fill="#fcd770"/>
          </g>
          <g id="Group_1206175" data-name="Group 1206175">
            <circle id="Ellipse_12636" data-name="Ellipse 12636" cx="3" cy="3" r="3" transform="translate(52 6)" fill="#fcd770"/>
          </g>
          <g id="Group_1206176" data-name="Group 1206176">
            <path id="Path_1045273" data-name="Path 1045273" d="M31.83,24H45.76a.986.986,0,0,1,.24.03V30H32.02c-.01-.16-.02-.31-.02-.47V25a2.772,2.772,0,0,0-.18-1Z" fill="#ff826e"/>
          </g>
          <g id="Group_1206177" data-name="Group 1206177">
            <path id="Path_1045274" data-name="Path 1045274" d="M46,30v5.97a.986.986,0,0,1-.24.03H36a7.23,7.23,0,0,1-3.98-6Z" fill="#4fc1e9"/>
          </g>
          <g id="Group_1206178" data-name="Group 1206178">
            <path id="Path_1045275" data-name="Path 1045275" d="M8,25V36H6a4,4,0,0,1-4-4V28a4,4,0,0,1,4-4H8.18A2.772,2.772,0,0,0,8,25Z" fill="#aab2bd"/>
          </g>
          <g id="Group_1206179" data-name="Group 1206179">
            <path id="Path_1045276" data-name="Path 1045276" d="M55.11,28.55,52,27l-5.79-2.89a1.8,1.8,0,0,0-.21-.08V35.97a1.8,1.8,0,0,0,.21-.08L52,33l3.11-1.55a1.626,1.626,0,0,0,0-2.9Z" fill="#aab2bd"/>
          </g>
          <g id="Group_1206180" data-name="Group 1206180">
            <path id="Path_1045277" data-name="Path 1045277" d="M32.02,30A7.23,7.23,0,0,0,36,36v3.49a9.993,9.993,0,0,1-2.19,6.25L32,48H25.82a2.988,2.988,0,0,0-5.64,0H10a11.943,11.943,0,0,1-2-6.61V25a2.772,2.772,0,0,1,.18-1A3,3,0,0,1,14,25V23a3,3,0,0,1,6,0,3,3,0,0,1,6,0v2a3,3,0,0,1,5.12-2.12,2.838,2.838,0,0,1,.7,1.12A2.772,2.772,0,0,1,32,25v4.53C32,29.69,32.01,29.84,32.02,30Z" fill="#f0d0b4"/>
          </g>
          <g id="Group_1206181" data-name="Group 1206181">
            <path id="Path_1045278" data-name="Path 1045278" d="M30,56v6H12V56h6.68a2.014,2.014,0,0,0,1.84-1.21l1.3-3.03a3.021,3.021,0,0,0,2.36,0l1.3,3.03A2.014,2.014,0,0,0,27.32,56Z" fill="#b4dd7f"/>
          </g>
          <g id="Group_1206182" data-name="Group 1206182">
            <path id="Path_1045279" data-name="Path 1045279" d="M25.83,48H32v7a1,1,0,0,1-1,1H27.32a2.014,2.014,0,0,1-1.84-1.21l-1.3-3.03A3,3,0,0,0,26,49a2.772,2.772,0,0,0-.18-1Z" fill="#a0d468"/>
          </g>
          <g id="Group_1206183" data-name="Group 1206183">
            <path id="Path_1045280" data-name="Path 1045280" d="M21.82,51.76l-1.3,3.03A2.014,2.014,0,0,1,18.68,56H11a1,1,0,0,1-1-1V48H20.18A2.772,2.772,0,0,0,20,49a3,3,0,0,0,1.82,2.76Z" fill="#a0d468"/>
          </g>
          <g id="Group_1206184" data-name="Group 1206184">
            <path id="Path_1045281" data-name="Path 1045281" d="M25.82,48A2.772,2.772,0,0,1,26,49a3,3,0,0,1-1.82,2.76,3.021,3.021,0,0,1-2.36,0A3,3,0,0,1,20,49a2.772,2.772,0,0,1,.18-1,2.988,2.988,0,0,1,5.64,0Z" fill="#e6e9ed"/>
          </g>
          <g id="Group_1206185" data-name="Group 1206185">
            <path id="Path_1045282" data-name="Path 1045282" d="M56,40h6V62H56Z" fill="#ffeaa7"/>
          </g>
          <g id="Group_1206186" data-name="Group 1206186">
            <path id="Path_1045283" data-name="Path 1045283" d="M46,54h6v8H46Z" fill="#ffeaa7"/>
          </g>
          <g id="Group_1206187" data-name="Group 1206187">
            <path id="Path_1045284" data-name="Path 1045284" d="M36,50h6V62H36Z" fill="#ffeaa7"/>
          </g>
        </g>
        <g id="Group_1206189" data-name="Group 1206189">
          <path id="Path_1045285" data-name="Path 1045285" d="M37,39.492V37h8.764a2.016,2.016,0,0,0,.9-.211l8.9-4.447a2.619,2.619,0,0,0,0-4.684l-8.9-4.447A2.012,2.012,0,0,0,45.764,23H32.444a3.975,3.975,0,0,0-5.683-1.313A3.964,3.964,0,0,0,20,20.382a3.964,3.964,0,0,0-6.761,1.305A3.975,3.975,0,0,0,7.556,23H6a5.006,5.006,0,0,0-5,5v4a5.006,5.006,0,0,0,5,5H7v4.4a12.86,12.86,0,0,0,2,6.887V55a2,2,0,0,0,2,2v6H31V57a2,2,0,0,0,2-2V48.352l1.59-1.987A11.048,11.048,0,0,0,37,39.492ZM6,35a3,3,0,0,1-3-3V28a3,3,0,0,1,3-3H7V35Zm41-9.382,4,2v4.764l-4,2ZM45,35H36.268a6.176,6.176,0,0,1-3.082-4H45Zm10-5a.615.615,0,0,1-.342.553L53,31.382V28.618l1.658.829A.615.615,0,0,1,55,30ZM45,25v4H33V25ZM20.563,52.149,19.6,54.393a1,1,0,0,1-.919.607H11V49h8a3.978,3.978,0,0,0,1.563,3.149ZM23,51a2,2,0,1,1,2-2A2,2,0,0,1,23,51Zm6,10H13V57h5.682a3,3,0,0,0,2.757-1.818L22.4,52.94A4.079,4.079,0,0,0,23,53a3.947,3.947,0,0,0,.6-.061l.961,2.243A3,3,0,0,0,27.318,57H29Zm2-6H27.318a1,1,0,0,1-.919-.6l-.962-2.245A3.982,3.982,0,0,0,27,49h4Zm.519-8H26.444a3.965,3.965,0,0,0-6.888,0h-9A10.866,10.866,0,0,1,9,41.4V25a2,2,0,1,1,4,0v8h2V23a2,2,0,1,1,4,0V33h2V23a2,2,0,1,1,4,0V33h2V25a2,2,0,1,1,4,0v4.528a8.188,8.188,0,0,0,4,7.064v2.9a9.024,9.024,0,0,1-1.973,5.622Z"/>
          <path id="Path_1045286" data-name="Path 1045286" d="M55,61H53V53H45v8H43V49H35V63H63V39H55ZM41,61H37V51h4Zm6-6h4v6H47ZM57,41h4V61H57Z"/>
          <path id="Path_1045287" data-name="Path 1045287" d="M55,13a4,4,0,1,0-4-4A4,4,0,0,0,55,13Zm0-6a2,2,0,1,1-2,2A2,2,0,0,1,55,7Z"/>
          <path id="Path_1045288" data-name="Path 1045288" d="M10,19a3,3,0,0,0,3-3,2.963,2.963,0,0,0-.082-.671l5.363-3.413a3.949,3.949,0,0,0,5.719-.3l9.091,4.546A4,4,0,1,0,41,17a4.026,4.026,0,0,0-.066-.654l7.229-3.213a7.905,7.905,0,1,0-.82-1.824l-7.228,3.212A3.949,3.949,0,0,0,34,14.382L24.909,9.836a4.006,4.006,0,1,0-7.7.389l-5.375,3.421A2.966,2.966,0,0,0,10,13a3,3,0,0,0,0,6ZM55,3a6,6,0,1,1-6,6A6.006,6.006,0,0,1,55,3ZM37,15a2,2,0,1,1-2,2A2,2,0,0,1,37,15ZM21,7a2,2,0,1,1-2,2A2,2,0,0,1,21,7ZM10,15a1,1,0,1,1-1,1A1,1,0,0,1,10,15Z"/>
          <path id="Path_1045289" data-name="Path 1045289" d="M51,21h2v2H51Z"/>
          <path id="Path_1045290" data-name="Path 1045290" d="M55,21h2v2H55Z"/>
          <path id="Path_1045291" data-name="Path 1045291" d="M59,21h2v2H59Z"/>
        </g>
      </g>
    </g>
  </g>
</svg>
